<?xml version="1.0" standalone="no"?>
<!DOCTYPE svg PUBLIC "-//W3C//DTD SVG 1.1//EN" "http://www.w3.org/Graphics/SVG/1.1/DTD/svg11.dtd" >
<svg>
<metadata>
Created by FontForge 20090622 at Thu Mar  1 13:20:46 2018
 By deploy user
Copyright (c) 2015 by Studio Kmzero. All rights reserved.
</metadata>
<defs>
<font id="CocoGothic-UltraLight" horiz-adv-x="189" >
  <font-face 
    font-family="Coco Gothic ExtLt"
    font-weight="200"
    font-stretch="normal"
    units-per-em="1000"
    panose-1="2 0 5 6 0 0 0 2 0 4"
    ascent="800"
    descent="-200"
    x-height="488"
    cap-height="743"
    bbox="-470 -296.062 1336 1082"
    underline-thickness="50"
    underline-position="-50"
    unicode-range="U+000D-U+FB06"
  />
<missing-glyph horiz-adv-x="313" 
d="M349 38q-33 -9 -68 -9q-54 0 -100.5 20.5t-80 55t-53 80.5t-19.5 97q0 54 20.5 100.5t55 80.5t80.5 53.5t97 19.5q55 0 101.5 -21t80 -56t52.5 -81t19 -96q0 -46 -14.5 -85.5t-39.5 -71t-58.5 -53.5t-72.5 -34zM342 506q-27 9 -61 9q-50 0 -92.5 -19t-73.5 -51t-48.5 -74
t-17.5 -89t18 -89.5t49 -74.5t73.5 -51t91.5 -19q48 0 90.5 18.5t74 50t50 74t18.5 91.5q0 43 -13.5 79.5t-37 65.5t-55 49t-66.5 30zM141 125h281q-29 -24 -64.5 -38.5t-76.5 -14.5t-76 14.5t-64 38.5zM397 415l-273 -274q-25 29 -38.5 64.5t-13.5 76.5q0 38 12 71.5
t35 61.5h278zM420 438h-280q29 26 64.5 40t76.5 14t76.5 -14.5t62.5 -39.5zM490 282q0 -38 -12 -72t-35 -62h-279l273 275q53 -67 53 -141z" />
    <glyph glyph-name="ff" unicode="ff" horiz-adv-x="618" 
d="M567 490q16 0 16 -14q0 -16 -16 -16h-105v-448q0 -14 -16 -14q-14 0 -14 14v448h-278v-448q0 -14 -16 -14q-14 0 -14 14v448h-73q-14 0 -14 16q0 14 14 14h73v106q0 42 12 70.5t32.5 45.5t47 24t56.5 7q18 0 18 -16q0 -8 -6 -11t-11 -3q-54 1 -86.5 -28.5t-32.5 -92.5
v-102h278v106q0 42 12 70.5t32.5 45.5t47 24t56.5 7q18 0 18 -16q0 -8 -6 -11t-11 -3q-54 1 -86.5 -28.5t-32.5 -92.5v-102h105z" />
    <glyph glyph-name="fi" unicode="fi" horiz-adv-x="497" 
d="M141 490h262q7 0 12 -5q3 -3 3 -9q0 -4 -1 -5v-457q0 -14 -14 -14q-15 0 -15 14v446h-247v-448q0 -14 -16 -14q-14 0 -14 14v448h-73q-14 0 -14 16q0 14 14 14h73v106q0 42 12 70.5t32.5 45.5t47 24t56.5 7q18 0 18 -16q0 -8 -6 -11t-11 -3q-54 1 -86.5 -28.5
t-32.5 -92.5v-102zM372 636q0 12 8.5 21t21.5 9q12 0 21 -9t9 -21q0 -13 -9 -21.5t-21 -8.5q-13 0 -21.5 8.5t-8.5 21.5z" />
    <glyph glyph-name="ffi" unicode="ffi" horiz-adv-x="805" 
d="M449 490h261q14 0 15 -12v-464q0 -14 -14 -14q-15 0 -15 14v446h-247v-448q0 -14 -16 -14q-14 0 -14 14v448h-278v-448q0 -14 -16 -14q-14 0 -14 14v448h-73q-14 0 -14 16q0 14 14 14h73v106q0 42 12 70.5t32.5 45.5t47 24t56.5 7q18 0 18 -16q0 -8 -6 -11t-11 -3
q-54 1 -86.5 -28.5t-32.5 -92.5v-102h278v106q0 42 12 70.5t32.5 45.5t47 24t56.5 7q18 0 18 -16q0 -8 -6 -11t-11 -3q-54 1 -86.5 -28.5t-32.5 -92.5v-102zM680 636q0 12 8.5 21t21.5 9q12 0 21 -9t9 -21q0 -13 -9 -21.5t-21 -8.5q-13 0 -21.5 8.5t-8.5 21.5z" />
    <glyph glyph-name=".notdef" horiz-adv-x="313" 
d="M349 38q-33 -9 -68 -9q-54 0 -100.5 20.5t-80 55t-53 80.5t-19.5 97q0 54 20.5 100.5t55 80.5t80.5 53.5t97 19.5q55 0 101.5 -21t80 -56t52.5 -81t19 -96q0 -46 -14.5 -85.5t-39.5 -71t-58.5 -53.5t-72.5 -34zM342 506q-27 9 -61 9q-50 0 -92.5 -19t-73.5 -51t-48.5 -74
t-17.5 -89t18 -89.5t49 -74.5t73.5 -51t91.5 -19q48 0 90.5 18.5t74 50t50 74t18.5 91.5q0 43 -13.5 79.5t-37 65.5t-55 49t-66.5 30zM141 125h281q-29 -24 -64.5 -38.5t-76.5 -14.5t-76 14.5t-64 38.5zM397 415l-273 -274q-25 29 -38.5 64.5t-13.5 76.5q0 38 12 71.5
t35 61.5h278zM420 438h-280q29 26 64.5 40t76.5 14t76.5 -14.5t62.5 -39.5zM490 282q0 -38 -12 -72t-35 -62h-279l273 275q53 -67 53 -141z" />
    <glyph glyph-name=".null" horiz-adv-x="0" 
 />
    <glyph glyph-name=".null" horiz-adv-x="0" 
 />
    <glyph glyph-name="nonmarkingreturn" unicode="&#xd;" horiz-adv-x="250" 
 />
    <glyph glyph-name="space" unicode=" " horiz-adv-x="313" 
 />
    <glyph glyph-name="exclam" unicode="!" horiz-adv-x="193" 
d="M81 729q0 15 14 15t14 -15v-522q0 -15 -14 -15t-14 15v522zM67 25q0 12 8.5 21t21.5 9q12 0 21 -9t9 -21q0 -13 -9 -21.5t-21 -8.5q-13 0 -21.5 8.5t-8.5 21.5z" />
    <glyph glyph-name="quotedbl" unicode="&#x22;" horiz-adv-x="280" 
d="M79 727q0 15 15 15q14 0 14 -15v-150q0 -15 -14 -15q-15 0 -15 15v150zM176 727q0 15 14 15q15 0 15 -15v-150q0 -15 -15 -15q-14 0 -14 15v150z" />
    <glyph glyph-name="numbersign" unicode="#" horiz-adv-x="517" 
d="M398 729q1 14 16 14q14 0 13 -14l-31 -210h88q15 0 15 -14t-15 -14h-92l-33 -226h88q16 0 16 -14q0 -15 -16 -15h-92l-32 -222q-1 -14 -16 -14t-12 14l32 222h-185l-32 -222q-1 -14 -16 -14t-12 14l32 222h-79q-14 0 -14 15q0 14 14 14h83l33 226h-79q-15 0 -15 14t15 14
h83l30 210q1 14 16 14q14 0 13 -14l-31 -210h185zM146 265h185l33 226h-185z" />
    <glyph glyph-name="dollar" unicode="$" horiz-adv-x="641" 
d="M46 116q0 15 14 15q5 0 7.5 -2.5t6.5 -7.5q39 -49 95.5 -76t137.5 -27q50 0 95.5 9.5t80.5 31.5t56 57t21 87q0 47 -26 76t-64.5 47t-82 27.5t-79.5 16.5q-127 24 -186.5 67t-59.5 120q0 89 64 139t171 55v63q0 15 14 15t14 -15v-63q69 -1 122.5 -19t101.5 -66
q4 -4 4 -6.5v-5.5q0 -13 -13 -13q-6 0 -18 11q-22 19 -42.5 32.5t-43.5 21.5t-50.5 12t-65.5 4q-111 0 -170 -45.5t-59 -119.5q0 -37 18.5 -63.5t49.5 -45t71.5 -30.5t83.5 -21l91.5 -20t89 -31.5t67 -54.5t26.5 -88t-20.5 -93.5t-56 -65.5t-83.5 -39t-103 -15v-67
q0 -14 -14 -14t-14 14v67q-72 2 -134.5 26t-110.5 87l-4.5 6t-1.5 7z" />
    <glyph glyph-name="percent" unicode="%" horiz-adv-x="819" 
d="M638 736q7 10 12 10q11 0 14.5 -7.5t-2.5 -15.5l-490 -717q-3 -8 -9 -8q-8 0 -13 4.5t-5 8.5q0 1 2 7zM47 571q0 40 15 75t41.5 61t61.5 41t75 15t75 -15t61 -41t41 -61t15 -75t-15 -75t-41 -61.5t-61 -41.5t-75 -15t-75 15t-61.5 41.5t-41.5 61.5t-15 75zM75 571
q0 -35 12.5 -65t35 -52.5t52.5 -35t65 -12.5t64.5 12.5t51.5 35t34.5 52.5t12.5 65t-12.5 64.5t-34.5 52t-51.5 35t-64.5 12.5t-65 -12.5t-52.5 -35t-35 -52t-12.5 -64.5zM391 181q0 40 15 75t41.5 61.5t61.5 41.5t75 15t75 -15t61 -41.5t41 -61.5t15 -75t-15 -75t-41 -61
t-61 -41t-75 -15t-75 15t-61.5 41t-41.5 61t-15 75zM419 181q0 -34 12.5 -64.5t35 -52.5t52.5 -35t65 -13t64.5 13t52 35t35 52.5t12.5 64.5q0 35 -12.5 65t-35 52t-52 34.5t-64.5 12.5t-65 -12.5t-52.5 -34.5t-35 -52t-12.5 -65z" />
    <glyph glyph-name="ampersand" unicode="&#x26;" horiz-adv-x="838" 
d="M327 433q12 -3 12 -12q0 -16 -13 -16q-4 0 -6 1l-20 5q-7 3 -24 3q-43 0 -77.5 -14t-57.5 -39t-35.5 -59t-12.5 -73q0 -46 20.5 -84.5t52.5 -66.5t71.5 -43.5t77.5 -15.5q44 0 84 16t70 44.5t47.5 67t17.5 82.5v4l-67 18q-19 6 -35 6q-38 0 -74 -20q-6 -3 -12 -3
q-5 0 -8.5 3t-3.5 10q0 9 11 16t26 12t31.5 8t26.5 3q21 0 42 -6l162 -44q1 -1 5 -1q21 -7 44 -7q45 0 81 27.5t48 76.5q2 4 6 8.5t10 4.5q14 0 14 -15q0 -4 -1 -6q-15 -54 -55.5 -90t-98.5 -36q-26 0 -51 7l-70 20q-1 -49 -21.5 -92t-55 -74.5t-79 -49.5t-93.5 -18
q-50 0 -95.5 18.5t-80 51t-55 76t-20.5 93.5q0 41 12 76.5t33 62t50 43.5t63 22q-48 17 -72 57t-24 89q0 43 15 74.5t41 51.5t60 30t73 10t73 -12t59.5 -35t40 -55.5t14.5 -74.5q0 -8 -4.5 -12.5t-9.5 -4.5t-9.5 4.5t-4.5 12.5q0 35 -12 62t-33.5 46.5t-50 29.5t-61.5 10
q-70 0 -116 -34t-46 -103q0 -52 26 -83.5t68 -43.5z" />
    <glyph glyph-name="quotesingle" unicode="'" 
d="M81 727q0 14 14 14t14 -14v-151q0 -14 -14 -14t-14 14v151z" />
    <glyph glyph-name="parenleft" unicode="(" horiz-adv-x="301" 
d="M237 871q5 0 9.5 -4.5t4.5 -9.5q0 -3 -3 -8q-66 -106 -102 -227.5t-36 -255.5q0 -133 35.5 -255t102.5 -228q3 -3 3 -7q0 -6 -4.5 -10t-9.5 -4q-7 0 -12 6q-69 109 -105.5 235t-36.5 263q0 138 36.5 263t105.5 235q5 7 12 7z" />
    <glyph glyph-name="parenright" unicode=")" horiz-adv-x="310" 
d="M59 871q7 0 12 -7q34 -54 60.5 -112.5t44.5 -121.5t27.5 -129t9.5 -135t-9.5 -134.5t-27.5 -128.5q-36 -125 -105 -235q-4 -6 -12 -6q-2 0 -8 2q-5 3 -6 8.5t2 10.5q33 53 59 110t43 118q36 122 36 255q0 135 -36 256q-17 61 -43 117.5t-59 109.5q-7 12 4 19q5 3 8 3z
" />
    <glyph glyph-name="asterisk" unicode="*" horiz-adv-x="491" 
d="M322 456q0 -7 -2 -7l-67 -114h139q12 -2 12 -13q0 -12 -13 -12h-133l70 -124q3 -3 3 -8q0 -13 -13 -13q-5 0 -9 4l-2 2q-7 13 -17 30l-20 34.5l-19.5 33.5t-17.5 28l-17 -28l-20 -33.5l-19.5 -34.5t-17.5 -30l-2 -2q-4 -4 -9 -4q-12 0 -12 13q0 5 3 8l70 124h-134
q-12 0 -12 12q0 11 11 13h139l-67 114v2q-1 3 -1 5q0 12 12 12q6 0 10 -4l66 -116l67 116q3 4 9 4q13 0 13 -12z" />
    <glyph glyph-name="plus" unicode="+" horiz-adv-x="450" 
d="M231 159q0 -16 -14 -16q-15 0 -15 16v147h-146q-14 0 -14 14q0 15 14 15h146v146q0 14 15 14q14 0 14 -14v-146h147q16 0 16 -15q0 -14 -16 -14h-147v-147z" />
    <glyph glyph-name="comma" unicode="," horiz-adv-x="196" 
d="M68 25q0 12 8.5 21t21.5 9q12 0 20.5 -8.5t9.5 -20.5v-21q0 -31 -11 -48t-19 -17q-3 0 -5 2l-6 5q-2 4 -2 5q0 5 7.5 13t7.5 23v7h-2q-13 0 -21.5 8.5t-8.5 21.5z" />
    <glyph glyph-name="hyphen" unicode="-" horiz-adv-x="517" 
d="M416 289q16 0 16 -14q0 -15 -16 -15h-322q-14 0 -14 15q0 14 14 14h322z" />
    <glyph glyph-name="period" unicode="." horiz-adv-x="196" 
d="M68 25q0 12 8.5 21t21.5 9q12 0 21 -9t9 -21q0 -13 -9 -21.5t-21 -8.5q-13 0 -21.5 8.5t-8.5 21.5z" />
    <glyph glyph-name="slash" unicode="/" horiz-adv-x="363" 
d="M299 736q4 14 18 8q14 -5 8 -17l-281 -721q-7 -11 -18 -5q-14 4 -8 17z" />
    <glyph glyph-name="zero" unicode="0" horiz-adv-x="1236" 
d="M1210 533v-286h-1174v286h445q0 15 3 29q2 13 8 26t14 25q7 12 18 21q18 19 44 30q14 6 28 9q13 2 27 2q16 0 30 -3t26 -9q14 -6 26 -14q11 -8 20 -17q18 -18 30 -46q10 -26 10 -53h445zM503 582q-11 -23 -11 -49q0 -28 11 -51q5 -11 12 -22t15 -20q9 -9 20 -16
q10 -7 22 -12q23 -11 51 -11q14 0 27 2q12 2 24 7q12 6 22 13q10 6 19 16q9 9 16 20q7 10 13 21q11 25 11 53q0 11 -2 23q-2 11 -7 21q-6 20 -20 37q-7 8 -15 15t-16 12l-18 10l-20 8q-7 2 -15 3q-9 1 -19 1q-14 0 -27 -2q-13 -3 -25 -9q-24 -9 -42 -28q-8 -9 -14 -20z
M144 337q3 5 3 9v5q-1 2 -3 5q0 1 -2 3l-3 3l-2 4q-2 1 -5 1l-4 2q-3 1 -5 1h-26v-75h8v28h18q2 0 5 1q2 0 4 1q5 2 7 4q1 2 3 4zM200 370h-46v-75h46v9h-35v23h29v10h-29v22h35v11zM273 295l-23 32q1 1 3 1q1 0 2 2q4 2 5 5q1 1 2 3q1 1 2 3v6v5q0 2 -1 4q-2 4 -5 7
q-2 4 -7 4q-1 1 -3 2q-3 1 -5 1h-27v-75h11v31h11l20 -27q1 -2 3 -3q1 -1 2 -1h3h7zM324 308q0 2 1 4v4q0 6 -2 10t-6 7q-1 0 -1 1q-1 1 -3 2v0q-1 0 -3 1h-1q-1 0 -1 2q-3 0 -4 1q-3 0 -4 1l-3 1q-4 1 -4 2q-3 2 -3 3v4v4q1 0 2 1t1 2l2 1h2q2 1 3 1h2h1q1 -1 2 -1
q4 0 4 -2q1 -1 2 -1h2q4 0 7 2l2 1q0 1 -1 2l-2 2q-2 1 -3 2t-3 2q-1 0 -2 1q-1 0 -3 2q-3 0 -3 1h-3h-4q-3 -1 -5 -1l-3 -3q-2 -1 -4 -1q-1 -2 -2 -3q-2 -2 -3 -4t-1 -3q-1 -2 -1 -5v-4q0 -2 2 -4q1 -2 3 -3q1 -2 1 -3l4 -2q2 -2 4 -2l4 -2q1 -1 3 -2q1 -1 3 -1h2
q3 -1 4 -1l1 -1l2 -1q0 -1 1 -3q1 -1 1 -2v-4v-1q0 -2 -1 -3l-1 -2q0 -1 -2 -2q-1 -2 -2 -2q-2 -1 -3 -2h-2h-3h-3h-3l-2 2q-2 0 -2 2l-1 1q-3 2 -6 2h-2q-1 0 -2 -1l-3 -1q0 -2 1 -2q0 -2 2 -3q0 -1 1 -2l1 -1h1q4 -4 9 -5q4 -1 9 -1h5q2 0 4 1t5 2q2 1 3 3q3 1 5 3z
M409 322q1 3 1 5v5q0 6 -1 10q0 3 -1 5q-2 2 -3 5q-2 3 -6 7q-2 2 -4 3t-5 4q-1 0 -3 1t-5 3q-3 0 -5 1h-5h-5q-3 -1 -5 -1q-3 -2 -5 -3t-4 -1q-2 -3 -4 -4t-4 -3l-3 -3q-2 -2 -3 -4q-2 -3 -2 -5q-1 -2 -2 -5q-1 -4 -1 -10q0 -4 1 -7l2 -8q1 -3 3 -6t5 -7l6 -4q3 -2 7 -2
q6 -3 14 -3h5h5q5 2 8 4q7 3 9 5q3 4 6 9q1 2 3 5zM487 370h-10v-58v3l-1 1l-36 51q-2 0 -4 3h-2h-2h-7v-75h10v61l1 -1v-2l43 -58h8v75zM571 295l-33 75h-11l-32 -75h6q3 0 4 1l2 2l2 1l4 13h39l5 -13q1 -2 3 -3q0 -1 4 -1h7zM620 304h-32v66h-11v-75h43v9zM722 370h-10
v-45v-5q0 -2 -1 -4q-1 -4 -5 -6l-2 -2q-2 -1 -3 -3q-3 -1 -4 -1h-4q-5 0 -7 1q-3 2 -5 3t-2 2q-1 1 -2 3l-3 3v4q-1 2 -1 5v45h-10v-45v-5q0 -3 1 -4q0 -4 2 -7q2 -5 6 -7q1 -1 3 -2q1 -1 3 -2q1 -1 3 -1q2 -1 3 -2q3 0 5 -1q1 -1 4 -1q2 0 4 1q1 1 4 1l4 2q1 0 3 1l6 4
q2 2 3 4q0 1 1 3l3 3q1 2 1 4v9v45zM780 308q3 4 3 8q0 6 -2 10t-6 7q-3 2 -3 3h-2q-2 0 -3 1h-1q-2 0 -3 2h-1q-1 0 -2 1q-1 0 -2 1l-3 1q-4 1 -4 2q-2 1 -2 2q-1 1 -2 1v2q-1 0 -1 2t2 4l3 3q1 0 2 1h2q0 1 5 1h1q1 -1 2 -1q1 -1 4 -2q4 -1 5 -1q3 0 4 2l3 1l-2 2l-2 2
q0 1 -1 2q-2 1 -3 2q-2 0 -3 1q-1 0 -3 2q-2 0 -3 1h-2h-5q-2 -1 -4 -1q-2 -2 -4 -3t-3 -1l-3 -3q-1 -2 -3 -4q0 -2 -1 -3q-1 -2 -1 -5t1 -4q1 -2 1 -4q2 -4 5 -6l4 -2q1 -2 2 -2q3 -1 5 -2q1 -1 3 -2t3 -1h2q1 -1 3 -1q1 0 2 -1t3 -1q1 -1 1 -3q1 -1 1 -2v-4v-1q0 -2 -1 -3
q-1 -3 -4 -4q-2 -2 -3 -2l-2 -2h-2h-3h-3h-3q-2 1 -5 4v1q-3 2 -6 2h-1q-2 0 -3 -1l-3 -1l1 -1q0 -1 1 -1q0 -1 1 -1v-2h1v-2q2 -1 3 -1q3 -4 8 -5q4 -1 9 -1h5q2 0 5 1l4 2q2 1 4 3l3 3zM841 370h-46v-75h46v9h-36v23h30v10h-30v22h36v11zM960 322v5v5v6v4q-2 5 -5 10
q-2 3 -6 7q-1 2 -3 3t-4 4q-2 0 -4 1q-3 1 -5 3q-3 0 -5 1h-5h-5q-3 -1 -5 -1q-6 -3 -10 -4q-2 -3 -3 -4q-2 -1 -4 -3l-3 -3l-4 -4q-1 -3 -2 -5t-1 -5q-2 -4 -2 -10q0 -4 1 -7l2 -8q3 -7 9 -13q2 -2 5 -4t7 -2q6 -3 15 -3h5h5q2 1 5 2l4 2q2 2 4 3t3 2q4 4 6 9zM1038 370
h-11v-58v3q-1 1 -2 1l-36 51v1q-1 0 -2 2h-2h-3h-8v-75h12v59l1 -1l42 -58h9v75zM1099 304h-32v66h-11v-75h43v9zM1159 370h-9q-2 0 -4 -2q-4 -2 -4 -4l-17 -23l-1 -1h-1l-1 1l-18 23q-1 2 -3 4t-5 2h-8l27 -37l1 -1q0 -1 1 -1v-1v-1q0 -1 1 -1v-1v-32h11v32v1v2q1 0 1 2v1
h1zM942 352l4 -4q2 -3 3 -5q0 -3 1 -5v-6q0 -6 -1 -11q-1 -3 -3 -5t-4 -3q-2 -2 -4 -3l-4 -4q-6 -2 -11 -2q-3 0 -6 1q-3 0 -5 1q-3 2 -5 4q-2 1 -4 3q-2 1 -3 3q-2 2 -2 5q-2 3 -2 6q-1 2 -1 5q0 5 3 11q0 2 2 5q1 2 3 4l4 4q2 1 5 2q4 2 11 2h5l6 -2l4 -2zM253 343
q0 -1 -2 -4q-1 0 -1 -1q-1 -1 -3 -1q-1 -1 -4 -1h-16v23h16q2 0 4 -1h3l1 -2l2 -4q1 -1 1 -5zM391 352l4 -4q2 -3 3 -5q1 -3 2 -5v-6v-5l-2 -6t-3 -5t-4 -3q-1 -2 -3 -3q-2 -2 -5 -4q-2 -1 -5 -1q-3 -1 -6 -1q-6 0 -11 2l-4 4q-3 1 -5 3l-3 3q-2 2 -3 5l-2 6q-1 2 -1 5
q0 5 3 11q1 2 3 5q2 2 3 4q2 2 5 4l4 2l6 2h5q6 0 11 -2q3 -1 5 -2zM532 358q0 -2 1 -3v-2l14 -31h-29l14 31v2v3zM132 356l2 -2q0 -2 1 -3q1 -2 1 -5v-2q0 -2 -1 -3t-1 -2q-1 -2 -2 -2l-4 -4h-5h-18v26h18q3 0 5 -1q1 0 3 -1zM580 422q-9 4 -18 10q-10 5 -17 12h157
q-8 -7 -17 -12q-9 -6 -19 -10l-21 -6t-22 -3q-12 0 -22 3zM557 457l154 155q14 -19 22 -39t8 -40q0 -11 -1 -21q-2 -11 -6 -21q-4 -9 -9 -17q-5 -9 -11 -17h-157zM534 453q-13 17 -22 36q-3 10 -5 21t-2 23q0 10 2 20t5 20q3 9 8 18q5 8 12 16h156zM666 642q10 -4 19 -10
l16 -11h-158q18 14 37 21q19 9 43 9zM38 171q-2 2 -2 4l-2 4q-1 3 -1 5q-1 2 -1 5t2 8q1 2 2 5q0 2 2 3l2 5q0 1 3 3q0 1 3 3q2 1 3 2q3 2 5 3l4 1q1 0 4 1h5h7q3 -1 7 -3q4 -1 7 -3l4 -4q-1 -1 -2 -1v-2h-1h-1h-2h-3q-2 1 -4 3q-2 1 -4 1h-3h-5h-5h-4l-6 -3q-2 -2 -4 -3
q-2 -3 -3 -5q-2 -2 -3 -4q-2 -3 -2 -6v-4q0 -4 1 -7l2 -4v-4q1 -1 3 -2q1 -1 2 -3q2 -1 3 -2q1 -2 3 -2q1 -1 3 -2t4 -1q1 -1 3 -1h3h5q2 0 4 1q2 0 5 1l4 2v14h-6h-1l-1 1l-1 2l-2 1v1q-1 0 -1 1v1v1h19v-26l-2 -2l-3 -3q-3 -1 -6 -1q-3 -1 -7 -1h-7h-5h-4q-3 1 -4 2l-5 3
q-1 0 -3 2q-3 1 -3 3q-3 1 -3 3zM117 214v-22h27v-7h-27v-23h33v-8h-41v68h41v-8h-33zM180 154v60h-22v8h52v-8h-23v-60h-7zM260 214v-24h29v-6h-29v-30h-8v68h41v-8h-33zM313 222v-42q0 -2 1 -3q1 -2 2 -3q1 -3 3 -4l2 -4q0 -1 2 -2l2 -2q3 -1 5 -1h4h4q1 0 2 1q3 1 5 2
q1 1 3 2q0 2 2 4q1 1 2 4q2 2 2 6v42h7v-42v-5q-1 -2 -2 -5t-2 -5l-4 -4t-4 -3q-2 -2 -4 -3q-6 -1 -11 -1q-6 0 -12 1l-3 3q-3 1 -5 3q-3 3 -5 9q-1 3 -2 5t-1 5v42h7zM383 222v-60h30v-8h-38v68h8zM428 222v-60h32v-8h-39v68h7zM522 154l-30 68h4q2 0 4 -1q1 -1 2 -1l1 -2
l21 -51v-2q1 -1 1 -3v3l1 1v1q3 7 6 13l6 12q2 8 5 14l6 12q0 2 1 2t1 1q1 1 2 1h2h4q-4 -8 -7 -16q-4 -9 -9 -17q-3 -10 -6 -18q-4 -8 -8 -17h-7zM572 214v-22h28v-7h-28v-23h33v-8h-41v68h41v-8h-33zM655 186q-1 -1 -5 -2l23 -30h-5q-1 0 -2 1h-2l-2 2q-1 0 -2 2l-19 25
h-12v-30h-7v68h25h3q1 0 3 -1q4 -1 7 -4q1 -2 2 -3l2 -4q1 -1 1 -3v-3v-4q0 -2 -1 -3q0 -2 -1 -4t-2 -3l-2 -2zM647 190q2 0 3 2q1 0 2 1h2l2 3q0 1 1 2q0 1 1 2v4v1q-1 1 -1 3l-1 2q-1 0 -2 2q-1 0 -2 1q-1 0 -2 1h-3h-18v-24h18zM709 164q1 1 2 4q1 1 2 3v3q0 3 -1 5
q-1 0 -1 2l-2 2t-4 2q-2 0 -3 1l-3 1q-2 0 -4 1t-2 2q-5 0 -7 3q-2 0 -2 2q-1 2 -2 3v7v5q0 1 1 3q0 3 4 5l3 3q1 0 4 1q2 0 3 1h4h3q1 -1 2 -1h2l3 -2q1 0 2 -1t1 -2q2 -1 3 -2q0 -1 1 -1l-2 -1q-1 -1 -4 -1h-3q-2 1 -2 2h-1h-1h-1h-1h-1h-1h-4q-4 0 -4 -1q-3 -3 -3 -4
q-2 0 -2 -4q0 -3 2 -3q0 -2 1 -3t3 -1l1 -1q2 -2 3 -2t4 -2h2q1 0 1 -1h2q1 0 2 -2h1h1v0h2l1 -1l3 -3q1 -2 3 -3q1 -5 1 -9v-5q0 -2 -3 -4q0 -3 -4 -6q-1 -1 -3 -2l-4 -2q-2 -1 -4 -1h-5q-5 0 -8 1q-4 1 -7 4q-1 0 -2 1l-2 2v2l-1 1l1 1l1 1h2h1h2l2 -2q2 -1 3 -2t3 -1
q0 -1 2 -1h3q4 0 5 1zM744 222v-68h-8v68h8zM771 164q-6 4 -9 10q-2 7 -2 15v4v4q3 5 4 8q3 4 7 8q3 3 6 5q2 2 5 3q2 0 4 1q2 0 4 1h5h5q2 -1 5 -1q2 -1 4 -1q2 -1 4 -3l3 -2q1 -2 3 -3l3 -3l3 -5q1 -3 3 -8l2 -4v-4q0 -4 -1 -7q-1 -4 -3 -8q-1 -3 -2 -5q-2 -3 -5 -5
q-3 -3 -5 -4l-6 -4q-5 -2 -13 -2q-4 0 -7 1q-4 0 -6 1zM771 199q-2 -3 -3 -6t-1 -4q0 -2 1 -4v-3q1 -4 4 -8q0 -1 1 -2t2 -3l3 -2q1 -2 4 -2q1 -1 3 -2q1 -1 2 -1q2 -1 4 -1h4h4q2 0 3 1q1 0 3 1l4 2q1 0 3 2l2 2q1 2 2 3l2 2l2 4l1 4q0 1 1 3v4v4q-1 3 -3 6q0 2 -2 4t-3 5
q-2 1 -4 3q-2 1 -5 3h-4h-6h-6h-5q-2 -2 -4 -3q-3 -2 -5 -3q-1 -3 -2 -5zM850 154h-8v68h6h3q1 0 2 -2l35 -50q1 0 1 -2l1 -1v55h8v-68h-7l-40 56v2h-1v-58zM955 214v-24h28v-6h-28v-30h-7v68h41v-8h-34zM1032 186q-4 -1 -6 -2l22 -30h-6q-2 0 -4 1v2q-1 0 -2 2l-19 25h-12
v-30h-8v68h25h3q2 0 4 -1l4 -2l2 -2q1 -2 2 -3q1 -2 3 -4q0 -1 1 -3v-3v-4q-1 -2 -1 -3l-2 -4q-1 -2 -1 -3zM1026 192q1 0 2 1h1q3 4 3 5q1 2 1 6q0 1 -1 4q0 1 -3 4q-1 0 -1 1l-2 1h-4h-17v-24h17zM1114 164q-2 -3 -5 -4l-6 -4q-3 -1 -6 -1q-3 -1 -7 -1t-7 1q-4 0 -7 1
q-6 2 -11 8q-2 2 -4 5q-2 2 -3 5l-2 8q-2 3 -2 7q0 1 1 4q0 2 1 4t2 5q0 2 1 3q2 3 4 5q1 1 2 3q2 1 4 3l4 2q2 2 4 3q2 0 4 1q3 0 5 1h4h5q2 -1 4 -1l5 -1l3 -3l4 -2l3 -3q1 -2 3 -3q1 -2 2 -5q3 -3 4 -8l2 -4v-4v-7q-1 -4 -3 -8q-1 -3 -3 -5zM1090 161h4q2 0 4 1q1 0 3 1
l2 2q1 0 3 2l4 2l2 3q0 1 1 2l2 4v4q1 1 1 3v4v4q-1 3 -1 6l-2 4q-2 2 -3 5q-3 1 -5 3q-3 1 -5 3h-5h-5h-5h-6q-3 -2 -4 -3q-2 -2 -4 -3q-3 -3 -4 -5l-2 -4q-1 -3 -1 -6v-4v-7q0 -3 1 -4q0 -2 2 -4q0 -1 2 -2q1 -1 2 -3l3 -2q1 -2 2 -2q1 -1 3 -2q1 -1 4 -1q1 -1 3 -1h4z
M1201 221q1 1 2 1h1h6v-68h-7v56l-1 -1v-1q-2 -4 -3 -8q-1 -5 -3 -8t-3 -6l-4 -7q-1 -4 -2 -7l-2 -6q-2 -3 -3 -5q-2 -3 -3 -7h-7q-5 6 -7 13q-3 7 -6 13q-2 7 -5 14q-4 7 -6 14v1l-2 1v-56h-8v68h7q3 0 4 -1l1 -1v-2l24 -53q0 -1 1 -1v-2q0 1 1 2v2q0 2 2 4l21 48q0 2 1 2z
M36 128h77v-10v-2v-2q0 -2 -1 -3l-2 -2l-52 -71h1v1h2h1h51v-18h-81v6q0 5 1 6q0 1 2 4q1 1 1 2t1 2l2 2l1 3l46 63h-50v19zM127 128h68v-19h-49v-24h39v-20h-39v-26h49v-18h-68v107zM279 109h-29v-88h-21v88h-31v19h81v-19zM328 128l46 -107h-12q-4 0 -8 2q-2 1 -2 3
q-1 2 -3 4l-6 14h-49l-5 -14l-1 -2q-1 -1 -2 -1v-2q-1 -1 -3 -2h-2q-1 -1 -2 -1q0 -1 -1 -1h-2h-12l46 107h18zM334 63l-13 33v2q-1 0 -1 1q0 2 -1 3v-3q0 -1 -1 -1q-1 -1 -1 -2l-13 -33h30zM378 128h68v-19h-49v-27h40v-19h-40v-42h-19v107zM553 101q2 -3 3 -6t3 -6
q1 -4 1 -7v-7v-8q0 -4 -1 -7q-2 -3 -3 -6q-1 -4 -3 -7q-2 -2 -4 -5l-4 -6q-4 -2 -6 -4q-2 -3 -5 -4q-3 -3 -6 -4q-4 -1 -7 -2q-4 -1 -7 -1q-4 -1 -8 -1q-5 0 -10 2q-6 1 -11 2q-6 3 -9 6q-4 3 -9 6q-7 8 -10 17q-3 6 -4 11t-1 11q0 3 1 7q0 3 1 7q2 8 6 12q2 4 4 7q1 2 3 5
q4 2 7 4q2 2 5 4t6 3t7 3q3 0 7 1h7h8q3 -1 7 -1q3 -2 7 -3q3 -1 6 -3t5 -4t6 -4q2 -3 4 -5zM539 62l2 6v7q0 6 -2 12q-2 5 -4 8q-2 2 -5 4l-4 4q-3 2 -6 3q-6 3 -14 3t-14 -3q-2 -1 -4 -3l-6 -4t-4 -4q-2 -3 -4 -8q-2 -2 -2 -5v-7v-7q0 -3 2 -6l4 -7q1 -3 4 -5l6 -4l4 -4
q4 -1 7 -2t7 -1t7 1t7 2l6 4l4 4q3 2 5 5zM649 128h19v-107h-18l-50 72q-1 0 -1 1l-1 1q-1 2 -1 3q-2 0 -2 2v1l-2 1v-81h-19v107h17h4q2 -1 2 -2l3 -1l2 -2q5 -8 11 -15q5 -8 10 -17l12 -14q5 -8 12 -15q0 -2 1 -3v-3q0 -1 1 -2v-2v76zM678 128h81v-19h-32v-88h-19v88h-30
v19zM825 73q1 -2 3 -4l2 -4q0 -2 1 -4q1 -3 1 -7q0 -6 -3 -13l-4 -6q-2 -3 -4 -5q-4 -2 -6 -4t-6 -3t-7 -2q-4 -1 -7 -1q-4 0 -7 1q-4 1 -9 2q-3 1 -5 3q-3 2 -7 6q-2 1 -3 3q-1 1 -2 3q-2 1 -2 6l1 1l1 1q1 0 1 1h1t2 1h1h5h2q1 0 1 -1q3 0 5 -1q2 -2 4 -3t3 -2q1 0 3 -1
t5 -1q1 0 3 1q1 0 3 1q3 1 6 3l4 4q1 2 2 3t1 3q0 4 -3 6q-2 3 -4 3l-3 3h-3q-3 1 -8 4q-2 0 -4 1q-3 0 -5 2q-4 1 -6 3q-2 1 -4 3q-3 2 -4 4q-2 2 -3 4q-3 6 -3 12q0 9 3 13q1 3 3 5t5 4q2 2 5 3l6 3q2 0 5 1h7h4q2 -1 5 -1l4 -2q1 -1 4 -2q1 -1 3 -2l4 -4l3 -2l2 -4l-4 -2
l-2 -2q-2 -1 -2 -2h-4h-2h-2h-1q-3 0 -3 1l-4 2q-1 0 -1 1h-1h-3h-6h-2q-1 -1 -3 -2q-1 -1 -2 -4q-1 -1 -1 -4t1 -3l2 -2v-3h4q1 -1 2 -1l6 -2q2 -1 3 -2l5 -1q2 -2 5 -2q2 -1 5 -4zM857 39q3 0 3 -3q1 0 1 -1v-3q0 -3 -1 -5q0 -2 -3 -4q-2 0 -3 -2h-2q-1 -1 -3 -1
q-1 0 -2 1h-2l-2 2h-2q-1 1 -1 2l-2 2q-1 2 -1 5v3q0 1 1 1q1 2 2 3h1q3 3 4 3l2 2h2h3l2 -2zM898 99q-4 -4 -8 -12q-1 -2 -2 -5q-1 -4 -1 -7q0 -4 1 -7l2 -6l4 -7q1 -3 4 -5q2 -2 5 -4q2 -2 6 -4q4 -1 7 -2t7 -1q3 0 5 1t5 1q2 1 5 3q2 1 4 3q2 0 4 1h3h3q2 0 3 -1
q3 -1 5 -3l3 -5q-3 -4 -8 -7q-3 -2 -5 -3q-2 -2 -5 -3q-3 -2 -5 -2l-6 -2t-5 -1q-3 -1 -6 -1q-7 0 -12 2l-10 2q-10 5 -17 12q-8 8 -12 17q-1 6 -2 11q-2 5 -2 11q0 3 1 7q0 3 1 7l2 6q1 3 3 6q3 4 5 7q1 2 4 5l6 4q2 2 6 4q2 2 5 3t8 3q2 0 6 1h8h6q2 0 5 -1l6 -2
q2 -1 5 -2t5 -2q2 -2 5 -4q5 -4 8 -8l-3 -4l-2 -2q-1 -1 -3 -2h-3h-3h-3q-2 0 -4 1l-4 4q-3 1 -5 2q-3 1 -5 1h-5q-8 0 -14 -3q-4 -1 -6 -3zM1072 101q1 -3 3 -6l2 -6q1 -4 1 -7v-7v-8q0 -4 -1 -7l-2 -6q-2 -4 -3 -7q-4 -5 -8 -11q-4 -2 -7 -4q-3 -3 -5 -4q-3 -3 -6 -4
l-8 -2q-3 -1 -6 -1q-4 -1 -8 -1q-10 0 -21 4l-8 6q-5 3 -8 6q-4 4 -7 8t-5 9q-2 6 -3 11t-1 11q0 3 1 7v7q1 3 3 6t3 6q2 4 4 7l5 5q2 2 5 4l6 4q2 2 6 3q3 1 6 3q4 0 8 1h6h8q3 -1 6 -1q4 -2 8 -3q3 -1 6 -3q2 -2 5 -4t7 -4q1 -3 4 -5zM1057 62q2 5 2 13v7q-1 3 -2 5
q-2 5 -3 8l-4 4q-5 5 -12 7q-3 2 -6 3h-8q-7 0 -13 -3q-3 -1 -5 -3l-6 -4l-4 -4q-2 -3 -4 -8q-1 -2 -1 -5q-1 -4 -1 -7q0 -4 1 -7q0 -3 1 -6q4 -8 8 -12l6 -4q2 -2 5 -4q3 -1 7 -2t6 -1q4 0 8 1l6 2q3 2 7 4q3 2 5 4zM1188 127l1 1h2h19v-107h-19v78v-2l-2 -3v-3q0 -1 -1 -2
q-3 -9 -7 -17q-4 -9 -7 -17l-6 -16q-4 -9 -7 -18h-19l-27 68q-1 1 -1 5q-1 2 -1 3q-1 0 -1 1v-77h-20v107h19h3l1 -1q2 -1 3 -1l1 -1l3 -2l2 -2q1 -1 1 -2q2 -8 6 -15q3 -8 6 -17q3 -8 7 -16l6 -16v-1v-2v-2q2 0 2 -2v2v2q0 1 1 2v1l4 8l22 56q0 1 1 2v2q1 1 3 2h1q1 1 2 1z
" />
    <glyph glyph-name="one" unicode="1" horiz-adv-x="1236" 
d="M1210 533v-286h-1174v286h445q0 15 3 29q2 13 8 26t14 25q7 12 18 21q18 19 44 30q14 6 28 9q13 2 27 2q16 0 30 -3t26 -9q14 -6 26 -14q11 -8 20 -17q18 -18 30 -46q10 -26 10 -53h445zM503 582q-11 -23 -11 -49q0 -28 11 -51q5 -11 12 -22t15 -20q9 -9 20 -16
q10 -7 22 -12q23 -11 51 -11q14 0 27 2q12 2 24 7q12 6 22 13q10 6 19 16q9 9 16 20q7 10 13 21q11 25 11 53q0 11 -2 23q-2 11 -7 21q-6 20 -20 37q-7 8 -15 15t-16 12l-18 10l-20 8q-7 2 -15 3q-9 1 -19 1q-14 0 -27 -2q-13 -3 -25 -9q-24 -9 -42 -28q-8 -9 -14 -20z
M144 337q3 5 3 9v5q-1 2 -3 5q0 1 -2 3l-3 3l-2 4q-2 1 -5 1l-4 2q-3 1 -5 1h-26v-75h8v28h18q2 0 5 1q2 0 4 1q5 2 7 4q1 2 3 4zM200 370h-46v-75h46v9h-35v23h29v10h-29v22h35v11zM273 295l-23 32q1 1 3 1q1 0 2 2q4 2 5 5q1 1 2 3q1 1 2 3v6v5q0 2 -1 4q-2 4 -5 7
q-2 4 -7 4q-1 1 -3 2q-3 1 -5 1h-27v-75h11v31h11l20 -27q1 -2 3 -3q1 -1 2 -1h3h7zM324 308q0 2 1 4v4q0 6 -2 10t-6 7q-1 0 -1 1q-1 1 -3 2v0q-1 0 -3 1h-1q-1 0 -1 2q-3 0 -4 1q-3 0 -4 1l-3 1q-4 1 -4 2q-3 2 -3 3v4v4q1 0 2 1t1 2l2 1h2q2 1 3 1h2h1q1 -1 2 -1
q4 0 4 -2q1 -1 2 -1h2q4 0 7 2l2 1q0 1 -1 2l-2 2q-2 1 -3 2t-3 2q-1 0 -2 1q-1 0 -3 2q-3 0 -3 1h-3h-4q-3 -1 -5 -1l-3 -3q-2 -1 -4 -1q-1 -2 -2 -3q-2 -2 -3 -4t-1 -3q-1 -2 -1 -5v-4q0 -2 2 -4q1 -2 3 -3q1 -2 1 -3l4 -2q2 -2 4 -2l4 -2q1 -1 3 -2q1 -1 3 -1h2
q3 -1 4 -1l1 -1l2 -1q0 -1 1 -3q1 -1 1 -2v-4v-1q0 -2 -1 -3l-1 -2q0 -1 -2 -2q-1 -2 -2 -2q-2 -1 -3 -2h-2h-3h-3h-3l-2 2q-2 0 -2 2l-1 1q-3 2 -6 2h-2q-1 0 -2 -1l-3 -1q0 -2 1 -2q0 -2 2 -3q0 -1 1 -2l1 -1h1q4 -4 9 -5q4 -1 9 -1h5q2 0 4 1t5 2q2 1 3 3q3 1 5 3z
M409 322q1 3 1 5v5q0 6 -1 10q0 3 -1 5q-2 2 -3 5q-2 3 -6 7q-2 2 -4 3t-5 4q-1 0 -3 1t-5 3q-3 0 -5 1h-5h-5q-3 -1 -5 -1q-3 -2 -5 -3t-4 -1q-2 -3 -4 -4t-4 -3l-3 -3q-2 -2 -3 -4q-2 -3 -2 -5q-1 -2 -2 -5q-1 -4 -1 -10q0 -4 1 -7l2 -8q1 -3 3 -6t5 -7l6 -4q3 -2 7 -2
q6 -3 14 -3h5h5q5 2 8 4q7 3 9 5q3 4 6 9q1 2 3 5zM487 370h-10v-58v3l-1 1l-36 51q-2 0 -4 3h-2h-2h-7v-75h10v61l1 -1v-2l43 -58h8v75zM571 295l-33 75h-11l-32 -75h6q3 0 4 1l2 2l2 1l4 13h39l5 -13q1 -2 3 -3q0 -1 4 -1h7zM620 304h-32v66h-11v-75h43v9zM722 370h-10
v-45v-5q0 -2 -1 -4q-1 -4 -5 -6l-2 -2q-2 -1 -3 -3q-3 -1 -4 -1h-4q-5 0 -7 1q-3 2 -5 3t-2 2q-1 1 -2 3l-3 3v4q-1 2 -1 5v45h-10v-45v-5q0 -3 1 -4q0 -4 2 -7q2 -5 6 -7q1 -1 3 -2q1 -1 3 -2q1 -1 3 -1q2 -1 3 -2q3 0 5 -1q1 -1 4 -1q2 0 4 1q1 1 4 1l4 2q1 0 3 1l6 4
q2 2 3 4q0 1 1 3l3 3q1 2 1 4v9v45zM780 308q3 4 3 8q0 6 -2 10t-6 7q-3 2 -3 3h-2q-2 0 -3 1h-1q-2 0 -3 2h-1q-1 0 -2 1q-1 0 -2 1l-3 1q-4 1 -4 2q-2 1 -2 2q-1 1 -2 1v2q-1 0 -1 2t2 4l3 3q1 0 2 1h2q0 1 5 1h1q1 -1 2 -1q1 -1 4 -2q4 -1 5 -1q3 0 4 2l3 1l-2 2l-2 2
q0 1 -1 2q-2 1 -3 2q-2 0 -3 1q-1 0 -3 2q-2 0 -3 1h-2h-5q-2 -1 -4 -1q-2 -2 -4 -3t-3 -1l-3 -3q-1 -2 -3 -4q0 -2 -1 -3q-1 -2 -1 -5t1 -4q1 -2 1 -4q2 -4 5 -6l4 -2q1 -2 2 -2q3 -1 5 -2q1 -1 3 -2t3 -1h2q1 -1 3 -1q1 0 2 -1t3 -1q1 -1 1 -3q1 -1 1 -2v-4v-1q0 -2 -1 -3
q-1 -3 -4 -4q-2 -2 -3 -2l-2 -2h-2h-3h-3h-3q-2 1 -5 4v1q-3 2 -6 2h-1q-2 0 -3 -1l-3 -1l1 -1q0 -1 1 -1q0 -1 1 -1v-2h1v-2q2 -1 3 -1q3 -4 8 -5q4 -1 9 -1h5q2 0 5 1l4 2q2 1 4 3l3 3zM841 370h-46v-75h46v9h-36v23h30v10h-30v22h36v11zM960 322v5v5v6v4q-2 5 -5 10
q-2 3 -6 7q-1 2 -3 3t-4 4q-2 0 -4 1q-3 1 -5 3q-3 0 -5 1h-5h-5q-3 -1 -5 -1q-6 -3 -10 -4q-2 -3 -3 -4q-2 -1 -4 -3l-3 -3l-4 -4q-1 -3 -2 -5t-1 -5q-2 -4 -2 -10q0 -4 1 -7l2 -8q3 -7 9 -13q2 -2 5 -4t7 -2q6 -3 15 -3h5h5q2 1 5 2l4 2q2 2 4 3t3 2q4 4 6 9zM1038 370
h-11v-58v3q-1 1 -2 1l-36 51v1q-1 0 -2 2h-2h-3h-8v-75h12v59l1 -1l42 -58h9v75zM1099 304h-32v66h-11v-75h43v9zM1159 370h-9q-2 0 -4 -2q-4 -2 -4 -4l-17 -23l-1 -1h-1l-1 1l-18 23q-1 2 -3 4t-5 2h-8l27 -37l1 -1q0 -1 1 -1v-1v-1q0 -1 1 -1v-1v-32h11v32v1v2q1 0 1 2v1
h1zM942 352l4 -4q2 -3 3 -5q0 -3 1 -5v-6q0 -6 -1 -11q-1 -3 -3 -5t-4 -3q-2 -2 -4 -3l-4 -4q-6 -2 -11 -2q-3 0 -6 1q-3 0 -5 1q-3 2 -5 4q-2 1 -4 3q-2 1 -3 3q-2 2 -2 5q-2 3 -2 6q-1 2 -1 5q0 5 3 11q0 2 2 5q1 2 3 4l4 4q2 1 5 2q4 2 11 2h5l6 -2l4 -2zM253 343
q0 -1 -2 -4q-1 0 -1 -1q-1 -1 -3 -1q-1 -1 -4 -1h-16v23h16q2 0 4 -1h3l1 -2l2 -4q1 -1 1 -5zM391 352l4 -4q2 -3 3 -5q1 -3 2 -5v-6v-5l-2 -6t-3 -5t-4 -3q-1 -2 -3 -3q-2 -2 -5 -4q-2 -1 -5 -1q-3 -1 -6 -1q-6 0 -11 2l-4 4q-3 1 -5 3l-3 3q-2 2 -3 5l-2 6q-1 2 -1 5
q0 5 3 11q1 2 3 5q2 2 3 4q2 2 5 4l4 2l6 2h5q6 0 11 -2q3 -1 5 -2zM532 358q0 -2 1 -3v-2l14 -31h-29l14 31v2v3zM132 356l2 -2q0 -2 1 -3q1 -2 1 -5v-2q0 -2 -1 -3t-1 -2q-1 -2 -2 -2l-4 -4h-5h-18v26h18q3 0 5 -1q1 0 3 -1zM580 422q-9 4 -18 10q-10 5 -17 12h157
q-8 -7 -17 -12q-9 -6 -19 -10l-21 -6t-22 -3q-12 0 -22 3zM557 457l154 155q14 -19 22 -39t8 -40q0 -11 -1 -21q-2 -11 -6 -21q-4 -9 -9 -17q-5 -9 -11 -17h-157zM534 453q-13 17 -22 36q-3 10 -5 21t-2 23q0 10 2 20t5 20q3 9 8 18q5 8 12 16h156zM666 642q10 -4 19 -10
l16 -11h-158q18 14 37 21q19 9 43 9zM38 171q-2 2 -2 4l-2 4q-1 3 -1 5q-1 2 -1 5t2 8q1 2 2 5q0 2 2 3l2 5q0 1 3 3q0 1 3 3q2 1 3 2q3 2 5 3l4 1q1 0 4 1h5h7q3 -1 7 -3q4 -1 7 -3l4 -4q-1 -1 -2 -1v-2h-1h-1h-2h-3q-2 1 -4 3q-2 1 -4 1h-3h-5h-5h-4l-6 -3q-2 -2 -4 -3
q-2 -3 -3 -5q-2 -2 -3 -4q-2 -3 -2 -6v-4q0 -4 1 -7l2 -4v-4q1 -1 3 -2q1 -1 2 -3q2 -1 3 -2q1 -2 3 -2q1 -1 3 -2t4 -1q1 -1 3 -1h3h5q2 0 4 1q2 0 5 1l4 2v14h-6h-1l-1 1l-1 2l-2 1v1q-1 0 -1 1v1v1h19v-26l-2 -2l-3 -3q-3 -1 -6 -1q-3 -1 -7 -1h-7h-5h-4q-3 1 -4 2l-5 3
q-1 0 -3 2q-3 1 -3 3q-3 1 -3 3zM117 214v-22h27v-7h-27v-23h33v-8h-41v68h41v-8h-33zM180 154v60h-22v8h52v-8h-23v-60h-7zM260 214v-24h29v-6h-29v-30h-8v68h41v-8h-33zM313 222v-42q0 -2 1 -3q1 -2 2 -3q1 -3 3 -4l2 -4q0 -1 2 -2l2 -2q3 -1 5 -1h4h4q1 0 2 1q3 1 5 2
q1 1 3 2q0 2 2 4q1 1 2 4q2 2 2 6v42h7v-42v-5q-1 -2 -2 -5t-2 -5l-4 -4t-4 -3q-2 -2 -4 -3q-6 -1 -11 -1q-6 0 -12 1l-3 3q-3 1 -5 3q-3 3 -5 9q-1 3 -2 5t-1 5v42h7zM383 222v-60h30v-8h-38v68h8zM428 222v-60h32v-8h-39v68h7zM522 154l-30 68h4q2 0 4 -1q1 -1 2 -1l1 -2
l21 -51v-2q1 -1 1 -3v3l1 1v1q3 7 6 13l6 12q2 8 5 14l6 12q0 2 1 2t1 1q1 1 2 1h2h4q-4 -8 -7 -16q-4 -9 -9 -17q-3 -10 -6 -18q-4 -8 -8 -17h-7zM572 214v-22h28v-7h-28v-23h33v-8h-41v68h41v-8h-33zM655 186q-1 -1 -5 -2l23 -30h-5q-1 0 -2 1h-2l-2 2q-1 0 -2 2l-19 25
h-12v-30h-7v68h25h3q1 0 3 -1q4 -1 7 -4q1 -2 2 -3l2 -4q1 -1 1 -3v-3v-4q0 -2 -1 -3q0 -2 -1 -4t-2 -3l-2 -2zM647 190q2 0 3 2q1 0 2 1h2l2 3q0 1 1 2q0 1 1 2v4v1q-1 1 -1 3l-1 2q-1 0 -2 2q-1 0 -2 1q-1 0 -2 1h-3h-18v-24h18zM709 164q1 1 2 4q1 1 2 3v3q0 3 -1 5
q-1 0 -1 2l-2 2t-4 2q-2 0 -3 1l-3 1q-2 0 -4 1t-2 2q-5 0 -7 3q-2 0 -2 2q-1 2 -2 3v7v5q0 1 1 3q0 3 4 5l3 3q1 0 4 1q2 0 3 1h4h3q1 -1 2 -1h2l3 -2q1 0 2 -1t1 -2q2 -1 3 -2q0 -1 1 -1l-2 -1q-1 -1 -4 -1h-3q-2 1 -2 2h-1h-1h-1h-1h-1h-1h-4q-4 0 -4 -1q-3 -3 -3 -4
q-2 0 -2 -4q0 -3 2 -3q0 -2 1 -3t3 -1l1 -1q2 -2 3 -2t4 -2h2q1 0 1 -1h2q1 0 2 -2h1h1v0h2l1 -1l3 -3q1 -2 3 -3q1 -5 1 -9v-5q0 -2 -3 -4q0 -3 -4 -6q-1 -1 -3 -2l-4 -2q-2 -1 -4 -1h-5q-5 0 -8 1q-4 1 -7 4q-1 0 -2 1l-2 2v2l-1 1l1 1l1 1h2h1h2l2 -2q2 -1 3 -2t3 -1
q0 -1 2 -1h3q4 0 5 1zM744 222v-68h-8v68h8zM771 164q-6 4 -9 10q-2 7 -2 15v4v4q3 5 4 8q3 4 7 8q3 3 6 5q2 2 5 3q2 0 4 1q2 0 4 1h5h5q2 -1 5 -1q2 -1 4 -1q2 -1 4 -3l3 -2q1 -2 3 -3l3 -3l3 -5q1 -3 3 -8l2 -4v-4q0 -4 -1 -7q-1 -4 -3 -8q-1 -3 -2 -5q-2 -3 -5 -5
q-3 -3 -5 -4l-6 -4q-5 -2 -13 -2q-4 0 -7 1q-4 0 -6 1zM771 199q-2 -3 -3 -6t-1 -4q0 -2 1 -4v-3q1 -4 4 -8q0 -1 1 -2t2 -3l3 -2q1 -2 4 -2q1 -1 3 -2q1 -1 2 -1q2 -1 4 -1h4h4q2 0 3 1q1 0 3 1l4 2q1 0 3 2l2 2q1 2 2 3l2 2l2 4l1 4q0 1 1 3v4v4q-1 3 -3 6q0 2 -2 4t-3 5
q-2 1 -4 3q-2 1 -5 3h-4h-6h-6h-5q-2 -2 -4 -3q-3 -2 -5 -3q-1 -3 -2 -5zM850 154h-8v68h6h3q1 0 2 -2l35 -50q1 0 1 -2l1 -1v55h8v-68h-7l-40 56v2h-1v-58zM955 214v-24h28v-6h-28v-30h-7v68h41v-8h-34zM1032 186q-4 -1 -6 -2l22 -30h-6q-2 0 -4 1v2q-1 0 -2 2l-19 25h-12
v-30h-8v68h25h3q2 0 4 -1l4 -2l2 -2q1 -2 2 -3q1 -2 3 -4q0 -1 1 -3v-3v-4q-1 -2 -1 -3l-2 -4q-1 -2 -1 -3zM1026 192q1 0 2 1h1q3 4 3 5q1 2 1 6q0 1 -1 4q0 1 -3 4q-1 0 -1 1l-2 1h-4h-17v-24h17zM1114 164q-2 -3 -5 -4l-6 -4q-3 -1 -6 -1q-3 -1 -7 -1t-7 1q-4 0 -7 1
q-6 2 -11 8q-2 2 -4 5q-2 2 -3 5l-2 8q-2 3 -2 7q0 1 1 4q0 2 1 4t2 5q0 2 1 3q2 3 4 5q1 1 2 3q2 1 4 3l4 2q2 2 4 3q2 0 4 1q3 0 5 1h4h5q2 -1 4 -1l5 -1l3 -3l4 -2l3 -3q1 -2 3 -3q1 -2 2 -5q3 -3 4 -8l2 -4v-4v-7q-1 -4 -3 -8q-1 -3 -3 -5zM1090 161h4q2 0 4 1q1 0 3 1
l2 2q1 0 3 2l4 2l2 3q0 1 1 2l2 4v4q1 1 1 3v4v4q-1 3 -1 6l-2 4q-2 2 -3 5q-3 1 -5 3q-3 1 -5 3h-5h-5h-5h-6q-3 -2 -4 -3q-2 -2 -4 -3q-3 -3 -4 -5l-2 -4q-1 -3 -1 -6v-4v-7q0 -3 1 -4q0 -2 2 -4q0 -1 2 -2q1 -1 2 -3l3 -2q1 -2 2 -2q1 -1 3 -2q1 -1 4 -1q1 -1 3 -1h4z
M1201 221q1 1 2 1h1h6v-68h-7v56l-1 -1v-1q-2 -4 -3 -8q-1 -5 -3 -8t-3 -6l-4 -7q-1 -4 -2 -7l-2 -6q-2 -3 -3 -5q-2 -3 -3 -7h-7q-5 6 -7 13q-3 7 -6 13q-2 7 -5 14q-4 7 -6 14v1l-2 1v-56h-8v68h7q3 0 4 -1l1 -1v-2l24 -53q0 -1 1 -1v-2q0 1 1 2v2q0 2 2 4l21 48q0 2 1 2z
M36 128h77v-10v-2v-2q0 -2 -1 -3l-2 -2l-52 -71h1v1h2h1h51v-18h-81v6q0 5 1 6q0 1 2 4q1 1 1 2t1 2l2 2l1 3l46 63h-50v19zM127 128h68v-19h-49v-24h39v-20h-39v-26h49v-18h-68v107zM279 109h-29v-88h-21v88h-31v19h81v-19zM328 128l46 -107h-12q-4 0 -8 2q-2 1 -2 3
q-1 2 -3 4l-6 14h-49l-5 -14l-1 -2q-1 -1 -2 -1v-2q-1 -1 -3 -2h-2q-1 -1 -2 -1q0 -1 -1 -1h-2h-12l46 107h18zM334 63l-13 33v2q-1 0 -1 1q0 2 -1 3v-3q0 -1 -1 -1q-1 -1 -1 -2l-13 -33h30zM378 128h68v-19h-49v-27h40v-19h-40v-42h-19v107zM553 101q2 -3 3 -6t3 -6
q1 -4 1 -7v-7v-8q0 -4 -1 -7q-2 -3 -3 -6q-1 -4 -3 -7q-2 -2 -4 -5l-4 -6q-4 -2 -6 -4q-2 -3 -5 -4q-3 -3 -6 -4q-4 -1 -7 -2q-4 -1 -7 -1q-4 -1 -8 -1q-5 0 -10 2q-6 1 -11 2q-6 3 -9 6q-4 3 -9 6q-7 8 -10 17q-3 6 -4 11t-1 11q0 3 1 7q0 3 1 7q2 8 6 12q2 4 4 7q1 2 3 5
q4 2 7 4q2 2 5 4t6 3t7 3q3 0 7 1h7h8q3 -1 7 -1q3 -2 7 -3q3 -1 6 -3t5 -4t6 -4q2 -3 4 -5zM539 62l2 6v7q0 6 -2 12q-2 5 -4 8q-2 2 -5 4l-4 4q-3 2 -6 3q-6 3 -14 3t-14 -3q-2 -1 -4 -3l-6 -4t-4 -4q-2 -3 -4 -8q-2 -2 -2 -5v-7v-7q0 -3 2 -6l4 -7q1 -3 4 -5l6 -4l4 -4
q4 -1 7 -2t7 -1t7 1t7 2l6 4l4 4q3 2 5 5zM649 128h19v-107h-18l-50 72q-1 0 -1 1l-1 1q-1 2 -1 3q-2 0 -2 2v1l-2 1v-81h-19v107h17h4q2 -1 2 -2l3 -1l2 -2q5 -8 11 -15q5 -8 10 -17l12 -14q5 -8 12 -15q0 -2 1 -3v-3q0 -1 1 -2v-2v76zM678 128h81v-19h-32v-88h-19v88h-30
v19zM825 73q1 -2 3 -4l2 -4q0 -2 1 -4q1 -3 1 -7q0 -6 -3 -13l-4 -6q-2 -3 -4 -5q-4 -2 -6 -4t-6 -3t-7 -2q-4 -1 -7 -1q-4 0 -7 1q-4 1 -9 2q-3 1 -5 3q-3 2 -7 6q-2 1 -3 3q-1 1 -2 3q-2 1 -2 6l1 1l1 1q1 0 1 1h1t2 1h1h5h2q1 0 1 -1q3 0 5 -1q2 -2 4 -3t3 -2q1 0 3 -1
t5 -1q1 0 3 1q1 0 3 1q3 1 6 3l4 4q1 2 2 3t1 3q0 4 -3 6q-2 3 -4 3l-3 3h-3q-3 1 -8 4q-2 0 -4 1q-3 0 -5 2q-4 1 -6 3q-2 1 -4 3q-3 2 -4 4q-2 2 -3 4q-3 6 -3 12q0 9 3 13q1 3 3 5t5 4q2 2 5 3l6 3q2 0 5 1h7h4q2 -1 5 -1l4 -2q1 -1 4 -2q1 -1 3 -2l4 -4l3 -2l2 -4l-4 -2
l-2 -2q-2 -1 -2 -2h-4h-2h-2h-1q-3 0 -3 1l-4 2q-1 0 -1 1h-1h-3h-6h-2q-1 -1 -3 -2q-1 -1 -2 -4q-1 -1 -1 -4t1 -3l2 -2v-3h4q1 -1 2 -1l6 -2q2 -1 3 -2l5 -1q2 -2 5 -2q2 -1 5 -4zM857 39q3 0 3 -3q1 0 1 -1v-3q0 -3 -1 -5q0 -2 -3 -4q-2 0 -3 -2h-2q-1 -1 -3 -1
q-1 0 -2 1h-2l-2 2h-2q-1 1 -1 2l-2 2q-1 2 -1 5v3q0 1 1 1q1 2 2 3h1q3 3 4 3l2 2h2h3l2 -2zM898 99q-4 -4 -8 -12q-1 -2 -2 -5q-1 -4 -1 -7q0 -4 1 -7l2 -6l4 -7q1 -3 4 -5q2 -2 5 -4q2 -2 6 -4q4 -1 7 -2t7 -1q3 0 5 1t5 1q2 1 5 3q2 1 4 3q2 0 4 1h3h3q2 0 3 -1
q3 -1 5 -3l3 -5q-3 -4 -8 -7q-3 -2 -5 -3q-2 -2 -5 -3q-3 -2 -5 -2l-6 -2t-5 -1q-3 -1 -6 -1q-7 0 -12 2l-10 2q-10 5 -17 12q-8 8 -12 17q-1 6 -2 11q-2 5 -2 11q0 3 1 7q0 3 1 7l2 6q1 3 3 6q3 4 5 7q1 2 4 5l6 4q2 2 6 4q2 2 5 3t8 3q2 0 6 1h8h6q2 0 5 -1l6 -2
q2 -1 5 -2t5 -2q2 -2 5 -4q5 -4 8 -8l-3 -4l-2 -2q-1 -1 -3 -2h-3h-3h-3q-2 0 -4 1l-4 4q-3 1 -5 2q-3 1 -5 1h-5q-8 0 -14 -3q-4 -1 -6 -3zM1072 101q1 -3 3 -6l2 -6q1 -4 1 -7v-7v-8q0 -4 -1 -7l-2 -6q-2 -4 -3 -7q-4 -5 -8 -11q-4 -2 -7 -4q-3 -3 -5 -4q-3 -3 -6 -4
l-8 -2q-3 -1 -6 -1q-4 -1 -8 -1q-10 0 -21 4l-8 6q-5 3 -8 6q-4 4 -7 8t-5 9q-2 6 -3 11t-1 11q0 3 1 7v7q1 3 3 6t3 6q2 4 4 7l5 5q2 2 5 4l6 4q2 2 6 3q3 1 6 3q4 0 8 1h6h8q3 -1 6 -1q4 -2 8 -3q3 -1 6 -3q2 -2 5 -4t7 -4q1 -3 4 -5zM1057 62q2 5 2 13v7q-1 3 -2 5
q-2 5 -3 8l-4 4q-5 5 -12 7q-3 2 -6 3h-8q-7 0 -13 -3q-3 -1 -5 -3l-6 -4l-4 -4q-2 -3 -4 -8q-1 -2 -1 -5q-1 -4 -1 -7q0 -4 1 -7q0 -3 1 -6q4 -8 8 -12l6 -4q2 -2 5 -4q3 -1 7 -2t6 -1q4 0 8 1l6 2q3 2 7 4q3 2 5 4zM1188 127l1 1h2h19v-107h-19v78v-2l-2 -3v-3q0 -1 -1 -2
q-3 -9 -7 -17q-4 -9 -7 -17l-6 -16q-4 -9 -7 -18h-19l-27 68q-1 1 -1 5q-1 2 -1 3q-1 0 -1 1v-77h-20v107h19h3l1 -1q2 -1 3 -1l1 -1l3 -2l2 -2q1 -1 1 -2q2 -8 6 -15q3 -8 6 -17q3 -8 7 -16l6 -16v-1v-2v-2q2 0 2 -2v2v2q0 1 1 2v1l4 8l22 56q0 1 1 2v2q1 1 3 2h1q1 1 2 1z
" />
    <glyph glyph-name="two" unicode="2" horiz-adv-x="1236" 
d="M1210 533v-286h-1174v286h445q0 15 3 29q2 13 8 26t14 25q7 12 18 21q18 19 44 30q14 6 28 9q13 2 27 2q16 0 30 -3t26 -9q14 -6 26 -14q11 -8 20 -17q18 -18 30 -46q10 -26 10 -53h445zM503 582q-11 -23 -11 -49q0 -28 11 -51q5 -11 12 -22t15 -20q9 -9 20 -16
q10 -7 22 -12q23 -11 51 -11q14 0 27 2q12 2 24 7q12 6 22 13q10 6 19 16q9 9 16 20q7 10 13 21q11 25 11 53q0 11 -2 23q-2 11 -7 21q-6 20 -20 37q-7 8 -15 15t-16 12l-18 10l-20 8q-7 2 -15 3q-9 1 -19 1q-14 0 -27 -2q-13 -3 -25 -9q-24 -9 -42 -28q-8 -9 -14 -20z
M144 337q3 5 3 9v5q-1 2 -3 5q0 1 -2 3l-3 3l-2 4q-2 1 -5 1l-4 2q-3 1 -5 1h-26v-75h8v28h18q2 0 5 1q2 0 4 1q5 2 7 4q1 2 3 4zM200 370h-46v-75h46v9h-35v23h29v10h-29v22h35v11zM273 295l-23 32q1 1 3 1q1 0 2 2q4 2 5 5q1 1 2 3q1 1 2 3v6v5q0 2 -1 4q-2 4 -5 7
q-2 4 -7 4q-1 1 -3 2q-3 1 -5 1h-27v-75h11v31h11l20 -27q1 -2 3 -3q1 -1 2 -1h3h7zM324 308q0 2 1 4v4q0 6 -2 10t-6 7q-1 0 -1 1q-1 1 -3 2v0q-1 0 -3 1h-1q-1 0 -1 2q-3 0 -4 1q-3 0 -4 1l-3 1q-4 1 -4 2q-3 2 -3 3v4v4q1 0 2 1t1 2l2 1h2q2 1 3 1h2h1q1 -1 2 -1
q4 0 4 -2q1 -1 2 -1h2q4 0 7 2l2 1q0 1 -1 2l-2 2q-2 1 -3 2t-3 2q-1 0 -2 1q-1 0 -3 2q-3 0 -3 1h-3h-4q-3 -1 -5 -1l-3 -3q-2 -1 -4 -1q-1 -2 -2 -3q-2 -2 -3 -4t-1 -3q-1 -2 -1 -5v-4q0 -2 2 -4q1 -2 3 -3q1 -2 1 -3l4 -2q2 -2 4 -2l4 -2q1 -1 3 -2q1 -1 3 -1h2
q3 -1 4 -1l1 -1l2 -1q0 -1 1 -3q1 -1 1 -2v-4v-1q0 -2 -1 -3l-1 -2q0 -1 -2 -2q-1 -2 -2 -2q-2 -1 -3 -2h-2h-3h-3h-3l-2 2q-2 0 -2 2l-1 1q-3 2 -6 2h-2q-1 0 -2 -1l-3 -1q0 -2 1 -2q0 -2 2 -3q0 -1 1 -2l1 -1h1q4 -4 9 -5q4 -1 9 -1h5q2 0 4 1t5 2q2 1 3 3q3 1 5 3z
M409 322q1 3 1 5v5q0 6 -1 10q0 3 -1 5q-2 2 -3 5q-2 3 -6 7q-2 2 -4 3t-5 4q-1 0 -3 1t-5 3q-3 0 -5 1h-5h-5q-3 -1 -5 -1q-3 -2 -5 -3t-4 -1q-2 -3 -4 -4t-4 -3l-3 -3q-2 -2 -3 -4q-2 -3 -2 -5q-1 -2 -2 -5q-1 -4 -1 -10q0 -4 1 -7l2 -8q1 -3 3 -6t5 -7l6 -4q3 -2 7 -2
q6 -3 14 -3h5h5q5 2 8 4q7 3 9 5q3 4 6 9q1 2 3 5zM487 370h-10v-58v3l-1 1l-36 51q-2 0 -4 3h-2h-2h-7v-75h10v61l1 -1v-2l43 -58h8v75zM571 295l-33 75h-11l-32 -75h6q3 0 4 1l2 2l2 1l4 13h39l5 -13q1 -2 3 -3q0 -1 4 -1h7zM620 304h-32v66h-11v-75h43v9zM722 370h-10
v-45v-5q0 -2 -1 -4q-1 -4 -5 -6l-2 -2q-2 -1 -3 -3q-3 -1 -4 -1h-4q-5 0 -7 1q-3 2 -5 3t-2 2q-1 1 -2 3l-3 3v4q-1 2 -1 5v45h-10v-45v-5q0 -3 1 -4q0 -4 2 -7q2 -5 6 -7q1 -1 3 -2q1 -1 3 -2q1 -1 3 -1q2 -1 3 -2q3 0 5 -1q1 -1 4 -1q2 0 4 1q1 1 4 1l4 2q1 0 3 1l6 4
q2 2 3 4q0 1 1 3l3 3q1 2 1 4v9v45zM780 308q3 4 3 8q0 6 -2 10t-6 7q-3 2 -3 3h-2q-2 0 -3 1h-1q-2 0 -3 2h-1q-1 0 -2 1q-1 0 -2 1l-3 1q-4 1 -4 2q-2 1 -2 2q-1 1 -2 1v2q-1 0 -1 2t2 4l3 3q1 0 2 1h2q0 1 5 1h1q1 -1 2 -1q1 -1 4 -2q4 -1 5 -1q3 0 4 2l3 1l-2 2l-2 2
q0 1 -1 2q-2 1 -3 2q-2 0 -3 1q-1 0 -3 2q-2 0 -3 1h-2h-5q-2 -1 -4 -1q-2 -2 -4 -3t-3 -1l-3 -3q-1 -2 -3 -4q0 -2 -1 -3q-1 -2 -1 -5t1 -4q1 -2 1 -4q2 -4 5 -6l4 -2q1 -2 2 -2q3 -1 5 -2q1 -1 3 -2t3 -1h2q1 -1 3 -1q1 0 2 -1t3 -1q1 -1 1 -3q1 -1 1 -2v-4v-1q0 -2 -1 -3
q-1 -3 -4 -4q-2 -2 -3 -2l-2 -2h-2h-3h-3h-3q-2 1 -5 4v1q-3 2 -6 2h-1q-2 0 -3 -1l-3 -1l1 -1q0 -1 1 -1q0 -1 1 -1v-2h1v-2q2 -1 3 -1q3 -4 8 -5q4 -1 9 -1h5q2 0 5 1l4 2q2 1 4 3l3 3zM841 370h-46v-75h46v9h-36v23h30v10h-30v22h36v11zM960 322v5v5v6v4q-2 5 -5 10
q-2 3 -6 7q-1 2 -3 3t-4 4q-2 0 -4 1q-3 1 -5 3q-3 0 -5 1h-5h-5q-3 -1 -5 -1q-6 -3 -10 -4q-2 -3 -3 -4q-2 -1 -4 -3l-3 -3l-4 -4q-1 -3 -2 -5t-1 -5q-2 -4 -2 -10q0 -4 1 -7l2 -8q3 -7 9 -13q2 -2 5 -4t7 -2q6 -3 15 -3h5h5q2 1 5 2l4 2q2 2 4 3t3 2q4 4 6 9zM1038 370
h-11v-58v3q-1 1 -2 1l-36 51v1q-1 0 -2 2h-2h-3h-8v-75h12v59l1 -1l42 -58h9v75zM1099 304h-32v66h-11v-75h43v9zM1159 370h-9q-2 0 -4 -2q-4 -2 -4 -4l-17 -23l-1 -1h-1l-1 1l-18 23q-1 2 -3 4t-5 2h-8l27 -37l1 -1q0 -1 1 -1v-1v-1q0 -1 1 -1v-1v-32h11v32v1v2q1 0 1 2v1
h1zM942 352l4 -4q2 -3 3 -5q0 -3 1 -5v-6q0 -6 -1 -11q-1 -3 -3 -5t-4 -3q-2 -2 -4 -3l-4 -4q-6 -2 -11 -2q-3 0 -6 1q-3 0 -5 1q-3 2 -5 4q-2 1 -4 3q-2 1 -3 3q-2 2 -2 5q-2 3 -2 6q-1 2 -1 5q0 5 3 11q0 2 2 5q1 2 3 4l4 4q2 1 5 2q4 2 11 2h5l6 -2l4 -2zM253 343
q0 -1 -2 -4q-1 0 -1 -1q-1 -1 -3 -1q-1 -1 -4 -1h-16v23h16q2 0 4 -1h3l1 -2l2 -4q1 -1 1 -5zM391 352l4 -4q2 -3 3 -5q1 -3 2 -5v-6v-5l-2 -6t-3 -5t-4 -3q-1 -2 -3 -3q-2 -2 -5 -4q-2 -1 -5 -1q-3 -1 -6 -1q-6 0 -11 2l-4 4q-3 1 -5 3l-3 3q-2 2 -3 5l-2 6q-1 2 -1 5
q0 5 3 11q1 2 3 5q2 2 3 4q2 2 5 4l4 2l6 2h5q6 0 11 -2q3 -1 5 -2zM532 358q0 -2 1 -3v-2l14 -31h-29l14 31v2v3zM132 356l2 -2q0 -2 1 -3q1 -2 1 -5v-2q0 -2 -1 -3t-1 -2q-1 -2 -2 -2l-4 -4h-5h-18v26h18q3 0 5 -1q1 0 3 -1zM580 422q-9 4 -18 10q-10 5 -17 12h157
q-8 -7 -17 -12q-9 -6 -19 -10l-21 -6t-22 -3q-12 0 -22 3zM557 457l154 155q14 -19 22 -39t8 -40q0 -11 -1 -21q-2 -11 -6 -21q-4 -9 -9 -17q-5 -9 -11 -17h-157zM534 453q-13 17 -22 36q-3 10 -5 21t-2 23q0 10 2 20t5 20q3 9 8 18q5 8 12 16h156zM666 642q10 -4 19 -10
l16 -11h-158q18 14 37 21q19 9 43 9zM38 171q-2 2 -2 4l-2 4q-1 3 -1 5q-1 2 -1 5t2 8q1 2 2 5q0 2 2 3l2 5q0 1 3 3q0 1 3 3q2 1 3 2q3 2 5 3l4 1q1 0 4 1h5h7q3 -1 7 -3q4 -1 7 -3l4 -4q-1 -1 -2 -1v-2h-1h-1h-2h-3q-2 1 -4 3q-2 1 -4 1h-3h-5h-5h-4l-6 -3q-2 -2 -4 -3
q-2 -3 -3 -5q-2 -2 -3 -4q-2 -3 -2 -6v-4q0 -4 1 -7l2 -4v-4q1 -1 3 -2q1 -1 2 -3q2 -1 3 -2q1 -2 3 -2q1 -1 3 -2t4 -1q1 -1 3 -1h3h5q2 0 4 1q2 0 5 1l4 2v14h-6h-1l-1 1l-1 2l-2 1v1q-1 0 -1 1v1v1h19v-26l-2 -2l-3 -3q-3 -1 -6 -1q-3 -1 -7 -1h-7h-5h-4q-3 1 -4 2l-5 3
q-1 0 -3 2q-3 1 -3 3q-3 1 -3 3zM117 214v-22h27v-7h-27v-23h33v-8h-41v68h41v-8h-33zM180 154v60h-22v8h52v-8h-23v-60h-7zM260 214v-24h29v-6h-29v-30h-8v68h41v-8h-33zM313 222v-42q0 -2 1 -3q1 -2 2 -3q1 -3 3 -4l2 -4q0 -1 2 -2l2 -2q3 -1 5 -1h4h4q1 0 2 1q3 1 5 2
q1 1 3 2q0 2 2 4q1 1 2 4q2 2 2 6v42h7v-42v-5q-1 -2 -2 -5t-2 -5l-4 -4t-4 -3q-2 -2 -4 -3q-6 -1 -11 -1q-6 0 -12 1l-3 3q-3 1 -5 3q-3 3 -5 9q-1 3 -2 5t-1 5v42h7zM383 222v-60h30v-8h-38v68h8zM428 222v-60h32v-8h-39v68h7zM522 154l-30 68h4q2 0 4 -1q1 -1 2 -1l1 -2
l21 -51v-2q1 -1 1 -3v3l1 1v1q3 7 6 13l6 12q2 8 5 14l6 12q0 2 1 2t1 1q1 1 2 1h2h4q-4 -8 -7 -16q-4 -9 -9 -17q-3 -10 -6 -18q-4 -8 -8 -17h-7zM572 214v-22h28v-7h-28v-23h33v-8h-41v68h41v-8h-33zM655 186q-1 -1 -5 -2l23 -30h-5q-1 0 -2 1h-2l-2 2q-1 0 -2 2l-19 25
h-12v-30h-7v68h25h3q1 0 3 -1q4 -1 7 -4q1 -2 2 -3l2 -4q1 -1 1 -3v-3v-4q0 -2 -1 -3q0 -2 -1 -4t-2 -3l-2 -2zM647 190q2 0 3 2q1 0 2 1h2l2 3q0 1 1 2q0 1 1 2v4v1q-1 1 -1 3l-1 2q-1 0 -2 2q-1 0 -2 1q-1 0 -2 1h-3h-18v-24h18zM709 164q1 1 2 4q1 1 2 3v3q0 3 -1 5
q-1 0 -1 2l-2 2t-4 2q-2 0 -3 1l-3 1q-2 0 -4 1t-2 2q-5 0 -7 3q-2 0 -2 2q-1 2 -2 3v7v5q0 1 1 3q0 3 4 5l3 3q1 0 4 1q2 0 3 1h4h3q1 -1 2 -1h2l3 -2q1 0 2 -1t1 -2q2 -1 3 -2q0 -1 1 -1l-2 -1q-1 -1 -4 -1h-3q-2 1 -2 2h-1h-1h-1h-1h-1h-1h-4q-4 0 -4 -1q-3 -3 -3 -4
q-2 0 -2 -4q0 -3 2 -3q0 -2 1 -3t3 -1l1 -1q2 -2 3 -2t4 -2h2q1 0 1 -1h2q1 0 2 -2h1h1v0h2l1 -1l3 -3q1 -2 3 -3q1 -5 1 -9v-5q0 -2 -3 -4q0 -3 -4 -6q-1 -1 -3 -2l-4 -2q-2 -1 -4 -1h-5q-5 0 -8 1q-4 1 -7 4q-1 0 -2 1l-2 2v2l-1 1l1 1l1 1h2h1h2l2 -2q2 -1 3 -2t3 -1
q0 -1 2 -1h3q4 0 5 1zM744 222v-68h-8v68h8zM771 164q-6 4 -9 10q-2 7 -2 15v4v4q3 5 4 8q3 4 7 8q3 3 6 5q2 2 5 3q2 0 4 1q2 0 4 1h5h5q2 -1 5 -1q2 -1 4 -1q2 -1 4 -3l3 -2q1 -2 3 -3l3 -3l3 -5q1 -3 3 -8l2 -4v-4q0 -4 -1 -7q-1 -4 -3 -8q-1 -3 -2 -5q-2 -3 -5 -5
q-3 -3 -5 -4l-6 -4q-5 -2 -13 -2q-4 0 -7 1q-4 0 -6 1zM771 199q-2 -3 -3 -6t-1 -4q0 -2 1 -4v-3q1 -4 4 -8q0 -1 1 -2t2 -3l3 -2q1 -2 4 -2q1 -1 3 -2q1 -1 2 -1q2 -1 4 -1h4h4q2 0 3 1q1 0 3 1l4 2q1 0 3 2l2 2q1 2 2 3l2 2l2 4l1 4q0 1 1 3v4v4q-1 3 -3 6q0 2 -2 4t-3 5
q-2 1 -4 3q-2 1 -5 3h-4h-6h-6h-5q-2 -2 -4 -3q-3 -2 -5 -3q-1 -3 -2 -5zM850 154h-8v68h6h3q1 0 2 -2l35 -50q1 0 1 -2l1 -1v55h8v-68h-7l-40 56v2h-1v-58zM955 214v-24h28v-6h-28v-30h-7v68h41v-8h-34zM1032 186q-4 -1 -6 -2l22 -30h-6q-2 0 -4 1v2q-1 0 -2 2l-19 25h-12
v-30h-8v68h25h3q2 0 4 -1l4 -2l2 -2q1 -2 2 -3q1 -2 3 -4q0 -1 1 -3v-3v-4q-1 -2 -1 -3l-2 -4q-1 -2 -1 -3zM1026 192q1 0 2 1h1q3 4 3 5q1 2 1 6q0 1 -1 4q0 1 -3 4q-1 0 -1 1l-2 1h-4h-17v-24h17zM1114 164q-2 -3 -5 -4l-6 -4q-3 -1 -6 -1q-3 -1 -7 -1t-7 1q-4 0 -7 1
q-6 2 -11 8q-2 2 -4 5q-2 2 -3 5l-2 8q-2 3 -2 7q0 1 1 4q0 2 1 4t2 5q0 2 1 3q2 3 4 5q1 1 2 3q2 1 4 3l4 2q2 2 4 3q2 0 4 1q3 0 5 1h4h5q2 -1 4 -1l5 -1l3 -3l4 -2l3 -3q1 -2 3 -3q1 -2 2 -5q3 -3 4 -8l2 -4v-4v-7q-1 -4 -3 -8q-1 -3 -3 -5zM1090 161h4q2 0 4 1q1 0 3 1
l2 2q1 0 3 2l4 2l2 3q0 1 1 2l2 4v4q1 1 1 3v4v4q-1 3 -1 6l-2 4q-2 2 -3 5q-3 1 -5 3q-3 1 -5 3h-5h-5h-5h-6q-3 -2 -4 -3q-2 -2 -4 -3q-3 -3 -4 -5l-2 -4q-1 -3 -1 -6v-4v-7q0 -3 1 -4q0 -2 2 -4q0 -1 2 -2q1 -1 2 -3l3 -2q1 -2 2 -2q1 -1 3 -2q1 -1 4 -1q1 -1 3 -1h4z
M1201 221q1 1 2 1h1h6v-68h-7v56l-1 -1v-1q-2 -4 -3 -8q-1 -5 -3 -8t-3 -6l-4 -7q-1 -4 -2 -7l-2 -6q-2 -3 -3 -5q-2 -3 -3 -7h-7q-5 6 -7 13q-3 7 -6 13q-2 7 -5 14q-4 7 -6 14v1l-2 1v-56h-8v68h7q3 0 4 -1l1 -1v-2l24 -53q0 -1 1 -1v-2q0 1 1 2v2q0 2 2 4l21 48q0 2 1 2z
M36 128h77v-10v-2v-2q0 -2 -1 -3l-2 -2l-52 -71h1v1h2h1h51v-18h-81v6q0 5 1 6q0 1 2 4q1 1 1 2t1 2l2 2l1 3l46 63h-50v19zM127 128h68v-19h-49v-24h39v-20h-39v-26h49v-18h-68v107zM279 109h-29v-88h-21v88h-31v19h81v-19zM328 128l46 -107h-12q-4 0 -8 2q-2 1 -2 3
q-1 2 -3 4l-6 14h-49l-5 -14l-1 -2q-1 -1 -2 -1v-2q-1 -1 -3 -2h-2q-1 -1 -2 -1q0 -1 -1 -1h-2h-12l46 107h18zM334 63l-13 33v2q-1 0 -1 1q0 2 -1 3v-3q0 -1 -1 -1q-1 -1 -1 -2l-13 -33h30zM378 128h68v-19h-49v-27h40v-19h-40v-42h-19v107zM553 101q2 -3 3 -6t3 -6
q1 -4 1 -7v-7v-8q0 -4 -1 -7q-2 -3 -3 -6q-1 -4 -3 -7q-2 -2 -4 -5l-4 -6q-4 -2 -6 -4q-2 -3 -5 -4q-3 -3 -6 -4q-4 -1 -7 -2q-4 -1 -7 -1q-4 -1 -8 -1q-5 0 -10 2q-6 1 -11 2q-6 3 -9 6q-4 3 -9 6q-7 8 -10 17q-3 6 -4 11t-1 11q0 3 1 7q0 3 1 7q2 8 6 12q2 4 4 7q1 2 3 5
q4 2 7 4q2 2 5 4t6 3t7 3q3 0 7 1h7h8q3 -1 7 -1q3 -2 7 -3q3 -1 6 -3t5 -4t6 -4q2 -3 4 -5zM539 62l2 6v7q0 6 -2 12q-2 5 -4 8q-2 2 -5 4l-4 4q-3 2 -6 3q-6 3 -14 3t-14 -3q-2 -1 -4 -3l-6 -4t-4 -4q-2 -3 -4 -8q-2 -2 -2 -5v-7v-7q0 -3 2 -6l4 -7q1 -3 4 -5l6 -4l4 -4
q4 -1 7 -2t7 -1t7 1t7 2l6 4l4 4q3 2 5 5zM649 128h19v-107h-18l-50 72q-1 0 -1 1l-1 1q-1 2 -1 3q-2 0 -2 2v1l-2 1v-81h-19v107h17h4q2 -1 2 -2l3 -1l2 -2q5 -8 11 -15q5 -8 10 -17l12 -14q5 -8 12 -15q0 -2 1 -3v-3q0 -1 1 -2v-2v76zM678 128h81v-19h-32v-88h-19v88h-30
v19zM825 73q1 -2 3 -4l2 -4q0 -2 1 -4q1 -3 1 -7q0 -6 -3 -13l-4 -6q-2 -3 -4 -5q-4 -2 -6 -4t-6 -3t-7 -2q-4 -1 -7 -1q-4 0 -7 1q-4 1 -9 2q-3 1 -5 3q-3 2 -7 6q-2 1 -3 3q-1 1 -2 3q-2 1 -2 6l1 1l1 1q1 0 1 1h1t2 1h1h5h2q1 0 1 -1q3 0 5 -1q2 -2 4 -3t3 -2q1 0 3 -1
t5 -1q1 0 3 1q1 0 3 1q3 1 6 3l4 4q1 2 2 3t1 3q0 4 -3 6q-2 3 -4 3l-3 3h-3q-3 1 -8 4q-2 0 -4 1q-3 0 -5 2q-4 1 -6 3q-2 1 -4 3q-3 2 -4 4q-2 2 -3 4q-3 6 -3 12q0 9 3 13q1 3 3 5t5 4q2 2 5 3l6 3q2 0 5 1h7h4q2 -1 5 -1l4 -2q1 -1 4 -2q1 -1 3 -2l4 -4l3 -2l2 -4l-4 -2
l-2 -2q-2 -1 -2 -2h-4h-2h-2h-1q-3 0 -3 1l-4 2q-1 0 -1 1h-1h-3h-6h-2q-1 -1 -3 -2q-1 -1 -2 -4q-1 -1 -1 -4t1 -3l2 -2v-3h4q1 -1 2 -1l6 -2q2 -1 3 -2l5 -1q2 -2 5 -2q2 -1 5 -4zM857 39q3 0 3 -3q1 0 1 -1v-3q0 -3 -1 -5q0 -2 -3 -4q-2 0 -3 -2h-2q-1 -1 -3 -1
q-1 0 -2 1h-2l-2 2h-2q-1 1 -1 2l-2 2q-1 2 -1 5v3q0 1 1 1q1 2 2 3h1q3 3 4 3l2 2h2h3l2 -2zM898 99q-4 -4 -8 -12q-1 -2 -2 -5q-1 -4 -1 -7q0 -4 1 -7l2 -6l4 -7q1 -3 4 -5q2 -2 5 -4q2 -2 6 -4q4 -1 7 -2t7 -1q3 0 5 1t5 1q2 1 5 3q2 1 4 3q2 0 4 1h3h3q2 0 3 -1
q3 -1 5 -3l3 -5q-3 -4 -8 -7q-3 -2 -5 -3q-2 -2 -5 -3q-3 -2 -5 -2l-6 -2t-5 -1q-3 -1 -6 -1q-7 0 -12 2l-10 2q-10 5 -17 12q-8 8 -12 17q-1 6 -2 11q-2 5 -2 11q0 3 1 7q0 3 1 7l2 6q1 3 3 6q3 4 5 7q1 2 4 5l6 4q2 2 6 4q2 2 5 3t8 3q2 0 6 1h8h6q2 0 5 -1l6 -2
q2 -1 5 -2t5 -2q2 -2 5 -4q5 -4 8 -8l-3 -4l-2 -2q-1 -1 -3 -2h-3h-3h-3q-2 0 -4 1l-4 4q-3 1 -5 2q-3 1 -5 1h-5q-8 0 -14 -3q-4 -1 -6 -3zM1072 101q1 -3 3 -6l2 -6q1 -4 1 -7v-7v-8q0 -4 -1 -7l-2 -6q-2 -4 -3 -7q-4 -5 -8 -11q-4 -2 -7 -4q-3 -3 -5 -4q-3 -3 -6 -4
l-8 -2q-3 -1 -6 -1q-4 -1 -8 -1q-10 0 -21 4l-8 6q-5 3 -8 6q-4 4 -7 8t-5 9q-2 6 -3 11t-1 11q0 3 1 7v7q1 3 3 6t3 6q2 4 4 7l5 5q2 2 5 4l6 4q2 2 6 3q3 1 6 3q4 0 8 1h6h8q3 -1 6 -1q4 -2 8 -3q3 -1 6 -3q2 -2 5 -4t7 -4q1 -3 4 -5zM1057 62q2 5 2 13v7q-1 3 -2 5
q-2 5 -3 8l-4 4q-5 5 -12 7q-3 2 -6 3h-8q-7 0 -13 -3q-3 -1 -5 -3l-6 -4l-4 -4q-2 -3 -4 -8q-1 -2 -1 -5q-1 -4 -1 -7q0 -4 1 -7q0 -3 1 -6q4 -8 8 -12l6 -4q2 -2 5 -4q3 -1 7 -2t6 -1q4 0 8 1l6 2q3 2 7 4q3 2 5 4zM1188 127l1 1h2h19v-107h-19v78v-2l-2 -3v-3q0 -1 -1 -2
q-3 -9 -7 -17q-4 -9 -7 -17l-6 -16q-4 -9 -7 -18h-19l-27 68q-1 1 -1 5q-1 2 -1 3q-1 0 -1 1v-77h-20v107h19h3l1 -1q2 -1 3 -1l1 -1l3 -2l2 -2q1 -1 1 -2q2 -8 6 -15q3 -8 6 -17q3 -8 7 -16l6 -16v-1v-2v-2q2 0 2 -2v2v2q0 1 1 2v1l4 8l22 56q0 1 1 2v2q1 1 3 2h1q1 1 2 1z
" />
    <glyph glyph-name="three" unicode="3" horiz-adv-x="1236" 
d="M1210 533v-286h-1174v286h445q0 15 3 29q2 13 8 26t14 25q7 12 18 21q18 19 44 30q14 6 28 9q13 2 27 2q16 0 30 -3t26 -9q14 -6 26 -14q11 -8 20 -17q18 -18 30 -46q10 -26 10 -53h445zM503 582q-11 -23 -11 -49q0 -28 11 -51q5 -11 12 -22t15 -20q9 -9 20 -16
q10 -7 22 -12q23 -11 51 -11q14 0 27 2q12 2 24 7q12 6 22 13q10 6 19 16q9 9 16 20q7 10 13 21q11 25 11 53q0 11 -2 23q-2 11 -7 21q-6 20 -20 37q-7 8 -15 15t-16 12l-18 10l-20 8q-7 2 -15 3q-9 1 -19 1q-14 0 -27 -2q-13 -3 -25 -9q-24 -9 -42 -28q-8 -9 -14 -20z
M144 337q3 5 3 9v5q-1 2 -3 5q0 1 -2 3l-3 3l-2 4q-2 1 -5 1l-4 2q-3 1 -5 1h-26v-75h8v28h18q2 0 5 1q2 0 4 1q5 2 7 4q1 2 3 4zM200 370h-46v-75h46v9h-35v23h29v10h-29v22h35v11zM273 295l-23 32q1 1 3 1q1 0 2 2q4 2 5 5q1 1 2 3q1 1 2 3v6v5q0 2 -1 4q-2 4 -5 7
q-2 4 -7 4q-1 1 -3 2q-3 1 -5 1h-27v-75h11v31h11l20 -27q1 -2 3 -3q1 -1 2 -1h3h7zM324 308q0 2 1 4v4q0 6 -2 10t-6 7q-1 0 -1 1q-1 1 -3 2v0q-1 0 -3 1h-1q-1 0 -1 2q-3 0 -4 1q-3 0 -4 1l-3 1q-4 1 -4 2q-3 2 -3 3v4v4q1 0 2 1t1 2l2 1h2q2 1 3 1h2h1q1 -1 2 -1
q4 0 4 -2q1 -1 2 -1h2q4 0 7 2l2 1q0 1 -1 2l-2 2q-2 1 -3 2t-3 2q-1 0 -2 1q-1 0 -3 2q-3 0 -3 1h-3h-4q-3 -1 -5 -1l-3 -3q-2 -1 -4 -1q-1 -2 -2 -3q-2 -2 -3 -4t-1 -3q-1 -2 -1 -5v-4q0 -2 2 -4q1 -2 3 -3q1 -2 1 -3l4 -2q2 -2 4 -2l4 -2q1 -1 3 -2q1 -1 3 -1h2
q3 -1 4 -1l1 -1l2 -1q0 -1 1 -3q1 -1 1 -2v-4v-1q0 -2 -1 -3l-1 -2q0 -1 -2 -2q-1 -2 -2 -2q-2 -1 -3 -2h-2h-3h-3h-3l-2 2q-2 0 -2 2l-1 1q-3 2 -6 2h-2q-1 0 -2 -1l-3 -1q0 -2 1 -2q0 -2 2 -3q0 -1 1 -2l1 -1h1q4 -4 9 -5q4 -1 9 -1h5q2 0 4 1t5 2q2 1 3 3q3 1 5 3z
M409 322q1 3 1 5v5q0 6 -1 10q0 3 -1 5q-2 2 -3 5q-2 3 -6 7q-2 2 -4 3t-5 4q-1 0 -3 1t-5 3q-3 0 -5 1h-5h-5q-3 -1 -5 -1q-3 -2 -5 -3t-4 -1q-2 -3 -4 -4t-4 -3l-3 -3q-2 -2 -3 -4q-2 -3 -2 -5q-1 -2 -2 -5q-1 -4 -1 -10q0 -4 1 -7l2 -8q1 -3 3 -6t5 -7l6 -4q3 -2 7 -2
q6 -3 14 -3h5h5q5 2 8 4q7 3 9 5q3 4 6 9q1 2 3 5zM487 370h-10v-58v3l-1 1l-36 51q-2 0 -4 3h-2h-2h-7v-75h10v61l1 -1v-2l43 -58h8v75zM571 295l-33 75h-11l-32 -75h6q3 0 4 1l2 2l2 1l4 13h39l5 -13q1 -2 3 -3q0 -1 4 -1h7zM620 304h-32v66h-11v-75h43v9zM722 370h-10
v-45v-5q0 -2 -1 -4q-1 -4 -5 -6l-2 -2q-2 -1 -3 -3q-3 -1 -4 -1h-4q-5 0 -7 1q-3 2 -5 3t-2 2q-1 1 -2 3l-3 3v4q-1 2 -1 5v45h-10v-45v-5q0 -3 1 -4q0 -4 2 -7q2 -5 6 -7q1 -1 3 -2q1 -1 3 -2q1 -1 3 -1q2 -1 3 -2q3 0 5 -1q1 -1 4 -1q2 0 4 1q1 1 4 1l4 2q1 0 3 1l6 4
q2 2 3 4q0 1 1 3l3 3q1 2 1 4v9v45zM780 308q3 4 3 8q0 6 -2 10t-6 7q-3 2 -3 3h-2q-2 0 -3 1h-1q-2 0 -3 2h-1q-1 0 -2 1q-1 0 -2 1l-3 1q-4 1 -4 2q-2 1 -2 2q-1 1 -2 1v2q-1 0 -1 2t2 4l3 3q1 0 2 1h2q0 1 5 1h1q1 -1 2 -1q1 -1 4 -2q4 -1 5 -1q3 0 4 2l3 1l-2 2l-2 2
q0 1 -1 2q-2 1 -3 2q-2 0 -3 1q-1 0 -3 2q-2 0 -3 1h-2h-5q-2 -1 -4 -1q-2 -2 -4 -3t-3 -1l-3 -3q-1 -2 -3 -4q0 -2 -1 -3q-1 -2 -1 -5t1 -4q1 -2 1 -4q2 -4 5 -6l4 -2q1 -2 2 -2q3 -1 5 -2q1 -1 3 -2t3 -1h2q1 -1 3 -1q1 0 2 -1t3 -1q1 -1 1 -3q1 -1 1 -2v-4v-1q0 -2 -1 -3
q-1 -3 -4 -4q-2 -2 -3 -2l-2 -2h-2h-3h-3h-3q-2 1 -5 4v1q-3 2 -6 2h-1q-2 0 -3 -1l-3 -1l1 -1q0 -1 1 -1q0 -1 1 -1v-2h1v-2q2 -1 3 -1q3 -4 8 -5q4 -1 9 -1h5q2 0 5 1l4 2q2 1 4 3l3 3zM841 370h-46v-75h46v9h-36v23h30v10h-30v22h36v11zM960 322v5v5v6v4q-2 5 -5 10
q-2 3 -6 7q-1 2 -3 3t-4 4q-2 0 -4 1q-3 1 -5 3q-3 0 -5 1h-5h-5q-3 -1 -5 -1q-6 -3 -10 -4q-2 -3 -3 -4q-2 -1 -4 -3l-3 -3l-4 -4q-1 -3 -2 -5t-1 -5q-2 -4 -2 -10q0 -4 1 -7l2 -8q3 -7 9 -13q2 -2 5 -4t7 -2q6 -3 15 -3h5h5q2 1 5 2l4 2q2 2 4 3t3 2q4 4 6 9zM1038 370
h-11v-58v3q-1 1 -2 1l-36 51v1q-1 0 -2 2h-2h-3h-8v-75h12v59l1 -1l42 -58h9v75zM1099 304h-32v66h-11v-75h43v9zM1159 370h-9q-2 0 -4 -2q-4 -2 -4 -4l-17 -23l-1 -1h-1l-1 1l-18 23q-1 2 -3 4t-5 2h-8l27 -37l1 -1q0 -1 1 -1v-1v-1q0 -1 1 -1v-1v-32h11v32v1v2q1 0 1 2v1
h1zM942 352l4 -4q2 -3 3 -5q0 -3 1 -5v-6q0 -6 -1 -11q-1 -3 -3 -5t-4 -3q-2 -2 -4 -3l-4 -4q-6 -2 -11 -2q-3 0 -6 1q-3 0 -5 1q-3 2 -5 4q-2 1 -4 3q-2 1 -3 3q-2 2 -2 5q-2 3 -2 6q-1 2 -1 5q0 5 3 11q0 2 2 5q1 2 3 4l4 4q2 1 5 2q4 2 11 2h5l6 -2l4 -2zM253 343
q0 -1 -2 -4q-1 0 -1 -1q-1 -1 -3 -1q-1 -1 -4 -1h-16v23h16q2 0 4 -1h3l1 -2l2 -4q1 -1 1 -5zM391 352l4 -4q2 -3 3 -5q1 -3 2 -5v-6v-5l-2 -6t-3 -5t-4 -3q-1 -2 -3 -3q-2 -2 -5 -4q-2 -1 -5 -1q-3 -1 -6 -1q-6 0 -11 2l-4 4q-3 1 -5 3l-3 3q-2 2 -3 5l-2 6q-1 2 -1 5
q0 5 3 11q1 2 3 5q2 2 3 4q2 2 5 4l4 2l6 2h5q6 0 11 -2q3 -1 5 -2zM532 358q0 -2 1 -3v-2l14 -31h-29l14 31v2v3zM132 356l2 -2q0 -2 1 -3q1 -2 1 -5v-2q0 -2 -1 -3t-1 -2q-1 -2 -2 -2l-4 -4h-5h-18v26h18q3 0 5 -1q1 0 3 -1zM580 422q-9 4 -18 10q-10 5 -17 12h157
q-8 -7 -17 -12q-9 -6 -19 -10l-21 -6t-22 -3q-12 0 -22 3zM557 457l154 155q14 -19 22 -39t8 -40q0 -11 -1 -21q-2 -11 -6 -21q-4 -9 -9 -17q-5 -9 -11 -17h-157zM534 453q-13 17 -22 36q-3 10 -5 21t-2 23q0 10 2 20t5 20q3 9 8 18q5 8 12 16h156zM666 642q10 -4 19 -10
l16 -11h-158q18 14 37 21q19 9 43 9zM38 171q-2 2 -2 4l-2 4q-1 3 -1 5q-1 2 -1 5t2 8q1 2 2 5q0 2 2 3l2 5q0 1 3 3q0 1 3 3q2 1 3 2q3 2 5 3l4 1q1 0 4 1h5h7q3 -1 7 -3q4 -1 7 -3l4 -4q-1 -1 -2 -1v-2h-1h-1h-2h-3q-2 1 -4 3q-2 1 -4 1h-3h-5h-5h-4l-6 -3q-2 -2 -4 -3
q-2 -3 -3 -5q-2 -2 -3 -4q-2 -3 -2 -6v-4q0 -4 1 -7l2 -4v-4q1 -1 3 -2q1 -1 2 -3q2 -1 3 -2q1 -2 3 -2q1 -1 3 -2t4 -1q1 -1 3 -1h3h5q2 0 4 1q2 0 5 1l4 2v14h-6h-1l-1 1l-1 2l-2 1v1q-1 0 -1 1v1v1h19v-26l-2 -2l-3 -3q-3 -1 -6 -1q-3 -1 -7 -1h-7h-5h-4q-3 1 -4 2l-5 3
q-1 0 -3 2q-3 1 -3 3q-3 1 -3 3zM117 214v-22h27v-7h-27v-23h33v-8h-41v68h41v-8h-33zM180 154v60h-22v8h52v-8h-23v-60h-7zM260 214v-24h29v-6h-29v-30h-8v68h41v-8h-33zM313 222v-42q0 -2 1 -3q1 -2 2 -3q1 -3 3 -4l2 -4q0 -1 2 -2l2 -2q3 -1 5 -1h4h4q1 0 2 1q3 1 5 2
q1 1 3 2q0 2 2 4q1 1 2 4q2 2 2 6v42h7v-42v-5q-1 -2 -2 -5t-2 -5l-4 -4t-4 -3q-2 -2 -4 -3q-6 -1 -11 -1q-6 0 -12 1l-3 3q-3 1 -5 3q-3 3 -5 9q-1 3 -2 5t-1 5v42h7zM383 222v-60h30v-8h-38v68h8zM428 222v-60h32v-8h-39v68h7zM522 154l-30 68h4q2 0 4 -1q1 -1 2 -1l1 -2
l21 -51v-2q1 -1 1 -3v3l1 1v1q3 7 6 13l6 12q2 8 5 14l6 12q0 2 1 2t1 1q1 1 2 1h2h4q-4 -8 -7 -16q-4 -9 -9 -17q-3 -10 -6 -18q-4 -8 -8 -17h-7zM572 214v-22h28v-7h-28v-23h33v-8h-41v68h41v-8h-33zM655 186q-1 -1 -5 -2l23 -30h-5q-1 0 -2 1h-2l-2 2q-1 0 -2 2l-19 25
h-12v-30h-7v68h25h3q1 0 3 -1q4 -1 7 -4q1 -2 2 -3l2 -4q1 -1 1 -3v-3v-4q0 -2 -1 -3q0 -2 -1 -4t-2 -3l-2 -2zM647 190q2 0 3 2q1 0 2 1h2l2 3q0 1 1 2q0 1 1 2v4v1q-1 1 -1 3l-1 2q-1 0 -2 2q-1 0 -2 1q-1 0 -2 1h-3h-18v-24h18zM709 164q1 1 2 4q1 1 2 3v3q0 3 -1 5
q-1 0 -1 2l-2 2t-4 2q-2 0 -3 1l-3 1q-2 0 -4 1t-2 2q-5 0 -7 3q-2 0 -2 2q-1 2 -2 3v7v5q0 1 1 3q0 3 4 5l3 3q1 0 4 1q2 0 3 1h4h3q1 -1 2 -1h2l3 -2q1 0 2 -1t1 -2q2 -1 3 -2q0 -1 1 -1l-2 -1q-1 -1 -4 -1h-3q-2 1 -2 2h-1h-1h-1h-1h-1h-1h-4q-4 0 -4 -1q-3 -3 -3 -4
q-2 0 -2 -4q0 -3 2 -3q0 -2 1 -3t3 -1l1 -1q2 -2 3 -2t4 -2h2q1 0 1 -1h2q1 0 2 -2h1h1v0h2l1 -1l3 -3q1 -2 3 -3q1 -5 1 -9v-5q0 -2 -3 -4q0 -3 -4 -6q-1 -1 -3 -2l-4 -2q-2 -1 -4 -1h-5q-5 0 -8 1q-4 1 -7 4q-1 0 -2 1l-2 2v2l-1 1l1 1l1 1h2h1h2l2 -2q2 -1 3 -2t3 -1
q0 -1 2 -1h3q4 0 5 1zM744 222v-68h-8v68h8zM771 164q-6 4 -9 10q-2 7 -2 15v4v4q3 5 4 8q3 4 7 8q3 3 6 5q2 2 5 3q2 0 4 1q2 0 4 1h5h5q2 -1 5 -1q2 -1 4 -1q2 -1 4 -3l3 -2q1 -2 3 -3l3 -3l3 -5q1 -3 3 -8l2 -4v-4q0 -4 -1 -7q-1 -4 -3 -8q-1 -3 -2 -5q-2 -3 -5 -5
q-3 -3 -5 -4l-6 -4q-5 -2 -13 -2q-4 0 -7 1q-4 0 -6 1zM771 199q-2 -3 -3 -6t-1 -4q0 -2 1 -4v-3q1 -4 4 -8q0 -1 1 -2t2 -3l3 -2q1 -2 4 -2q1 -1 3 -2q1 -1 2 -1q2 -1 4 -1h4h4q2 0 3 1q1 0 3 1l4 2q1 0 3 2l2 2q1 2 2 3l2 2l2 4l1 4q0 1 1 3v4v4q-1 3 -3 6q0 2 -2 4t-3 5
q-2 1 -4 3q-2 1 -5 3h-4h-6h-6h-5q-2 -2 -4 -3q-3 -2 -5 -3q-1 -3 -2 -5zM850 154h-8v68h6h3q1 0 2 -2l35 -50q1 0 1 -2l1 -1v55h8v-68h-7l-40 56v2h-1v-58zM955 214v-24h28v-6h-28v-30h-7v68h41v-8h-34zM1032 186q-4 -1 -6 -2l22 -30h-6q-2 0 -4 1v2q-1 0 -2 2l-19 25h-12
v-30h-8v68h25h3q2 0 4 -1l4 -2l2 -2q1 -2 2 -3q1 -2 3 -4q0 -1 1 -3v-3v-4q-1 -2 -1 -3l-2 -4q-1 -2 -1 -3zM1026 192q1 0 2 1h1q3 4 3 5q1 2 1 6q0 1 -1 4q0 1 -3 4q-1 0 -1 1l-2 1h-4h-17v-24h17zM1114 164q-2 -3 -5 -4l-6 -4q-3 -1 -6 -1q-3 -1 -7 -1t-7 1q-4 0 -7 1
q-6 2 -11 8q-2 2 -4 5q-2 2 -3 5l-2 8q-2 3 -2 7q0 1 1 4q0 2 1 4t2 5q0 2 1 3q2 3 4 5q1 1 2 3q2 1 4 3l4 2q2 2 4 3q2 0 4 1q3 0 5 1h4h5q2 -1 4 -1l5 -1l3 -3l4 -2l3 -3q1 -2 3 -3q1 -2 2 -5q3 -3 4 -8l2 -4v-4v-7q-1 -4 -3 -8q-1 -3 -3 -5zM1090 161h4q2 0 4 1q1 0 3 1
l2 2q1 0 3 2l4 2l2 3q0 1 1 2l2 4v4q1 1 1 3v4v4q-1 3 -1 6l-2 4q-2 2 -3 5q-3 1 -5 3q-3 1 -5 3h-5h-5h-5h-6q-3 -2 -4 -3q-2 -2 -4 -3q-3 -3 -4 -5l-2 -4q-1 -3 -1 -6v-4v-7q0 -3 1 -4q0 -2 2 -4q0 -1 2 -2q1 -1 2 -3l3 -2q1 -2 2 -2q1 -1 3 -2q1 -1 4 -1q1 -1 3 -1h4z
M1201 221q1 1 2 1h1h6v-68h-7v56l-1 -1v-1q-2 -4 -3 -8q-1 -5 -3 -8t-3 -6l-4 -7q-1 -4 -2 -7l-2 -6q-2 -3 -3 -5q-2 -3 -3 -7h-7q-5 6 -7 13q-3 7 -6 13q-2 7 -5 14q-4 7 -6 14v1l-2 1v-56h-8v68h7q3 0 4 -1l1 -1v-2l24 -53q0 -1 1 -1v-2q0 1 1 2v2q0 2 2 4l21 48q0 2 1 2z
M36 128h77v-10v-2v-2q0 -2 -1 -3l-2 -2l-52 -71h1v1h2h1h51v-18h-81v6q0 5 1 6q0 1 2 4q1 1 1 2t1 2l2 2l1 3l46 63h-50v19zM127 128h68v-19h-49v-24h39v-20h-39v-26h49v-18h-68v107zM279 109h-29v-88h-21v88h-31v19h81v-19zM328 128l46 -107h-12q-4 0 -8 2q-2 1 -2 3
q-1 2 -3 4l-6 14h-49l-5 -14l-1 -2q-1 -1 -2 -1v-2q-1 -1 -3 -2h-2q-1 -1 -2 -1q0 -1 -1 -1h-2h-12l46 107h18zM334 63l-13 33v2q-1 0 -1 1q0 2 -1 3v-3q0 -1 -1 -1q-1 -1 -1 -2l-13 -33h30zM378 128h68v-19h-49v-27h40v-19h-40v-42h-19v107zM553 101q2 -3 3 -6t3 -6
q1 -4 1 -7v-7v-8q0 -4 -1 -7q-2 -3 -3 -6q-1 -4 -3 -7q-2 -2 -4 -5l-4 -6q-4 -2 -6 -4q-2 -3 -5 -4q-3 -3 -6 -4q-4 -1 -7 -2q-4 -1 -7 -1q-4 -1 -8 -1q-5 0 -10 2q-6 1 -11 2q-6 3 -9 6q-4 3 -9 6q-7 8 -10 17q-3 6 -4 11t-1 11q0 3 1 7q0 3 1 7q2 8 6 12q2 4 4 7q1 2 3 5
q4 2 7 4q2 2 5 4t6 3t7 3q3 0 7 1h7h8q3 -1 7 -1q3 -2 7 -3q3 -1 6 -3t5 -4t6 -4q2 -3 4 -5zM539 62l2 6v7q0 6 -2 12q-2 5 -4 8q-2 2 -5 4l-4 4q-3 2 -6 3q-6 3 -14 3t-14 -3q-2 -1 -4 -3l-6 -4t-4 -4q-2 -3 -4 -8q-2 -2 -2 -5v-7v-7q0 -3 2 -6l4 -7q1 -3 4 -5l6 -4l4 -4
q4 -1 7 -2t7 -1t7 1t7 2l6 4l4 4q3 2 5 5zM649 128h19v-107h-18l-50 72q-1 0 -1 1l-1 1q-1 2 -1 3q-2 0 -2 2v1l-2 1v-81h-19v107h17h4q2 -1 2 -2l3 -1l2 -2q5 -8 11 -15q5 -8 10 -17l12 -14q5 -8 12 -15q0 -2 1 -3v-3q0 -1 1 -2v-2v76zM678 128h81v-19h-32v-88h-19v88h-30
v19zM825 73q1 -2 3 -4l2 -4q0 -2 1 -4q1 -3 1 -7q0 -6 -3 -13l-4 -6q-2 -3 -4 -5q-4 -2 -6 -4t-6 -3t-7 -2q-4 -1 -7 -1q-4 0 -7 1q-4 1 -9 2q-3 1 -5 3q-3 2 -7 6q-2 1 -3 3q-1 1 -2 3q-2 1 -2 6l1 1l1 1q1 0 1 1h1t2 1h1h5h2q1 0 1 -1q3 0 5 -1q2 -2 4 -3t3 -2q1 0 3 -1
t5 -1q1 0 3 1q1 0 3 1q3 1 6 3l4 4q1 2 2 3t1 3q0 4 -3 6q-2 3 -4 3l-3 3h-3q-3 1 -8 4q-2 0 -4 1q-3 0 -5 2q-4 1 -6 3q-2 1 -4 3q-3 2 -4 4q-2 2 -3 4q-3 6 -3 12q0 9 3 13q1 3 3 5t5 4q2 2 5 3l6 3q2 0 5 1h7h4q2 -1 5 -1l4 -2q1 -1 4 -2q1 -1 3 -2l4 -4l3 -2l2 -4l-4 -2
l-2 -2q-2 -1 -2 -2h-4h-2h-2h-1q-3 0 -3 1l-4 2q-1 0 -1 1h-1h-3h-6h-2q-1 -1 -3 -2q-1 -1 -2 -4q-1 -1 -1 -4t1 -3l2 -2v-3h4q1 -1 2 -1l6 -2q2 -1 3 -2l5 -1q2 -2 5 -2q2 -1 5 -4zM857 39q3 0 3 -3q1 0 1 -1v-3q0 -3 -1 -5q0 -2 -3 -4q-2 0 -3 -2h-2q-1 -1 -3 -1
q-1 0 -2 1h-2l-2 2h-2q-1 1 -1 2l-2 2q-1 2 -1 5v3q0 1 1 1q1 2 2 3h1q3 3 4 3l2 2h2h3l2 -2zM898 99q-4 -4 -8 -12q-1 -2 -2 -5q-1 -4 -1 -7q0 -4 1 -7l2 -6l4 -7q1 -3 4 -5q2 -2 5 -4q2 -2 6 -4q4 -1 7 -2t7 -1q3 0 5 1t5 1q2 1 5 3q2 1 4 3q2 0 4 1h3h3q2 0 3 -1
q3 -1 5 -3l3 -5q-3 -4 -8 -7q-3 -2 -5 -3q-2 -2 -5 -3q-3 -2 -5 -2l-6 -2t-5 -1q-3 -1 -6 -1q-7 0 -12 2l-10 2q-10 5 -17 12q-8 8 -12 17q-1 6 -2 11q-2 5 -2 11q0 3 1 7q0 3 1 7l2 6q1 3 3 6q3 4 5 7q1 2 4 5l6 4q2 2 6 4q2 2 5 3t8 3q2 0 6 1h8h6q2 0 5 -1l6 -2
q2 -1 5 -2t5 -2q2 -2 5 -4q5 -4 8 -8l-3 -4l-2 -2q-1 -1 -3 -2h-3h-3h-3q-2 0 -4 1l-4 4q-3 1 -5 2q-3 1 -5 1h-5q-8 0 -14 -3q-4 -1 -6 -3zM1072 101q1 -3 3 -6l2 -6q1 -4 1 -7v-7v-8q0 -4 -1 -7l-2 -6q-2 -4 -3 -7q-4 -5 -8 -11q-4 -2 -7 -4q-3 -3 -5 -4q-3 -3 -6 -4
l-8 -2q-3 -1 -6 -1q-4 -1 -8 -1q-10 0 -21 4l-8 6q-5 3 -8 6q-4 4 -7 8t-5 9q-2 6 -3 11t-1 11q0 3 1 7v7q1 3 3 6t3 6q2 4 4 7l5 5q2 2 5 4l6 4q2 2 6 3q3 1 6 3q4 0 8 1h6h8q3 -1 6 -1q4 -2 8 -3q3 -1 6 -3q2 -2 5 -4t7 -4q1 -3 4 -5zM1057 62q2 5 2 13v7q-1 3 -2 5
q-2 5 -3 8l-4 4q-5 5 -12 7q-3 2 -6 3h-8q-7 0 -13 -3q-3 -1 -5 -3l-6 -4l-4 -4q-2 -3 -4 -8q-1 -2 -1 -5q-1 -4 -1 -7q0 -4 1 -7q0 -3 1 -6q4 -8 8 -12l6 -4q2 -2 5 -4q3 -1 7 -2t6 -1q4 0 8 1l6 2q3 2 7 4q3 2 5 4zM1188 127l1 1h2h19v-107h-19v78v-2l-2 -3v-3q0 -1 -1 -2
q-3 -9 -7 -17q-4 -9 -7 -17l-6 -16q-4 -9 -7 -18h-19l-27 68q-1 1 -1 5q-1 2 -1 3q-1 0 -1 1v-77h-20v107h19h3l1 -1q2 -1 3 -1l1 -1l3 -2l2 -2q1 -1 1 -2q2 -8 6 -15q3 -8 6 -17q3 -8 7 -16l6 -16v-1v-2v-2q2 0 2 -2v2v2q0 1 1 2v1l4 8l22 56q0 1 1 2v2q1 1 3 2h1q1 1 2 1z
" />
    <glyph glyph-name="four" unicode="4" horiz-adv-x="1236" 
d="M1210 533v-286h-1174v286h445q0 15 3 29q2 13 8 26t14 25q7 12 18 21q18 19 44 30q14 6 28 9q13 2 27 2q16 0 30 -3t26 -9q14 -6 26 -14q11 -8 20 -17q18 -18 30 -46q10 -26 10 -53h445zM503 582q-11 -23 -11 -49q0 -28 11 -51q5 -11 12 -22t15 -20q9 -9 20 -16
q10 -7 22 -12q23 -11 51 -11q14 0 27 2q12 2 24 7q12 6 22 13q10 6 19 16q9 9 16 20q7 10 13 21q11 25 11 53q0 11 -2 23q-2 11 -7 21q-6 20 -20 37q-7 8 -15 15t-16 12l-18 10l-20 8q-7 2 -15 3q-9 1 -19 1q-14 0 -27 -2q-13 -3 -25 -9q-24 -9 -42 -28q-8 -9 -14 -20z
M144 337q3 5 3 9v5q-1 2 -3 5q0 1 -2 3l-3 3l-2 4q-2 1 -5 1l-4 2q-3 1 -5 1h-26v-75h8v28h18q2 0 5 1q2 0 4 1q5 2 7 4q1 2 3 4zM200 370h-46v-75h46v9h-35v23h29v10h-29v22h35v11zM273 295l-23 32q1 1 3 1q1 0 2 2q4 2 5 5q1 1 2 3q1 1 2 3v6v5q0 2 -1 4q-2 4 -5 7
q-2 4 -7 4q-1 1 -3 2q-3 1 -5 1h-27v-75h11v31h11l20 -27q1 -2 3 -3q1 -1 2 -1h3h7zM324 308q0 2 1 4v4q0 6 -2 10t-6 7q-1 0 -1 1q-1 1 -3 2v0q-1 0 -3 1h-1q-1 0 -1 2q-3 0 -4 1q-3 0 -4 1l-3 1q-4 1 -4 2q-3 2 -3 3v4v4q1 0 2 1t1 2l2 1h2q2 1 3 1h2h1q1 -1 2 -1
q4 0 4 -2q1 -1 2 -1h2q4 0 7 2l2 1q0 1 -1 2l-2 2q-2 1 -3 2t-3 2q-1 0 -2 1q-1 0 -3 2q-3 0 -3 1h-3h-4q-3 -1 -5 -1l-3 -3q-2 -1 -4 -1q-1 -2 -2 -3q-2 -2 -3 -4t-1 -3q-1 -2 -1 -5v-4q0 -2 2 -4q1 -2 3 -3q1 -2 1 -3l4 -2q2 -2 4 -2l4 -2q1 -1 3 -2q1 -1 3 -1h2
q3 -1 4 -1l1 -1l2 -1q0 -1 1 -3q1 -1 1 -2v-4v-1q0 -2 -1 -3l-1 -2q0 -1 -2 -2q-1 -2 -2 -2q-2 -1 -3 -2h-2h-3h-3h-3l-2 2q-2 0 -2 2l-1 1q-3 2 -6 2h-2q-1 0 -2 -1l-3 -1q0 -2 1 -2q0 -2 2 -3q0 -1 1 -2l1 -1h1q4 -4 9 -5q4 -1 9 -1h5q2 0 4 1t5 2q2 1 3 3q3 1 5 3z
M409 322q1 3 1 5v5q0 6 -1 10q0 3 -1 5q-2 2 -3 5q-2 3 -6 7q-2 2 -4 3t-5 4q-1 0 -3 1t-5 3q-3 0 -5 1h-5h-5q-3 -1 -5 -1q-3 -2 -5 -3t-4 -1q-2 -3 -4 -4t-4 -3l-3 -3q-2 -2 -3 -4q-2 -3 -2 -5q-1 -2 -2 -5q-1 -4 -1 -10q0 -4 1 -7l2 -8q1 -3 3 -6t5 -7l6 -4q3 -2 7 -2
q6 -3 14 -3h5h5q5 2 8 4q7 3 9 5q3 4 6 9q1 2 3 5zM487 370h-10v-58v3l-1 1l-36 51q-2 0 -4 3h-2h-2h-7v-75h10v61l1 -1v-2l43 -58h8v75zM571 295l-33 75h-11l-32 -75h6q3 0 4 1l2 2l2 1l4 13h39l5 -13q1 -2 3 -3q0 -1 4 -1h7zM620 304h-32v66h-11v-75h43v9zM722 370h-10
v-45v-5q0 -2 -1 -4q-1 -4 -5 -6l-2 -2q-2 -1 -3 -3q-3 -1 -4 -1h-4q-5 0 -7 1q-3 2 -5 3t-2 2q-1 1 -2 3l-3 3v4q-1 2 -1 5v45h-10v-45v-5q0 -3 1 -4q0 -4 2 -7q2 -5 6 -7q1 -1 3 -2q1 -1 3 -2q1 -1 3 -1q2 -1 3 -2q3 0 5 -1q1 -1 4 -1q2 0 4 1q1 1 4 1l4 2q1 0 3 1l6 4
q2 2 3 4q0 1 1 3l3 3q1 2 1 4v9v45zM780 308q3 4 3 8q0 6 -2 10t-6 7q-3 2 -3 3h-2q-2 0 -3 1h-1q-2 0 -3 2h-1q-1 0 -2 1q-1 0 -2 1l-3 1q-4 1 -4 2q-2 1 -2 2q-1 1 -2 1v2q-1 0 -1 2t2 4l3 3q1 0 2 1h2q0 1 5 1h1q1 -1 2 -1q1 -1 4 -2q4 -1 5 -1q3 0 4 2l3 1l-2 2l-2 2
q0 1 -1 2q-2 1 -3 2q-2 0 -3 1q-1 0 -3 2q-2 0 -3 1h-2h-5q-2 -1 -4 -1q-2 -2 -4 -3t-3 -1l-3 -3q-1 -2 -3 -4q0 -2 -1 -3q-1 -2 -1 -5t1 -4q1 -2 1 -4q2 -4 5 -6l4 -2q1 -2 2 -2q3 -1 5 -2q1 -1 3 -2t3 -1h2q1 -1 3 -1q1 0 2 -1t3 -1q1 -1 1 -3q1 -1 1 -2v-4v-1q0 -2 -1 -3
q-1 -3 -4 -4q-2 -2 -3 -2l-2 -2h-2h-3h-3h-3q-2 1 -5 4v1q-3 2 -6 2h-1q-2 0 -3 -1l-3 -1l1 -1q0 -1 1 -1q0 -1 1 -1v-2h1v-2q2 -1 3 -1q3 -4 8 -5q4 -1 9 -1h5q2 0 5 1l4 2q2 1 4 3l3 3zM841 370h-46v-75h46v9h-36v23h30v10h-30v22h36v11zM960 322v5v5v6v4q-2 5 -5 10
q-2 3 -6 7q-1 2 -3 3t-4 4q-2 0 -4 1q-3 1 -5 3q-3 0 -5 1h-5h-5q-3 -1 -5 -1q-6 -3 -10 -4q-2 -3 -3 -4q-2 -1 -4 -3l-3 -3l-4 -4q-1 -3 -2 -5t-1 -5q-2 -4 -2 -10q0 -4 1 -7l2 -8q3 -7 9 -13q2 -2 5 -4t7 -2q6 -3 15 -3h5h5q2 1 5 2l4 2q2 2 4 3t3 2q4 4 6 9zM1038 370
h-11v-58v3q-1 1 -2 1l-36 51v1q-1 0 -2 2h-2h-3h-8v-75h12v59l1 -1l42 -58h9v75zM1099 304h-32v66h-11v-75h43v9zM1159 370h-9q-2 0 -4 -2q-4 -2 -4 -4l-17 -23l-1 -1h-1l-1 1l-18 23q-1 2 -3 4t-5 2h-8l27 -37l1 -1q0 -1 1 -1v-1v-1q0 -1 1 -1v-1v-32h11v32v1v2q1 0 1 2v1
h1zM942 352l4 -4q2 -3 3 -5q0 -3 1 -5v-6q0 -6 -1 -11q-1 -3 -3 -5t-4 -3q-2 -2 -4 -3l-4 -4q-6 -2 -11 -2q-3 0 -6 1q-3 0 -5 1q-3 2 -5 4q-2 1 -4 3q-2 1 -3 3q-2 2 -2 5q-2 3 -2 6q-1 2 -1 5q0 5 3 11q0 2 2 5q1 2 3 4l4 4q2 1 5 2q4 2 11 2h5l6 -2l4 -2zM253 343
q0 -1 -2 -4q-1 0 -1 -1q-1 -1 -3 -1q-1 -1 -4 -1h-16v23h16q2 0 4 -1h3l1 -2l2 -4q1 -1 1 -5zM391 352l4 -4q2 -3 3 -5q1 -3 2 -5v-6v-5l-2 -6t-3 -5t-4 -3q-1 -2 -3 -3q-2 -2 -5 -4q-2 -1 -5 -1q-3 -1 -6 -1q-6 0 -11 2l-4 4q-3 1 -5 3l-3 3q-2 2 -3 5l-2 6q-1 2 -1 5
q0 5 3 11q1 2 3 5q2 2 3 4q2 2 5 4l4 2l6 2h5q6 0 11 -2q3 -1 5 -2zM532 358q0 -2 1 -3v-2l14 -31h-29l14 31v2v3zM132 356l2 -2q0 -2 1 -3q1 -2 1 -5v-2q0 -2 -1 -3t-1 -2q-1 -2 -2 -2l-4 -4h-5h-18v26h18q3 0 5 -1q1 0 3 -1zM580 422q-9 4 -18 10q-10 5 -17 12h157
q-8 -7 -17 -12q-9 -6 -19 -10l-21 -6t-22 -3q-12 0 -22 3zM557 457l154 155q14 -19 22 -39t8 -40q0 -11 -1 -21q-2 -11 -6 -21q-4 -9 -9 -17q-5 -9 -11 -17h-157zM534 453q-13 17 -22 36q-3 10 -5 21t-2 23q0 10 2 20t5 20q3 9 8 18q5 8 12 16h156zM666 642q10 -4 19 -10
l16 -11h-158q18 14 37 21q19 9 43 9zM38 171q-2 2 -2 4l-2 4q-1 3 -1 5q-1 2 -1 5t2 8q1 2 2 5q0 2 2 3l2 5q0 1 3 3q0 1 3 3q2 1 3 2q3 2 5 3l4 1q1 0 4 1h5h7q3 -1 7 -3q4 -1 7 -3l4 -4q-1 -1 -2 -1v-2h-1h-1h-2h-3q-2 1 -4 3q-2 1 -4 1h-3h-5h-5h-4l-6 -3q-2 -2 -4 -3
q-2 -3 -3 -5q-2 -2 -3 -4q-2 -3 -2 -6v-4q0 -4 1 -7l2 -4v-4q1 -1 3 -2q1 -1 2 -3q2 -1 3 -2q1 -2 3 -2q1 -1 3 -2t4 -1q1 -1 3 -1h3h5q2 0 4 1q2 0 5 1l4 2v14h-6h-1l-1 1l-1 2l-2 1v1q-1 0 -1 1v1v1h19v-26l-2 -2l-3 -3q-3 -1 -6 -1q-3 -1 -7 -1h-7h-5h-4q-3 1 -4 2l-5 3
q-1 0 -3 2q-3 1 -3 3q-3 1 -3 3zM117 214v-22h27v-7h-27v-23h33v-8h-41v68h41v-8h-33zM180 154v60h-22v8h52v-8h-23v-60h-7zM260 214v-24h29v-6h-29v-30h-8v68h41v-8h-33zM313 222v-42q0 -2 1 -3q1 -2 2 -3q1 -3 3 -4l2 -4q0 -1 2 -2l2 -2q3 -1 5 -1h4h4q1 0 2 1q3 1 5 2
q1 1 3 2q0 2 2 4q1 1 2 4q2 2 2 6v42h7v-42v-5q-1 -2 -2 -5t-2 -5l-4 -4t-4 -3q-2 -2 -4 -3q-6 -1 -11 -1q-6 0 -12 1l-3 3q-3 1 -5 3q-3 3 -5 9q-1 3 -2 5t-1 5v42h7zM383 222v-60h30v-8h-38v68h8zM428 222v-60h32v-8h-39v68h7zM522 154l-30 68h4q2 0 4 -1q1 -1 2 -1l1 -2
l21 -51v-2q1 -1 1 -3v3l1 1v1q3 7 6 13l6 12q2 8 5 14l6 12q0 2 1 2t1 1q1 1 2 1h2h4q-4 -8 -7 -16q-4 -9 -9 -17q-3 -10 -6 -18q-4 -8 -8 -17h-7zM572 214v-22h28v-7h-28v-23h33v-8h-41v68h41v-8h-33zM655 186q-1 -1 -5 -2l23 -30h-5q-1 0 -2 1h-2l-2 2q-1 0 -2 2l-19 25
h-12v-30h-7v68h25h3q1 0 3 -1q4 -1 7 -4q1 -2 2 -3l2 -4q1 -1 1 -3v-3v-4q0 -2 -1 -3q0 -2 -1 -4t-2 -3l-2 -2zM647 190q2 0 3 2q1 0 2 1h2l2 3q0 1 1 2q0 1 1 2v4v1q-1 1 -1 3l-1 2q-1 0 -2 2q-1 0 -2 1q-1 0 -2 1h-3h-18v-24h18zM709 164q1 1 2 4q1 1 2 3v3q0 3 -1 5
q-1 0 -1 2l-2 2t-4 2q-2 0 -3 1l-3 1q-2 0 -4 1t-2 2q-5 0 -7 3q-2 0 -2 2q-1 2 -2 3v7v5q0 1 1 3q0 3 4 5l3 3q1 0 4 1q2 0 3 1h4h3q1 -1 2 -1h2l3 -2q1 0 2 -1t1 -2q2 -1 3 -2q0 -1 1 -1l-2 -1q-1 -1 -4 -1h-3q-2 1 -2 2h-1h-1h-1h-1h-1h-1h-4q-4 0 -4 -1q-3 -3 -3 -4
q-2 0 -2 -4q0 -3 2 -3q0 -2 1 -3t3 -1l1 -1q2 -2 3 -2t4 -2h2q1 0 1 -1h2q1 0 2 -2h1h1v0h2l1 -1l3 -3q1 -2 3 -3q1 -5 1 -9v-5q0 -2 -3 -4q0 -3 -4 -6q-1 -1 -3 -2l-4 -2q-2 -1 -4 -1h-5q-5 0 -8 1q-4 1 -7 4q-1 0 -2 1l-2 2v2l-1 1l1 1l1 1h2h1h2l2 -2q2 -1 3 -2t3 -1
q0 -1 2 -1h3q4 0 5 1zM744 222v-68h-8v68h8zM771 164q-6 4 -9 10q-2 7 -2 15v4v4q3 5 4 8q3 4 7 8q3 3 6 5q2 2 5 3q2 0 4 1q2 0 4 1h5h5q2 -1 5 -1q2 -1 4 -1q2 -1 4 -3l3 -2q1 -2 3 -3l3 -3l3 -5q1 -3 3 -8l2 -4v-4q0 -4 -1 -7q-1 -4 -3 -8q-1 -3 -2 -5q-2 -3 -5 -5
q-3 -3 -5 -4l-6 -4q-5 -2 -13 -2q-4 0 -7 1q-4 0 -6 1zM771 199q-2 -3 -3 -6t-1 -4q0 -2 1 -4v-3q1 -4 4 -8q0 -1 1 -2t2 -3l3 -2q1 -2 4 -2q1 -1 3 -2q1 -1 2 -1q2 -1 4 -1h4h4q2 0 3 1q1 0 3 1l4 2q1 0 3 2l2 2q1 2 2 3l2 2l2 4l1 4q0 1 1 3v4v4q-1 3 -3 6q0 2 -2 4t-3 5
q-2 1 -4 3q-2 1 -5 3h-4h-6h-6h-5q-2 -2 -4 -3q-3 -2 -5 -3q-1 -3 -2 -5zM850 154h-8v68h6h3q1 0 2 -2l35 -50q1 0 1 -2l1 -1v55h8v-68h-7l-40 56v2h-1v-58zM955 214v-24h28v-6h-28v-30h-7v68h41v-8h-34zM1032 186q-4 -1 -6 -2l22 -30h-6q-2 0 -4 1v2q-1 0 -2 2l-19 25h-12
v-30h-8v68h25h3q2 0 4 -1l4 -2l2 -2q1 -2 2 -3q1 -2 3 -4q0 -1 1 -3v-3v-4q-1 -2 -1 -3l-2 -4q-1 -2 -1 -3zM1026 192q1 0 2 1h1q3 4 3 5q1 2 1 6q0 1 -1 4q0 1 -3 4q-1 0 -1 1l-2 1h-4h-17v-24h17zM1114 164q-2 -3 -5 -4l-6 -4q-3 -1 -6 -1q-3 -1 -7 -1t-7 1q-4 0 -7 1
q-6 2 -11 8q-2 2 -4 5q-2 2 -3 5l-2 8q-2 3 -2 7q0 1 1 4q0 2 1 4t2 5q0 2 1 3q2 3 4 5q1 1 2 3q2 1 4 3l4 2q2 2 4 3q2 0 4 1q3 0 5 1h4h5q2 -1 4 -1l5 -1l3 -3l4 -2l3 -3q1 -2 3 -3q1 -2 2 -5q3 -3 4 -8l2 -4v-4v-7q-1 -4 -3 -8q-1 -3 -3 -5zM1090 161h4q2 0 4 1q1 0 3 1
l2 2q1 0 3 2l4 2l2 3q0 1 1 2l2 4v4q1 1 1 3v4v4q-1 3 -1 6l-2 4q-2 2 -3 5q-3 1 -5 3q-3 1 -5 3h-5h-5h-5h-6q-3 -2 -4 -3q-2 -2 -4 -3q-3 -3 -4 -5l-2 -4q-1 -3 -1 -6v-4v-7q0 -3 1 -4q0 -2 2 -4q0 -1 2 -2q1 -1 2 -3l3 -2q1 -2 2 -2q1 -1 3 -2q1 -1 4 -1q1 -1 3 -1h4z
M1201 221q1 1 2 1h1h6v-68h-7v56l-1 -1v-1q-2 -4 -3 -8q-1 -5 -3 -8t-3 -6l-4 -7q-1 -4 -2 -7l-2 -6q-2 -3 -3 -5q-2 -3 -3 -7h-7q-5 6 -7 13q-3 7 -6 13q-2 7 -5 14q-4 7 -6 14v1l-2 1v-56h-8v68h7q3 0 4 -1l1 -1v-2l24 -53q0 -1 1 -1v-2q0 1 1 2v2q0 2 2 4l21 48q0 2 1 2z
M36 128h77v-10v-2v-2q0 -2 -1 -3l-2 -2l-52 -71h1v1h2h1h51v-18h-81v6q0 5 1 6q0 1 2 4q1 1 1 2t1 2l2 2l1 3l46 63h-50v19zM127 128h68v-19h-49v-24h39v-20h-39v-26h49v-18h-68v107zM279 109h-29v-88h-21v88h-31v19h81v-19zM328 128l46 -107h-12q-4 0 -8 2q-2 1 -2 3
q-1 2 -3 4l-6 14h-49l-5 -14l-1 -2q-1 -1 -2 -1v-2q-1 -1 -3 -2h-2q-1 -1 -2 -1q0 -1 -1 -1h-2h-12l46 107h18zM334 63l-13 33v2q-1 0 -1 1q0 2 -1 3v-3q0 -1 -1 -1q-1 -1 -1 -2l-13 -33h30zM378 128h68v-19h-49v-27h40v-19h-40v-42h-19v107zM553 101q2 -3 3 -6t3 -6
q1 -4 1 -7v-7v-8q0 -4 -1 -7q-2 -3 -3 -6q-1 -4 -3 -7q-2 -2 -4 -5l-4 -6q-4 -2 -6 -4q-2 -3 -5 -4q-3 -3 -6 -4q-4 -1 -7 -2q-4 -1 -7 -1q-4 -1 -8 -1q-5 0 -10 2q-6 1 -11 2q-6 3 -9 6q-4 3 -9 6q-7 8 -10 17q-3 6 -4 11t-1 11q0 3 1 7q0 3 1 7q2 8 6 12q2 4 4 7q1 2 3 5
q4 2 7 4q2 2 5 4t6 3t7 3q3 0 7 1h7h8q3 -1 7 -1q3 -2 7 -3q3 -1 6 -3t5 -4t6 -4q2 -3 4 -5zM539 62l2 6v7q0 6 -2 12q-2 5 -4 8q-2 2 -5 4l-4 4q-3 2 -6 3q-6 3 -14 3t-14 -3q-2 -1 -4 -3l-6 -4t-4 -4q-2 -3 -4 -8q-2 -2 -2 -5v-7v-7q0 -3 2 -6l4 -7q1 -3 4 -5l6 -4l4 -4
q4 -1 7 -2t7 -1t7 1t7 2l6 4l4 4q3 2 5 5zM649 128h19v-107h-18l-50 72q-1 0 -1 1l-1 1q-1 2 -1 3q-2 0 -2 2v1l-2 1v-81h-19v107h17h4q2 -1 2 -2l3 -1l2 -2q5 -8 11 -15q5 -8 10 -17l12 -14q5 -8 12 -15q0 -2 1 -3v-3q0 -1 1 -2v-2v76zM678 128h81v-19h-32v-88h-19v88h-30
v19zM825 73q1 -2 3 -4l2 -4q0 -2 1 -4q1 -3 1 -7q0 -6 -3 -13l-4 -6q-2 -3 -4 -5q-4 -2 -6 -4t-6 -3t-7 -2q-4 -1 -7 -1q-4 0 -7 1q-4 1 -9 2q-3 1 -5 3q-3 2 -7 6q-2 1 -3 3q-1 1 -2 3q-2 1 -2 6l1 1l1 1q1 0 1 1h1t2 1h1h5h2q1 0 1 -1q3 0 5 -1q2 -2 4 -3t3 -2q1 0 3 -1
t5 -1q1 0 3 1q1 0 3 1q3 1 6 3l4 4q1 2 2 3t1 3q0 4 -3 6q-2 3 -4 3l-3 3h-3q-3 1 -8 4q-2 0 -4 1q-3 0 -5 2q-4 1 -6 3q-2 1 -4 3q-3 2 -4 4q-2 2 -3 4q-3 6 -3 12q0 9 3 13q1 3 3 5t5 4q2 2 5 3l6 3q2 0 5 1h7h4q2 -1 5 -1l4 -2q1 -1 4 -2q1 -1 3 -2l4 -4l3 -2l2 -4l-4 -2
l-2 -2q-2 -1 -2 -2h-4h-2h-2h-1q-3 0 -3 1l-4 2q-1 0 -1 1h-1h-3h-6h-2q-1 -1 -3 -2q-1 -1 -2 -4q-1 -1 -1 -4t1 -3l2 -2v-3h4q1 -1 2 -1l6 -2q2 -1 3 -2l5 -1q2 -2 5 -2q2 -1 5 -4zM857 39q3 0 3 -3q1 0 1 -1v-3q0 -3 -1 -5q0 -2 -3 -4q-2 0 -3 -2h-2q-1 -1 -3 -1
q-1 0 -2 1h-2l-2 2h-2q-1 1 -1 2l-2 2q-1 2 -1 5v3q0 1 1 1q1 2 2 3h1q3 3 4 3l2 2h2h3l2 -2zM898 99q-4 -4 -8 -12q-1 -2 -2 -5q-1 -4 -1 -7q0 -4 1 -7l2 -6l4 -7q1 -3 4 -5q2 -2 5 -4q2 -2 6 -4q4 -1 7 -2t7 -1q3 0 5 1t5 1q2 1 5 3q2 1 4 3q2 0 4 1h3h3q2 0 3 -1
q3 -1 5 -3l3 -5q-3 -4 -8 -7q-3 -2 -5 -3q-2 -2 -5 -3q-3 -2 -5 -2l-6 -2t-5 -1q-3 -1 -6 -1q-7 0 -12 2l-10 2q-10 5 -17 12q-8 8 -12 17q-1 6 -2 11q-2 5 -2 11q0 3 1 7q0 3 1 7l2 6q1 3 3 6q3 4 5 7q1 2 4 5l6 4q2 2 6 4q2 2 5 3t8 3q2 0 6 1h8h6q2 0 5 -1l6 -2
q2 -1 5 -2t5 -2q2 -2 5 -4q5 -4 8 -8l-3 -4l-2 -2q-1 -1 -3 -2h-3h-3h-3q-2 0 -4 1l-4 4q-3 1 -5 2q-3 1 -5 1h-5q-8 0 -14 -3q-4 -1 -6 -3zM1072 101q1 -3 3 -6l2 -6q1 -4 1 -7v-7v-8q0 -4 -1 -7l-2 -6q-2 -4 -3 -7q-4 -5 -8 -11q-4 -2 -7 -4q-3 -3 -5 -4q-3 -3 -6 -4
l-8 -2q-3 -1 -6 -1q-4 -1 -8 -1q-10 0 -21 4l-8 6q-5 3 -8 6q-4 4 -7 8t-5 9q-2 6 -3 11t-1 11q0 3 1 7v7q1 3 3 6t3 6q2 4 4 7l5 5q2 2 5 4l6 4q2 2 6 3q3 1 6 3q4 0 8 1h6h8q3 -1 6 -1q4 -2 8 -3q3 -1 6 -3q2 -2 5 -4t7 -4q1 -3 4 -5zM1057 62q2 5 2 13v7q-1 3 -2 5
q-2 5 -3 8l-4 4q-5 5 -12 7q-3 2 -6 3h-8q-7 0 -13 -3q-3 -1 -5 -3l-6 -4l-4 -4q-2 -3 -4 -8q-1 -2 -1 -5q-1 -4 -1 -7q0 -4 1 -7q0 -3 1 -6q4 -8 8 -12l6 -4q2 -2 5 -4q3 -1 7 -2t6 -1q4 0 8 1l6 2q3 2 7 4q3 2 5 4zM1188 127l1 1h2h19v-107h-19v78v-2l-2 -3v-3q0 -1 -1 -2
q-3 -9 -7 -17q-4 -9 -7 -17l-6 -16q-4 -9 -7 -18h-19l-27 68q-1 1 -1 5q-1 2 -1 3q-1 0 -1 1v-77h-20v107h19h3l1 -1q2 -1 3 -1l1 -1l3 -2l2 -2q1 -1 1 -2q2 -8 6 -15q3 -8 6 -17q3 -8 7 -16l6 -16v-1v-2v-2q2 0 2 -2v2v2q0 1 1 2v1l4 8l22 56q0 1 1 2v2q1 1 3 2h1q1 1 2 1z
" />
    <glyph glyph-name="five" unicode="5" horiz-adv-x="1236" 
d="M1210 533v-286h-1174v286h445q0 15 3 29q2 13 8 26t14 25q7 12 18 21q18 19 44 30q14 6 28 9q13 2 27 2q16 0 30 -3t26 -9q14 -6 26 -14q11 -8 20 -17q18 -18 30 -46q10 -26 10 -53h445zM503 582q-11 -23 -11 -49q0 -28 11 -51q5 -11 12 -22t15 -20q9 -9 20 -16
q10 -7 22 -12q23 -11 51 -11q14 0 27 2q12 2 24 7q12 6 22 13q10 6 19 16q9 9 16 20q7 10 13 21q11 25 11 53q0 11 -2 23q-2 11 -7 21q-6 20 -20 37q-7 8 -15 15t-16 12l-18 10l-20 8q-7 2 -15 3q-9 1 -19 1q-14 0 -27 -2q-13 -3 -25 -9q-24 -9 -42 -28q-8 -9 -14 -20z
M144 337q3 5 3 9v5q-1 2 -3 5q0 1 -2 3l-3 3l-2 4q-2 1 -5 1l-4 2q-3 1 -5 1h-26v-75h8v28h18q2 0 5 1q2 0 4 1q5 2 7 4q1 2 3 4zM200 370h-46v-75h46v9h-35v23h29v10h-29v22h35v11zM273 295l-23 32q1 1 3 1q1 0 2 2q4 2 5 5q1 1 2 3q1 1 2 3v6v5q0 2 -1 4q-2 4 -5 7
q-2 4 -7 4q-1 1 -3 2q-3 1 -5 1h-27v-75h11v31h11l20 -27q1 -2 3 -3q1 -1 2 -1h3h7zM324 308q0 2 1 4v4q0 6 -2 10t-6 7q-1 0 -1 1q-1 1 -3 2v0q-1 0 -3 1h-1q-1 0 -1 2q-3 0 -4 1q-3 0 -4 1l-3 1q-4 1 -4 2q-3 2 -3 3v4v4q1 0 2 1t1 2l2 1h2q2 1 3 1h2h1q1 -1 2 -1
q4 0 4 -2q1 -1 2 -1h2q4 0 7 2l2 1q0 1 -1 2l-2 2q-2 1 -3 2t-3 2q-1 0 -2 1q-1 0 -3 2q-3 0 -3 1h-3h-4q-3 -1 -5 -1l-3 -3q-2 -1 -4 -1q-1 -2 -2 -3q-2 -2 -3 -4t-1 -3q-1 -2 -1 -5v-4q0 -2 2 -4q1 -2 3 -3q1 -2 1 -3l4 -2q2 -2 4 -2l4 -2q1 -1 3 -2q1 -1 3 -1h2
q3 -1 4 -1l1 -1l2 -1q0 -1 1 -3q1 -1 1 -2v-4v-1q0 -2 -1 -3l-1 -2q0 -1 -2 -2q-1 -2 -2 -2q-2 -1 -3 -2h-2h-3h-3h-3l-2 2q-2 0 -2 2l-1 1q-3 2 -6 2h-2q-1 0 -2 -1l-3 -1q0 -2 1 -2q0 -2 2 -3q0 -1 1 -2l1 -1h1q4 -4 9 -5q4 -1 9 -1h5q2 0 4 1t5 2q2 1 3 3q3 1 5 3z
M409 322q1 3 1 5v5q0 6 -1 10q0 3 -1 5q-2 2 -3 5q-2 3 -6 7q-2 2 -4 3t-5 4q-1 0 -3 1t-5 3q-3 0 -5 1h-5h-5q-3 -1 -5 -1q-3 -2 -5 -3t-4 -1q-2 -3 -4 -4t-4 -3l-3 -3q-2 -2 -3 -4q-2 -3 -2 -5q-1 -2 -2 -5q-1 -4 -1 -10q0 -4 1 -7l2 -8q1 -3 3 -6t5 -7l6 -4q3 -2 7 -2
q6 -3 14 -3h5h5q5 2 8 4q7 3 9 5q3 4 6 9q1 2 3 5zM487 370h-10v-58v3l-1 1l-36 51q-2 0 -4 3h-2h-2h-7v-75h10v61l1 -1v-2l43 -58h8v75zM571 295l-33 75h-11l-32 -75h6q3 0 4 1l2 2l2 1l4 13h39l5 -13q1 -2 3 -3q0 -1 4 -1h7zM620 304h-32v66h-11v-75h43v9zM722 370h-10
v-45v-5q0 -2 -1 -4q-1 -4 -5 -6l-2 -2q-2 -1 -3 -3q-3 -1 -4 -1h-4q-5 0 -7 1q-3 2 -5 3t-2 2q-1 1 -2 3l-3 3v4q-1 2 -1 5v45h-10v-45v-5q0 -3 1 -4q0 -4 2 -7q2 -5 6 -7q1 -1 3 -2q1 -1 3 -2q1 -1 3 -1q2 -1 3 -2q3 0 5 -1q1 -1 4 -1q2 0 4 1q1 1 4 1l4 2q1 0 3 1l6 4
q2 2 3 4q0 1 1 3l3 3q1 2 1 4v9v45zM780 308q3 4 3 8q0 6 -2 10t-6 7q-3 2 -3 3h-2q-2 0 -3 1h-1q-2 0 -3 2h-1q-1 0 -2 1q-1 0 -2 1l-3 1q-4 1 -4 2q-2 1 -2 2q-1 1 -2 1v2q-1 0 -1 2t2 4l3 3q1 0 2 1h2q0 1 5 1h1q1 -1 2 -1q1 -1 4 -2q4 -1 5 -1q3 0 4 2l3 1l-2 2l-2 2
q0 1 -1 2q-2 1 -3 2q-2 0 -3 1q-1 0 -3 2q-2 0 -3 1h-2h-5q-2 -1 -4 -1q-2 -2 -4 -3t-3 -1l-3 -3q-1 -2 -3 -4q0 -2 -1 -3q-1 -2 -1 -5t1 -4q1 -2 1 -4q2 -4 5 -6l4 -2q1 -2 2 -2q3 -1 5 -2q1 -1 3 -2t3 -1h2q1 -1 3 -1q1 0 2 -1t3 -1q1 -1 1 -3q1 -1 1 -2v-4v-1q0 -2 -1 -3
q-1 -3 -4 -4q-2 -2 -3 -2l-2 -2h-2h-3h-3h-3q-2 1 -5 4v1q-3 2 -6 2h-1q-2 0 -3 -1l-3 -1l1 -1q0 -1 1 -1q0 -1 1 -1v-2h1v-2q2 -1 3 -1q3 -4 8 -5q4 -1 9 -1h5q2 0 5 1l4 2q2 1 4 3l3 3zM841 370h-46v-75h46v9h-36v23h30v10h-30v22h36v11zM960 322v5v5v6v4q-2 5 -5 10
q-2 3 -6 7q-1 2 -3 3t-4 4q-2 0 -4 1q-3 1 -5 3q-3 0 -5 1h-5h-5q-3 -1 -5 -1q-6 -3 -10 -4q-2 -3 -3 -4q-2 -1 -4 -3l-3 -3l-4 -4q-1 -3 -2 -5t-1 -5q-2 -4 -2 -10q0 -4 1 -7l2 -8q3 -7 9 -13q2 -2 5 -4t7 -2q6 -3 15 -3h5h5q2 1 5 2l4 2q2 2 4 3t3 2q4 4 6 9zM1038 370
h-11v-58v3q-1 1 -2 1l-36 51v1q-1 0 -2 2h-2h-3h-8v-75h12v59l1 -1l42 -58h9v75zM1099 304h-32v66h-11v-75h43v9zM1159 370h-9q-2 0 -4 -2q-4 -2 -4 -4l-17 -23l-1 -1h-1l-1 1l-18 23q-1 2 -3 4t-5 2h-8l27 -37l1 -1q0 -1 1 -1v-1v-1q0 -1 1 -1v-1v-32h11v32v1v2q1 0 1 2v1
h1zM942 352l4 -4q2 -3 3 -5q0 -3 1 -5v-6q0 -6 -1 -11q-1 -3 -3 -5t-4 -3q-2 -2 -4 -3l-4 -4q-6 -2 -11 -2q-3 0 -6 1q-3 0 -5 1q-3 2 -5 4q-2 1 -4 3q-2 1 -3 3q-2 2 -2 5q-2 3 -2 6q-1 2 -1 5q0 5 3 11q0 2 2 5q1 2 3 4l4 4q2 1 5 2q4 2 11 2h5l6 -2l4 -2zM253 343
q0 -1 -2 -4q-1 0 -1 -1q-1 -1 -3 -1q-1 -1 -4 -1h-16v23h16q2 0 4 -1h3l1 -2l2 -4q1 -1 1 -5zM391 352l4 -4q2 -3 3 -5q1 -3 2 -5v-6v-5l-2 -6t-3 -5t-4 -3q-1 -2 -3 -3q-2 -2 -5 -4q-2 -1 -5 -1q-3 -1 -6 -1q-6 0 -11 2l-4 4q-3 1 -5 3l-3 3q-2 2 -3 5l-2 6q-1 2 -1 5
q0 5 3 11q1 2 3 5q2 2 3 4q2 2 5 4l4 2l6 2h5q6 0 11 -2q3 -1 5 -2zM532 358q0 -2 1 -3v-2l14 -31h-29l14 31v2v3zM132 356l2 -2q0 -2 1 -3q1 -2 1 -5v-2q0 -2 -1 -3t-1 -2q-1 -2 -2 -2l-4 -4h-5h-18v26h18q3 0 5 -1q1 0 3 -1zM580 422q-9 4 -18 10q-10 5 -17 12h157
q-8 -7 -17 -12q-9 -6 -19 -10l-21 -6t-22 -3q-12 0 -22 3zM557 457l154 155q14 -19 22 -39t8 -40q0 -11 -1 -21q-2 -11 -6 -21q-4 -9 -9 -17q-5 -9 -11 -17h-157zM534 453q-13 17 -22 36q-3 10 -5 21t-2 23q0 10 2 20t5 20q3 9 8 18q5 8 12 16h156zM666 642q10 -4 19 -10
l16 -11h-158q18 14 37 21q19 9 43 9zM38 171q-2 2 -2 4l-2 4q-1 3 -1 5q-1 2 -1 5t2 8q1 2 2 5q0 2 2 3l2 5q0 1 3 3q0 1 3 3q2 1 3 2q3 2 5 3l4 1q1 0 4 1h5h7q3 -1 7 -3q4 -1 7 -3l4 -4q-1 -1 -2 -1v-2h-1h-1h-2h-3q-2 1 -4 3q-2 1 -4 1h-3h-5h-5h-4l-6 -3q-2 -2 -4 -3
q-2 -3 -3 -5q-2 -2 -3 -4q-2 -3 -2 -6v-4q0 -4 1 -7l2 -4v-4q1 -1 3 -2q1 -1 2 -3q2 -1 3 -2q1 -2 3 -2q1 -1 3 -2t4 -1q1 -1 3 -1h3h5q2 0 4 1q2 0 5 1l4 2v14h-6h-1l-1 1l-1 2l-2 1v1q-1 0 -1 1v1v1h19v-26l-2 -2l-3 -3q-3 -1 -6 -1q-3 -1 -7 -1h-7h-5h-4q-3 1 -4 2l-5 3
q-1 0 -3 2q-3 1 -3 3q-3 1 -3 3zM117 214v-22h27v-7h-27v-23h33v-8h-41v68h41v-8h-33zM180 154v60h-22v8h52v-8h-23v-60h-7zM260 214v-24h29v-6h-29v-30h-8v68h41v-8h-33zM313 222v-42q0 -2 1 -3q1 -2 2 -3q1 -3 3 -4l2 -4q0 -1 2 -2l2 -2q3 -1 5 -1h4h4q1 0 2 1q3 1 5 2
q1 1 3 2q0 2 2 4q1 1 2 4q2 2 2 6v42h7v-42v-5q-1 -2 -2 -5t-2 -5l-4 -4t-4 -3q-2 -2 -4 -3q-6 -1 -11 -1q-6 0 -12 1l-3 3q-3 1 -5 3q-3 3 -5 9q-1 3 -2 5t-1 5v42h7zM383 222v-60h30v-8h-38v68h8zM428 222v-60h32v-8h-39v68h7zM522 154l-30 68h4q2 0 4 -1q1 -1 2 -1l1 -2
l21 -51v-2q1 -1 1 -3v3l1 1v1q3 7 6 13l6 12q2 8 5 14l6 12q0 2 1 2t1 1q1 1 2 1h2h4q-4 -8 -7 -16q-4 -9 -9 -17q-3 -10 -6 -18q-4 -8 -8 -17h-7zM572 214v-22h28v-7h-28v-23h33v-8h-41v68h41v-8h-33zM655 186q-1 -1 -5 -2l23 -30h-5q-1 0 -2 1h-2l-2 2q-1 0 -2 2l-19 25
h-12v-30h-7v68h25h3q1 0 3 -1q4 -1 7 -4q1 -2 2 -3l2 -4q1 -1 1 -3v-3v-4q0 -2 -1 -3q0 -2 -1 -4t-2 -3l-2 -2zM647 190q2 0 3 2q1 0 2 1h2l2 3q0 1 1 2q0 1 1 2v4v1q-1 1 -1 3l-1 2q-1 0 -2 2q-1 0 -2 1q-1 0 -2 1h-3h-18v-24h18zM709 164q1 1 2 4q1 1 2 3v3q0 3 -1 5
q-1 0 -1 2l-2 2t-4 2q-2 0 -3 1l-3 1q-2 0 -4 1t-2 2q-5 0 -7 3q-2 0 -2 2q-1 2 -2 3v7v5q0 1 1 3q0 3 4 5l3 3q1 0 4 1q2 0 3 1h4h3q1 -1 2 -1h2l3 -2q1 0 2 -1t1 -2q2 -1 3 -2q0 -1 1 -1l-2 -1q-1 -1 -4 -1h-3q-2 1 -2 2h-1h-1h-1h-1h-1h-1h-4q-4 0 -4 -1q-3 -3 -3 -4
q-2 0 -2 -4q0 -3 2 -3q0 -2 1 -3t3 -1l1 -1q2 -2 3 -2t4 -2h2q1 0 1 -1h2q1 0 2 -2h1h1v0h2l1 -1l3 -3q1 -2 3 -3q1 -5 1 -9v-5q0 -2 -3 -4q0 -3 -4 -6q-1 -1 -3 -2l-4 -2q-2 -1 -4 -1h-5q-5 0 -8 1q-4 1 -7 4q-1 0 -2 1l-2 2v2l-1 1l1 1l1 1h2h1h2l2 -2q2 -1 3 -2t3 -1
q0 -1 2 -1h3q4 0 5 1zM744 222v-68h-8v68h8zM771 164q-6 4 -9 10q-2 7 -2 15v4v4q3 5 4 8q3 4 7 8q3 3 6 5q2 2 5 3q2 0 4 1q2 0 4 1h5h5q2 -1 5 -1q2 -1 4 -1q2 -1 4 -3l3 -2q1 -2 3 -3l3 -3l3 -5q1 -3 3 -8l2 -4v-4q0 -4 -1 -7q-1 -4 -3 -8q-1 -3 -2 -5q-2 -3 -5 -5
q-3 -3 -5 -4l-6 -4q-5 -2 -13 -2q-4 0 -7 1q-4 0 -6 1zM771 199q-2 -3 -3 -6t-1 -4q0 -2 1 -4v-3q1 -4 4 -8q0 -1 1 -2t2 -3l3 -2q1 -2 4 -2q1 -1 3 -2q1 -1 2 -1q2 -1 4 -1h4h4q2 0 3 1q1 0 3 1l4 2q1 0 3 2l2 2q1 2 2 3l2 2l2 4l1 4q0 1 1 3v4v4q-1 3 -3 6q0 2 -2 4t-3 5
q-2 1 -4 3q-2 1 -5 3h-4h-6h-6h-5q-2 -2 -4 -3q-3 -2 -5 -3q-1 -3 -2 -5zM850 154h-8v68h6h3q1 0 2 -2l35 -50q1 0 1 -2l1 -1v55h8v-68h-7l-40 56v2h-1v-58zM955 214v-24h28v-6h-28v-30h-7v68h41v-8h-34zM1032 186q-4 -1 -6 -2l22 -30h-6q-2 0 -4 1v2q-1 0 -2 2l-19 25h-12
v-30h-8v68h25h3q2 0 4 -1l4 -2l2 -2q1 -2 2 -3q1 -2 3 -4q0 -1 1 -3v-3v-4q-1 -2 -1 -3l-2 -4q-1 -2 -1 -3zM1026 192q1 0 2 1h1q3 4 3 5q1 2 1 6q0 1 -1 4q0 1 -3 4q-1 0 -1 1l-2 1h-4h-17v-24h17zM1114 164q-2 -3 -5 -4l-6 -4q-3 -1 -6 -1q-3 -1 -7 -1t-7 1q-4 0 -7 1
q-6 2 -11 8q-2 2 -4 5q-2 2 -3 5l-2 8q-2 3 -2 7q0 1 1 4q0 2 1 4t2 5q0 2 1 3q2 3 4 5q1 1 2 3q2 1 4 3l4 2q2 2 4 3q2 0 4 1q3 0 5 1h4h5q2 -1 4 -1l5 -1l3 -3l4 -2l3 -3q1 -2 3 -3q1 -2 2 -5q3 -3 4 -8l2 -4v-4v-7q-1 -4 -3 -8q-1 -3 -3 -5zM1090 161h4q2 0 4 1q1 0 3 1
l2 2q1 0 3 2l4 2l2 3q0 1 1 2l2 4v4q1 1 1 3v4v4q-1 3 -1 6l-2 4q-2 2 -3 5q-3 1 -5 3q-3 1 -5 3h-5h-5h-5h-6q-3 -2 -4 -3q-2 -2 -4 -3q-3 -3 -4 -5l-2 -4q-1 -3 -1 -6v-4v-7q0 -3 1 -4q0 -2 2 -4q0 -1 2 -2q1 -1 2 -3l3 -2q1 -2 2 -2q1 -1 3 -2q1 -1 4 -1q1 -1 3 -1h4z
M1201 221q1 1 2 1h1h6v-68h-7v56l-1 -1v-1q-2 -4 -3 -8q-1 -5 -3 -8t-3 -6l-4 -7q-1 -4 -2 -7l-2 -6q-2 -3 -3 -5q-2 -3 -3 -7h-7q-5 6 -7 13q-3 7 -6 13q-2 7 -5 14q-4 7 -6 14v1l-2 1v-56h-8v68h7q3 0 4 -1l1 -1v-2l24 -53q0 -1 1 -1v-2q0 1 1 2v2q0 2 2 4l21 48q0 2 1 2z
M36 128h77v-10v-2v-2q0 -2 -1 -3l-2 -2l-52 -71h1v1h2h1h51v-18h-81v6q0 5 1 6q0 1 2 4q1 1 1 2t1 2l2 2l1 3l46 63h-50v19zM127 128h68v-19h-49v-24h39v-20h-39v-26h49v-18h-68v107zM279 109h-29v-88h-21v88h-31v19h81v-19zM328 128l46 -107h-12q-4 0 -8 2q-2 1 -2 3
q-1 2 -3 4l-6 14h-49l-5 -14l-1 -2q-1 -1 -2 -1v-2q-1 -1 -3 -2h-2q-1 -1 -2 -1q0 -1 -1 -1h-2h-12l46 107h18zM334 63l-13 33v2q-1 0 -1 1q0 2 -1 3v-3q0 -1 -1 -1q-1 -1 -1 -2l-13 -33h30zM378 128h68v-19h-49v-27h40v-19h-40v-42h-19v107zM553 101q2 -3 3 -6t3 -6
q1 -4 1 -7v-7v-8q0 -4 -1 -7q-2 -3 -3 -6q-1 -4 -3 -7q-2 -2 -4 -5l-4 -6q-4 -2 -6 -4q-2 -3 -5 -4q-3 -3 -6 -4q-4 -1 -7 -2q-4 -1 -7 -1q-4 -1 -8 -1q-5 0 -10 2q-6 1 -11 2q-6 3 -9 6q-4 3 -9 6q-7 8 -10 17q-3 6 -4 11t-1 11q0 3 1 7q0 3 1 7q2 8 6 12q2 4 4 7q1 2 3 5
q4 2 7 4q2 2 5 4t6 3t7 3q3 0 7 1h7h8q3 -1 7 -1q3 -2 7 -3q3 -1 6 -3t5 -4t6 -4q2 -3 4 -5zM539 62l2 6v7q0 6 -2 12q-2 5 -4 8q-2 2 -5 4l-4 4q-3 2 -6 3q-6 3 -14 3t-14 -3q-2 -1 -4 -3l-6 -4t-4 -4q-2 -3 -4 -8q-2 -2 -2 -5v-7v-7q0 -3 2 -6l4 -7q1 -3 4 -5l6 -4l4 -4
q4 -1 7 -2t7 -1t7 1t7 2l6 4l4 4q3 2 5 5zM649 128h19v-107h-18l-50 72q-1 0 -1 1l-1 1q-1 2 -1 3q-2 0 -2 2v1l-2 1v-81h-19v107h17h4q2 -1 2 -2l3 -1l2 -2q5 -8 11 -15q5 -8 10 -17l12 -14q5 -8 12 -15q0 -2 1 -3v-3q0 -1 1 -2v-2v76zM678 128h81v-19h-32v-88h-19v88h-30
v19zM825 73q1 -2 3 -4l2 -4q0 -2 1 -4q1 -3 1 -7q0 -6 -3 -13l-4 -6q-2 -3 -4 -5q-4 -2 -6 -4t-6 -3t-7 -2q-4 -1 -7 -1q-4 0 -7 1q-4 1 -9 2q-3 1 -5 3q-3 2 -7 6q-2 1 -3 3q-1 1 -2 3q-2 1 -2 6l1 1l1 1q1 0 1 1h1t2 1h1h5h2q1 0 1 -1q3 0 5 -1q2 -2 4 -3t3 -2q1 0 3 -1
t5 -1q1 0 3 1q1 0 3 1q3 1 6 3l4 4q1 2 2 3t1 3q0 4 -3 6q-2 3 -4 3l-3 3h-3q-3 1 -8 4q-2 0 -4 1q-3 0 -5 2q-4 1 -6 3q-2 1 -4 3q-3 2 -4 4q-2 2 -3 4q-3 6 -3 12q0 9 3 13q1 3 3 5t5 4q2 2 5 3l6 3q2 0 5 1h7h4q2 -1 5 -1l4 -2q1 -1 4 -2q1 -1 3 -2l4 -4l3 -2l2 -4l-4 -2
l-2 -2q-2 -1 -2 -2h-4h-2h-2h-1q-3 0 -3 1l-4 2q-1 0 -1 1h-1h-3h-6h-2q-1 -1 -3 -2q-1 -1 -2 -4q-1 -1 -1 -4t1 -3l2 -2v-3h4q1 -1 2 -1l6 -2q2 -1 3 -2l5 -1q2 -2 5 -2q2 -1 5 -4zM857 39q3 0 3 -3q1 0 1 -1v-3q0 -3 -1 -5q0 -2 -3 -4q-2 0 -3 -2h-2q-1 -1 -3 -1
q-1 0 -2 1h-2l-2 2h-2q-1 1 -1 2l-2 2q-1 2 -1 5v3q0 1 1 1q1 2 2 3h1q3 3 4 3l2 2h2h3l2 -2zM898 99q-4 -4 -8 -12q-1 -2 -2 -5q-1 -4 -1 -7q0 -4 1 -7l2 -6l4 -7q1 -3 4 -5q2 -2 5 -4q2 -2 6 -4q4 -1 7 -2t7 -1q3 0 5 1t5 1q2 1 5 3q2 1 4 3q2 0 4 1h3h3q2 0 3 -1
q3 -1 5 -3l3 -5q-3 -4 -8 -7q-3 -2 -5 -3q-2 -2 -5 -3q-3 -2 -5 -2l-6 -2t-5 -1q-3 -1 -6 -1q-7 0 -12 2l-10 2q-10 5 -17 12q-8 8 -12 17q-1 6 -2 11q-2 5 -2 11q0 3 1 7q0 3 1 7l2 6q1 3 3 6q3 4 5 7q1 2 4 5l6 4q2 2 6 4q2 2 5 3t8 3q2 0 6 1h8h6q2 0 5 -1l6 -2
q2 -1 5 -2t5 -2q2 -2 5 -4q5 -4 8 -8l-3 -4l-2 -2q-1 -1 -3 -2h-3h-3h-3q-2 0 -4 1l-4 4q-3 1 -5 2q-3 1 -5 1h-5q-8 0 -14 -3q-4 -1 -6 -3zM1072 101q1 -3 3 -6l2 -6q1 -4 1 -7v-7v-8q0 -4 -1 -7l-2 -6q-2 -4 -3 -7q-4 -5 -8 -11q-4 -2 -7 -4q-3 -3 -5 -4q-3 -3 -6 -4
l-8 -2q-3 -1 -6 -1q-4 -1 -8 -1q-10 0 -21 4l-8 6q-5 3 -8 6q-4 4 -7 8t-5 9q-2 6 -3 11t-1 11q0 3 1 7v7q1 3 3 6t3 6q2 4 4 7l5 5q2 2 5 4l6 4q2 2 6 3q3 1 6 3q4 0 8 1h6h8q3 -1 6 -1q4 -2 8 -3q3 -1 6 -3q2 -2 5 -4t7 -4q1 -3 4 -5zM1057 62q2 5 2 13v7q-1 3 -2 5
q-2 5 -3 8l-4 4q-5 5 -12 7q-3 2 -6 3h-8q-7 0 -13 -3q-3 -1 -5 -3l-6 -4l-4 -4q-2 -3 -4 -8q-1 -2 -1 -5q-1 -4 -1 -7q0 -4 1 -7q0 -3 1 -6q4 -8 8 -12l6 -4q2 -2 5 -4q3 -1 7 -2t6 -1q4 0 8 1l6 2q3 2 7 4q3 2 5 4zM1188 127l1 1h2h19v-107h-19v78v-2l-2 -3v-3q0 -1 -1 -2
q-3 -9 -7 -17q-4 -9 -7 -17l-6 -16q-4 -9 -7 -18h-19l-27 68q-1 1 -1 5q-1 2 -1 3q-1 0 -1 1v-77h-20v107h19h3l1 -1q2 -1 3 -1l1 -1l3 -2l2 -2q1 -1 1 -2q2 -8 6 -15q3 -8 6 -17q3 -8 7 -16l6 -16v-1v-2v-2q2 0 2 -2v2v2q0 1 1 2v1l4 8l22 56q0 1 1 2v2q1 1 3 2h1q1 1 2 1z
" />
    <glyph glyph-name="six" unicode="6" horiz-adv-x="1236" 
d="M1210 533v-286h-1174v286h445q0 15 3 29q2 13 8 26t14 25q7 12 18 21q18 19 44 30q14 6 28 9q13 2 27 2q16 0 30 -3t26 -9q14 -6 26 -14q11 -8 20 -17q18 -18 30 -46q10 -26 10 -53h445zM503 582q-11 -23 -11 -49q0 -28 11 -51q5 -11 12 -22t15 -20q9 -9 20 -16
q10 -7 22 -12q23 -11 51 -11q14 0 27 2q12 2 24 7q12 6 22 13q10 6 19 16q9 9 16 20q7 10 13 21q11 25 11 53q0 11 -2 23q-2 11 -7 21q-6 20 -20 37q-7 8 -15 15t-16 12l-18 10l-20 8q-7 2 -15 3q-9 1 -19 1q-14 0 -27 -2q-13 -3 -25 -9q-24 -9 -42 -28q-8 -9 -14 -20z
M144 337q3 5 3 9v5q-1 2 -3 5q0 1 -2 3l-3 3l-2 4q-2 1 -5 1l-4 2q-3 1 -5 1h-26v-75h8v28h18q2 0 5 1q2 0 4 1q5 2 7 4q1 2 3 4zM200 370h-46v-75h46v9h-35v23h29v10h-29v22h35v11zM273 295l-23 32q1 1 3 1q1 0 2 2q4 2 5 5q1 1 2 3q1 1 2 3v6v5q0 2 -1 4q-2 4 -5 7
q-2 4 -7 4q-1 1 -3 2q-3 1 -5 1h-27v-75h11v31h11l20 -27q1 -2 3 -3q1 -1 2 -1h3h7zM324 308q0 2 1 4v4q0 6 -2 10t-6 7q-1 0 -1 1q-1 1 -3 2v0q-1 0 -3 1h-1q-1 0 -1 2q-3 0 -4 1q-3 0 -4 1l-3 1q-4 1 -4 2q-3 2 -3 3v4v4q1 0 2 1t1 2l2 1h2q2 1 3 1h2h1q1 -1 2 -1
q4 0 4 -2q1 -1 2 -1h2q4 0 7 2l2 1q0 1 -1 2l-2 2q-2 1 -3 2t-3 2q-1 0 -2 1q-1 0 -3 2q-3 0 -3 1h-3h-4q-3 -1 -5 -1l-3 -3q-2 -1 -4 -1q-1 -2 -2 -3q-2 -2 -3 -4t-1 -3q-1 -2 -1 -5v-4q0 -2 2 -4q1 -2 3 -3q1 -2 1 -3l4 -2q2 -2 4 -2l4 -2q1 -1 3 -2q1 -1 3 -1h2
q3 -1 4 -1l1 -1l2 -1q0 -1 1 -3q1 -1 1 -2v-4v-1q0 -2 -1 -3l-1 -2q0 -1 -2 -2q-1 -2 -2 -2q-2 -1 -3 -2h-2h-3h-3h-3l-2 2q-2 0 -2 2l-1 1q-3 2 -6 2h-2q-1 0 -2 -1l-3 -1q0 -2 1 -2q0 -2 2 -3q0 -1 1 -2l1 -1h1q4 -4 9 -5q4 -1 9 -1h5q2 0 4 1t5 2q2 1 3 3q3 1 5 3z
M409 322q1 3 1 5v5q0 6 -1 10q0 3 -1 5q-2 2 -3 5q-2 3 -6 7q-2 2 -4 3t-5 4q-1 0 -3 1t-5 3q-3 0 -5 1h-5h-5q-3 -1 -5 -1q-3 -2 -5 -3t-4 -1q-2 -3 -4 -4t-4 -3l-3 -3q-2 -2 -3 -4q-2 -3 -2 -5q-1 -2 -2 -5q-1 -4 -1 -10q0 -4 1 -7l2 -8q1 -3 3 -6t5 -7l6 -4q3 -2 7 -2
q6 -3 14 -3h5h5q5 2 8 4q7 3 9 5q3 4 6 9q1 2 3 5zM487 370h-10v-58v3l-1 1l-36 51q-2 0 -4 3h-2h-2h-7v-75h10v61l1 -1v-2l43 -58h8v75zM571 295l-33 75h-11l-32 -75h6q3 0 4 1l2 2l2 1l4 13h39l5 -13q1 -2 3 -3q0 -1 4 -1h7zM620 304h-32v66h-11v-75h43v9zM722 370h-10
v-45v-5q0 -2 -1 -4q-1 -4 -5 -6l-2 -2q-2 -1 -3 -3q-3 -1 -4 -1h-4q-5 0 -7 1q-3 2 -5 3t-2 2q-1 1 -2 3l-3 3v4q-1 2 -1 5v45h-10v-45v-5q0 -3 1 -4q0 -4 2 -7q2 -5 6 -7q1 -1 3 -2q1 -1 3 -2q1 -1 3 -1q2 -1 3 -2q3 0 5 -1q1 -1 4 -1q2 0 4 1q1 1 4 1l4 2q1 0 3 1l6 4
q2 2 3 4q0 1 1 3l3 3q1 2 1 4v9v45zM780 308q3 4 3 8q0 6 -2 10t-6 7q-3 2 -3 3h-2q-2 0 -3 1h-1q-2 0 -3 2h-1q-1 0 -2 1q-1 0 -2 1l-3 1q-4 1 -4 2q-2 1 -2 2q-1 1 -2 1v2q-1 0 -1 2t2 4l3 3q1 0 2 1h2q0 1 5 1h1q1 -1 2 -1q1 -1 4 -2q4 -1 5 -1q3 0 4 2l3 1l-2 2l-2 2
q0 1 -1 2q-2 1 -3 2q-2 0 -3 1q-1 0 -3 2q-2 0 -3 1h-2h-5q-2 -1 -4 -1q-2 -2 -4 -3t-3 -1l-3 -3q-1 -2 -3 -4q0 -2 -1 -3q-1 -2 -1 -5t1 -4q1 -2 1 -4q2 -4 5 -6l4 -2q1 -2 2 -2q3 -1 5 -2q1 -1 3 -2t3 -1h2q1 -1 3 -1q1 0 2 -1t3 -1q1 -1 1 -3q1 -1 1 -2v-4v-1q0 -2 -1 -3
q-1 -3 -4 -4q-2 -2 -3 -2l-2 -2h-2h-3h-3h-3q-2 1 -5 4v1q-3 2 -6 2h-1q-2 0 -3 -1l-3 -1l1 -1q0 -1 1 -1q0 -1 1 -1v-2h1v-2q2 -1 3 -1q3 -4 8 -5q4 -1 9 -1h5q2 0 5 1l4 2q2 1 4 3l3 3zM841 370h-46v-75h46v9h-36v23h30v10h-30v22h36v11zM960 322v5v5v6v4q-2 5 -5 10
q-2 3 -6 7q-1 2 -3 3t-4 4q-2 0 -4 1q-3 1 -5 3q-3 0 -5 1h-5h-5q-3 -1 -5 -1q-6 -3 -10 -4q-2 -3 -3 -4q-2 -1 -4 -3l-3 -3l-4 -4q-1 -3 -2 -5t-1 -5q-2 -4 -2 -10q0 -4 1 -7l2 -8q3 -7 9 -13q2 -2 5 -4t7 -2q6 -3 15 -3h5h5q2 1 5 2l4 2q2 2 4 3t3 2q4 4 6 9zM1038 370
h-11v-58v3q-1 1 -2 1l-36 51v1q-1 0 -2 2h-2h-3h-8v-75h12v59l1 -1l42 -58h9v75zM1099 304h-32v66h-11v-75h43v9zM1159 370h-9q-2 0 -4 -2q-4 -2 -4 -4l-17 -23l-1 -1h-1l-1 1l-18 23q-1 2 -3 4t-5 2h-8l27 -37l1 -1q0 -1 1 -1v-1v-1q0 -1 1 -1v-1v-32h11v32v1v2q1 0 1 2v1
h1zM942 352l4 -4q2 -3 3 -5q0 -3 1 -5v-6q0 -6 -1 -11q-1 -3 -3 -5t-4 -3q-2 -2 -4 -3l-4 -4q-6 -2 -11 -2q-3 0 -6 1q-3 0 -5 1q-3 2 -5 4q-2 1 -4 3q-2 1 -3 3q-2 2 -2 5q-2 3 -2 6q-1 2 -1 5q0 5 3 11q0 2 2 5q1 2 3 4l4 4q2 1 5 2q4 2 11 2h5l6 -2l4 -2zM253 343
q0 -1 -2 -4q-1 0 -1 -1q-1 -1 -3 -1q-1 -1 -4 -1h-16v23h16q2 0 4 -1h3l1 -2l2 -4q1 -1 1 -5zM391 352l4 -4q2 -3 3 -5q1 -3 2 -5v-6v-5l-2 -6t-3 -5t-4 -3q-1 -2 -3 -3q-2 -2 -5 -4q-2 -1 -5 -1q-3 -1 -6 -1q-6 0 -11 2l-4 4q-3 1 -5 3l-3 3q-2 2 -3 5l-2 6q-1 2 -1 5
q0 5 3 11q1 2 3 5q2 2 3 4q2 2 5 4l4 2l6 2h5q6 0 11 -2q3 -1 5 -2zM532 358q0 -2 1 -3v-2l14 -31h-29l14 31v2v3zM132 356l2 -2q0 -2 1 -3q1 -2 1 -5v-2q0 -2 -1 -3t-1 -2q-1 -2 -2 -2l-4 -4h-5h-18v26h18q3 0 5 -1q1 0 3 -1zM580 422q-9 4 -18 10q-10 5 -17 12h157
q-8 -7 -17 -12q-9 -6 -19 -10l-21 -6t-22 -3q-12 0 -22 3zM557 457l154 155q14 -19 22 -39t8 -40q0 -11 -1 -21q-2 -11 -6 -21q-4 -9 -9 -17q-5 -9 -11 -17h-157zM534 453q-13 17 -22 36q-3 10 -5 21t-2 23q0 10 2 20t5 20q3 9 8 18q5 8 12 16h156zM666 642q10 -4 19 -10
l16 -11h-158q18 14 37 21q19 9 43 9zM38 171q-2 2 -2 4l-2 4q-1 3 -1 5q-1 2 -1 5t2 8q1 2 2 5q0 2 2 3l2 5q0 1 3 3q0 1 3 3q2 1 3 2q3 2 5 3l4 1q1 0 4 1h5h7q3 -1 7 -3q4 -1 7 -3l4 -4q-1 -1 -2 -1v-2h-1h-1h-2h-3q-2 1 -4 3q-2 1 -4 1h-3h-5h-5h-4l-6 -3q-2 -2 -4 -3
q-2 -3 -3 -5q-2 -2 -3 -4q-2 -3 -2 -6v-4q0 -4 1 -7l2 -4v-4q1 -1 3 -2q1 -1 2 -3q2 -1 3 -2q1 -2 3 -2q1 -1 3 -2t4 -1q1 -1 3 -1h3h5q2 0 4 1q2 0 5 1l4 2v14h-6h-1l-1 1l-1 2l-2 1v1q-1 0 -1 1v1v1h19v-26l-2 -2l-3 -3q-3 -1 -6 -1q-3 -1 -7 -1h-7h-5h-4q-3 1 -4 2l-5 3
q-1 0 -3 2q-3 1 -3 3q-3 1 -3 3zM117 214v-22h27v-7h-27v-23h33v-8h-41v68h41v-8h-33zM180 154v60h-22v8h52v-8h-23v-60h-7zM260 214v-24h29v-6h-29v-30h-8v68h41v-8h-33zM313 222v-42q0 -2 1 -3q1 -2 2 -3q1 -3 3 -4l2 -4q0 -1 2 -2l2 -2q3 -1 5 -1h4h4q1 0 2 1q3 1 5 2
q1 1 3 2q0 2 2 4q1 1 2 4q2 2 2 6v42h7v-42v-5q-1 -2 -2 -5t-2 -5l-4 -4t-4 -3q-2 -2 -4 -3q-6 -1 -11 -1q-6 0 -12 1l-3 3q-3 1 -5 3q-3 3 -5 9q-1 3 -2 5t-1 5v42h7zM383 222v-60h30v-8h-38v68h8zM428 222v-60h32v-8h-39v68h7zM522 154l-30 68h4q2 0 4 -1q1 -1 2 -1l1 -2
l21 -51v-2q1 -1 1 -3v3l1 1v1q3 7 6 13l6 12q2 8 5 14l6 12q0 2 1 2t1 1q1 1 2 1h2h4q-4 -8 -7 -16q-4 -9 -9 -17q-3 -10 -6 -18q-4 -8 -8 -17h-7zM572 214v-22h28v-7h-28v-23h33v-8h-41v68h41v-8h-33zM655 186q-1 -1 -5 -2l23 -30h-5q-1 0 -2 1h-2l-2 2q-1 0 -2 2l-19 25
h-12v-30h-7v68h25h3q1 0 3 -1q4 -1 7 -4q1 -2 2 -3l2 -4q1 -1 1 -3v-3v-4q0 -2 -1 -3q0 -2 -1 -4t-2 -3l-2 -2zM647 190q2 0 3 2q1 0 2 1h2l2 3q0 1 1 2q0 1 1 2v4v1q-1 1 -1 3l-1 2q-1 0 -2 2q-1 0 -2 1q-1 0 -2 1h-3h-18v-24h18zM709 164q1 1 2 4q1 1 2 3v3q0 3 -1 5
q-1 0 -1 2l-2 2t-4 2q-2 0 -3 1l-3 1q-2 0 -4 1t-2 2q-5 0 -7 3q-2 0 -2 2q-1 2 -2 3v7v5q0 1 1 3q0 3 4 5l3 3q1 0 4 1q2 0 3 1h4h3q1 -1 2 -1h2l3 -2q1 0 2 -1t1 -2q2 -1 3 -2q0 -1 1 -1l-2 -1q-1 -1 -4 -1h-3q-2 1 -2 2h-1h-1h-1h-1h-1h-1h-4q-4 0 -4 -1q-3 -3 -3 -4
q-2 0 -2 -4q0 -3 2 -3q0 -2 1 -3t3 -1l1 -1q2 -2 3 -2t4 -2h2q1 0 1 -1h2q1 0 2 -2h1h1v0h2l1 -1l3 -3q1 -2 3 -3q1 -5 1 -9v-5q0 -2 -3 -4q0 -3 -4 -6q-1 -1 -3 -2l-4 -2q-2 -1 -4 -1h-5q-5 0 -8 1q-4 1 -7 4q-1 0 -2 1l-2 2v2l-1 1l1 1l1 1h2h1h2l2 -2q2 -1 3 -2t3 -1
q0 -1 2 -1h3q4 0 5 1zM744 222v-68h-8v68h8zM771 164q-6 4 -9 10q-2 7 -2 15v4v4q3 5 4 8q3 4 7 8q3 3 6 5q2 2 5 3q2 0 4 1q2 0 4 1h5h5q2 -1 5 -1q2 -1 4 -1q2 -1 4 -3l3 -2q1 -2 3 -3l3 -3l3 -5q1 -3 3 -8l2 -4v-4q0 -4 -1 -7q-1 -4 -3 -8q-1 -3 -2 -5q-2 -3 -5 -5
q-3 -3 -5 -4l-6 -4q-5 -2 -13 -2q-4 0 -7 1q-4 0 -6 1zM771 199q-2 -3 -3 -6t-1 -4q0 -2 1 -4v-3q1 -4 4 -8q0 -1 1 -2t2 -3l3 -2q1 -2 4 -2q1 -1 3 -2q1 -1 2 -1q2 -1 4 -1h4h4q2 0 3 1q1 0 3 1l4 2q1 0 3 2l2 2q1 2 2 3l2 2l2 4l1 4q0 1 1 3v4v4q-1 3 -3 6q0 2 -2 4t-3 5
q-2 1 -4 3q-2 1 -5 3h-4h-6h-6h-5q-2 -2 -4 -3q-3 -2 -5 -3q-1 -3 -2 -5zM850 154h-8v68h6h3q1 0 2 -2l35 -50q1 0 1 -2l1 -1v55h8v-68h-7l-40 56v2h-1v-58zM955 214v-24h28v-6h-28v-30h-7v68h41v-8h-34zM1032 186q-4 -1 -6 -2l22 -30h-6q-2 0 -4 1v2q-1 0 -2 2l-19 25h-12
v-30h-8v68h25h3q2 0 4 -1l4 -2l2 -2q1 -2 2 -3q1 -2 3 -4q0 -1 1 -3v-3v-4q-1 -2 -1 -3l-2 -4q-1 -2 -1 -3zM1026 192q1 0 2 1h1q3 4 3 5q1 2 1 6q0 1 -1 4q0 1 -3 4q-1 0 -1 1l-2 1h-4h-17v-24h17zM1114 164q-2 -3 -5 -4l-6 -4q-3 -1 -6 -1q-3 -1 -7 -1t-7 1q-4 0 -7 1
q-6 2 -11 8q-2 2 -4 5q-2 2 -3 5l-2 8q-2 3 -2 7q0 1 1 4q0 2 1 4t2 5q0 2 1 3q2 3 4 5q1 1 2 3q2 1 4 3l4 2q2 2 4 3q2 0 4 1q3 0 5 1h4h5q2 -1 4 -1l5 -1l3 -3l4 -2l3 -3q1 -2 3 -3q1 -2 2 -5q3 -3 4 -8l2 -4v-4v-7q-1 -4 -3 -8q-1 -3 -3 -5zM1090 161h4q2 0 4 1q1 0 3 1
l2 2q1 0 3 2l4 2l2 3q0 1 1 2l2 4v4q1 1 1 3v4v4q-1 3 -1 6l-2 4q-2 2 -3 5q-3 1 -5 3q-3 1 -5 3h-5h-5h-5h-6q-3 -2 -4 -3q-2 -2 -4 -3q-3 -3 -4 -5l-2 -4q-1 -3 -1 -6v-4v-7q0 -3 1 -4q0 -2 2 -4q0 -1 2 -2q1 -1 2 -3l3 -2q1 -2 2 -2q1 -1 3 -2q1 -1 4 -1q1 -1 3 -1h4z
M1201 221q1 1 2 1h1h6v-68h-7v56l-1 -1v-1q-2 -4 -3 -8q-1 -5 -3 -8t-3 -6l-4 -7q-1 -4 -2 -7l-2 -6q-2 -3 -3 -5q-2 -3 -3 -7h-7q-5 6 -7 13q-3 7 -6 13q-2 7 -5 14q-4 7 -6 14v1l-2 1v-56h-8v68h7q3 0 4 -1l1 -1v-2l24 -53q0 -1 1 -1v-2q0 1 1 2v2q0 2 2 4l21 48q0 2 1 2z
M36 128h77v-10v-2v-2q0 -2 -1 -3l-2 -2l-52 -71h1v1h2h1h51v-18h-81v6q0 5 1 6q0 1 2 4q1 1 1 2t1 2l2 2l1 3l46 63h-50v19zM127 128h68v-19h-49v-24h39v-20h-39v-26h49v-18h-68v107zM279 109h-29v-88h-21v88h-31v19h81v-19zM328 128l46 -107h-12q-4 0 -8 2q-2 1 -2 3
q-1 2 -3 4l-6 14h-49l-5 -14l-1 -2q-1 -1 -2 -1v-2q-1 -1 -3 -2h-2q-1 -1 -2 -1q0 -1 -1 -1h-2h-12l46 107h18zM334 63l-13 33v2q-1 0 -1 1q0 2 -1 3v-3q0 -1 -1 -1q-1 -1 -1 -2l-13 -33h30zM378 128h68v-19h-49v-27h40v-19h-40v-42h-19v107zM553 101q2 -3 3 -6t3 -6
q1 -4 1 -7v-7v-8q0 -4 -1 -7q-2 -3 -3 -6q-1 -4 -3 -7q-2 -2 -4 -5l-4 -6q-4 -2 -6 -4q-2 -3 -5 -4q-3 -3 -6 -4q-4 -1 -7 -2q-4 -1 -7 -1q-4 -1 -8 -1q-5 0 -10 2q-6 1 -11 2q-6 3 -9 6q-4 3 -9 6q-7 8 -10 17q-3 6 -4 11t-1 11q0 3 1 7q0 3 1 7q2 8 6 12q2 4 4 7q1 2 3 5
q4 2 7 4q2 2 5 4t6 3t7 3q3 0 7 1h7h8q3 -1 7 -1q3 -2 7 -3q3 -1 6 -3t5 -4t6 -4q2 -3 4 -5zM539 62l2 6v7q0 6 -2 12q-2 5 -4 8q-2 2 -5 4l-4 4q-3 2 -6 3q-6 3 -14 3t-14 -3q-2 -1 -4 -3l-6 -4t-4 -4q-2 -3 -4 -8q-2 -2 -2 -5v-7v-7q0 -3 2 -6l4 -7q1 -3 4 -5l6 -4l4 -4
q4 -1 7 -2t7 -1t7 1t7 2l6 4l4 4q3 2 5 5zM649 128h19v-107h-18l-50 72q-1 0 -1 1l-1 1q-1 2 -1 3q-2 0 -2 2v1l-2 1v-81h-19v107h17h4q2 -1 2 -2l3 -1l2 -2q5 -8 11 -15q5 -8 10 -17l12 -14q5 -8 12 -15q0 -2 1 -3v-3q0 -1 1 -2v-2v76zM678 128h81v-19h-32v-88h-19v88h-30
v19zM825 73q1 -2 3 -4l2 -4q0 -2 1 -4q1 -3 1 -7q0 -6 -3 -13l-4 -6q-2 -3 -4 -5q-4 -2 -6 -4t-6 -3t-7 -2q-4 -1 -7 -1q-4 0 -7 1q-4 1 -9 2q-3 1 -5 3q-3 2 -7 6q-2 1 -3 3q-1 1 -2 3q-2 1 -2 6l1 1l1 1q1 0 1 1h1t2 1h1h5h2q1 0 1 -1q3 0 5 -1q2 -2 4 -3t3 -2q1 0 3 -1
t5 -1q1 0 3 1q1 0 3 1q3 1 6 3l4 4q1 2 2 3t1 3q0 4 -3 6q-2 3 -4 3l-3 3h-3q-3 1 -8 4q-2 0 -4 1q-3 0 -5 2q-4 1 -6 3q-2 1 -4 3q-3 2 -4 4q-2 2 -3 4q-3 6 -3 12q0 9 3 13q1 3 3 5t5 4q2 2 5 3l6 3q2 0 5 1h7h4q2 -1 5 -1l4 -2q1 -1 4 -2q1 -1 3 -2l4 -4l3 -2l2 -4l-4 -2
l-2 -2q-2 -1 -2 -2h-4h-2h-2h-1q-3 0 -3 1l-4 2q-1 0 -1 1h-1h-3h-6h-2q-1 -1 -3 -2q-1 -1 -2 -4q-1 -1 -1 -4t1 -3l2 -2v-3h4q1 -1 2 -1l6 -2q2 -1 3 -2l5 -1q2 -2 5 -2q2 -1 5 -4zM857 39q3 0 3 -3q1 0 1 -1v-3q0 -3 -1 -5q0 -2 -3 -4q-2 0 -3 -2h-2q-1 -1 -3 -1
q-1 0 -2 1h-2l-2 2h-2q-1 1 -1 2l-2 2q-1 2 -1 5v3q0 1 1 1q1 2 2 3h1q3 3 4 3l2 2h2h3l2 -2zM898 99q-4 -4 -8 -12q-1 -2 -2 -5q-1 -4 -1 -7q0 -4 1 -7l2 -6l4 -7q1 -3 4 -5q2 -2 5 -4q2 -2 6 -4q4 -1 7 -2t7 -1q3 0 5 1t5 1q2 1 5 3q2 1 4 3q2 0 4 1h3h3q2 0 3 -1
q3 -1 5 -3l3 -5q-3 -4 -8 -7q-3 -2 -5 -3q-2 -2 -5 -3q-3 -2 -5 -2l-6 -2t-5 -1q-3 -1 -6 -1q-7 0 -12 2l-10 2q-10 5 -17 12q-8 8 -12 17q-1 6 -2 11q-2 5 -2 11q0 3 1 7q0 3 1 7l2 6q1 3 3 6q3 4 5 7q1 2 4 5l6 4q2 2 6 4q2 2 5 3t8 3q2 0 6 1h8h6q2 0 5 -1l6 -2
q2 -1 5 -2t5 -2q2 -2 5 -4q5 -4 8 -8l-3 -4l-2 -2q-1 -1 -3 -2h-3h-3h-3q-2 0 -4 1l-4 4q-3 1 -5 2q-3 1 -5 1h-5q-8 0 -14 -3q-4 -1 -6 -3zM1072 101q1 -3 3 -6l2 -6q1 -4 1 -7v-7v-8q0 -4 -1 -7l-2 -6q-2 -4 -3 -7q-4 -5 -8 -11q-4 -2 -7 -4q-3 -3 -5 -4q-3 -3 -6 -4
l-8 -2q-3 -1 -6 -1q-4 -1 -8 -1q-10 0 -21 4l-8 6q-5 3 -8 6q-4 4 -7 8t-5 9q-2 6 -3 11t-1 11q0 3 1 7v7q1 3 3 6t3 6q2 4 4 7l5 5q2 2 5 4l6 4q2 2 6 3q3 1 6 3q4 0 8 1h6h8q3 -1 6 -1q4 -2 8 -3q3 -1 6 -3q2 -2 5 -4t7 -4q1 -3 4 -5zM1057 62q2 5 2 13v7q-1 3 -2 5
q-2 5 -3 8l-4 4q-5 5 -12 7q-3 2 -6 3h-8q-7 0 -13 -3q-3 -1 -5 -3l-6 -4l-4 -4q-2 -3 -4 -8q-1 -2 -1 -5q-1 -4 -1 -7q0 -4 1 -7q0 -3 1 -6q4 -8 8 -12l6 -4q2 -2 5 -4q3 -1 7 -2t6 -1q4 0 8 1l6 2q3 2 7 4q3 2 5 4zM1188 127l1 1h2h19v-107h-19v78v-2l-2 -3v-3q0 -1 -1 -2
q-3 -9 -7 -17q-4 -9 -7 -17l-6 -16q-4 -9 -7 -18h-19l-27 68q-1 1 -1 5q-1 2 -1 3q-1 0 -1 1v-77h-20v107h19h3l1 -1q2 -1 3 -1l1 -1l3 -2l2 -2q1 -1 1 -2q2 -8 6 -15q3 -8 6 -17q3 -8 7 -16l6 -16v-1v-2v-2q2 0 2 -2v2v2q0 1 1 2v1l4 8l22 56q0 1 1 2v2q1 1 3 2h1q1 1 2 1z
" />
    <glyph glyph-name="seven" unicode="7" horiz-adv-x="1236" 
d="M1210 533v-286h-1174v286h445q0 15 3 29q2 13 8 26t14 25q7 12 18 21q18 19 44 30q14 6 28 9q13 2 27 2q16 0 30 -3t26 -9q14 -6 26 -14q11 -8 20 -17q18 -18 30 -46q10 -26 10 -53h445zM503 582q-11 -23 -11 -49q0 -28 11 -51q5 -11 12 -22t15 -20q9 -9 20 -16
q10 -7 22 -12q23 -11 51 -11q14 0 27 2q12 2 24 7q12 6 22 13q10 6 19 16q9 9 16 20q7 10 13 21q11 25 11 53q0 11 -2 23q-2 11 -7 21q-6 20 -20 37q-7 8 -15 15t-16 12l-18 10l-20 8q-7 2 -15 3q-9 1 -19 1q-14 0 -27 -2q-13 -3 -25 -9q-24 -9 -42 -28q-8 -9 -14 -20z
M144 337q3 5 3 9v5q-1 2 -3 5q0 1 -2 3l-3 3l-2 4q-2 1 -5 1l-4 2q-3 1 -5 1h-26v-75h8v28h18q2 0 5 1q2 0 4 1q5 2 7 4q1 2 3 4zM200 370h-46v-75h46v9h-35v23h29v10h-29v22h35v11zM273 295l-23 32q1 1 3 1q1 0 2 2q4 2 5 5q1 1 2 3q1 1 2 3v6v5q0 2 -1 4q-2 4 -5 7
q-2 4 -7 4q-1 1 -3 2q-3 1 -5 1h-27v-75h11v31h11l20 -27q1 -2 3 -3q1 -1 2 -1h3h7zM324 308q0 2 1 4v4q0 6 -2 10t-6 7q-1 0 -1 1q-1 1 -3 2v0q-1 0 -3 1h-1q-1 0 -1 2q-3 0 -4 1q-3 0 -4 1l-3 1q-4 1 -4 2q-3 2 -3 3v4v4q1 0 2 1t1 2l2 1h2q2 1 3 1h2h1q1 -1 2 -1
q4 0 4 -2q1 -1 2 -1h2q4 0 7 2l2 1q0 1 -1 2l-2 2q-2 1 -3 2t-3 2q-1 0 -2 1q-1 0 -3 2q-3 0 -3 1h-3h-4q-3 -1 -5 -1l-3 -3q-2 -1 -4 -1q-1 -2 -2 -3q-2 -2 -3 -4t-1 -3q-1 -2 -1 -5v-4q0 -2 2 -4q1 -2 3 -3q1 -2 1 -3l4 -2q2 -2 4 -2l4 -2q1 -1 3 -2q1 -1 3 -1h2
q3 -1 4 -1l1 -1l2 -1q0 -1 1 -3q1 -1 1 -2v-4v-1q0 -2 -1 -3l-1 -2q0 -1 -2 -2q-1 -2 -2 -2q-2 -1 -3 -2h-2h-3h-3h-3l-2 2q-2 0 -2 2l-1 1q-3 2 -6 2h-2q-1 0 -2 -1l-3 -1q0 -2 1 -2q0 -2 2 -3q0 -1 1 -2l1 -1h1q4 -4 9 -5q4 -1 9 -1h5q2 0 4 1t5 2q2 1 3 3q3 1 5 3z
M409 322q1 3 1 5v5q0 6 -1 10q0 3 -1 5q-2 2 -3 5q-2 3 -6 7q-2 2 -4 3t-5 4q-1 0 -3 1t-5 3q-3 0 -5 1h-5h-5q-3 -1 -5 -1q-3 -2 -5 -3t-4 -1q-2 -3 -4 -4t-4 -3l-3 -3q-2 -2 -3 -4q-2 -3 -2 -5q-1 -2 -2 -5q-1 -4 -1 -10q0 -4 1 -7l2 -8q1 -3 3 -6t5 -7l6 -4q3 -2 7 -2
q6 -3 14 -3h5h5q5 2 8 4q7 3 9 5q3 4 6 9q1 2 3 5zM487 370h-10v-58v3l-1 1l-36 51q-2 0 -4 3h-2h-2h-7v-75h10v61l1 -1v-2l43 -58h8v75zM571 295l-33 75h-11l-32 -75h6q3 0 4 1l2 2l2 1l4 13h39l5 -13q1 -2 3 -3q0 -1 4 -1h7zM620 304h-32v66h-11v-75h43v9zM722 370h-10
v-45v-5q0 -2 -1 -4q-1 -4 -5 -6l-2 -2q-2 -1 -3 -3q-3 -1 -4 -1h-4q-5 0 -7 1q-3 2 -5 3t-2 2q-1 1 -2 3l-3 3v4q-1 2 -1 5v45h-10v-45v-5q0 -3 1 -4q0 -4 2 -7q2 -5 6 -7q1 -1 3 -2q1 -1 3 -2q1 -1 3 -1q2 -1 3 -2q3 0 5 -1q1 -1 4 -1q2 0 4 1q1 1 4 1l4 2q1 0 3 1l6 4
q2 2 3 4q0 1 1 3l3 3q1 2 1 4v9v45zM780 308q3 4 3 8q0 6 -2 10t-6 7q-3 2 -3 3h-2q-2 0 -3 1h-1q-2 0 -3 2h-1q-1 0 -2 1q-1 0 -2 1l-3 1q-4 1 -4 2q-2 1 -2 2q-1 1 -2 1v2q-1 0 -1 2t2 4l3 3q1 0 2 1h2q0 1 5 1h1q1 -1 2 -1q1 -1 4 -2q4 -1 5 -1q3 0 4 2l3 1l-2 2l-2 2
q0 1 -1 2q-2 1 -3 2q-2 0 -3 1q-1 0 -3 2q-2 0 -3 1h-2h-5q-2 -1 -4 -1q-2 -2 -4 -3t-3 -1l-3 -3q-1 -2 -3 -4q0 -2 -1 -3q-1 -2 -1 -5t1 -4q1 -2 1 -4q2 -4 5 -6l4 -2q1 -2 2 -2q3 -1 5 -2q1 -1 3 -2t3 -1h2q1 -1 3 -1q1 0 2 -1t3 -1q1 -1 1 -3q1 -1 1 -2v-4v-1q0 -2 -1 -3
q-1 -3 -4 -4q-2 -2 -3 -2l-2 -2h-2h-3h-3h-3q-2 1 -5 4v1q-3 2 -6 2h-1q-2 0 -3 -1l-3 -1l1 -1q0 -1 1 -1q0 -1 1 -1v-2h1v-2q2 -1 3 -1q3 -4 8 -5q4 -1 9 -1h5q2 0 5 1l4 2q2 1 4 3l3 3zM841 370h-46v-75h46v9h-36v23h30v10h-30v22h36v11zM960 322v5v5v6v4q-2 5 -5 10
q-2 3 -6 7q-1 2 -3 3t-4 4q-2 0 -4 1q-3 1 -5 3q-3 0 -5 1h-5h-5q-3 -1 -5 -1q-6 -3 -10 -4q-2 -3 -3 -4q-2 -1 -4 -3l-3 -3l-4 -4q-1 -3 -2 -5t-1 -5q-2 -4 -2 -10q0 -4 1 -7l2 -8q3 -7 9 -13q2 -2 5 -4t7 -2q6 -3 15 -3h5h5q2 1 5 2l4 2q2 2 4 3t3 2q4 4 6 9zM1038 370
h-11v-58v3q-1 1 -2 1l-36 51v1q-1 0 -2 2h-2h-3h-8v-75h12v59l1 -1l42 -58h9v75zM1099 304h-32v66h-11v-75h43v9zM1159 370h-9q-2 0 -4 -2q-4 -2 -4 -4l-17 -23l-1 -1h-1l-1 1l-18 23q-1 2 -3 4t-5 2h-8l27 -37l1 -1q0 -1 1 -1v-1v-1q0 -1 1 -1v-1v-32h11v32v1v2q1 0 1 2v1
h1zM942 352l4 -4q2 -3 3 -5q0 -3 1 -5v-6q0 -6 -1 -11q-1 -3 -3 -5t-4 -3q-2 -2 -4 -3l-4 -4q-6 -2 -11 -2q-3 0 -6 1q-3 0 -5 1q-3 2 -5 4q-2 1 -4 3q-2 1 -3 3q-2 2 -2 5q-2 3 -2 6q-1 2 -1 5q0 5 3 11q0 2 2 5q1 2 3 4l4 4q2 1 5 2q4 2 11 2h5l6 -2l4 -2zM253 343
q0 -1 -2 -4q-1 0 -1 -1q-1 -1 -3 -1q-1 -1 -4 -1h-16v23h16q2 0 4 -1h3l1 -2l2 -4q1 -1 1 -5zM391 352l4 -4q2 -3 3 -5q1 -3 2 -5v-6v-5l-2 -6t-3 -5t-4 -3q-1 -2 -3 -3q-2 -2 -5 -4q-2 -1 -5 -1q-3 -1 -6 -1q-6 0 -11 2l-4 4q-3 1 -5 3l-3 3q-2 2 -3 5l-2 6q-1 2 -1 5
q0 5 3 11q1 2 3 5q2 2 3 4q2 2 5 4l4 2l6 2h5q6 0 11 -2q3 -1 5 -2zM532 358q0 -2 1 -3v-2l14 -31h-29l14 31v2v3zM132 356l2 -2q0 -2 1 -3q1 -2 1 -5v-2q0 -2 -1 -3t-1 -2q-1 -2 -2 -2l-4 -4h-5h-18v26h18q3 0 5 -1q1 0 3 -1zM580 422q-9 4 -18 10q-10 5 -17 12h157
q-8 -7 -17 -12q-9 -6 -19 -10l-21 -6t-22 -3q-12 0 -22 3zM557 457l154 155q14 -19 22 -39t8 -40q0 -11 -1 -21q-2 -11 -6 -21q-4 -9 -9 -17q-5 -9 -11 -17h-157zM534 453q-13 17 -22 36q-3 10 -5 21t-2 23q0 10 2 20t5 20q3 9 8 18q5 8 12 16h156zM666 642q10 -4 19 -10
l16 -11h-158q18 14 37 21q19 9 43 9zM38 171q-2 2 -2 4l-2 4q-1 3 -1 5q-1 2 -1 5t2 8q1 2 2 5q0 2 2 3l2 5q0 1 3 3q0 1 3 3q2 1 3 2q3 2 5 3l4 1q1 0 4 1h5h7q3 -1 7 -3q4 -1 7 -3l4 -4q-1 -1 -2 -1v-2h-1h-1h-2h-3q-2 1 -4 3q-2 1 -4 1h-3h-5h-5h-4l-6 -3q-2 -2 -4 -3
q-2 -3 -3 -5q-2 -2 -3 -4q-2 -3 -2 -6v-4q0 -4 1 -7l2 -4v-4q1 -1 3 -2q1 -1 2 -3q2 -1 3 -2q1 -2 3 -2q1 -1 3 -2t4 -1q1 -1 3 -1h3h5q2 0 4 1q2 0 5 1l4 2v14h-6h-1l-1 1l-1 2l-2 1v1q-1 0 -1 1v1v1h19v-26l-2 -2l-3 -3q-3 -1 -6 -1q-3 -1 -7 -1h-7h-5h-4q-3 1 -4 2l-5 3
q-1 0 -3 2q-3 1 -3 3q-3 1 -3 3zM117 214v-22h27v-7h-27v-23h33v-8h-41v68h41v-8h-33zM180 154v60h-22v8h52v-8h-23v-60h-7zM260 214v-24h29v-6h-29v-30h-8v68h41v-8h-33zM313 222v-42q0 -2 1 -3q1 -2 2 -3q1 -3 3 -4l2 -4q0 -1 2 -2l2 -2q3 -1 5 -1h4h4q1 0 2 1q3 1 5 2
q1 1 3 2q0 2 2 4q1 1 2 4q2 2 2 6v42h7v-42v-5q-1 -2 -2 -5t-2 -5l-4 -4t-4 -3q-2 -2 -4 -3q-6 -1 -11 -1q-6 0 -12 1l-3 3q-3 1 -5 3q-3 3 -5 9q-1 3 -2 5t-1 5v42h7zM383 222v-60h30v-8h-38v68h8zM428 222v-60h32v-8h-39v68h7zM522 154l-30 68h4q2 0 4 -1q1 -1 2 -1l1 -2
l21 -51v-2q1 -1 1 -3v3l1 1v1q3 7 6 13l6 12q2 8 5 14l6 12q0 2 1 2t1 1q1 1 2 1h2h4q-4 -8 -7 -16q-4 -9 -9 -17q-3 -10 -6 -18q-4 -8 -8 -17h-7zM572 214v-22h28v-7h-28v-23h33v-8h-41v68h41v-8h-33zM655 186q-1 -1 -5 -2l23 -30h-5q-1 0 -2 1h-2l-2 2q-1 0 -2 2l-19 25
h-12v-30h-7v68h25h3q1 0 3 -1q4 -1 7 -4q1 -2 2 -3l2 -4q1 -1 1 -3v-3v-4q0 -2 -1 -3q0 -2 -1 -4t-2 -3l-2 -2zM647 190q2 0 3 2q1 0 2 1h2l2 3q0 1 1 2q0 1 1 2v4v1q-1 1 -1 3l-1 2q-1 0 -2 2q-1 0 -2 1q-1 0 -2 1h-3h-18v-24h18zM709 164q1 1 2 4q1 1 2 3v3q0 3 -1 5
q-1 0 -1 2l-2 2t-4 2q-2 0 -3 1l-3 1q-2 0 -4 1t-2 2q-5 0 -7 3q-2 0 -2 2q-1 2 -2 3v7v5q0 1 1 3q0 3 4 5l3 3q1 0 4 1q2 0 3 1h4h3q1 -1 2 -1h2l3 -2q1 0 2 -1t1 -2q2 -1 3 -2q0 -1 1 -1l-2 -1q-1 -1 -4 -1h-3q-2 1 -2 2h-1h-1h-1h-1h-1h-1h-4q-4 0 -4 -1q-3 -3 -3 -4
q-2 0 -2 -4q0 -3 2 -3q0 -2 1 -3t3 -1l1 -1q2 -2 3 -2t4 -2h2q1 0 1 -1h2q1 0 2 -2h1h1v0h2l1 -1l3 -3q1 -2 3 -3q1 -5 1 -9v-5q0 -2 -3 -4q0 -3 -4 -6q-1 -1 -3 -2l-4 -2q-2 -1 -4 -1h-5q-5 0 -8 1q-4 1 -7 4q-1 0 -2 1l-2 2v2l-1 1l1 1l1 1h2h1h2l2 -2q2 -1 3 -2t3 -1
q0 -1 2 -1h3q4 0 5 1zM744 222v-68h-8v68h8zM771 164q-6 4 -9 10q-2 7 -2 15v4v4q3 5 4 8q3 4 7 8q3 3 6 5q2 2 5 3q2 0 4 1q2 0 4 1h5h5q2 -1 5 -1q2 -1 4 -1q2 -1 4 -3l3 -2q1 -2 3 -3l3 -3l3 -5q1 -3 3 -8l2 -4v-4q0 -4 -1 -7q-1 -4 -3 -8q-1 -3 -2 -5q-2 -3 -5 -5
q-3 -3 -5 -4l-6 -4q-5 -2 -13 -2q-4 0 -7 1q-4 0 -6 1zM771 199q-2 -3 -3 -6t-1 -4q0 -2 1 -4v-3q1 -4 4 -8q0 -1 1 -2t2 -3l3 -2q1 -2 4 -2q1 -1 3 -2q1 -1 2 -1q2 -1 4 -1h4h4q2 0 3 1q1 0 3 1l4 2q1 0 3 2l2 2q1 2 2 3l2 2l2 4l1 4q0 1 1 3v4v4q-1 3 -3 6q0 2 -2 4t-3 5
q-2 1 -4 3q-2 1 -5 3h-4h-6h-6h-5q-2 -2 -4 -3q-3 -2 -5 -3q-1 -3 -2 -5zM850 154h-8v68h6h3q1 0 2 -2l35 -50q1 0 1 -2l1 -1v55h8v-68h-7l-40 56v2h-1v-58zM955 214v-24h28v-6h-28v-30h-7v68h41v-8h-34zM1032 186q-4 -1 -6 -2l22 -30h-6q-2 0 -4 1v2q-1 0 -2 2l-19 25h-12
v-30h-8v68h25h3q2 0 4 -1l4 -2l2 -2q1 -2 2 -3q1 -2 3 -4q0 -1 1 -3v-3v-4q-1 -2 -1 -3l-2 -4q-1 -2 -1 -3zM1026 192q1 0 2 1h1q3 4 3 5q1 2 1 6q0 1 -1 4q0 1 -3 4q-1 0 -1 1l-2 1h-4h-17v-24h17zM1114 164q-2 -3 -5 -4l-6 -4q-3 -1 -6 -1q-3 -1 -7 -1t-7 1q-4 0 -7 1
q-6 2 -11 8q-2 2 -4 5q-2 2 -3 5l-2 8q-2 3 -2 7q0 1 1 4q0 2 1 4t2 5q0 2 1 3q2 3 4 5q1 1 2 3q2 1 4 3l4 2q2 2 4 3q2 0 4 1q3 0 5 1h4h5q2 -1 4 -1l5 -1l3 -3l4 -2l3 -3q1 -2 3 -3q1 -2 2 -5q3 -3 4 -8l2 -4v-4v-7q-1 -4 -3 -8q-1 -3 -3 -5zM1090 161h4q2 0 4 1q1 0 3 1
l2 2q1 0 3 2l4 2l2 3q0 1 1 2l2 4v4q1 1 1 3v4v4q-1 3 -1 6l-2 4q-2 2 -3 5q-3 1 -5 3q-3 1 -5 3h-5h-5h-5h-6q-3 -2 -4 -3q-2 -2 -4 -3q-3 -3 -4 -5l-2 -4q-1 -3 -1 -6v-4v-7q0 -3 1 -4q0 -2 2 -4q0 -1 2 -2q1 -1 2 -3l3 -2q1 -2 2 -2q1 -1 3 -2q1 -1 4 -1q1 -1 3 -1h4z
M1201 221q1 1 2 1h1h6v-68h-7v56l-1 -1v-1q-2 -4 -3 -8q-1 -5 -3 -8t-3 -6l-4 -7q-1 -4 -2 -7l-2 -6q-2 -3 -3 -5q-2 -3 -3 -7h-7q-5 6 -7 13q-3 7 -6 13q-2 7 -5 14q-4 7 -6 14v1l-2 1v-56h-8v68h7q3 0 4 -1l1 -1v-2l24 -53q0 -1 1 -1v-2q0 1 1 2v2q0 2 2 4l21 48q0 2 1 2z
M36 128h77v-10v-2v-2q0 -2 -1 -3l-2 -2l-52 -71h1v1h2h1h51v-18h-81v6q0 5 1 6q0 1 2 4q1 1 1 2t1 2l2 2l1 3l46 63h-50v19zM127 128h68v-19h-49v-24h39v-20h-39v-26h49v-18h-68v107zM279 109h-29v-88h-21v88h-31v19h81v-19zM328 128l46 -107h-12q-4 0 -8 2q-2 1 -2 3
q-1 2 -3 4l-6 14h-49l-5 -14l-1 -2q-1 -1 -2 -1v-2q-1 -1 -3 -2h-2q-1 -1 -2 -1q0 -1 -1 -1h-2h-12l46 107h18zM334 63l-13 33v2q-1 0 -1 1q0 2 -1 3v-3q0 -1 -1 -1q-1 -1 -1 -2l-13 -33h30zM378 128h68v-19h-49v-27h40v-19h-40v-42h-19v107zM553 101q2 -3 3 -6t3 -6
q1 -4 1 -7v-7v-8q0 -4 -1 -7q-2 -3 -3 -6q-1 -4 -3 -7q-2 -2 -4 -5l-4 -6q-4 -2 -6 -4q-2 -3 -5 -4q-3 -3 -6 -4q-4 -1 -7 -2q-4 -1 -7 -1q-4 -1 -8 -1q-5 0 -10 2q-6 1 -11 2q-6 3 -9 6q-4 3 -9 6q-7 8 -10 17q-3 6 -4 11t-1 11q0 3 1 7q0 3 1 7q2 8 6 12q2 4 4 7q1 2 3 5
q4 2 7 4q2 2 5 4t6 3t7 3q3 0 7 1h7h8q3 -1 7 -1q3 -2 7 -3q3 -1 6 -3t5 -4t6 -4q2 -3 4 -5zM539 62l2 6v7q0 6 -2 12q-2 5 -4 8q-2 2 -5 4l-4 4q-3 2 -6 3q-6 3 -14 3t-14 -3q-2 -1 -4 -3l-6 -4t-4 -4q-2 -3 -4 -8q-2 -2 -2 -5v-7v-7q0 -3 2 -6l4 -7q1 -3 4 -5l6 -4l4 -4
q4 -1 7 -2t7 -1t7 1t7 2l6 4l4 4q3 2 5 5zM649 128h19v-107h-18l-50 72q-1 0 -1 1l-1 1q-1 2 -1 3q-2 0 -2 2v1l-2 1v-81h-19v107h17h4q2 -1 2 -2l3 -1l2 -2q5 -8 11 -15q5 -8 10 -17l12 -14q5 -8 12 -15q0 -2 1 -3v-3q0 -1 1 -2v-2v76zM678 128h81v-19h-32v-88h-19v88h-30
v19zM825 73q1 -2 3 -4l2 -4q0 -2 1 -4q1 -3 1 -7q0 -6 -3 -13l-4 -6q-2 -3 -4 -5q-4 -2 -6 -4t-6 -3t-7 -2q-4 -1 -7 -1q-4 0 -7 1q-4 1 -9 2q-3 1 -5 3q-3 2 -7 6q-2 1 -3 3q-1 1 -2 3q-2 1 -2 6l1 1l1 1q1 0 1 1h1t2 1h1h5h2q1 0 1 -1q3 0 5 -1q2 -2 4 -3t3 -2q1 0 3 -1
t5 -1q1 0 3 1q1 0 3 1q3 1 6 3l4 4q1 2 2 3t1 3q0 4 -3 6q-2 3 -4 3l-3 3h-3q-3 1 -8 4q-2 0 -4 1q-3 0 -5 2q-4 1 -6 3q-2 1 -4 3q-3 2 -4 4q-2 2 -3 4q-3 6 -3 12q0 9 3 13q1 3 3 5t5 4q2 2 5 3l6 3q2 0 5 1h7h4q2 -1 5 -1l4 -2q1 -1 4 -2q1 -1 3 -2l4 -4l3 -2l2 -4l-4 -2
l-2 -2q-2 -1 -2 -2h-4h-2h-2h-1q-3 0 -3 1l-4 2q-1 0 -1 1h-1h-3h-6h-2q-1 -1 -3 -2q-1 -1 -2 -4q-1 -1 -1 -4t1 -3l2 -2v-3h4q1 -1 2 -1l6 -2q2 -1 3 -2l5 -1q2 -2 5 -2q2 -1 5 -4zM857 39q3 0 3 -3q1 0 1 -1v-3q0 -3 -1 -5q0 -2 -3 -4q-2 0 -3 -2h-2q-1 -1 -3 -1
q-1 0 -2 1h-2l-2 2h-2q-1 1 -1 2l-2 2q-1 2 -1 5v3q0 1 1 1q1 2 2 3h1q3 3 4 3l2 2h2h3l2 -2zM898 99q-4 -4 -8 -12q-1 -2 -2 -5q-1 -4 -1 -7q0 -4 1 -7l2 -6l4 -7q1 -3 4 -5q2 -2 5 -4q2 -2 6 -4q4 -1 7 -2t7 -1q3 0 5 1t5 1q2 1 5 3q2 1 4 3q2 0 4 1h3h3q2 0 3 -1
q3 -1 5 -3l3 -5q-3 -4 -8 -7q-3 -2 -5 -3q-2 -2 -5 -3q-3 -2 -5 -2l-6 -2t-5 -1q-3 -1 -6 -1q-7 0 -12 2l-10 2q-10 5 -17 12q-8 8 -12 17q-1 6 -2 11q-2 5 -2 11q0 3 1 7q0 3 1 7l2 6q1 3 3 6q3 4 5 7q1 2 4 5l6 4q2 2 6 4q2 2 5 3t8 3q2 0 6 1h8h6q2 0 5 -1l6 -2
q2 -1 5 -2t5 -2q2 -2 5 -4q5 -4 8 -8l-3 -4l-2 -2q-1 -1 -3 -2h-3h-3h-3q-2 0 -4 1l-4 4q-3 1 -5 2q-3 1 -5 1h-5q-8 0 -14 -3q-4 -1 -6 -3zM1072 101q1 -3 3 -6l2 -6q1 -4 1 -7v-7v-8q0 -4 -1 -7l-2 -6q-2 -4 -3 -7q-4 -5 -8 -11q-4 -2 -7 -4q-3 -3 -5 -4q-3 -3 -6 -4
l-8 -2q-3 -1 -6 -1q-4 -1 -8 -1q-10 0 -21 4l-8 6q-5 3 -8 6q-4 4 -7 8t-5 9q-2 6 -3 11t-1 11q0 3 1 7v7q1 3 3 6t3 6q2 4 4 7l5 5q2 2 5 4l6 4q2 2 6 3q3 1 6 3q4 0 8 1h6h8q3 -1 6 -1q4 -2 8 -3q3 -1 6 -3q2 -2 5 -4t7 -4q1 -3 4 -5zM1057 62q2 5 2 13v7q-1 3 -2 5
q-2 5 -3 8l-4 4q-5 5 -12 7q-3 2 -6 3h-8q-7 0 -13 -3q-3 -1 -5 -3l-6 -4l-4 -4q-2 -3 -4 -8q-1 -2 -1 -5q-1 -4 -1 -7q0 -4 1 -7q0 -3 1 -6q4 -8 8 -12l6 -4q2 -2 5 -4q3 -1 7 -2t6 -1q4 0 8 1l6 2q3 2 7 4q3 2 5 4zM1188 127l1 1h2h19v-107h-19v78v-2l-2 -3v-3q0 -1 -1 -2
q-3 -9 -7 -17q-4 -9 -7 -17l-6 -16q-4 -9 -7 -18h-19l-27 68q-1 1 -1 5q-1 2 -1 3q-1 0 -1 1v-77h-20v107h19h3l1 -1q2 -1 3 -1l1 -1l3 -2l2 -2q1 -1 1 -2q2 -8 6 -15q3 -8 6 -17q3 -8 7 -16l6 -16v-1v-2v-2q2 0 2 -2v2v2q0 1 1 2v1l4 8l22 56q0 1 1 2v2q1 1 3 2h1q1 1 2 1z
" />
    <glyph glyph-name="eight" unicode="8" horiz-adv-x="1236" 
d="M1210 533v-286h-1174v286h445q0 15 3 29q2 13 8 26t14 25q7 12 18 21q18 19 44 30q14 6 28 9q13 2 27 2q16 0 30 -3t26 -9q14 -6 26 -14q11 -8 20 -17q18 -18 30 -46q10 -26 10 -53h445zM503 582q-11 -23 -11 -49q0 -28 11 -51q5 -11 12 -22t15 -20q9 -9 20 -16
q10 -7 22 -12q23 -11 51 -11q14 0 27 2q12 2 24 7q12 6 22 13q10 6 19 16q9 9 16 20q7 10 13 21q11 25 11 53q0 11 -2 23q-2 11 -7 21q-6 20 -20 37q-7 8 -15 15t-16 12l-18 10l-20 8q-7 2 -15 3q-9 1 -19 1q-14 0 -27 -2q-13 -3 -25 -9q-24 -9 -42 -28q-8 -9 -14 -20z
M144 337q3 5 3 9v5q-1 2 -3 5q0 1 -2 3l-3 3l-2 4q-2 1 -5 1l-4 2q-3 1 -5 1h-26v-75h8v28h18q2 0 5 1q2 0 4 1q5 2 7 4q1 2 3 4zM200 370h-46v-75h46v9h-35v23h29v10h-29v22h35v11zM273 295l-23 32q1 1 3 1q1 0 2 2q4 2 5 5q1 1 2 3q1 1 2 3v6v5q0 2 -1 4q-2 4 -5 7
q-2 4 -7 4q-1 1 -3 2q-3 1 -5 1h-27v-75h11v31h11l20 -27q1 -2 3 -3q1 -1 2 -1h3h7zM324 308q0 2 1 4v4q0 6 -2 10t-6 7q-1 0 -1 1q-1 1 -3 2v0q-1 0 -3 1h-1q-1 0 -1 2q-3 0 -4 1q-3 0 -4 1l-3 1q-4 1 -4 2q-3 2 -3 3v4v4q1 0 2 1t1 2l2 1h2q2 1 3 1h2h1q1 -1 2 -1
q4 0 4 -2q1 -1 2 -1h2q4 0 7 2l2 1q0 1 -1 2l-2 2q-2 1 -3 2t-3 2q-1 0 -2 1q-1 0 -3 2q-3 0 -3 1h-3h-4q-3 -1 -5 -1l-3 -3q-2 -1 -4 -1q-1 -2 -2 -3q-2 -2 -3 -4t-1 -3q-1 -2 -1 -5v-4q0 -2 2 -4q1 -2 3 -3q1 -2 1 -3l4 -2q2 -2 4 -2l4 -2q1 -1 3 -2q1 -1 3 -1h2
q3 -1 4 -1l1 -1l2 -1q0 -1 1 -3q1 -1 1 -2v-4v-1q0 -2 -1 -3l-1 -2q0 -1 -2 -2q-1 -2 -2 -2q-2 -1 -3 -2h-2h-3h-3h-3l-2 2q-2 0 -2 2l-1 1q-3 2 -6 2h-2q-1 0 -2 -1l-3 -1q0 -2 1 -2q0 -2 2 -3q0 -1 1 -2l1 -1h1q4 -4 9 -5q4 -1 9 -1h5q2 0 4 1t5 2q2 1 3 3q3 1 5 3z
M409 322q1 3 1 5v5q0 6 -1 10q0 3 -1 5q-2 2 -3 5q-2 3 -6 7q-2 2 -4 3t-5 4q-1 0 -3 1t-5 3q-3 0 -5 1h-5h-5q-3 -1 -5 -1q-3 -2 -5 -3t-4 -1q-2 -3 -4 -4t-4 -3l-3 -3q-2 -2 -3 -4q-2 -3 -2 -5q-1 -2 -2 -5q-1 -4 -1 -10q0 -4 1 -7l2 -8q1 -3 3 -6t5 -7l6 -4q3 -2 7 -2
q6 -3 14 -3h5h5q5 2 8 4q7 3 9 5q3 4 6 9q1 2 3 5zM487 370h-10v-58v3l-1 1l-36 51q-2 0 -4 3h-2h-2h-7v-75h10v61l1 -1v-2l43 -58h8v75zM571 295l-33 75h-11l-32 -75h6q3 0 4 1l2 2l2 1l4 13h39l5 -13q1 -2 3 -3q0 -1 4 -1h7zM620 304h-32v66h-11v-75h43v9zM722 370h-10
v-45v-5q0 -2 -1 -4q-1 -4 -5 -6l-2 -2q-2 -1 -3 -3q-3 -1 -4 -1h-4q-5 0 -7 1q-3 2 -5 3t-2 2q-1 1 -2 3l-3 3v4q-1 2 -1 5v45h-10v-45v-5q0 -3 1 -4q0 -4 2 -7q2 -5 6 -7q1 -1 3 -2q1 -1 3 -2q1 -1 3 -1q2 -1 3 -2q3 0 5 -1q1 -1 4 -1q2 0 4 1q1 1 4 1l4 2q1 0 3 1l6 4
q2 2 3 4q0 1 1 3l3 3q1 2 1 4v9v45zM780 308q3 4 3 8q0 6 -2 10t-6 7q-3 2 -3 3h-2q-2 0 -3 1h-1q-2 0 -3 2h-1q-1 0 -2 1q-1 0 -2 1l-3 1q-4 1 -4 2q-2 1 -2 2q-1 1 -2 1v2q-1 0 -1 2t2 4l3 3q1 0 2 1h2q0 1 5 1h1q1 -1 2 -1q1 -1 4 -2q4 -1 5 -1q3 0 4 2l3 1l-2 2l-2 2
q0 1 -1 2q-2 1 -3 2q-2 0 -3 1q-1 0 -3 2q-2 0 -3 1h-2h-5q-2 -1 -4 -1q-2 -2 -4 -3t-3 -1l-3 -3q-1 -2 -3 -4q0 -2 -1 -3q-1 -2 -1 -5t1 -4q1 -2 1 -4q2 -4 5 -6l4 -2q1 -2 2 -2q3 -1 5 -2q1 -1 3 -2t3 -1h2q1 -1 3 -1q1 0 2 -1t3 -1q1 -1 1 -3q1 -1 1 -2v-4v-1q0 -2 -1 -3
q-1 -3 -4 -4q-2 -2 -3 -2l-2 -2h-2h-3h-3h-3q-2 1 -5 4v1q-3 2 -6 2h-1q-2 0 -3 -1l-3 -1l1 -1q0 -1 1 -1q0 -1 1 -1v-2h1v-2q2 -1 3 -1q3 -4 8 -5q4 -1 9 -1h5q2 0 5 1l4 2q2 1 4 3l3 3zM841 370h-46v-75h46v9h-36v23h30v10h-30v22h36v11zM960 322v5v5v6v4q-2 5 -5 10
q-2 3 -6 7q-1 2 -3 3t-4 4q-2 0 -4 1q-3 1 -5 3q-3 0 -5 1h-5h-5q-3 -1 -5 -1q-6 -3 -10 -4q-2 -3 -3 -4q-2 -1 -4 -3l-3 -3l-4 -4q-1 -3 -2 -5t-1 -5q-2 -4 -2 -10q0 -4 1 -7l2 -8q3 -7 9 -13q2 -2 5 -4t7 -2q6 -3 15 -3h5h5q2 1 5 2l4 2q2 2 4 3t3 2q4 4 6 9zM1038 370
h-11v-58v3q-1 1 -2 1l-36 51v1q-1 0 -2 2h-2h-3h-8v-75h12v59l1 -1l42 -58h9v75zM1099 304h-32v66h-11v-75h43v9zM1159 370h-9q-2 0 -4 -2q-4 -2 -4 -4l-17 -23l-1 -1h-1l-1 1l-18 23q-1 2 -3 4t-5 2h-8l27 -37l1 -1q0 -1 1 -1v-1v-1q0 -1 1 -1v-1v-32h11v32v1v2q1 0 1 2v1
h1zM942 352l4 -4q2 -3 3 -5q0 -3 1 -5v-6q0 -6 -1 -11q-1 -3 -3 -5t-4 -3q-2 -2 -4 -3l-4 -4q-6 -2 -11 -2q-3 0 -6 1q-3 0 -5 1q-3 2 -5 4q-2 1 -4 3q-2 1 -3 3q-2 2 -2 5q-2 3 -2 6q-1 2 -1 5q0 5 3 11q0 2 2 5q1 2 3 4l4 4q2 1 5 2q4 2 11 2h5l6 -2l4 -2zM253 343
q0 -1 -2 -4q-1 0 -1 -1q-1 -1 -3 -1q-1 -1 -4 -1h-16v23h16q2 0 4 -1h3l1 -2l2 -4q1 -1 1 -5zM391 352l4 -4q2 -3 3 -5q1 -3 2 -5v-6v-5l-2 -6t-3 -5t-4 -3q-1 -2 -3 -3q-2 -2 -5 -4q-2 -1 -5 -1q-3 -1 -6 -1q-6 0 -11 2l-4 4q-3 1 -5 3l-3 3q-2 2 -3 5l-2 6q-1 2 -1 5
q0 5 3 11q1 2 3 5q2 2 3 4q2 2 5 4l4 2l6 2h5q6 0 11 -2q3 -1 5 -2zM532 358q0 -2 1 -3v-2l14 -31h-29l14 31v2v3zM132 356l2 -2q0 -2 1 -3q1 -2 1 -5v-2q0 -2 -1 -3t-1 -2q-1 -2 -2 -2l-4 -4h-5h-18v26h18q3 0 5 -1q1 0 3 -1zM580 422q-9 4 -18 10q-10 5 -17 12h157
q-8 -7 -17 -12q-9 -6 -19 -10l-21 -6t-22 -3q-12 0 -22 3zM557 457l154 155q14 -19 22 -39t8 -40q0 -11 -1 -21q-2 -11 -6 -21q-4 -9 -9 -17q-5 -9 -11 -17h-157zM534 453q-13 17 -22 36q-3 10 -5 21t-2 23q0 10 2 20t5 20q3 9 8 18q5 8 12 16h156zM666 642q10 -4 19 -10
l16 -11h-158q18 14 37 21q19 9 43 9zM38 171q-2 2 -2 4l-2 4q-1 3 -1 5q-1 2 -1 5t2 8q1 2 2 5q0 2 2 3l2 5q0 1 3 3q0 1 3 3q2 1 3 2q3 2 5 3l4 1q1 0 4 1h5h7q3 -1 7 -3q4 -1 7 -3l4 -4q-1 -1 -2 -1v-2h-1h-1h-2h-3q-2 1 -4 3q-2 1 -4 1h-3h-5h-5h-4l-6 -3q-2 -2 -4 -3
q-2 -3 -3 -5q-2 -2 -3 -4q-2 -3 -2 -6v-4q0 -4 1 -7l2 -4v-4q1 -1 3 -2q1 -1 2 -3q2 -1 3 -2q1 -2 3 -2q1 -1 3 -2t4 -1q1 -1 3 -1h3h5q2 0 4 1q2 0 5 1l4 2v14h-6h-1l-1 1l-1 2l-2 1v1q-1 0 -1 1v1v1h19v-26l-2 -2l-3 -3q-3 -1 -6 -1q-3 -1 -7 -1h-7h-5h-4q-3 1 -4 2l-5 3
q-1 0 -3 2q-3 1 -3 3q-3 1 -3 3zM117 214v-22h27v-7h-27v-23h33v-8h-41v68h41v-8h-33zM180 154v60h-22v8h52v-8h-23v-60h-7zM260 214v-24h29v-6h-29v-30h-8v68h41v-8h-33zM313 222v-42q0 -2 1 -3q1 -2 2 -3q1 -3 3 -4l2 -4q0 -1 2 -2l2 -2q3 -1 5 -1h4h4q1 0 2 1q3 1 5 2
q1 1 3 2q0 2 2 4q1 1 2 4q2 2 2 6v42h7v-42v-5q-1 -2 -2 -5t-2 -5l-4 -4t-4 -3q-2 -2 -4 -3q-6 -1 -11 -1q-6 0 -12 1l-3 3q-3 1 -5 3q-3 3 -5 9q-1 3 -2 5t-1 5v42h7zM383 222v-60h30v-8h-38v68h8zM428 222v-60h32v-8h-39v68h7zM522 154l-30 68h4q2 0 4 -1q1 -1 2 -1l1 -2
l21 -51v-2q1 -1 1 -3v3l1 1v1q3 7 6 13l6 12q2 8 5 14l6 12q0 2 1 2t1 1q1 1 2 1h2h4q-4 -8 -7 -16q-4 -9 -9 -17q-3 -10 -6 -18q-4 -8 -8 -17h-7zM572 214v-22h28v-7h-28v-23h33v-8h-41v68h41v-8h-33zM655 186q-1 -1 -5 -2l23 -30h-5q-1 0 -2 1h-2l-2 2q-1 0 -2 2l-19 25
h-12v-30h-7v68h25h3q1 0 3 -1q4 -1 7 -4q1 -2 2 -3l2 -4q1 -1 1 -3v-3v-4q0 -2 -1 -3q0 -2 -1 -4t-2 -3l-2 -2zM647 190q2 0 3 2q1 0 2 1h2l2 3q0 1 1 2q0 1 1 2v4v1q-1 1 -1 3l-1 2q-1 0 -2 2q-1 0 -2 1q-1 0 -2 1h-3h-18v-24h18zM709 164q1 1 2 4q1 1 2 3v3q0 3 -1 5
q-1 0 -1 2l-2 2t-4 2q-2 0 -3 1l-3 1q-2 0 -4 1t-2 2q-5 0 -7 3q-2 0 -2 2q-1 2 -2 3v7v5q0 1 1 3q0 3 4 5l3 3q1 0 4 1q2 0 3 1h4h3q1 -1 2 -1h2l3 -2q1 0 2 -1t1 -2q2 -1 3 -2q0 -1 1 -1l-2 -1q-1 -1 -4 -1h-3q-2 1 -2 2h-1h-1h-1h-1h-1h-1h-4q-4 0 -4 -1q-3 -3 -3 -4
q-2 0 -2 -4q0 -3 2 -3q0 -2 1 -3t3 -1l1 -1q2 -2 3 -2t4 -2h2q1 0 1 -1h2q1 0 2 -2h1h1v0h2l1 -1l3 -3q1 -2 3 -3q1 -5 1 -9v-5q0 -2 -3 -4q0 -3 -4 -6q-1 -1 -3 -2l-4 -2q-2 -1 -4 -1h-5q-5 0 -8 1q-4 1 -7 4q-1 0 -2 1l-2 2v2l-1 1l1 1l1 1h2h1h2l2 -2q2 -1 3 -2t3 -1
q0 -1 2 -1h3q4 0 5 1zM744 222v-68h-8v68h8zM771 164q-6 4 -9 10q-2 7 -2 15v4v4q3 5 4 8q3 4 7 8q3 3 6 5q2 2 5 3q2 0 4 1q2 0 4 1h5h5q2 -1 5 -1q2 -1 4 -1q2 -1 4 -3l3 -2q1 -2 3 -3l3 -3l3 -5q1 -3 3 -8l2 -4v-4q0 -4 -1 -7q-1 -4 -3 -8q-1 -3 -2 -5q-2 -3 -5 -5
q-3 -3 -5 -4l-6 -4q-5 -2 -13 -2q-4 0 -7 1q-4 0 -6 1zM771 199q-2 -3 -3 -6t-1 -4q0 -2 1 -4v-3q1 -4 4 -8q0 -1 1 -2t2 -3l3 -2q1 -2 4 -2q1 -1 3 -2q1 -1 2 -1q2 -1 4 -1h4h4q2 0 3 1q1 0 3 1l4 2q1 0 3 2l2 2q1 2 2 3l2 2l2 4l1 4q0 1 1 3v4v4q-1 3 -3 6q0 2 -2 4t-3 5
q-2 1 -4 3q-2 1 -5 3h-4h-6h-6h-5q-2 -2 -4 -3q-3 -2 -5 -3q-1 -3 -2 -5zM850 154h-8v68h6h3q1 0 2 -2l35 -50q1 0 1 -2l1 -1v55h8v-68h-7l-40 56v2h-1v-58zM955 214v-24h28v-6h-28v-30h-7v68h41v-8h-34zM1032 186q-4 -1 -6 -2l22 -30h-6q-2 0 -4 1v2q-1 0 -2 2l-19 25h-12
v-30h-8v68h25h3q2 0 4 -1l4 -2l2 -2q1 -2 2 -3q1 -2 3 -4q0 -1 1 -3v-3v-4q-1 -2 -1 -3l-2 -4q-1 -2 -1 -3zM1026 192q1 0 2 1h1q3 4 3 5q1 2 1 6q0 1 -1 4q0 1 -3 4q-1 0 -1 1l-2 1h-4h-17v-24h17zM1114 164q-2 -3 -5 -4l-6 -4q-3 -1 -6 -1q-3 -1 -7 -1t-7 1q-4 0 -7 1
q-6 2 -11 8q-2 2 -4 5q-2 2 -3 5l-2 8q-2 3 -2 7q0 1 1 4q0 2 1 4t2 5q0 2 1 3q2 3 4 5q1 1 2 3q2 1 4 3l4 2q2 2 4 3q2 0 4 1q3 0 5 1h4h5q2 -1 4 -1l5 -1l3 -3l4 -2l3 -3q1 -2 3 -3q1 -2 2 -5q3 -3 4 -8l2 -4v-4v-7q-1 -4 -3 -8q-1 -3 -3 -5zM1090 161h4q2 0 4 1q1 0 3 1
l2 2q1 0 3 2l4 2l2 3q0 1 1 2l2 4v4q1 1 1 3v4v4q-1 3 -1 6l-2 4q-2 2 -3 5q-3 1 -5 3q-3 1 -5 3h-5h-5h-5h-6q-3 -2 -4 -3q-2 -2 -4 -3q-3 -3 -4 -5l-2 -4q-1 -3 -1 -6v-4v-7q0 -3 1 -4q0 -2 2 -4q0 -1 2 -2q1 -1 2 -3l3 -2q1 -2 2 -2q1 -1 3 -2q1 -1 4 -1q1 -1 3 -1h4z
M1201 221q1 1 2 1h1h6v-68h-7v56l-1 -1v-1q-2 -4 -3 -8q-1 -5 -3 -8t-3 -6l-4 -7q-1 -4 -2 -7l-2 -6q-2 -3 -3 -5q-2 -3 -3 -7h-7q-5 6 -7 13q-3 7 -6 13q-2 7 -5 14q-4 7 -6 14v1l-2 1v-56h-8v68h7q3 0 4 -1l1 -1v-2l24 -53q0 -1 1 -1v-2q0 1 1 2v2q0 2 2 4l21 48q0 2 1 2z
M36 128h77v-10v-2v-2q0 -2 -1 -3l-2 -2l-52 -71h1v1h2h1h51v-18h-81v6q0 5 1 6q0 1 2 4q1 1 1 2t1 2l2 2l1 3l46 63h-50v19zM127 128h68v-19h-49v-24h39v-20h-39v-26h49v-18h-68v107zM279 109h-29v-88h-21v88h-31v19h81v-19zM328 128l46 -107h-12q-4 0 -8 2q-2 1 -2 3
q-1 2 -3 4l-6 14h-49l-5 -14l-1 -2q-1 -1 -2 -1v-2q-1 -1 -3 -2h-2q-1 -1 -2 -1q0 -1 -1 -1h-2h-12l46 107h18zM334 63l-13 33v2q-1 0 -1 1q0 2 -1 3v-3q0 -1 -1 -1q-1 -1 -1 -2l-13 -33h30zM378 128h68v-19h-49v-27h40v-19h-40v-42h-19v107zM553 101q2 -3 3 -6t3 -6
q1 -4 1 -7v-7v-8q0 -4 -1 -7q-2 -3 -3 -6q-1 -4 -3 -7q-2 -2 -4 -5l-4 -6q-4 -2 -6 -4q-2 -3 -5 -4q-3 -3 -6 -4q-4 -1 -7 -2q-4 -1 -7 -1q-4 -1 -8 -1q-5 0 -10 2q-6 1 -11 2q-6 3 -9 6q-4 3 -9 6q-7 8 -10 17q-3 6 -4 11t-1 11q0 3 1 7q0 3 1 7q2 8 6 12q2 4 4 7q1 2 3 5
q4 2 7 4q2 2 5 4t6 3t7 3q3 0 7 1h7h8q3 -1 7 -1q3 -2 7 -3q3 -1 6 -3t5 -4t6 -4q2 -3 4 -5zM539 62l2 6v7q0 6 -2 12q-2 5 -4 8q-2 2 -5 4l-4 4q-3 2 -6 3q-6 3 -14 3t-14 -3q-2 -1 -4 -3l-6 -4t-4 -4q-2 -3 -4 -8q-2 -2 -2 -5v-7v-7q0 -3 2 -6l4 -7q1 -3 4 -5l6 -4l4 -4
q4 -1 7 -2t7 -1t7 1t7 2l6 4l4 4q3 2 5 5zM649 128h19v-107h-18l-50 72q-1 0 -1 1l-1 1q-1 2 -1 3q-2 0 -2 2v1l-2 1v-81h-19v107h17h4q2 -1 2 -2l3 -1l2 -2q5 -8 11 -15q5 -8 10 -17l12 -14q5 -8 12 -15q0 -2 1 -3v-3q0 -1 1 -2v-2v76zM678 128h81v-19h-32v-88h-19v88h-30
v19zM825 73q1 -2 3 -4l2 -4q0 -2 1 -4q1 -3 1 -7q0 -6 -3 -13l-4 -6q-2 -3 -4 -5q-4 -2 -6 -4t-6 -3t-7 -2q-4 -1 -7 -1q-4 0 -7 1q-4 1 -9 2q-3 1 -5 3q-3 2 -7 6q-2 1 -3 3q-1 1 -2 3q-2 1 -2 6l1 1l1 1q1 0 1 1h1t2 1h1h5h2q1 0 1 -1q3 0 5 -1q2 -2 4 -3t3 -2q1 0 3 -1
t5 -1q1 0 3 1q1 0 3 1q3 1 6 3l4 4q1 2 2 3t1 3q0 4 -3 6q-2 3 -4 3l-3 3h-3q-3 1 -8 4q-2 0 -4 1q-3 0 -5 2q-4 1 -6 3q-2 1 -4 3q-3 2 -4 4q-2 2 -3 4q-3 6 -3 12q0 9 3 13q1 3 3 5t5 4q2 2 5 3l6 3q2 0 5 1h7h4q2 -1 5 -1l4 -2q1 -1 4 -2q1 -1 3 -2l4 -4l3 -2l2 -4l-4 -2
l-2 -2q-2 -1 -2 -2h-4h-2h-2h-1q-3 0 -3 1l-4 2q-1 0 -1 1h-1h-3h-6h-2q-1 -1 -3 -2q-1 -1 -2 -4q-1 -1 -1 -4t1 -3l2 -2v-3h4q1 -1 2 -1l6 -2q2 -1 3 -2l5 -1q2 -2 5 -2q2 -1 5 -4zM857 39q3 0 3 -3q1 0 1 -1v-3q0 -3 -1 -5q0 -2 -3 -4q-2 0 -3 -2h-2q-1 -1 -3 -1
q-1 0 -2 1h-2l-2 2h-2q-1 1 -1 2l-2 2q-1 2 -1 5v3q0 1 1 1q1 2 2 3h1q3 3 4 3l2 2h2h3l2 -2zM898 99q-4 -4 -8 -12q-1 -2 -2 -5q-1 -4 -1 -7q0 -4 1 -7l2 -6l4 -7q1 -3 4 -5q2 -2 5 -4q2 -2 6 -4q4 -1 7 -2t7 -1q3 0 5 1t5 1q2 1 5 3q2 1 4 3q2 0 4 1h3h3q2 0 3 -1
q3 -1 5 -3l3 -5q-3 -4 -8 -7q-3 -2 -5 -3q-2 -2 -5 -3q-3 -2 -5 -2l-6 -2t-5 -1q-3 -1 -6 -1q-7 0 -12 2l-10 2q-10 5 -17 12q-8 8 -12 17q-1 6 -2 11q-2 5 -2 11q0 3 1 7q0 3 1 7l2 6q1 3 3 6q3 4 5 7q1 2 4 5l6 4q2 2 6 4q2 2 5 3t8 3q2 0 6 1h8h6q2 0 5 -1l6 -2
q2 -1 5 -2t5 -2q2 -2 5 -4q5 -4 8 -8l-3 -4l-2 -2q-1 -1 -3 -2h-3h-3h-3q-2 0 -4 1l-4 4q-3 1 -5 2q-3 1 -5 1h-5q-8 0 -14 -3q-4 -1 -6 -3zM1072 101q1 -3 3 -6l2 -6q1 -4 1 -7v-7v-8q0 -4 -1 -7l-2 -6q-2 -4 -3 -7q-4 -5 -8 -11q-4 -2 -7 -4q-3 -3 -5 -4q-3 -3 -6 -4
l-8 -2q-3 -1 -6 -1q-4 -1 -8 -1q-10 0 -21 4l-8 6q-5 3 -8 6q-4 4 -7 8t-5 9q-2 6 -3 11t-1 11q0 3 1 7v7q1 3 3 6t3 6q2 4 4 7l5 5q2 2 5 4l6 4q2 2 6 3q3 1 6 3q4 0 8 1h6h8q3 -1 6 -1q4 -2 8 -3q3 -1 6 -3q2 -2 5 -4t7 -4q1 -3 4 -5zM1057 62q2 5 2 13v7q-1 3 -2 5
q-2 5 -3 8l-4 4q-5 5 -12 7q-3 2 -6 3h-8q-7 0 -13 -3q-3 -1 -5 -3l-6 -4l-4 -4q-2 -3 -4 -8q-1 -2 -1 -5q-1 -4 -1 -7q0 -4 1 -7q0 -3 1 -6q4 -8 8 -12l6 -4q2 -2 5 -4q3 -1 7 -2t6 -1q4 0 8 1l6 2q3 2 7 4q3 2 5 4zM1188 127l1 1h2h19v-107h-19v78v-2l-2 -3v-3q0 -1 -1 -2
q-3 -9 -7 -17q-4 -9 -7 -17l-6 -16q-4 -9 -7 -18h-19l-27 68q-1 1 -1 5q-1 2 -1 3q-1 0 -1 1v-77h-20v107h19h3l1 -1q2 -1 3 -1l1 -1l3 -2l2 -2q1 -1 1 -2q2 -8 6 -15q3 -8 6 -17q3 -8 7 -16l6 -16v-1v-2v-2q2 0 2 -2v2v2q0 1 1 2v1l4 8l22 56q0 1 1 2v2q1 1 3 2h1q1 1 2 1z
" />
    <glyph glyph-name="nine" unicode="9" horiz-adv-x="1236" 
d="M1210 533v-286h-1174v286h445q0 15 3 29q2 13 8 26t14 25q7 12 18 21q18 19 44 30q14 6 28 9q13 2 27 2q16 0 30 -3t26 -9q14 -6 26 -14q11 -8 20 -17q18 -18 30 -46q10 -26 10 -53h445zM503 582q-11 -23 -11 -49q0 -28 11 -51q5 -11 12 -22t15 -20q9 -9 20 -16
q10 -7 22 -12q23 -11 51 -11q14 0 27 2q12 2 24 7q12 6 22 13q10 6 19 16q9 9 16 20q7 10 13 21q11 25 11 53q0 11 -2 23q-2 11 -7 21q-6 20 -20 37q-7 8 -15 15t-16 12l-18 10l-20 8q-7 2 -15 3q-9 1 -19 1q-14 0 -27 -2q-13 -3 -25 -9q-24 -9 -42 -28q-8 -9 -14 -20z
M144 337q3 5 3 9v5q-1 2 -3 5q0 1 -2 3l-3 3l-2 4q-2 1 -5 1l-4 2q-3 1 -5 1h-26v-75h8v28h18q2 0 5 1q2 0 4 1q5 2 7 4q1 2 3 4zM200 370h-46v-75h46v9h-35v23h29v10h-29v22h35v11zM273 295l-23 32q1 1 3 1q1 0 2 2q4 2 5 5q1 1 2 3q1 1 2 3v6v5q0 2 -1 4q-2 4 -5 7
q-2 4 -7 4q-1 1 -3 2q-3 1 -5 1h-27v-75h11v31h11l20 -27q1 -2 3 -3q1 -1 2 -1h3h7zM324 308q0 2 1 4v4q0 6 -2 10t-6 7q-1 0 -1 1q-1 1 -3 2v0q-1 0 -3 1h-1q-1 0 -1 2q-3 0 -4 1q-3 0 -4 1l-3 1q-4 1 -4 2q-3 2 -3 3v4v4q1 0 2 1t1 2l2 1h2q2 1 3 1h2h1q1 -1 2 -1
q4 0 4 -2q1 -1 2 -1h2q4 0 7 2l2 1q0 1 -1 2l-2 2q-2 1 -3 2t-3 2q-1 0 -2 1q-1 0 -3 2q-3 0 -3 1h-3h-4q-3 -1 -5 -1l-3 -3q-2 -1 -4 -1q-1 -2 -2 -3q-2 -2 -3 -4t-1 -3q-1 -2 -1 -5v-4q0 -2 2 -4q1 -2 3 -3q1 -2 1 -3l4 -2q2 -2 4 -2l4 -2q1 -1 3 -2q1 -1 3 -1h2
q3 -1 4 -1l1 -1l2 -1q0 -1 1 -3q1 -1 1 -2v-4v-1q0 -2 -1 -3l-1 -2q0 -1 -2 -2q-1 -2 -2 -2q-2 -1 -3 -2h-2h-3h-3h-3l-2 2q-2 0 -2 2l-1 1q-3 2 -6 2h-2q-1 0 -2 -1l-3 -1q0 -2 1 -2q0 -2 2 -3q0 -1 1 -2l1 -1h1q4 -4 9 -5q4 -1 9 -1h5q2 0 4 1t5 2q2 1 3 3q3 1 5 3z
M409 322q1 3 1 5v5q0 6 -1 10q0 3 -1 5q-2 2 -3 5q-2 3 -6 7q-2 2 -4 3t-5 4q-1 0 -3 1t-5 3q-3 0 -5 1h-5h-5q-3 -1 -5 -1q-3 -2 -5 -3t-4 -1q-2 -3 -4 -4t-4 -3l-3 -3q-2 -2 -3 -4q-2 -3 -2 -5q-1 -2 -2 -5q-1 -4 -1 -10q0 -4 1 -7l2 -8q1 -3 3 -6t5 -7l6 -4q3 -2 7 -2
q6 -3 14 -3h5h5q5 2 8 4q7 3 9 5q3 4 6 9q1 2 3 5zM487 370h-10v-58v3l-1 1l-36 51q-2 0 -4 3h-2h-2h-7v-75h10v61l1 -1v-2l43 -58h8v75zM571 295l-33 75h-11l-32 -75h6q3 0 4 1l2 2l2 1l4 13h39l5 -13q1 -2 3 -3q0 -1 4 -1h7zM620 304h-32v66h-11v-75h43v9zM722 370h-10
v-45v-5q0 -2 -1 -4q-1 -4 -5 -6l-2 -2q-2 -1 -3 -3q-3 -1 -4 -1h-4q-5 0 -7 1q-3 2 -5 3t-2 2q-1 1 -2 3l-3 3v4q-1 2 -1 5v45h-10v-45v-5q0 -3 1 -4q0 -4 2 -7q2 -5 6 -7q1 -1 3 -2q1 -1 3 -2q1 -1 3 -1q2 -1 3 -2q3 0 5 -1q1 -1 4 -1q2 0 4 1q1 1 4 1l4 2q1 0 3 1l6 4
q2 2 3 4q0 1 1 3l3 3q1 2 1 4v9v45zM780 308q3 4 3 8q0 6 -2 10t-6 7q-3 2 -3 3h-2q-2 0 -3 1h-1q-2 0 -3 2h-1q-1 0 -2 1q-1 0 -2 1l-3 1q-4 1 -4 2q-2 1 -2 2q-1 1 -2 1v2q-1 0 -1 2t2 4l3 3q1 0 2 1h2q0 1 5 1h1q1 -1 2 -1q1 -1 4 -2q4 -1 5 -1q3 0 4 2l3 1l-2 2l-2 2
q0 1 -1 2q-2 1 -3 2q-2 0 -3 1q-1 0 -3 2q-2 0 -3 1h-2h-5q-2 -1 -4 -1q-2 -2 -4 -3t-3 -1l-3 -3q-1 -2 -3 -4q0 -2 -1 -3q-1 -2 -1 -5t1 -4q1 -2 1 -4q2 -4 5 -6l4 -2q1 -2 2 -2q3 -1 5 -2q1 -1 3 -2t3 -1h2q1 -1 3 -1q1 0 2 -1t3 -1q1 -1 1 -3q1 -1 1 -2v-4v-1q0 -2 -1 -3
q-1 -3 -4 -4q-2 -2 -3 -2l-2 -2h-2h-3h-3h-3q-2 1 -5 4v1q-3 2 -6 2h-1q-2 0 -3 -1l-3 -1l1 -1q0 -1 1 -1q0 -1 1 -1v-2h1v-2q2 -1 3 -1q3 -4 8 -5q4 -1 9 -1h5q2 0 5 1l4 2q2 1 4 3l3 3zM841 370h-46v-75h46v9h-36v23h30v10h-30v22h36v11zM960 322v5v5v6v4q-2 5 -5 10
q-2 3 -6 7q-1 2 -3 3t-4 4q-2 0 -4 1q-3 1 -5 3q-3 0 -5 1h-5h-5q-3 -1 -5 -1q-6 -3 -10 -4q-2 -3 -3 -4q-2 -1 -4 -3l-3 -3l-4 -4q-1 -3 -2 -5t-1 -5q-2 -4 -2 -10q0 -4 1 -7l2 -8q3 -7 9 -13q2 -2 5 -4t7 -2q6 -3 15 -3h5h5q2 1 5 2l4 2q2 2 4 3t3 2q4 4 6 9zM1038 370
h-11v-58v3q-1 1 -2 1l-36 51v1q-1 0 -2 2h-2h-3h-8v-75h12v59l1 -1l42 -58h9v75zM1099 304h-32v66h-11v-75h43v9zM1159 370h-9q-2 0 -4 -2q-4 -2 -4 -4l-17 -23l-1 -1h-1l-1 1l-18 23q-1 2 -3 4t-5 2h-8l27 -37l1 -1q0 -1 1 -1v-1v-1q0 -1 1 -1v-1v-32h11v32v1v2q1 0 1 2v1
h1zM942 352l4 -4q2 -3 3 -5q0 -3 1 -5v-6q0 -6 -1 -11q-1 -3 -3 -5t-4 -3q-2 -2 -4 -3l-4 -4q-6 -2 -11 -2q-3 0 -6 1q-3 0 -5 1q-3 2 -5 4q-2 1 -4 3q-2 1 -3 3q-2 2 -2 5q-2 3 -2 6q-1 2 -1 5q0 5 3 11q0 2 2 5q1 2 3 4l4 4q2 1 5 2q4 2 11 2h5l6 -2l4 -2zM253 343
q0 -1 -2 -4q-1 0 -1 -1q-1 -1 -3 -1q-1 -1 -4 -1h-16v23h16q2 0 4 -1h3l1 -2l2 -4q1 -1 1 -5zM391 352l4 -4q2 -3 3 -5q1 -3 2 -5v-6v-5l-2 -6t-3 -5t-4 -3q-1 -2 -3 -3q-2 -2 -5 -4q-2 -1 -5 -1q-3 -1 -6 -1q-6 0 -11 2l-4 4q-3 1 -5 3l-3 3q-2 2 -3 5l-2 6q-1 2 -1 5
q0 5 3 11q1 2 3 5q2 2 3 4q2 2 5 4l4 2l6 2h5q6 0 11 -2q3 -1 5 -2zM532 358q0 -2 1 -3v-2l14 -31h-29l14 31v2v3zM132 356l2 -2q0 -2 1 -3q1 -2 1 -5v-2q0 -2 -1 -3t-1 -2q-1 -2 -2 -2l-4 -4h-5h-18v26h18q3 0 5 -1q1 0 3 -1zM580 422q-9 4 -18 10q-10 5 -17 12h157
q-8 -7 -17 -12q-9 -6 -19 -10l-21 -6t-22 -3q-12 0 -22 3zM557 457l154 155q14 -19 22 -39t8 -40q0 -11 -1 -21q-2 -11 -6 -21q-4 -9 -9 -17q-5 -9 -11 -17h-157zM534 453q-13 17 -22 36q-3 10 -5 21t-2 23q0 10 2 20t5 20q3 9 8 18q5 8 12 16h156zM666 642q10 -4 19 -10
l16 -11h-158q18 14 37 21q19 9 43 9zM38 171q-2 2 -2 4l-2 4q-1 3 -1 5q-1 2 -1 5t2 8q1 2 2 5q0 2 2 3l2 5q0 1 3 3q0 1 3 3q2 1 3 2q3 2 5 3l4 1q1 0 4 1h5h7q3 -1 7 -3q4 -1 7 -3l4 -4q-1 -1 -2 -1v-2h-1h-1h-2h-3q-2 1 -4 3q-2 1 -4 1h-3h-5h-5h-4l-6 -3q-2 -2 -4 -3
q-2 -3 -3 -5q-2 -2 -3 -4q-2 -3 -2 -6v-4q0 -4 1 -7l2 -4v-4q1 -1 3 -2q1 -1 2 -3q2 -1 3 -2q1 -2 3 -2q1 -1 3 -2t4 -1q1 -1 3 -1h3h5q2 0 4 1q2 0 5 1l4 2v14h-6h-1l-1 1l-1 2l-2 1v1q-1 0 -1 1v1v1h19v-26l-2 -2l-3 -3q-3 -1 -6 -1q-3 -1 -7 -1h-7h-5h-4q-3 1 -4 2l-5 3
q-1 0 -3 2q-3 1 -3 3q-3 1 -3 3zM117 214v-22h27v-7h-27v-23h33v-8h-41v68h41v-8h-33zM180 154v60h-22v8h52v-8h-23v-60h-7zM260 214v-24h29v-6h-29v-30h-8v68h41v-8h-33zM313 222v-42q0 -2 1 -3q1 -2 2 -3q1 -3 3 -4l2 -4q0 -1 2 -2l2 -2q3 -1 5 -1h4h4q1 0 2 1q3 1 5 2
q1 1 3 2q0 2 2 4q1 1 2 4q2 2 2 6v42h7v-42v-5q-1 -2 -2 -5t-2 -5l-4 -4t-4 -3q-2 -2 -4 -3q-6 -1 -11 -1q-6 0 -12 1l-3 3q-3 1 -5 3q-3 3 -5 9q-1 3 -2 5t-1 5v42h7zM383 222v-60h30v-8h-38v68h8zM428 222v-60h32v-8h-39v68h7zM522 154l-30 68h4q2 0 4 -1q1 -1 2 -1l1 -2
l21 -51v-2q1 -1 1 -3v3l1 1v1q3 7 6 13l6 12q2 8 5 14l6 12q0 2 1 2t1 1q1 1 2 1h2h4q-4 -8 -7 -16q-4 -9 -9 -17q-3 -10 -6 -18q-4 -8 -8 -17h-7zM572 214v-22h28v-7h-28v-23h33v-8h-41v68h41v-8h-33zM655 186q-1 -1 -5 -2l23 -30h-5q-1 0 -2 1h-2l-2 2q-1 0 -2 2l-19 25
h-12v-30h-7v68h25h3q1 0 3 -1q4 -1 7 -4q1 -2 2 -3l2 -4q1 -1 1 -3v-3v-4q0 -2 -1 -3q0 -2 -1 -4t-2 -3l-2 -2zM647 190q2 0 3 2q1 0 2 1h2l2 3q0 1 1 2q0 1 1 2v4v1q-1 1 -1 3l-1 2q-1 0 -2 2q-1 0 -2 1q-1 0 -2 1h-3h-18v-24h18zM709 164q1 1 2 4q1 1 2 3v3q0 3 -1 5
q-1 0 -1 2l-2 2t-4 2q-2 0 -3 1l-3 1q-2 0 -4 1t-2 2q-5 0 -7 3q-2 0 -2 2q-1 2 -2 3v7v5q0 1 1 3q0 3 4 5l3 3q1 0 4 1q2 0 3 1h4h3q1 -1 2 -1h2l3 -2q1 0 2 -1t1 -2q2 -1 3 -2q0 -1 1 -1l-2 -1q-1 -1 -4 -1h-3q-2 1 -2 2h-1h-1h-1h-1h-1h-1h-4q-4 0 -4 -1q-3 -3 -3 -4
q-2 0 -2 -4q0 -3 2 -3q0 -2 1 -3t3 -1l1 -1q2 -2 3 -2t4 -2h2q1 0 1 -1h2q1 0 2 -2h1h1v0h2l1 -1l3 -3q1 -2 3 -3q1 -5 1 -9v-5q0 -2 -3 -4q0 -3 -4 -6q-1 -1 -3 -2l-4 -2q-2 -1 -4 -1h-5q-5 0 -8 1q-4 1 -7 4q-1 0 -2 1l-2 2v2l-1 1l1 1l1 1h2h1h2l2 -2q2 -1 3 -2t3 -1
q0 -1 2 -1h3q4 0 5 1zM744 222v-68h-8v68h8zM771 164q-6 4 -9 10q-2 7 -2 15v4v4q3 5 4 8q3 4 7 8q3 3 6 5q2 2 5 3q2 0 4 1q2 0 4 1h5h5q2 -1 5 -1q2 -1 4 -1q2 -1 4 -3l3 -2q1 -2 3 -3l3 -3l3 -5q1 -3 3 -8l2 -4v-4q0 -4 -1 -7q-1 -4 -3 -8q-1 -3 -2 -5q-2 -3 -5 -5
q-3 -3 -5 -4l-6 -4q-5 -2 -13 -2q-4 0 -7 1q-4 0 -6 1zM771 199q-2 -3 -3 -6t-1 -4q0 -2 1 -4v-3q1 -4 4 -8q0 -1 1 -2t2 -3l3 -2q1 -2 4 -2q1 -1 3 -2q1 -1 2 -1q2 -1 4 -1h4h4q2 0 3 1q1 0 3 1l4 2q1 0 3 2l2 2q1 2 2 3l2 2l2 4l1 4q0 1 1 3v4v4q-1 3 -3 6q0 2 -2 4t-3 5
q-2 1 -4 3q-2 1 -5 3h-4h-6h-6h-5q-2 -2 -4 -3q-3 -2 -5 -3q-1 -3 -2 -5zM850 154h-8v68h6h3q1 0 2 -2l35 -50q1 0 1 -2l1 -1v55h8v-68h-7l-40 56v2h-1v-58zM955 214v-24h28v-6h-28v-30h-7v68h41v-8h-34zM1032 186q-4 -1 -6 -2l22 -30h-6q-2 0 -4 1v2q-1 0 -2 2l-19 25h-12
v-30h-8v68h25h3q2 0 4 -1l4 -2l2 -2q1 -2 2 -3q1 -2 3 -4q0 -1 1 -3v-3v-4q-1 -2 -1 -3l-2 -4q-1 -2 -1 -3zM1026 192q1 0 2 1h1q3 4 3 5q1 2 1 6q0 1 -1 4q0 1 -3 4q-1 0 -1 1l-2 1h-4h-17v-24h17zM1114 164q-2 -3 -5 -4l-6 -4q-3 -1 -6 -1q-3 -1 -7 -1t-7 1q-4 0 -7 1
q-6 2 -11 8q-2 2 -4 5q-2 2 -3 5l-2 8q-2 3 -2 7q0 1 1 4q0 2 1 4t2 5q0 2 1 3q2 3 4 5q1 1 2 3q2 1 4 3l4 2q2 2 4 3q2 0 4 1q3 0 5 1h4h5q2 -1 4 -1l5 -1l3 -3l4 -2l3 -3q1 -2 3 -3q1 -2 2 -5q3 -3 4 -8l2 -4v-4v-7q-1 -4 -3 -8q-1 -3 -3 -5zM1090 161h4q2 0 4 1q1 0 3 1
l2 2q1 0 3 2l4 2l2 3q0 1 1 2l2 4v4q1 1 1 3v4v4q-1 3 -1 6l-2 4q-2 2 -3 5q-3 1 -5 3q-3 1 -5 3h-5h-5h-5h-6q-3 -2 -4 -3q-2 -2 -4 -3q-3 -3 -4 -5l-2 -4q-1 -3 -1 -6v-4v-7q0 -3 1 -4q0 -2 2 -4q0 -1 2 -2q1 -1 2 -3l3 -2q1 -2 2 -2q1 -1 3 -2q1 -1 4 -1q1 -1 3 -1h4z
M1201 221q1 1 2 1h1h6v-68h-7v56l-1 -1v-1q-2 -4 -3 -8q-1 -5 -3 -8t-3 -6l-4 -7q-1 -4 -2 -7l-2 -6q-2 -3 -3 -5q-2 -3 -3 -7h-7q-5 6 -7 13q-3 7 -6 13q-2 7 -5 14q-4 7 -6 14v1l-2 1v-56h-8v68h7q3 0 4 -1l1 -1v-2l24 -53q0 -1 1 -1v-2q0 1 1 2v2q0 2 2 4l21 48q0 2 1 2z
M36 128h77v-10v-2v-2q0 -2 -1 -3l-2 -2l-52 -71h1v1h2h1h51v-18h-81v6q0 5 1 6q0 1 2 4q1 1 1 2t1 2l2 2l1 3l46 63h-50v19zM127 128h68v-19h-49v-24h39v-20h-39v-26h49v-18h-68v107zM279 109h-29v-88h-21v88h-31v19h81v-19zM328 128l46 -107h-12q-4 0 -8 2q-2 1 -2 3
q-1 2 -3 4l-6 14h-49l-5 -14l-1 -2q-1 -1 -2 -1v-2q-1 -1 -3 -2h-2q-1 -1 -2 -1q0 -1 -1 -1h-2h-12l46 107h18zM334 63l-13 33v2q-1 0 -1 1q0 2 -1 3v-3q0 -1 -1 -1q-1 -1 -1 -2l-13 -33h30zM378 128h68v-19h-49v-27h40v-19h-40v-42h-19v107zM553 101q2 -3 3 -6t3 -6
q1 -4 1 -7v-7v-8q0 -4 -1 -7q-2 -3 -3 -6q-1 -4 -3 -7q-2 -2 -4 -5l-4 -6q-4 -2 -6 -4q-2 -3 -5 -4q-3 -3 -6 -4q-4 -1 -7 -2q-4 -1 -7 -1q-4 -1 -8 -1q-5 0 -10 2q-6 1 -11 2q-6 3 -9 6q-4 3 -9 6q-7 8 -10 17q-3 6 -4 11t-1 11q0 3 1 7q0 3 1 7q2 8 6 12q2 4 4 7q1 2 3 5
q4 2 7 4q2 2 5 4t6 3t7 3q3 0 7 1h7h8q3 -1 7 -1q3 -2 7 -3q3 -1 6 -3t5 -4t6 -4q2 -3 4 -5zM539 62l2 6v7q0 6 -2 12q-2 5 -4 8q-2 2 -5 4l-4 4q-3 2 -6 3q-6 3 -14 3t-14 -3q-2 -1 -4 -3l-6 -4t-4 -4q-2 -3 -4 -8q-2 -2 -2 -5v-7v-7q0 -3 2 -6l4 -7q1 -3 4 -5l6 -4l4 -4
q4 -1 7 -2t7 -1t7 1t7 2l6 4l4 4q3 2 5 5zM649 128h19v-107h-18l-50 72q-1 0 -1 1l-1 1q-1 2 -1 3q-2 0 -2 2v1l-2 1v-81h-19v107h17h4q2 -1 2 -2l3 -1l2 -2q5 -8 11 -15q5 -8 10 -17l12 -14q5 -8 12 -15q0 -2 1 -3v-3q0 -1 1 -2v-2v76zM678 128h81v-19h-32v-88h-19v88h-30
v19zM825 73q1 -2 3 -4l2 -4q0 -2 1 -4q1 -3 1 -7q0 -6 -3 -13l-4 -6q-2 -3 -4 -5q-4 -2 -6 -4t-6 -3t-7 -2q-4 -1 -7 -1q-4 0 -7 1q-4 1 -9 2q-3 1 -5 3q-3 2 -7 6q-2 1 -3 3q-1 1 -2 3q-2 1 -2 6l1 1l1 1q1 0 1 1h1t2 1h1h5h2q1 0 1 -1q3 0 5 -1q2 -2 4 -3t3 -2q1 0 3 -1
t5 -1q1 0 3 1q1 0 3 1q3 1 6 3l4 4q1 2 2 3t1 3q0 4 -3 6q-2 3 -4 3l-3 3h-3q-3 1 -8 4q-2 0 -4 1q-3 0 -5 2q-4 1 -6 3q-2 1 -4 3q-3 2 -4 4q-2 2 -3 4q-3 6 -3 12q0 9 3 13q1 3 3 5t5 4q2 2 5 3l6 3q2 0 5 1h7h4q2 -1 5 -1l4 -2q1 -1 4 -2q1 -1 3 -2l4 -4l3 -2l2 -4l-4 -2
l-2 -2q-2 -1 -2 -2h-4h-2h-2h-1q-3 0 -3 1l-4 2q-1 0 -1 1h-1h-3h-6h-2q-1 -1 -3 -2q-1 -1 -2 -4q-1 -1 -1 -4t1 -3l2 -2v-3h4q1 -1 2 -1l6 -2q2 -1 3 -2l5 -1q2 -2 5 -2q2 -1 5 -4zM857 39q3 0 3 -3q1 0 1 -1v-3q0 -3 -1 -5q0 -2 -3 -4q-2 0 -3 -2h-2q-1 -1 -3 -1
q-1 0 -2 1h-2l-2 2h-2q-1 1 -1 2l-2 2q-1 2 -1 5v3q0 1 1 1q1 2 2 3h1q3 3 4 3l2 2h2h3l2 -2zM898 99q-4 -4 -8 -12q-1 -2 -2 -5q-1 -4 -1 -7q0 -4 1 -7l2 -6l4 -7q1 -3 4 -5q2 -2 5 -4q2 -2 6 -4q4 -1 7 -2t7 -1q3 0 5 1t5 1q2 1 5 3q2 1 4 3q2 0 4 1h3h3q2 0 3 -1
q3 -1 5 -3l3 -5q-3 -4 -8 -7q-3 -2 -5 -3q-2 -2 -5 -3q-3 -2 -5 -2l-6 -2t-5 -1q-3 -1 -6 -1q-7 0 -12 2l-10 2q-10 5 -17 12q-8 8 -12 17q-1 6 -2 11q-2 5 -2 11q0 3 1 7q0 3 1 7l2 6q1 3 3 6q3 4 5 7q1 2 4 5l6 4q2 2 6 4q2 2 5 3t8 3q2 0 6 1h8h6q2 0 5 -1l6 -2
q2 -1 5 -2t5 -2q2 -2 5 -4q5 -4 8 -8l-3 -4l-2 -2q-1 -1 -3 -2h-3h-3h-3q-2 0 -4 1l-4 4q-3 1 -5 2q-3 1 -5 1h-5q-8 0 -14 -3q-4 -1 -6 -3zM1072 101q1 -3 3 -6l2 -6q1 -4 1 -7v-7v-8q0 -4 -1 -7l-2 -6q-2 -4 -3 -7q-4 -5 -8 -11q-4 -2 -7 -4q-3 -3 -5 -4q-3 -3 -6 -4
l-8 -2q-3 -1 -6 -1q-4 -1 -8 -1q-10 0 -21 4l-8 6q-5 3 -8 6q-4 4 -7 8t-5 9q-2 6 -3 11t-1 11q0 3 1 7v7q1 3 3 6t3 6q2 4 4 7l5 5q2 2 5 4l6 4q2 2 6 3q3 1 6 3q4 0 8 1h6h8q3 -1 6 -1q4 -2 8 -3q3 -1 6 -3q2 -2 5 -4t7 -4q1 -3 4 -5zM1057 62q2 5 2 13v7q-1 3 -2 5
q-2 5 -3 8l-4 4q-5 5 -12 7q-3 2 -6 3h-8q-7 0 -13 -3q-3 -1 -5 -3l-6 -4l-4 -4q-2 -3 -4 -8q-1 -2 -1 -5q-1 -4 -1 -7q0 -4 1 -7q0 -3 1 -6q4 -8 8 -12l6 -4q2 -2 5 -4q3 -1 7 -2t6 -1q4 0 8 1l6 2q3 2 7 4q3 2 5 4zM1188 127l1 1h2h19v-107h-19v78v-2l-2 -3v-3q0 -1 -1 -2
q-3 -9 -7 -17q-4 -9 -7 -17l-6 -16q-4 -9 -7 -18h-19l-27 68q-1 1 -1 5q-1 2 -1 3q-1 0 -1 1v-77h-20v107h19h3l1 -1q2 -1 3 -1l1 -1l3 -2l2 -2q1 -1 1 -2q2 -8 6 -15q3 -8 6 -17q3 -8 7 -16l6 -16v-1v-2v-2q2 0 2 -2v2v2q0 1 1 2v1l4 8l22 56q0 1 1 2v2q1 1 3 2h1q1 1 2 1z
" />
    <glyph glyph-name="colon" unicode=":" horiz-adv-x="181" 
d="M60 24q0 12 8.5 21t21.5 9q12 0 21 -9t9 -21q0 -13 -9 -21.5t-21 -8.5q-13 0 -21.5 8.5t-8.5 21.5zM60 466q0 12 8.5 21t21.5 9q12 0 21 -9t9 -21q0 -13 -9 -21.5t-21 -8.5q-13 0 -21.5 8.5t-8.5 21.5z" />
    <glyph glyph-name="semicolon" unicode=";" horiz-adv-x="181" 
d="M58 466q0 12 8.5 21t21.5 9q12 0 21 -9t9 -21q0 -13 -9 -21.5t-21 -8.5q-13 0 -21.5 8.5t-8.5 21.5zM58 25q0 12 9 21t21 9t20.5 -8.5t9.5 -20.5v-21q0 -31 -10.5 -48t-19.5 -17q-1 0 -5 2l-6 5q-1 2 -1 5q0 5 7 13t7 23v7h-2q-12 0 -21 8.5t-9 21.5z" />
    <glyph glyph-name="less" unicode="&#x3c;" horiz-adv-x="360" 
d="M286 46l-228 223l-2 4q0 2 2 4l222 221q0 1 3 3t7 2q13 0 13 -13q0 -6 -4 -9l-208 -209l211 -206q2 -2 4 -4.5t2 -6.5q0 -12 -13 -12q-6 0 -9 3z" />
    <glyph glyph-name="equal" unicode="=" horiz-adv-x="517" 
d="M409 218q16 0 16 -14q0 -15 -16 -15h-322q-14 0 -14 15q0 14 14 14h322zM409 352q16 0 16 -14q0 -15 -16 -15h-322q-14 0 -14 15q0 14 14 14h322z" />
    <glyph glyph-name="greater" unicode="&#x3e;" horiz-adv-x="363" 
d="M311 269l-228 -223q-3 -3 -9 -3q-13 0 -13 12q0 4 2 6.5t4 4.5l211 206l-208 209q-4 3 -4 9q0 13 13 13q4 0 7 -2t3 -3l222 -221q2 -2 2 -4z" />
    <glyph glyph-name="question" unicode="?" horiz-adv-x="574" 
d="M285 159q0 -11 -15 -11q-14 0 -14 11v181l110 67q44 26 68 51t35.5 47.5t14 43t2.5 38.5q0 35 -16.5 66.5t-44.5 55.5t-66 38t-81 14q-44 0 -83 -14.5t-68 -40.5t-45.5 -62.5t-16.5 -81.5q0 -9 -5 -13t-10.5 -4t-10.5 4t-5 12q0 50 19.5 92t52.5 72.5t77 47.5t94 17
q54 0 97.5 -17.5t75 -46.5t48.5 -65.5t17 -74.5q0 -19 -3.5 -42t-17 -49t-40 -54.5t-72.5 -57.5l-97 -61v-163zM240 23q0 12 9 21t21 9q13 0 21.5 -9t8.5 -21q0 -13 -8.5 -21.5t-21.5 -8.5q-12 0 -21 8.5t-9 21.5z" />
    <glyph glyph-name="at" unicode="@" horiz-adv-x="1236" 
d="M1210 533v-286h-1174v286h445q0 15 3 29q2 13 8 26t14 25q7 12 18 21q18 19 44 30q14 6 28 9q13 2 27 2q16 0 30 -3t26 -9q14 -6 26 -14q11 -8 20 -17q18 -18 30 -46q10 -26 10 -53h445zM503 582q-11 -23 -11 -49q0 -28 11 -51q5 -11 12 -22t15 -20q9 -9 20 -16
q10 -7 22 -12q23 -11 51 -11q14 0 27 2q12 2 24 7q12 6 22 13q10 6 19 16q9 9 16 20q7 10 13 21q11 25 11 53q0 11 -2 23q-2 11 -7 21q-6 20 -20 37q-7 8 -15 15t-16 12l-18 10l-20 8q-7 2 -15 3q-9 1 -19 1q-14 0 -27 -2q-13 -3 -25 -9q-24 -9 -42 -28q-8 -9 -14 -20z
M144 337q3 5 3 9v5q-1 2 -3 5q0 1 -2 3l-3 3l-2 4q-2 1 -5 1l-4 2q-3 1 -5 1h-26v-75h8v28h18q2 0 5 1q2 0 4 1q5 2 7 4q1 2 3 4zM200 370h-46v-75h46v9h-35v23h29v10h-29v22h35v11zM273 295l-23 32q1 1 3 1q1 0 2 2q4 2 5 5q1 1 2 3q1 1 2 3v6v5q0 2 -1 4q-2 4 -5 7
q-2 4 -7 4q-1 1 -3 2q-3 1 -5 1h-27v-75h11v31h11l20 -27q1 -2 3 -3q1 -1 2 -1h3h7zM324 308q0 2 1 4v4q0 6 -2 10t-6 7q-1 0 -1 1q-1 1 -3 2v0q-1 0 -3 1h-1q-1 0 -1 2q-3 0 -4 1q-3 0 -4 1l-3 1q-4 1 -4 2q-3 2 -3 3v4v4q1 0 2 1t1 2l2 1h2q2 1 3 1h2h1q1 -1 2 -1
q4 0 4 -2q1 -1 2 -1h2q4 0 7 2l2 1q0 1 -1 2l-2 2q-2 1 -3 2t-3 2q-1 0 -2 1q-1 0 -3 2q-3 0 -3 1h-3h-4q-3 -1 -5 -1l-3 -3q-2 -1 -4 -1q-1 -2 -2 -3q-2 -2 -3 -4t-1 -3q-1 -2 -1 -5v-4q0 -2 2 -4q1 -2 3 -3q1 -2 1 -3l4 -2q2 -2 4 -2l4 -2q1 -1 3 -2q1 -1 3 -1h2
q3 -1 4 -1l1 -1l2 -1q0 -1 1 -3q1 -1 1 -2v-4v-1q0 -2 -1 -3l-1 -2q0 -1 -2 -2q-1 -2 -2 -2q-2 -1 -3 -2h-2h-3h-3h-3l-2 2q-2 0 -2 2l-1 1q-3 2 -6 2h-2q-1 0 -2 -1l-3 -1q0 -2 1 -2q0 -2 2 -3q0 -1 1 -2l1 -1h1q4 -4 9 -5q4 -1 9 -1h5q2 0 4 1t5 2q2 1 3 3q3 1 5 3z
M409 322q1 3 1 5v5q0 6 -1 10q0 3 -1 5q-2 2 -3 5q-2 3 -6 7q-2 2 -4 3t-5 4q-1 0 -3 1t-5 3q-3 0 -5 1h-5h-5q-3 -1 -5 -1q-3 -2 -5 -3t-4 -1q-2 -3 -4 -4t-4 -3l-3 -3q-2 -2 -3 -4q-2 -3 -2 -5q-1 -2 -2 -5q-1 -4 -1 -10q0 -4 1 -7l2 -8q1 -3 3 -6t5 -7l6 -4q3 -2 7 -2
q6 -3 14 -3h5h5q5 2 8 4q7 3 9 5q3 4 6 9q1 2 3 5zM487 370h-10v-58v3l-1 1l-36 51q-2 0 -4 3h-2h-2h-7v-75h10v61l1 -1v-2l43 -58h8v75zM571 295l-33 75h-11l-32 -75h6q3 0 4 1l2 2l2 1l4 13h39l5 -13q1 -2 3 -3q0 -1 4 -1h7zM620 304h-32v66h-11v-75h43v9zM722 370h-10
v-45v-5q0 -2 -1 -4q-1 -4 -5 -6l-2 -2q-2 -1 -3 -3q-3 -1 -4 -1h-4q-5 0 -7 1q-3 2 -5 3t-2 2q-1 1 -2 3l-3 3v4q-1 2 -1 5v45h-10v-45v-5q0 -3 1 -4q0 -4 2 -7q2 -5 6 -7q1 -1 3 -2q1 -1 3 -2q1 -1 3 -1q2 -1 3 -2q3 0 5 -1q1 -1 4 -1q2 0 4 1q1 1 4 1l4 2q1 0 3 1l6 4
q2 2 3 4q0 1 1 3l3 3q1 2 1 4v9v45zM780 308q3 4 3 8q0 6 -2 10t-6 7q-3 2 -3 3h-2q-2 0 -3 1h-1q-2 0 -3 2h-1q-1 0 -2 1q-1 0 -2 1l-3 1q-4 1 -4 2q-2 1 -2 2q-1 1 -2 1v2q-1 0 -1 2t2 4l3 3q1 0 2 1h2q0 1 5 1h1q1 -1 2 -1q1 -1 4 -2q4 -1 5 -1q3 0 4 2l3 1l-2 2l-2 2
q0 1 -1 2q-2 1 -3 2q-2 0 -3 1q-1 0 -3 2q-2 0 -3 1h-2h-5q-2 -1 -4 -1q-2 -2 -4 -3t-3 -1l-3 -3q-1 -2 -3 -4q0 -2 -1 -3q-1 -2 -1 -5t1 -4q1 -2 1 -4q2 -4 5 -6l4 -2q1 -2 2 -2q3 -1 5 -2q1 -1 3 -2t3 -1h2q1 -1 3 -1q1 0 2 -1t3 -1q1 -1 1 -3q1 -1 1 -2v-4v-1q0 -2 -1 -3
q-1 -3 -4 -4q-2 -2 -3 -2l-2 -2h-2h-3h-3h-3q-2 1 -5 4v1q-3 2 -6 2h-1q-2 0 -3 -1l-3 -1l1 -1q0 -1 1 -1q0 -1 1 -1v-2h1v-2q2 -1 3 -1q3 -4 8 -5q4 -1 9 -1h5q2 0 5 1l4 2q2 1 4 3l3 3zM841 370h-46v-75h46v9h-36v23h30v10h-30v22h36v11zM960 322v5v5v6v4q-2 5 -5 10
q-2 3 -6 7q-1 2 -3 3t-4 4q-2 0 -4 1q-3 1 -5 3q-3 0 -5 1h-5h-5q-3 -1 -5 -1q-6 -3 -10 -4q-2 -3 -3 -4q-2 -1 -4 -3l-3 -3l-4 -4q-1 -3 -2 -5t-1 -5q-2 -4 -2 -10q0 -4 1 -7l2 -8q3 -7 9 -13q2 -2 5 -4t7 -2q6 -3 15 -3h5h5q2 1 5 2l4 2q2 2 4 3t3 2q4 4 6 9zM1038 370
h-11v-58v3q-1 1 -2 1l-36 51v1q-1 0 -2 2h-2h-3h-8v-75h12v59l1 -1l42 -58h9v75zM1099 304h-32v66h-11v-75h43v9zM1159 370h-9q-2 0 -4 -2q-4 -2 -4 -4l-17 -23l-1 -1h-1l-1 1l-18 23q-1 2 -3 4t-5 2h-8l27 -37l1 -1q0 -1 1 -1v-1v-1q0 -1 1 -1v-1v-32h11v32v1v2q1 0 1 2v1
h1zM942 352l4 -4q2 -3 3 -5q0 -3 1 -5v-6q0 -6 -1 -11q-1 -3 -3 -5t-4 -3q-2 -2 -4 -3l-4 -4q-6 -2 -11 -2q-3 0 -6 1q-3 0 -5 1q-3 2 -5 4q-2 1 -4 3q-2 1 -3 3q-2 2 -2 5q-2 3 -2 6q-1 2 -1 5q0 5 3 11q0 2 2 5q1 2 3 4l4 4q2 1 5 2q4 2 11 2h5l6 -2l4 -2zM253 343
q0 -1 -2 -4q-1 0 -1 -1q-1 -1 -3 -1q-1 -1 -4 -1h-16v23h16q2 0 4 -1h3l1 -2l2 -4q1 -1 1 -5zM391 352l4 -4q2 -3 3 -5q1 -3 2 -5v-6v-5l-2 -6t-3 -5t-4 -3q-1 -2 -3 -3q-2 -2 -5 -4q-2 -1 -5 -1q-3 -1 -6 -1q-6 0 -11 2l-4 4q-3 1 -5 3l-3 3q-2 2 -3 5l-2 6q-1 2 -1 5
q0 5 3 11q1 2 3 5q2 2 3 4q2 2 5 4l4 2l6 2h5q6 0 11 -2q3 -1 5 -2zM532 358q0 -2 1 -3v-2l14 -31h-29l14 31v2v3zM132 356l2 -2q0 -2 1 -3q1 -2 1 -5v-2q0 -2 -1 -3t-1 -2q-1 -2 -2 -2l-4 -4h-5h-18v26h18q3 0 5 -1q1 0 3 -1zM580 422q-9 4 -18 10q-10 5 -17 12h157
q-8 -7 -17 -12q-9 -6 -19 -10l-21 -6t-22 -3q-12 0 -22 3zM557 457l154 155q14 -19 22 -39t8 -40q0 -11 -1 -21q-2 -11 -6 -21q-4 -9 -9 -17q-5 -9 -11 -17h-157zM534 453q-13 17 -22 36q-3 10 -5 21t-2 23q0 10 2 20t5 20q3 9 8 18q5 8 12 16h156zM666 642q10 -4 19 -10
l16 -11h-158q18 14 37 21q19 9 43 9zM38 171q-2 2 -2 4l-2 4q-1 3 -1 5q-1 2 -1 5t2 8q1 2 2 5q0 2 2 3l2 5q0 1 3 3q0 1 3 3q2 1 3 2q3 2 5 3l4 1q1 0 4 1h5h7q3 -1 7 -3q4 -1 7 -3l4 -4q-1 -1 -2 -1v-2h-1h-1h-2h-3q-2 1 -4 3q-2 1 -4 1h-3h-5h-5h-4l-6 -3q-2 -2 -4 -3
q-2 -3 -3 -5q-2 -2 -3 -4q-2 -3 -2 -6v-4q0 -4 1 -7l2 -4v-4q1 -1 3 -2q1 -1 2 -3q2 -1 3 -2q1 -2 3 -2q1 -1 3 -2t4 -1q1 -1 3 -1h3h5q2 0 4 1q2 0 5 1l4 2v14h-6h-1l-1 1l-1 2l-2 1v1q-1 0 -1 1v1v1h19v-26l-2 -2l-3 -3q-3 -1 -6 -1q-3 -1 -7 -1h-7h-5h-4q-3 1 -4 2l-5 3
q-1 0 -3 2q-3 1 -3 3q-3 1 -3 3zM117 214v-22h27v-7h-27v-23h33v-8h-41v68h41v-8h-33zM180 154v60h-22v8h52v-8h-23v-60h-7zM260 214v-24h29v-6h-29v-30h-8v68h41v-8h-33zM313 222v-42q0 -2 1 -3q1 -2 2 -3q1 -3 3 -4l2 -4q0 -1 2 -2l2 -2q3 -1 5 -1h4h4q1 0 2 1q3 1 5 2
q1 1 3 2q0 2 2 4q1 1 2 4q2 2 2 6v42h7v-42v-5q-1 -2 -2 -5t-2 -5l-4 -4t-4 -3q-2 -2 -4 -3q-6 -1 -11 -1q-6 0 -12 1l-3 3q-3 1 -5 3q-3 3 -5 9q-1 3 -2 5t-1 5v42h7zM383 222v-60h30v-8h-38v68h8zM428 222v-60h32v-8h-39v68h7zM522 154l-30 68h4q2 0 4 -1q1 -1 2 -1l1 -2
l21 -51v-2q1 -1 1 -3v3l1 1v1q3 7 6 13l6 12q2 8 5 14l6 12q0 2 1 2t1 1q1 1 2 1h2h4q-4 -8 -7 -16q-4 -9 -9 -17q-3 -10 -6 -18q-4 -8 -8 -17h-7zM572 214v-22h28v-7h-28v-23h33v-8h-41v68h41v-8h-33zM655 186q-1 -1 -5 -2l23 -30h-5q-1 0 -2 1h-2l-2 2q-1 0 -2 2l-19 25
h-12v-30h-7v68h25h3q1 0 3 -1q4 -1 7 -4q1 -2 2 -3l2 -4q1 -1 1 -3v-3v-4q0 -2 -1 -3q0 -2 -1 -4t-2 -3l-2 -2zM647 190q2 0 3 2q1 0 2 1h2l2 3q0 1 1 2q0 1 1 2v4v1q-1 1 -1 3l-1 2q-1 0 -2 2q-1 0 -2 1q-1 0 -2 1h-3h-18v-24h18zM709 164q1 1 2 4q1 1 2 3v3q0 3 -1 5
q-1 0 -1 2l-2 2t-4 2q-2 0 -3 1l-3 1q-2 0 -4 1t-2 2q-5 0 -7 3q-2 0 -2 2q-1 2 -2 3v7v5q0 1 1 3q0 3 4 5l3 3q1 0 4 1q2 0 3 1h4h3q1 -1 2 -1h2l3 -2q1 0 2 -1t1 -2q2 -1 3 -2q0 -1 1 -1l-2 -1q-1 -1 -4 -1h-3q-2 1 -2 2h-1h-1h-1h-1h-1h-1h-4q-4 0 -4 -1q-3 -3 -3 -4
q-2 0 -2 -4q0 -3 2 -3q0 -2 1 -3t3 -1l1 -1q2 -2 3 -2t4 -2h2q1 0 1 -1h2q1 0 2 -2h1h1v0h2l1 -1l3 -3q1 -2 3 -3q1 -5 1 -9v-5q0 -2 -3 -4q0 -3 -4 -6q-1 -1 -3 -2l-4 -2q-2 -1 -4 -1h-5q-5 0 -8 1q-4 1 -7 4q-1 0 -2 1l-2 2v2l-1 1l1 1l1 1h2h1h2l2 -2q2 -1 3 -2t3 -1
q0 -1 2 -1h3q4 0 5 1zM744 222v-68h-8v68h8zM771 164q-6 4 -9 10q-2 7 -2 15v4v4q3 5 4 8q3 4 7 8q3 3 6 5q2 2 5 3q2 0 4 1q2 0 4 1h5h5q2 -1 5 -1q2 -1 4 -1q2 -1 4 -3l3 -2q1 -2 3 -3l3 -3l3 -5q1 -3 3 -8l2 -4v-4q0 -4 -1 -7q-1 -4 -3 -8q-1 -3 -2 -5q-2 -3 -5 -5
q-3 -3 -5 -4l-6 -4q-5 -2 -13 -2q-4 0 -7 1q-4 0 -6 1zM771 199q-2 -3 -3 -6t-1 -4q0 -2 1 -4v-3q1 -4 4 -8q0 -1 1 -2t2 -3l3 -2q1 -2 4 -2q1 -1 3 -2q1 -1 2 -1q2 -1 4 -1h4h4q2 0 3 1q1 0 3 1l4 2q1 0 3 2l2 2q1 2 2 3l2 2l2 4l1 4q0 1 1 3v4v4q-1 3 -3 6q0 2 -2 4t-3 5
q-2 1 -4 3q-2 1 -5 3h-4h-6h-6h-5q-2 -2 -4 -3q-3 -2 -5 -3q-1 -3 -2 -5zM850 154h-8v68h6h3q1 0 2 -2l35 -50q1 0 1 -2l1 -1v55h8v-68h-7l-40 56v2h-1v-58zM955 214v-24h28v-6h-28v-30h-7v68h41v-8h-34zM1032 186q-4 -1 -6 -2l22 -30h-6q-2 0 -4 1v2q-1 0 -2 2l-19 25h-12
v-30h-8v68h25h3q2 0 4 -1l4 -2l2 -2q1 -2 2 -3q1 -2 3 -4q0 -1 1 -3v-3v-4q-1 -2 -1 -3l-2 -4q-1 -2 -1 -3zM1026 192q1 0 2 1h1q3 4 3 5q1 2 1 6q0 1 -1 4q0 1 -3 4q-1 0 -1 1l-2 1h-4h-17v-24h17zM1114 164q-2 -3 -5 -4l-6 -4q-3 -1 -6 -1q-3 -1 -7 -1t-7 1q-4 0 -7 1
q-6 2 -11 8q-2 2 -4 5q-2 2 -3 5l-2 8q-2 3 -2 7q0 1 1 4q0 2 1 4t2 5q0 2 1 3q2 3 4 5q1 1 2 3q2 1 4 3l4 2q2 2 4 3q2 0 4 1q3 0 5 1h4h5q2 -1 4 -1l5 -1l3 -3l4 -2l3 -3q1 -2 3 -3q1 -2 2 -5q3 -3 4 -8l2 -4v-4v-7q-1 -4 -3 -8q-1 -3 -3 -5zM1090 161h4q2 0 4 1q1 0 3 1
l2 2q1 0 3 2l4 2l2 3q0 1 1 2l2 4v4q1 1 1 3v4v4q-1 3 -1 6l-2 4q-2 2 -3 5q-3 1 -5 3q-3 1 -5 3h-5h-5h-5h-6q-3 -2 -4 -3q-2 -2 -4 -3q-3 -3 -4 -5l-2 -4q-1 -3 -1 -6v-4v-7q0 -3 1 -4q0 -2 2 -4q0 -1 2 -2q1 -1 2 -3l3 -2q1 -2 2 -2q1 -1 3 -2q1 -1 4 -1q1 -1 3 -1h4z
M1201 221q1 1 2 1h1h6v-68h-7v56l-1 -1v-1q-2 -4 -3 -8q-1 -5 -3 -8t-3 -6l-4 -7q-1 -4 -2 -7l-2 -6q-2 -3 -3 -5q-2 -3 -3 -7h-7q-5 6 -7 13q-3 7 -6 13q-2 7 -5 14q-4 7 -6 14v1l-2 1v-56h-8v68h7q3 0 4 -1l1 -1v-2l24 -53q0 -1 1 -1v-2q0 1 1 2v2q0 2 2 4l21 48q0 2 1 2z
M36 128h77v-10v-2v-2q0 -2 -1 -3l-2 -2l-52 -71h1v1h2h1h51v-18h-81v6q0 5 1 6q0 1 2 4q1 1 1 2t1 2l2 2l1 3l46 63h-50v19zM127 128h68v-19h-49v-24h39v-20h-39v-26h49v-18h-68v107zM279 109h-29v-88h-21v88h-31v19h81v-19zM328 128l46 -107h-12q-4 0 -8 2q-2 1 -2 3
q-1 2 -3 4l-6 14h-49l-5 -14l-1 -2q-1 -1 -2 -1v-2q-1 -1 -3 -2h-2q-1 -1 -2 -1q0 -1 -1 -1h-2h-12l46 107h18zM334 63l-13 33v2q-1 0 -1 1q0 2 -1 3v-3q0 -1 -1 -1q-1 -1 -1 -2l-13 -33h30zM378 128h68v-19h-49v-27h40v-19h-40v-42h-19v107zM553 101q2 -3 3 -6t3 -6
q1 -4 1 -7v-7v-8q0 -4 -1 -7q-2 -3 -3 -6q-1 -4 -3 -7q-2 -2 -4 -5l-4 -6q-4 -2 -6 -4q-2 -3 -5 -4q-3 -3 -6 -4q-4 -1 -7 -2q-4 -1 -7 -1q-4 -1 -8 -1q-5 0 -10 2q-6 1 -11 2q-6 3 -9 6q-4 3 -9 6q-7 8 -10 17q-3 6 -4 11t-1 11q0 3 1 7q0 3 1 7q2 8 6 12q2 4 4 7q1 2 3 5
q4 2 7 4q2 2 5 4t6 3t7 3q3 0 7 1h7h8q3 -1 7 -1q3 -2 7 -3q3 -1 6 -3t5 -4t6 -4q2 -3 4 -5zM539 62l2 6v7q0 6 -2 12q-2 5 -4 8q-2 2 -5 4l-4 4q-3 2 -6 3q-6 3 -14 3t-14 -3q-2 -1 -4 -3l-6 -4t-4 -4q-2 -3 -4 -8q-2 -2 -2 -5v-7v-7q0 -3 2 -6l4 -7q1 -3 4 -5l6 -4l4 -4
q4 -1 7 -2t7 -1t7 1t7 2l6 4l4 4q3 2 5 5zM649 128h19v-107h-18l-50 72q-1 0 -1 1l-1 1q-1 2 -1 3q-2 0 -2 2v1l-2 1v-81h-19v107h17h4q2 -1 2 -2l3 -1l2 -2q5 -8 11 -15q5 -8 10 -17l12 -14q5 -8 12 -15q0 -2 1 -3v-3q0 -1 1 -2v-2v76zM678 128h81v-19h-32v-88h-19v88h-30
v19zM825 73q1 -2 3 -4l2 -4q0 -2 1 -4q1 -3 1 -7q0 -6 -3 -13l-4 -6q-2 -3 -4 -5q-4 -2 -6 -4t-6 -3t-7 -2q-4 -1 -7 -1q-4 0 -7 1q-4 1 -9 2q-3 1 -5 3q-3 2 -7 6q-2 1 -3 3q-1 1 -2 3q-2 1 -2 6l1 1l1 1q1 0 1 1h1t2 1h1h5h2q1 0 1 -1q3 0 5 -1q2 -2 4 -3t3 -2q1 0 3 -1
t5 -1q1 0 3 1q1 0 3 1q3 1 6 3l4 4q1 2 2 3t1 3q0 4 -3 6q-2 3 -4 3l-3 3h-3q-3 1 -8 4q-2 0 -4 1q-3 0 -5 2q-4 1 -6 3q-2 1 -4 3q-3 2 -4 4q-2 2 -3 4q-3 6 -3 12q0 9 3 13q1 3 3 5t5 4q2 2 5 3l6 3q2 0 5 1h7h4q2 -1 5 -1l4 -2q1 -1 4 -2q1 -1 3 -2l4 -4l3 -2l2 -4l-4 -2
l-2 -2q-2 -1 -2 -2h-4h-2h-2h-1q-3 0 -3 1l-4 2q-1 0 -1 1h-1h-3h-6h-2q-1 -1 -3 -2q-1 -1 -2 -4q-1 -1 -1 -4t1 -3l2 -2v-3h4q1 -1 2 -1l6 -2q2 -1 3 -2l5 -1q2 -2 5 -2q2 -1 5 -4zM857 39q3 0 3 -3q1 0 1 -1v-3q0 -3 -1 -5q0 -2 -3 -4q-2 0 -3 -2h-2q-1 -1 -3 -1
q-1 0 -2 1h-2l-2 2h-2q-1 1 -1 2l-2 2q-1 2 -1 5v3q0 1 1 1q1 2 2 3h1q3 3 4 3l2 2h2h3l2 -2zM898 99q-4 -4 -8 -12q-1 -2 -2 -5q-1 -4 -1 -7q0 -4 1 -7l2 -6l4 -7q1 -3 4 -5q2 -2 5 -4q2 -2 6 -4q4 -1 7 -2t7 -1q3 0 5 1t5 1q2 1 5 3q2 1 4 3q2 0 4 1h3h3q2 0 3 -1
q3 -1 5 -3l3 -5q-3 -4 -8 -7q-3 -2 -5 -3q-2 -2 -5 -3q-3 -2 -5 -2l-6 -2t-5 -1q-3 -1 -6 -1q-7 0 -12 2l-10 2q-10 5 -17 12q-8 8 -12 17q-1 6 -2 11q-2 5 -2 11q0 3 1 7q0 3 1 7l2 6q1 3 3 6q3 4 5 7q1 2 4 5l6 4q2 2 6 4q2 2 5 3t8 3q2 0 6 1h8h6q2 0 5 -1l6 -2
q2 -1 5 -2t5 -2q2 -2 5 -4q5 -4 8 -8l-3 -4l-2 -2q-1 -1 -3 -2h-3h-3h-3q-2 0 -4 1l-4 4q-3 1 -5 2q-3 1 -5 1h-5q-8 0 -14 -3q-4 -1 -6 -3zM1072 101q1 -3 3 -6l2 -6q1 -4 1 -7v-7v-8q0 -4 -1 -7l-2 -6q-2 -4 -3 -7q-4 -5 -8 -11q-4 -2 -7 -4q-3 -3 -5 -4q-3 -3 -6 -4
l-8 -2q-3 -1 -6 -1q-4 -1 -8 -1q-10 0 -21 4l-8 6q-5 3 -8 6q-4 4 -7 8t-5 9q-2 6 -3 11t-1 11q0 3 1 7v7q1 3 3 6t3 6q2 4 4 7l5 5q2 2 5 4l6 4q2 2 6 3q3 1 6 3q4 0 8 1h6h8q3 -1 6 -1q4 -2 8 -3q3 -1 6 -3q2 -2 5 -4t7 -4q1 -3 4 -5zM1057 62q2 5 2 13v7q-1 3 -2 5
q-2 5 -3 8l-4 4q-5 5 -12 7q-3 2 -6 3h-8q-7 0 -13 -3q-3 -1 -5 -3l-6 -4l-4 -4q-2 -3 -4 -8q-1 -2 -1 -5q-1 -4 -1 -7q0 -4 1 -7q0 -3 1 -6q4 -8 8 -12l6 -4q2 -2 5 -4q3 -1 7 -2t6 -1q4 0 8 1l6 2q3 2 7 4q3 2 5 4zM1188 127l1 1h2h19v-107h-19v78v-2l-2 -3v-3q0 -1 -1 -2
q-3 -9 -7 -17q-4 -9 -7 -17l-6 -16q-4 -9 -7 -18h-19l-27 68q-1 1 -1 5q-1 2 -1 3q-1 0 -1 1v-77h-20v107h19h3l1 -1q2 -1 3 -1l1 -1l3 -2l2 -2q1 -1 1 -2q2 -8 6 -15q3 -8 6 -17q3 -8 7 -16l6 -16v-1v-2v-2q2 0 2 -2v2v2q0 1 1 2v1l4 8l22 56q0 1 1 2v2q1 1 3 2h1q1 1 2 1z
" />
    <glyph glyph-name="A" unicode="A" horiz-adv-x="686" 
d="M30 21l299 711q3 6 7 8t6 2h3q2 0 5.5 -1.5t7.5 -8.5l298 -711q2 -6 2 -7q0 -7 -5 -10.5t-10 -3.5h-2q-2 0 -5 1.5t-6 8.5l-84 201h-406l-84 -201q-3 -7 -6 -8.5t-5 -1.5h-1q-6 0 -10.5 3t-4.5 10q0 5 1 8zM343 695l-191 -455h382z" />
    <glyph glyph-name="B" unicode="B" horiz-adv-x="678" 
d="M81 14v714q0 14 14 14h1h296q39 0 74.5 -14t61.5 -38.5t41.5 -58.5t15.5 -74q0 -56 -29 -99t-75 -67q30 -9 56 -28.5t44.5 -46t29.5 -58.5t11 -65q0 -38 -14.5 -72.5t-39.5 -60.5t-59 -42t-72 -18h-342q-14 0 -14 14zM432 370h-323v-342h324q41 0 71.5 17.5t50 43
t29 54.5t9.5 51q0 41 -16 73.5t-40 55t-52.5 35t-52.5 12.5zM392 714h-283v-315h285q34 0 63.5 12t52 33t35.5 50t13 63t-13.5 62.5t-36 49.5t-52.5 33t-64 12z" />
    <glyph glyph-name="C" unicode="C" horiz-adv-x="705" 
d="M664 663q5 -5 7 -10t-3 -12q-10 -11 -22 -2q-48 39 -104 60t-120 21q-72 0 -135.5 -27.5t-111 -75t-75 -111.5t-27.5 -136t27.5 -135.5t75 -110.5t111 -74.5t135.5 -27.5q64 0 120 21t104 59q12 9 22 -2q8 -13 -4 -22q-50 -41 -110.5 -64t-131.5 -23q-79 0 -148 30
t-120 81.5t-80.5 120.5t-29.5 147t29.5 147.5t80.5 121.5t120 82t148 30q71 0 131.5 -23.5t110.5 -64.5z" />
    <glyph glyph-name="D" unicode="D" horiz-adv-x="745" 
d="M81 728q0 13 10 14h236q77 -1 145.5 -30.5t121 -79.5t83 -117.5t30.5 -144.5q0 -78 -31.5 -145.5t-84.5 -117.5t-123 -78.5t-147 -28.5h-226q-6 0 -10 2l-2 2q-2 2 -2 6v718zM321 28q71 0 135.5 27t113.5 73.5t78 108.5t29 133q0 72 -29 134.5t-78 109t-113.5 73.5
t-135.5 27h-212v-686h212z" />
    <glyph glyph-name="E" unicode="E" horiz-adv-x="642" 
d="M81 14v715q0 14 14 14h483q17 0 17 -14v-1q0 -14 -17 -14h-469v-315h385q7 0 12 -3t5 -11t-5 -11t-12 -3h-385v-342h480q16 0 16 -14v-1q0 -14 -16 -14h-494q-14 0 -14 14z" />
    <glyph glyph-name="F" unicode="F" horiz-adv-x="627" 
d="M574 743q16 0 16 -14t-16 -14h-465v-342h381q15 0 15 -15q0 -14 -15 -14h-381v-330q0 -14 -14 -14t-14 14v715q0 10 5 12q4 2 9 2h479z" />
    <glyph glyph-name="G" unicode="G" horiz-adv-x="726" 
d="M646 639q-48 39 -104 60t-120 21q-72 0 -135.5 -27.5t-111 -75t-75 -111.5t-27.5 -136t27.5 -135.5t75 -111.5t111 -75.5t135.5 -27.5q63 0 118.5 21t103.5 56v218q0 14 14 14t14 -14v-227q-2 -8 -8 -11q-51 -40 -111.5 -63t-130.5 -23q-79 0 -148 30t-120 81.5
t-80.5 120.5t-29.5 147t29.5 147.5t80.5 121.5t120 82t148 30q71 0 131.5 -23.5t111.5 -64.5q13 -9 3 -22q-11 -13 -22 -2z" />
    <glyph glyph-name="H" unicode="H" horiz-adv-x="754" 
d="M645 729q0 14 14 14q15 0 15 -14v-715q0 -14 -15 -14q-14 0 -14 14v341h-536v-341q0 -14 -14 -14t-14 14v715q0 14 14 14t14 -14v-345h536v345z" />
    <glyph glyph-name="I" unicode="I" 
d="M80 14v715q0 14 14 14t14 -14v-715q0 -14 -14 -14t-14 14z" />
    <glyph glyph-name="J" unicode="J" horiz-adv-x="400" 
d="M273 729q0 14 14 14t14 -14v-573q0 -36 -13.5 -65.5t-37 -51t-54 -33.5t-63.5 -12q-35 0 -69 10t-54 33q-8 10 -8 16q0 3 3 6q8 8 13 8q6 0 10 -6q13 -14 37.5 -26t65.5 -12q32 0 58 10.5t45 29t29 43t10 52.5v571z" />
    <glyph glyph-name="K" unicode="K" horiz-adv-x="734" 
d="M572 719l-268 -284l348 -413q3 -4 3 -8q0 -5 -4.5 -9.5t-10.5 -4.5q-2 0 -6.5 1.5t-9.5 7.5l-340 404l-172 -183q-1 0 -1 -1v-213q0 -16 -13 -16h-1q-14 0 -14 16v710q0 16 14 16h1q13 0 13 -16v-458l434 465q6 6 10 8t6 2h1q6 0 10 -4.5t4 -10.5q0 -5 -4 -9z" />
    <glyph glyph-name="L" unicode="L" horiz-adv-x="574" 
d="M540 28q15 0 15 -14t-15 -14h-445q-9 0 -12 4q-2 4 -2 10v715q0 14 14 14t14 -14v-701h431z" />
    <glyph glyph-name="M" unicode="M" horiz-adv-x="871" 
d="M118 733q0 8 11 10t16 -7l290 -612l291 613q4 7 10 7t10 -2t6 -11l61 -714q0 -6 -3.5 -12t-10.5 -6q-13 0 -15 16l-56 658l-279 -591q-5 -11 -14 -11q-8 0 -14 11l-279 591l-56 -658q0 -15 -15 -15q-13 0 -13 14v2z" />
    <glyph glyph-name="N" unicode="N" horiz-adv-x="769" 
d="M660 729q0 14 14 14q15 0 15 -14v-718q-1 -11 -13 -11q-6 0 -9 2l-6 4l-552 682v-674q0 -14 -14 -14t-14 14v715q0 14 11 14q7 0 11 -5l557 -685v676z" />
    <glyph glyph-name="O" unicode="O" horiz-adv-x="848" 
d="M44 371q0 78 29.5 147.5t81 121t120.5 81.5t148 30q78 0 147.5 -30t121 -81.5t81.5 -121t30 -147.5q0 -79 -30 -148t-81.5 -120.5t-121 -81t-147.5 -29.5q-79 0 -148 29.5t-120.5 81t-81 120.5t-29.5 148zM74 371q0 -72 27.5 -135.5t75 -111t111 -75t135.5 -27.5
t135.5 27.5t111.5 75t75.5 111t27.5 135.5t-27.5 135.5t-75.5 111.5t-111.5 75.5t-135.5 27.5t-135.5 -27.5t-111 -75.5t-75 -111.5t-27.5 -135.5z" />
    <glyph glyph-name="P" unicode="P" horiz-adv-x="606" 
d="M568 512q0 -48 -18 -89.5t-49.5 -73t-73.5 -49.5t-90 -18h-228v-268q0 -14 -14 -14t-14 14v715q0 8 4 11l6 3h246q48 0 90 -18t73.5 -49.5t49.5 -73.5t18 -90zM337 311q42 0 79 15.5t64 42.5t42.5 64t15.5 79q0 43 -15.5 80t-42.5 64.5t-64 43t-79 15.5h-228v-404h228z
" />
    <glyph glyph-name="Q" unicode="Q" horiz-adv-x="848" 
d="M44 371q0 78 29.5 147.5t81 121t120.5 81.5t148 30q78 0 147.5 -30t121 -81.5t81.5 -121t30 -147.5q0 -77 -29 -145t-78.5 -119t-116 -81t-142.5 -33v-104q0 -15 -14 -15t-14 15v104q-76 3 -143 33t-116 81t-77.5 119t-28.5 145zM74 371q0 -72 27.5 -135.5t75 -111
t111 -75t135.5 -27.5t135.5 27.5t111.5 75t75.5 111t27.5 135.5t-27.5 135.5t-75.5 111.5t-111.5 75.5t-135.5 27.5t-135.5 -27.5t-111 -75.5t-75 -111.5t-27.5 -135.5z" />
    <glyph glyph-name="R" unicode="R" horiz-adv-x="671" 
d="M559 10l-117 280q-31 -9 -66 -9h-269v-267q0 -14 -14 -14t-14 14v715q0 14 14 14h283q48 0 90 -18t73.5 -49.5t49.5 -74t18 -90.5q0 -71 -38 -126.5t-98 -83.5l117 -281q0 -2 0.5 -3t0.5 -3q0 -5 -4.5 -9.5t-9.5 -4.5h-2q-2 0 -7 2t-7 8zM376 715h-269v-405h269
q42 0 79 15.5t64 42.5t42.5 64t15.5 79q0 43 -15.5 80t-42.5 64.5t-64 43.5t-79 16z" />
    <glyph glyph-name="S" unicode="S" horiz-adv-x="641" 
d="M46 116q0 15 14 15q5 0 7.5 -2.5t6.5 -7.5q39 -49 95.5 -76t137.5 -27q50 0 95.5 9.5t80.5 31.5t56 57t21 87q0 47 -26 76t-64.5 47t-82 27.5t-79.5 16.5q-127 24 -186.5 67t-59.5 120q0 47 18.5 83t52 61t81.5 37.5t106 12.5q70 0 125 -18t104 -67q4 -4 4 -6.5v-5.5
q0 -13 -13 -13q-6 0 -18 11q-22 19 -42.5 32.5t-43.5 21.5t-50.5 12t-65.5 4q-111 0 -170 -45.5t-59 -119.5q0 -37 18.5 -63.5t49.5 -45t71.5 -30.5t83.5 -21l91.5 -20t89 -31.5t67 -54.5t26.5 -88q0 -56 -22 -96.5t-60.5 -66.5t-89.5 -38t-109 -12q-75 0 -140 24.5
t-115 88.5l-4.5 6t-1.5 7z" />
    <glyph glyph-name="T" unicode="T" horiz-adv-x="611" 
d="M567 743q16 0 16 -14t-16 -14h-251v-701q0 -14 -14 -14t-14 14v701h-251q-16 0 -16 14t16 14h530z" />
    <glyph glyph-name="U" unicode="U" horiz-adv-x="752" 
d="M98 727v-436q0 -57 21.5 -107.5t58.5 -87.5t87.5 -58.5t107.5 -21.5t107.5 21.5t87.5 58.5t58.5 87.5t21.5 107.5v436q0 16 15 16q14 0 14 -16v-440q-1 -62 -25 -116.5t-65 -95t-96 -64t-118 -23.5t-118 23.5t-96.5 65t-65 96.5t-23.5 118v436q0 16 14 16t14 -16z" />
    <glyph glyph-name="V" unicode="V" horiz-adv-x="689" 
d="M655 720l-299 -711q-4 -10 -11 -10h-1h-2q-8 0 -12 10l-299 712q-3 6 -3 9q0 7 5 10t10 3h1q7 0 12 -11l287 -684l288 684q3 8 6.5 9.5t5.5 1.5h1q5 0 9.5 -3t4.5 -11q0 -3 -3 -9z" />
    <glyph glyph-name="W" unicode="W" horiz-adv-x="1037" 
d="M654 721l-117 -280l165 -393l288 685q5 11 12 11h1q5 0 9.5 -3.5t4.5 -10.5q0 -4 -3 -9l-299 -711q-2 -6 -5.5 -8t-5.5 -3h-3q-8 0 -12 11l-167 396l-167 -396q-2 -6 -5.5 -8t-5.5 -3h-3q-8 0 -12 11l-299 712q-3 5 -3 8q0 7 5 10.5t10 3.5h1q7 0 12 -11l287 -685
l288 685q5 11 12 11h1q5 0 9.5 -3.5t4.5 -10.5q0 -4 -3 -9z" />
    <glyph glyph-name="X" unicode="X" horiz-adv-x="734" 
d="M594 721l-237 -349l237 -350q3 -6 3 -9q0 -7 -4.5 -10t-8.5 -3h-1q-2 0 -5.5 1t-7.5 6l-231 339l-229 -339q-4 -5 -7 -6t-5 -1q-4 0 -9.5 3t-5.5 10q0 4 3 10l237 349l-236 348q-3 5 -3 9q0 6 4.5 9.5t8.5 3.5h1q2 0 5.5 -1t6.5 -6l229 -338l231 340q4 5 7.5 6t5.5 1
q4 0 9 -4t5 -10q0 -4 -3 -9z" />
    <glyph glyph-name="Y" unicode="Y" horiz-adv-x="585" 
d="M555 718l-245 -380v-321q0 -17 -14 -17q-8 0 -11 5t-3 12v321l-245 383q-3 5 -3 8q0 6 4 9.5t9 3.5h1q2 0 5 -0.5t7 -6.5l236 -368l236 366q4 6 6.5 7t4.5 1h2q4 0 8.5 -4t4.5 -10q0 -3 -3 -9z" />
    <glyph glyph-name="Z" unicode="Z" horiz-adv-x="734" 
d="M119 742l530 1q14 0 14 -14v-2q0 -3 -3 -9l-534 -690h510q16 0 16 -14t-16 -14h-539q-14 0 -14 14q0 2 2 6l536 694h-501q-8 0 -13 2.5t-5 10.5v1q0 8 5 11t12 3z" />
    <glyph glyph-name="bracketleft" unicode="[" horiz-adv-x="259" 
d="M80 856q0 11 11 11h132q12 0 12 -11v-6q0 -12 -12 -12h-114v-949h114q12 0 12 -11v-7q-1 -11 -12 -11h-132q-11 0 -11 11v985z" />
    <glyph glyph-name="backslash" unicode="\" horiz-adv-x="355" 
d="M17 726q-6 13 8 17q12 7 18 -5l281 -721q6 -12 -9 -17q-12 -6 -17 9z" />
    <glyph glyph-name="bracketright" unicode="]" horiz-adv-x="260" 
d="M180 -129q0 -11 -11 -11h-132q-11 0 -12 11v7q0 5 3.5 8t8.5 3h115v949h-115q-12 0 -12 12v6q0 5 3.5 8t8.5 3h132q11 0 11 -11v-985z" />
    <glyph glyph-name="asciicircum" unicode="^" horiz-adv-x="411" 
d="M197 805q7 7 15 -1l149 -149q8 -7 -1 -16l-4 -4q-7 -9 -16 0l-135 136l-134 -137q-3 -4 -8 -4t-9 5l-4 3q-3 5 -2.5 8.5t2.5 8.5z" />
    <glyph glyph-name="underscore" unicode="_" horiz-adv-x="503" 
d="M479 -61q16 0 16 -14q0 -15 -16 -15h-465q-14 0 -14 15q0 14 14 14h465z" />
    <glyph glyph-name="grave" unicode="`" horiz-adv-x="258" 
d="M70 720q-6 13 6 20q13 7 19 -7l71 -124q6 -14 -7 -20t-20 7z" />
    <glyph glyph-name="a" unicode="a" horiz-adv-x="605" 
d="M524 475v-461q0 -14 -14 -14q-16 0 -16 14v128q-10 -34 -31.5 -62t-50 -48.5t-62.5 -31.5t-69 -11q-50 0 -94 20t-76.5 55t-51.5 81.5t-19 99.5t19 100t51.5 82t76.5 55.5t94 20.5q35 0 68.5 -10.5t62 -30t50 -47t32.5 -61.5v121q0 16 16 16q14 0 14 -16zM493 245
q0 47 -17 89t-45.5 73t-67 49t-82.5 18q-45 0 -83.5 -18t-67 -49t-45 -73t-16.5 -89q0 -46 16.5 -87.5t45 -73t67 -49.5t83.5 -18q44 0 82.5 18t67 49.5t45.5 73t17 87.5z" />
    <glyph glyph-name="b" unicode="b" horiz-adv-x="593" 
d="M81 727q0 15 14 15q15 0 15 -15v-379q10 34 31.5 62t50.5 48.5t63 31.5t69 11q50 0 93.5 -20t76.5 -55t52 -81.5t19 -99.5t-19 -100t-52 -82t-76.5 -55.5t-93.5 -20.5q-36 0 -70 11t-62.5 31t-50 48.5t-31.5 63.5v-125q0 -15 -15 -15q-14 0 -14 15v711zM112 245
q0 -47 16.5 -89t45.5 -73t67.5 -49t82.5 -18t82.5 18t67 49t45 73t16.5 89t-16.5 88t-45 72.5t-67 49.5t-82.5 18t-82.5 -18t-67.5 -49.5t-45.5 -72.5t-16.5 -88z" />
    <glyph glyph-name="c" unicode="c" horiz-adv-x="511" 
d="M446 412q-31 28 -70 43.5t-83 15.5q-47 0 -88.5 -18t-72 -49t-48.5 -72t-18 -88q0 -46 18 -87.5t48.5 -72.5t72 -49t88.5 -18q45 0 84.5 15.5t70.5 44.5q6 4 9 4q6 0 10.5 -5t4.5 -10q0 -6 -8 -12q-36 -32 -78.5 -48.5t-91.5 -16.5q-53 0 -99.5 20t-81 54.5t-54.5 81
t-20 99.5t20 99.5t54.5 81t81 54.5t99.5 20q50 0 91 -17.5t76 -46.5q8 -6 8 -12q0 -5 -4.5 -10.5t-9.5 -5.5q-4 0 -9 5z" />
    <glyph glyph-name="d" unicode="d" horiz-adv-x="605" 
d="M524 16q0 -15 -14 -15q-15 0 -15 15v125q-10 -35 -31.5 -63.5t-50 -48.5t-62.5 -31t-70 -11q-49 0 -93 20.5t-77 55.5t-52 82t-19 100t19 99.5t52 81.5t77 55t93 20q35 0 69 -11t63 -31.5t50.5 -48.5t31.5 -62v379q0 15 15 15q14 0 14 -15v-711zM493 245q0 47 -16.5 88
t-45.5 72.5t-67.5 49.5t-82.5 18t-82.5 -18t-67 -49.5t-45 -72.5t-16.5 -88t16.5 -89t45 -73t67 -49t82.5 -18t82.5 18t67.5 49t45.5 73t16.5 89z" />
    <glyph glyph-name="e" unicode="e" horiz-adv-x="543" 
d="M499 239h-427q0 -46 18 -86.5t49 -70.5t72 -47.5t87 -17.5q47 0 86 15.5t70 44.5q4 4 10 4q4 0 9 -4t5 -10q0 -7 -8 -13q-35 -32 -78 -48.5t-93 -16.5q-53 0 -99.5 20t-81 54.5t-54.5 81t-20 99.5t19.5 99.5t52.5 81t77 54.5t92 20t89.5 -20.5t72.5 -54t48.5 -78
t17.5 -92.5q0 -15 -14 -15zM284 470q-39 0 -75.5 -15.5t-65 -42.5t-47.5 -63.5t-24 -79.5h412q-1 40 -17.5 76.5t-43.5 64t-63 44t-76 16.5z" />
    <glyph glyph-name="f" unicode="f" horiz-adv-x="324" 
d="M253 490q16 0 16 -14q0 -16 -16 -16h-105v-448q0 -14 -16 -14q-14 0 -14 14v448h-73q-14 0 -14 16q0 14 14 14h73v106q0 42 12 70.5t32.5 45.5t47 24t56.5 7q18 0 18 -16q0 -8 -6 -11t-11 -3q-54 1 -86.5 -28.5t-32.5 -92.5v-102h105z" />
    <glyph glyph-name="g" unicode="g" horiz-adv-x="596" 
d="M524 74v-2q0 -52 -15 -98.5t-44.5 -82t-73.5 -56t-103 -20.5q-32 0 -63.5 7t-60.5 19q-7 5 -10.5 8.5t-1.5 11.5q3 7 7 9t13 -1q30 -12 57 -19.5t53 -7.5q42 0 80.5 13t68 41.5t46.5 74.5t17 111v60q-10 -34 -31.5 -62t-50 -48.5t-62.5 -31.5t-69 -11q-50 0 -94 20
t-76.5 55t-51.5 81.5t-19 99.5t19 100t51.5 82t76.5 55.5t94 20.5q35 0 68.5 -10.5t62 -30t50 -47t32.5 -61.5v121q0 16 16 16q14 0 14 -16v-401zM493 245q0 47 -17 89t-45.5 73t-67 49t-82.5 18q-45 0 -83.5 -18t-67 -49t-45 -73t-16.5 -89q0 -46 16.5 -87.5t45 -73
t67 -49.5t83.5 -18q44 0 82.5 18t67 49.5t45.5 73t17 87.5z" />
    <glyph glyph-name="h" unicode="h" horiz-adv-x="561" 
d="M462 298q-1 37 -11.5 68.5t-30.5 55t-49 36.5t-65 13t-70.5 -13t-62 -36t-44.5 -54t-19 -67v-288q0 -14 -15 -14q-14 0 -14 14v714q0 15 14 15q15 0 15 -15v-346q9 25 30 47t48.5 38t58.5 25t59 9q43 0 77 -16t58 -44t37 -65.5t13 -79.5v-282q0 -14 -14 -14q-15 0 -15 14
v285z" />
    <glyph glyph-name="i" unicode="i" 
d="M80 476q0 14 15 14q14 0 14 -14v-462q0 -14 -14 -14q-15 0 -15 14v462zM64 636q0 12 8.5 21t21.5 9q12 0 21 -9t9 -21q0 -13 -9 -21.5t-21 -8.5q-13 0 -21.5 8.5t-8.5 21.5z" />
    <glyph glyph-name="j" unicode="j" horiz-adv-x="213" 
d="M82 476q0 14 14 14q15 0 15 -14v-486q-1 -31 -12.5 -58t-31 -47.5t-46.5 -31.5t-58 -9q-18 0 -18 15q0 8 6 10.5t11 2.5q54 -1 87.5 34t32.5 87v483zM66 636q0 12 8.5 21t21.5 9q12 0 21 -9t9 -21q0 -13 -9 -21.5t-21 -8.5q-13 0 -21.5 8.5t-8.5 21.5z" />
    <glyph glyph-name="k" unicode="k" horiz-adv-x="523" 
d="M401 481q16 14 25 5q8 -8 4.5 -14t-5.5 -9l-191 -174l235 -262q5 -7 6.5 -13t-5.5 -11q-5 -5 -12 -3t-10 7l-233 263l-105 -95v-161q0 -14 -15 -14q-14 0 -14 14v715q0 16 14 16q15 0 15 -16v-517z" />
    <glyph glyph-name="l" unicode="l" 
d="M79 729q0 14 16 14q14 0 14 -14v-715q0 -14 -14 -14q-16 0 -16 14v715z" />
    <glyph glyph-name="m" unicode="m" horiz-adv-x="819" 
d="M110 14q0 -14 -15 -14q-14 0 -14 14v462q0 14 14 14q15 0 15 -14v-61q23 34 66.5 57t89.5 23q54 0 91.5 -28t57.5 -76q10 24 28.5 43.5t42 33t50.5 20.5t54 7q36 0 65 -13t49.5 -36t32.5 -54.5t13 -67.5v-310q0 -14 -16 -14q-14 0 -14 14v310q-1 30 -10 55.5t-26 44.5
t-40.5 30t-53.5 11q-29 0 -57.5 -10.5t-51 -29t-36.5 -43.5t-16 -54v-314q0 -14 -14 -14q-15 0 -15 14v314q-1 29 -11.5 54t-28 43.5t-41.5 29t-53 10.5q-30 0 -58.5 -11t-50 -29t-34.5 -41t-13 -48v-322z" />
    <glyph glyph-name="n" unicode="n" horiz-adv-x="566" 
d="M110 14q0 -14 -15 -14q-14 0 -14 14v462q0 14 14 14q15 0 15 -14v-88q11 27 32 48t48 35.5t57.5 22t58.5 7.5q43 0 78 -14.5t60 -41t38.5 -64t13.5 -84.5v-283q0 -14 -14 -14q-15 0 -15 14v285q0 78 -44 125.5t-117 47.5q-40 0 -75 -13t-61.5 -35.5t-42 -53.5t-17.5 -67
v-289z" />
    <glyph glyph-name="o" unicode="o" horiz-adv-x="590" 
d="M40 244q0 53 20 99.5t54.5 81t80.5 54.5t99 20t99.5 -20t81 -54.5t54.5 -81t20 -99.5t-20 -99.5t-54.5 -81t-81 -54.5t-99.5 -20t-99 20t-80.5 54.5t-54.5 81t-20 99.5zM68 244q0 -46 18 -87.5t49 -72.5t72.5 -49t87.5 -18q47 0 88 18t72 49t49 72.5t18 87.5q0 47 -18 88
t-49 72t-72 49t-88 18q-46 0 -87.5 -18t-72.5 -49t-49 -72t-18 -88z" />
    <glyph glyph-name="p" unicode="p" horiz-adv-x="605" 
d="M81 -179v654q0 16 14 16q15 0 15 -16v-123q10 35 31 63.5t49.5 48.5t63 31t70.5 11q50 0 93.5 -20.5t76.5 -55.5t52 -82t19 -100t-19 -99.5t-52 -81.5t-76.5 -55t-93.5 -20q-35 0 -69 11t-63 31.5t-50.5 48.5t-31.5 62v-324q0 -15 -15 -15q-14 0 -14 15zM112 248
q0 -46 16.5 -87.5t45.5 -73t67.5 -49.5t82.5 -18t82.5 18t67 49.5t45 73t16.5 87.5q0 47 -16.5 89t-45 73t-67 49t-82.5 18t-82.5 -18t-67.5 -49t-45.5 -73t-16.5 -89z" />
    <glyph glyph-name="q" unicode="q" horiz-adv-x="608" 
d="M528 475v-654q0 -15 -14 -15q-16 0 -16 15v324q-10 -34 -31.5 -62t-50 -48.5t-62.5 -31.5t-69 -11q-50 0 -94 20t-76.5 55t-51.5 81.5t-19 99.5t19 100t51.5 82t76.5 55.5t94 20.5q36 0 70 -11t62.5 -31t49.5 -48.5t31 -63.5v123q0 16 16 16q14 0 14 -16zM497 248
q0 47 -17 89t-45.5 73t-67 49t-82.5 18q-45 0 -83.5 -18t-67 -49t-45 -73t-16.5 -89q0 -46 16.5 -87.5t45 -73t67 -49.5t83.5 -18q44 0 82.5 18t67 49.5t45.5 73t17 87.5z" />
    <glyph glyph-name="r" unicode="r" horiz-adv-x="381" 
d="M376 459l4.5 -4.5t2.5 -7.5q0 -15 -14 -15q-6 0 -11 3q-22 13 -47 22t-51 9q-32 0 -58.5 -13.5t-46 -36.5t-31 -54t-11.5 -66l-3 -282q0 -14 -15 -14q-14 0 -14 14v460q0 14 14 14q15 0 15 -14v-82q17 49 57.5 76.5t90.5 27.5q32 0 62.5 -10t55.5 -27z" />
    <glyph glyph-name="s" unicode="s" horiz-adv-x="425" 
d="M40 70q-3 3 -3 8q0 6 5 10t11 4q8 0 12 -7q28 -32 67.5 -49.5t81.5 -17.5q29 0 56 6.5t49 20.5t35 36.5t13 53.5q0 27 -14.5 45t-37 30t-49.5 19.5t-53 13.5q-78 19 -119 48.5t-41 78.5q0 60 44 95.5t122 35.5q88 0 148 -60q6 -6 6 -13q0 -5 -4.5 -9t-9.5 -4q-7 0 -11 5
q-23 23 -52.5 38t-77.5 15q-69 0 -101.5 -30t-32.5 -72q0 -22 11.5 -38.5t31 -28.5t44 -20.5t50.5 -14.5q29 -7 60 -15.5t56.5 -23t42 -37t16.5 -56.5q0 -36 -14 -63.5t-38.5 -46t-57.5 -28t-72 -9.5q-51 0 -96.5 18.5t-77.5 61.5z" />
    <glyph glyph-name="t" unicode="t" horiz-adv-x="328" 
d="M255 26q5 1 10.5 -0.5t7.5 -8.5q2 -16 -16 -17q-32 -6 -57.5 -2.5t-43.5 19.5t-28 46t-10 76v322h-78q-14 0 -14 14q0 15 14 15h78v153q0 16 15 16t15 -16v-153h109q16 0 16 -15q0 -14 -16 -14h-109v-327q0 -70 27 -93t80 -15z" />
    <glyph glyph-name="u" unicode="u" horiz-adv-x="550" 
d="M60 189v286q0 15 15 15q14 0 14 -15v-287q0 -37 14 -68.5t38 -54.5t56 -36t68 -13q37 0 69 13.5t56 37t37.5 55.5t13.5 69v284q0 15 15 15t15 -15v-461q0 -14 -15 -14t-15 14v77q-23 -47 -71 -75.5t-105 -28.5q-42 0 -79.5 15.5t-65.5 43t-44 64.5t-16 79z" />
    <glyph glyph-name="v" unicode="v" horiz-adv-x="491" 
d="M261 8q-5 -9 -12 -9q-5 0 -8.5 1.5t-7.5 8.5l-211 460q-1 2 -1 7t4 9.5t12 4.5t12 -9l198 -433l198 433q3 9 12 9q8 0 12 -4.5t4 -9.5t-1 -7l-89 -194l-59.5 -130l-36 -78.5l-18.5 -40.5t-7 -15.5z" />
    <glyph glyph-name="w" unicode="w" horiz-adv-x="773" 
d="M540 8q-4 -9 -12 -9q-4 0 -8 1.5t-8 8.5l-122 269l-71 -153.5l-37 -80.5t-14 -31l-2 -5q-5 -9 -12 -9q-5 0 -8.5 1.5t-7.5 8.5l-211 460q-1 2 -1 7t4 9.5t12 4.5t12 -9l198 -433l198 433q3 9 12 9q8 0 12 -4.5t4 -9.5t-1 -7l-71 -155l120 -266l198 433q5 9 12 9
q8 0 12.5 -4.5t4.5 -9.5q0 -3 -2 -7l-88.5 -194l-59.5 -130l-36 -78.5l-19 -40.5t-7 -15.5z" />
    <glyph glyph-name="x" unicode="x" horiz-adv-x="449" 
d="M44 5q-4 -6 -11 -6q-5 0 -10.5 5t-5.5 10t4 9l185 226l-175 215q-4 3 -4 9q0 5 5 10t11 5q5 0 11 -6l170 -210l171 210q6 6 11 6q6 0 11 -5t5 -10q0 -6 -4 -9l-175 -215l185 -226q4 -4 4 -9t-5.5 -10t-10.5 -5q-6 0 -11 6l-181 221z" />
    <glyph glyph-name="y" unicode="y" horiz-adv-x="501" 
d="M168 -195q-4 -7 -11 -7t-12 4.5t-5 9.5q0 4 1 6l87 194l-209 459q-1 2 -1 6q0 5 4 9.5t12 4.5t13 -7l197 -434l196 429q6 11 14 11t12.5 -5.5t4.5 -9.5q0 -2 -0.5 -3t-0.5 -3z" />
    <glyph glyph-name="z" unicode="z" horiz-adv-x="449" 
d="M405 29q15 0 15 -15q0 -14 -15 -14h-374q-7 0 -9.5 2.5t-4.5 7.5t0 8q0 1 3 4q0 1 2 5l349 432h-324q-16 0 -16 16q0 15 16 15h353q10 0 15 -5t3 -10t-6 -12l-351 -434h344z" />
    <glyph glyph-name="braceleft" unicode="{" horiz-adv-x="334" 
d="M322 835q-64 0 -101 -39.5t-37 -100.5v-184q0 -54 -17 -92t-49 -56q32 -17 49 -52t17 -89v-190q0 -62 37.5 -101t101.5 -39q5 0 11 -2.5t6 -10.5q0 -7 -4.5 -12t-13.5 -5q-34 0 -64 11.5t-52.5 33.5t-36 53.5t-13.5 70.5v187q0 53 -19.5 89t-70.5 40q-17 0 -24.5 2
t-7.5 13t8.5 13t23.5 2q27 3 44 14.5t27.5 30t14.5 43t4 52.5v182q0 39 13.5 70t36 52t53 32t63.5 11q18 0 18 -16q0 -13 -18 -13z" />
    <glyph glyph-name="bar" unicode="|" horiz-adv-x="251" 
d="M111 745q0 19 11 19h5q13 0 13 -19v-938q0 -12 -3.5 -16t-9.5 -4h-5q-6 0 -8.5 4t-2.5 16v938z" />
    <glyph glyph-name="braceright" unicode="}" horiz-adv-x="336" 
d="M13 835q-18 0 -18 13q0 16 18 16q33 0 63.5 -11t53 -32t36 -52t13.5 -70v-182q0 -28 4 -52.5t14.5 -43t27.5 -30t44 -14.5q15 0 23.5 -2t8.5 -13t-7.5 -13t-24.5 -2q-51 -4 -70.5 -40t-19.5 -89v-187q0 -39 -13.5 -70.5t-36 -53.5t-52.5 -33.5t-64 -11.5q-9 0 -13.5 5
t-4.5 12q0 8 6 10.5t11 2.5q64 0 101 39t37 101v190q0 54 17.5 89t48.5 52q-32 18 -49 56t-17 92v184q0 61 -36.5 100.5t-100.5 39.5z" />
    <glyph glyph-name="asciitilde" unicode="~" horiz-adv-x="368" 
d="M296 304q6 8 15 3l6 -3q3 -2 4.5 -6.5t-1.5 -9.5q-16 -23 -35 -33.5t-41 -10.5q-23 0 -51 18l-27.5 16.5t-30.5 8.5q-29 0 -52 -31q-6 -8 -15 -3l-4 3q-10 7 -5 16q15 20 32.5 32.5t43.5 12.5q14 0 26.5 -5t26.5 -13q5 -3 10.5 -7t12.5 -7q8 -6 17 -8.5t17 -2.5
q30 0 51 30z" />
    <glyph glyph-name="exclamdown" unicode="&#xa1;" horiz-adv-x="186" 
d="M109 -238q0 -14 -15 -14q-14 0 -14 14v523q0 14 14 14q15 0 15 -14v-523zM123 467q0 -13 -9 -21.5t-21 -8.5q-13 0 -21.5 8.5t-8.5 21.5q0 12 8.5 21t21.5 9q12 0 21 -9t9 -21z" />
    <glyph glyph-name="cent" unicode="&#xa2;" horiz-adv-x="504" 
d="M264 469q-42 -6 -78 -25.5t-62.5 -49.5t-42 -68.5t-15.5 -81.5t15.5 -81.5t42 -68.5t62.5 -49.5t78 -25.5l29 -2q45 0 84.5 15.5t70.5 44.5q6 4 9 4q6 0 10.5 -5t4.5 -10q0 -7 -8 -12v1q-72 -66 -170 -66h-2v-81q0 -14 -14 -14t-14 14v83q-48 5 -89 27t-71 55.5
t-47.5 77.5t-17.5 93t17.5 92.5t47.5 77.5t71 56t89 27v76q0 14 14 14t14 -14v-74h2q50 0 91 -17.5t76 -46.5q8 -6 8 -12q0 -5 -4.5 -10.5t-9.5 -5.5q-4 0 -9 5q-31 28 -70 43.5t-83 15.5h-1z" />
    <glyph glyph-name="sterling" unicode="&#xa3;" horiz-adv-x="600" 
d="M321 373q16 0 16 -14t-16 -14h-199v-317h431q15 0 15 -14t-15 -14h-445q-9 0 -12 4q-2 4 -2 10v331h-35q-14 0 -14 14t14 14h35v116q0 53 20 99.5t55 81t81.5 54.5t99.5 20q50 0 91.5 -17.5t75.5 -46.5q14 -10 4 -21q-8 -13 -19 -2q-31 28 -70 43.5t-83 15.5
q-47 0 -88.5 -18t-72 -49t-48.5 -72t-18 -88v-116h199z" />
    <glyph glyph-name="currency" unicode="&#xa4;" horiz-adv-x="539" 
d="M118 154q-21 26 -31.5 56.5t-11 61.5t10 61.5t31.5 56.5l-33 34q-11 9 0 20q10 10 21 1l33 -33q26 23 57 34.5t63.5 12t63.5 -10t58 -32.5l29 29q10 12 21 -1q10 -8 0 -20l-29 -29q23 -26 34.5 -58t11.5 -65t-11.5 -65t-35.5 -58l30 -29q10 -10 -1 -21q-10 -10 -20 0
l-30 30q-29 -24 -61 -34.5t-64 -9t-61.5 14t-53.5 33.5l-34 -34q-10 -10 -20 0q-11 11 -1 21zM149 385q-24 -24 -35.5 -53t-11.5 -59.5t12 -60t35 -52.5t52.5 -35t60 -12t59.5 11.5t53 35.5q23 23 34.5 52t11.5 59.5t-11.5 60t-34.5 53.5q-23 23 -52.5 34.5t-60.5 11.5
t-60 -11.5t-52 -34.5z" />
    <glyph glyph-name="yen" unicode="&#xa5;" horiz-adv-x="573" 
d="M444 165q16 0 16 -14q0 -15 -16 -15h-322q-14 0 -14 15q0 14 14 14h322zM444 299q16 0 16 -14q0 -15 -16 -15h-322q-14 0 -14 15q0 14 14 14h322zM544 718l-245 -380v-321q0 -17 -14 -17q-8 0 -11 5t-3 12v321l-245 383q-3 5 -3 8q0 6 4 9.5t9 3.5h1q2 0 5 -0.5t7 -6.5
l236 -368l236 366q4 6 6.5 7t4.5 1h2q4 0 8.5 -4t4.5 -10q0 -3 -3 -9z" />
    <glyph glyph-name="brokenbar" unicode="&#xa6;" horiz-adv-x="248" 
d="M106 746q0 14 15 14q14 0 14 -14v-395q0 -14 -14 -14q-15 0 -15 14v395zM106 199q0 15 15 15q14 0 14 -15v-399q0 -15 -14 -15q-15 0 -15 15v399z" />
    <glyph glyph-name="section" unicode="&#xa7;" horiz-adv-x="469" 
d="M348 642q-17 32 -50 50t-74 18q-49 0 -80.5 -26t-31.5 -74q0 -26 16 -44t38 -29.5t43.5 -17.5t33.5 -9q75 -18 112.5 -54.5t37.5 -87.5q0 -53 -33.5 -86t-78.5 -46q101 -41 101 -126q0 -35 -15 -61t-39 -43.5t-54 -26.5t-61 -9q-60 0 -100 25t-55 71q-3 8 -3 13
q0 4 3.5 8.5t13.5 4.5q9 0 14 -15q5 -19 19 -33t32.5 -24t38.5 -15t37 -5q19 0 43 5.5t45 18t35.5 33.5t14.5 51q0 26 -14 46t-35.5 34t-46.5 23t-46 13q-24 5 -49 16t-45.5 27.5t-33.5 38.5t-13 49q0 53 31.5 91.5t82.5 49.5q-21 7 -39.5 16t-33 22t-22.5 31t-8 43
q0 62 39.5 97.5t105.5 35.5q47 0 86.5 -18t63.5 -64q2 -4 3 -7t1 -6t-4 -8.5t-12 -5.5q-5 0 -8 3t-6 7zM224 258q19 0 43 5.5t45 18.5t35.5 33.5t14.5 50.5q0 24 -8.5 41t-22.5 29.5t-33.5 21t-40.5 15.5q-44 -1 -74 -10.5t-48 -25.5t-26 -36.5t-8 -43.5q0 -21 11 -37.5
t27 -28.5t35 -20t34 -13h16z" />
    <glyph glyph-name="dieresis" unicode="&#xa8;" horiz-adv-x="395" 
d="M84 615q0 11 7 18t18 7q10 0 17 -7t7 -18q0 -10 -7 -17t-17 -7q-11 0 -18 7t-7 17zM262 615q0 11 7 18t17 7q11 0 18 -7t7 -18q0 -10 -7 -17t-18 -7q-10 0 -17 7t-7 17z" />
    <glyph glyph-name="copyright" unicode="&#xa9;" horiz-adv-x="966" 
d="M44 371q0 78 29.5 147.5t81 121t120.5 81.5t148 30q78 0 147.5 -30t121 -81.5t81.5 -121t30 -147.5q0 -79 -30 -148t-81.5 -120.5t-121 -81t-147.5 -29.5q-79 0 -148 29.5t-120.5 81t-81 120.5t-29.5 148zM74 371q0 -72 27.5 -135.5t75 -111t111 -75t135.5 -27.5
t135.5 27.5t111.5 75t75.5 111t27.5 135.5t-27.5 135.5t-75.5 111.5t-111.5 75.5t-135.5 27.5t-135.5 -27.5t-111 -75.5t-75 -111.5t-27.5 -135.5zM577 546q5 -3 5.5 -8.5t-2.5 -9.5l-7 -7q-4 -5 -8 -5.5t-12 5.5q-25 18 -53.5 28.5t-59.5 10.5q-40 0 -75 -15.5t-60.5 -41.5
t-40 -60t-14.5 -71q0 -38 15.5 -72.5t41.5 -61t60 -42t70 -15.5q24 0 48.5 7t47.5 21l12.5 6.5t11.5 8.5q10 8 18 -5l4 -7q2 -4 1.5 -9t-5.5 -9q-21 -17 -49 -29q-42 -17 -87 -17q-46 0 -86.5 17.5t-70.5 48t-47.5 71.5t-17.5 87t17.5 86.5t47.5 70.5t71 47.5t87 17.5
t86 -18q14 -6 26.5 -13.5t24.5 -16.5z" />
    <glyph glyph-name="ordfeminine" unicode="&#xaa;" horiz-adv-x="562" 
d="M396 401v67q-26 -41 -68 -62.5t-89 -21.5q-39 0 -73 14.5t-59.5 39.5t-40 58.5t-14.5 72.5t14.5 72.5t40 59t59.5 40t73 14.5q50 0 91 -24t66 -64v64q0 14 16 14q14 0 14 -14l4 -326q0 -7 -5.5 -12.5t-12.5 -5.5q-16 0 -16 14zM82 569q0 -33 12.5 -61.5t34 -49.5t50 -33
t60.5 -12t60.5 12t49.5 33t33.5 49.5t12.5 61.5q0 32 -12.5 60.5t-33.5 49.5t-49.5 33.5t-60.5 12.5t-60.5 -12.5t-50 -33.5t-34 -49.5t-12.5 -60.5z" />
    <glyph glyph-name="guillemotleft" unicode="&#xab;" horiz-adv-x="610" 
d="M296 12l-263 264q-2 2 -2 4l2 4l262 260q0 1 3 3t7 2q13 0 13 -13q0 -5 -4 -9l-248 -248l246 -247l4 -4t2 -6q0 -13 -13 -13q-2 0 -4.5 1t-4.5 2zM530 12l-263 264q-2 1 -2 4q0 2 1 4l262 260q1 1 3.5 3t6.5 2q13 0 13 -13q0 -4 -3 -9l-249 -248l247 -247q5 -5 5 -10
q0 -13 -13 -13q-2 0 -4 1z" />
    <glyph glyph-name="logicalnot" unicode="&#xac;" horiz-adv-x="518" 
d="M63 350q-15 0 -15 14q0 15 15 15h365q10 0 12 -5q2 -4 2 -10v-176q0 -14 -14 -14t-14 14v162h-351z" />
    <glyph glyph-name="uni00AD" unicode="&#xad;" horiz-adv-x="605" 
d="M420 290q15 0 15 -14q0 -15 -15 -15h-322q-15 0 -15 15q0 14 15 14h322z" />
    <glyph glyph-name="registered" unicode="&#xae;" horiz-adv-x="878" 
d="M56 371q0 78 29.5 147.5t81 121t120.5 81.5t148 30q78 0 147.5 -30t121 -81.5t81.5 -121t30 -147.5q0 -79 -30 -148t-81.5 -120.5t-121 -81t-147.5 -29.5q-79 0 -148 29.5t-120.5 81t-81 120.5t-29.5 148zM86 371q0 -72 27.5 -135.5t75 -111t111 -75t135.5 -27.5
t135.5 27.5t111.5 75t75.5 111t27.5 135.5t-27.5 135.5t-75.5 111.5t-111.5 75.5t-135.5 27.5t-135.5 -27.5t-111 -75.5t-75 -111.5t-27.5 -135.5zM311 153q-5 0 -10 2.5t-5 14.5v401q0 20 22 20h147q31 0 57 -12t45.5 -32t30.5 -47t11 -57q0 -42 -21.5 -77.5t-56.5 -53.5
l66 -136q3 -8 -0.5 -14.5t-11.5 -7.5q-13 0 -21 18l-62 129q-8 -2 -16.5 -3.5t-18.5 -1.5h-142v-127q0 -10 -5 -13t-9 -3zM577 442q0 24 -9 45.5t-24 38t-35.5 26t-44.5 9.5h-139v-233h139q23 0 43.5 9.5t36 25t24.5 36.5t9 43z" />
    <glyph glyph-name="macron" unicode="&#xaf;" horiz-adv-x="487" 
d="M386 616q16 0 16 -14t-16 -14h-322q-14 0 -14 14t14 14h322z" />
    <glyph glyph-name="degree" unicode="&#xb0;" horiz-adv-x="325" 
d="M179 644q26 0 48.5 -10t39.5 -27t27 -40t10 -49q0 -27 -10 -50t-27 -40t-39.5 -26.5t-48.5 -9.5t-49 9.5t-40 26.5t-27 40t-10 50q0 26 10 49t27 40t40 27t49 10zM179 616q-42 0 -70 -28.5t-28 -69.5q0 -42 28 -69.5t70 -27.5q40 0 68.5 27.5t28.5 69.5q0 20 -7.5 38
t-21 31.5t-31 21t-37.5 7.5z" />
    <glyph glyph-name="plusminus" unicode="&#xb1;" horiz-adv-x="497" 
d="M254 157q0 -15 -14 -15q-15 0 -15 15v147h-146q-14 0 -14 15q0 14 14 14h146v146q0 15 15 15q14 0 14 -15v-146h147q16 0 16 -14q0 -15 -16 -15h-147v-147zM79 0q-14 0 -14 14q0 15 14 15h322q16 0 16 -15q0 -14 -16 -14h-322z" />
    <glyph glyph-name="twosuperior" unicode="&#xb2;" horiz-adv-x="368" 
d="M315 335h-250q-13 0 -13 13v10q0 3 2 7l193 183q20 20 28 37.5t8 37.5q0 42 -29.5 65.5t-72.5 23.5q-42 0 -71 -26.5t-29 -68.5q0 -4 -3 -9q-2 -2 -3 -2q-1 -1 -4 -1h-9h-4q-6 1 -8 8v4q0 27 10.5 50.5t28.5 40t41.5 26t50.5 9.5q28 0 52 -8.5t42 -24t28.5 -37.5
t10.5 -50q0 -25 -9 -46t-24 -38l-184 -172h218q12 0 12 -12v-7q0 -13 -12 -13z" />
    <glyph glyph-name="threesuperior" unicode="&#xb3;" horiz-adv-x="333" 
d="M149 580h3q29 2 49 18.5t20 46.5q0 31 -20.5 49t-51.5 18t-51.5 -18t-20.5 -49q0 -12 -12 -12h-8q-11 0 -11 12q0 44 30.5 71t72.5 27t72.5 -27t30.5 -71q0 -26 -11.5 -46t-31.5 -32q33 -17 52.5 -46.5t19.5 -67.5q0 -27 -10.5 -50t-28.5 -39.5t-42 -26t-51 -9.5t-51 9.5
t-42 26t-28.5 39.5t-10.5 50v3q2 9 10 10h10q3 0 7 -2l1 -1v-1q3 -1 3 -6v-2q0 -42 29.5 -68.5t71.5 -26.5t71.5 26.5t29.5 68.5t-29.5 69t-71.5 27q-12 0 -12 13v6q0 11 12 11z" />
    <glyph glyph-name="acute" unicode="&#xb4;" horiz-adv-x="276" 
d="M140 596q-6 -13 -20 -7q-13 7 -6 20l70 124q7 13 20 7q12 -7 5 -20z" />
    <glyph glyph-name="mu" unicode="&#xb5;" horiz-adv-x="584" 
d="M287 -13q-57 0 -102.5 26.5t-73.5 72.5v-264q0 -15 -15 -15t-15 15v652q0 14 15 14t15 -14v-283q0 -37 13.5 -69t37.5 -55.5t56 -37t69 -13.5t69 13.5t56 37t37.5 55.5t13.5 69v283q0 14 14 14q16 0 16 -14v-460q0 -14 -16 -14q-14 0 -14 14v72q-28 -46 -73.5 -72.5
t-102.5 -26.5z" />
    <glyph glyph-name="paragraph" unicode="&#xb6;" horiz-adv-x="683" 
d="M658 743q15 0 15 -14t-15 -14h-136v-701q0 -14 -14 -14q-15 0 -15 14v701h-151v-701q0 -14 -15 -14q-14 0 -14 14v268h-47q-48 0 -90 18t-73.5 49.5t-49.5 73t-18 89.5t18 90t49.5 73.5t73.5 49.5t90 18h392z" />
    <glyph glyph-name="periodcentered" unicode="&#xb7;" horiz-adv-x="227" 
d="M82 278q0 12 9 21t21 9q13 0 21.5 -9t8.5 -21q0 -13 -8.5 -21.5t-21.5 -8.5q-12 0 -21 8.5t-9 21.5z" />
    <glyph glyph-name="cedilla" unicode="&#xb8;" horiz-adv-x="278" 
d="M73 13q0 14 15 14q14 0 14 -14v-79q32 -5 53 -29.5t21 -57.5q0 -37 -26 -63t-63 -26q-6 0 -10 4.5t-4 9.5q0 6 4 10.5t10 4.5q25 0 42.5 17.5t17.5 42.5q0 24 -17 41t-41 18h-2q-14 1 -14 15v92z" />
    <glyph glyph-name="onesuperior" unicode="&#xb9;" horiz-adv-x="203" 
d="M85 743h7q5 0 8.5 -3.5t3.5 -8.5v-384q0 -12 -12 -12h-7q-12 0 -12 12v357l-23 -9q-11 -4 -17 6l-2 6q-4 11 6 17l41 17q2 2 7 2z" />
    <glyph glyph-name="ordmasculine" unicode="&#xba;" horiz-adv-x="487" 
d="M59 569q0 39 14.5 72.5t40 59t59 40t72.5 14.5t72.5 -14.5t59 -40t40 -59t14.5 -72.5q0 -43 -15.5 -77.5t-41.5 -58.5t-59.5 -36.5t-69.5 -12.5q-39 0 -72.5 14.5t-59 39.5t-40 58.5t-14.5 72.5zM88 569q0 -33 12.5 -61.5t34 -49.5t50 -33t60.5 -12q33 0 61.5 12t49.5 33
t33 49.5t12 61.5q0 32 -12 60.5t-33 49.5t-49.5 33.5t-61.5 12.5q-32 0 -60.5 -12.5t-50 -33.5t-34 -49.5t-12.5 -60.5z" />
    <glyph glyph-name="guillemotright" unicode="&#xbb;" horiz-adv-x="605" 
d="M549 276l-263 -264l-4 -2t-4 -1q-13 0 -13 13q0 4 1.5 6t3.5 4l247 247l-249 248q-3 5 -3 9q0 13 13 13q4 0 6.5 -2t3.5 -3l262 -260q1 -2 1 -4q0 -3 -2 -4zM316 276l-263 -264q-2 -1 -4.5 -2t-4.5 -1q-13 0 -13 13q0 4 2 6l4 4l246 247l-248 248q-4 4 -4 9q0 13 13 13
q4 0 7 -2t3 -3l262 -260l2 -4q0 -2 -2 -4z" />
    <glyph glyph-name="onequarter" unicode="&#xbc;" horiz-adv-x="742" 
d="M490 734q7 13 19 6q14 -6 6 -18l-394 -716q-7 -12 -18 -3q-14 6 -5 18zM112 743h7q5 0 8.5 -3.5t3.5 -8.5v-384q0 -12 -12 -12h-7q-12 0 -12 12v357l-23 -9q-11 -4 -17 6l-2 6q-4 11 6 17l41 17q2 2 7 2zM548 73h-191q-16 0 -16 16q0 11 7 14l200 294q2 9 10 9q2 1 7 1
q10 -1 13 -8q5 -6 1 -15v-280h26q16 0 16 -15q0 -16 -16 -16h-26v-60q0 -15 -15 -15q-16 0 -16 15v60zM387 104h161v234z" />
    <glyph glyph-name="onehalf" unicode="&#xbd;" horiz-adv-x="742" 
d="M466 734q7 13 19 6q14 -6 6 -18l-394 -716q-7 -12 -18 -3q-14 6 -5 18zM112 743h7q5 0 8.5 -3.5t3.5 -8.5v-384q0 -12 -12 -12h-7q-12 0 -12 12v357l-23 -9q-11 -4 -17 6l-2 6q-4 11 6 17l41 17q2 2 7 2zM663 -1h-251q-13 0 -13 13v10q0 3 2 7l193 183q20 20 28 37.5
t8 37.5q0 42 -29.5 65.5t-71.5 23.5t-71.5 -26.5t-29.5 -68.5q0 -4 -3 -9q0 -2 -3 -2q0 -1 -3 -1h-9h-4q-6 1 -9 8v4q1 27 11.5 50.5t28.5 40t41.5 26t50.5 9.5t51 -8.5t42 -24t28.5 -37.5t10.5 -50q0 -25 -9 -46t-24 -38l-183 -172h218q5 0 8.5 -3t3.5 -9v-7q0 -13 -12 -13
z" />
    <glyph glyph-name="threequarters" unicode="&#xbe;" horiz-adv-x="766" 
d="M581 734q7 13 19 6q14 -6 6 -18l-394 -716q-7 -12 -18 -3q-14 6 -5 18zM145 592h3q29 2 49 18.5t20 46.5q0 31 -20.5 49t-51.5 18t-51.5 -18t-20.5 -49q0 -12 -12 -12h-8q-11 0 -11 12q0 44 30.5 71t72.5 27t72.5 -27t30.5 -71q0 -26 -11.5 -46t-31.5 -32
q33 -17 52.5 -46.5t19.5 -67.5q0 -27 -10.5 -50t-28.5 -39.5t-42 -26t-51 -9.5t-51 9.5t-42 26t-28.5 39.5t-10.5 50v3q2 9 10 10h10q3 0 7 -2l1 -1v-1q3 -1 3 -6v-2q0 -42 29.5 -68.5t71.5 -26.5t71.5 26.5t29.5 68.5t-29.5 69t-71.5 27q-12 0 -12 13v6q0 11 12 11zM593 76
h-191q-16 0 -16 16q0 11 7 14l200 294q2 9 10 9q2 1 7 1q10 -1 13 -8q5 -6 1 -15v-280h26q16 0 16 -15q0 -16 -16 -16h-26v-60q0 -15 -15 -15q-16 0 -16 15v60zM432 107h161v234z" />
    <glyph glyph-name="questiondown" unicode="&#xbf;" horiz-adv-x="528" 
d="M270 335q0 11 14 11t14 -11v-181l-110 -67q-44 -25 -68 -49.5t-35.5 -48t-14 -44t-2.5 -38.5q0 -35 16.5 -66.5t45 -55.5t66 -38t80.5 -14q44 0 83 14.5t68 40.5t46 62.5t17 81.5q0 9 5 13t10.5 4t10 -4t5.5 -12q0 -50 -19.5 -92t-52.5 -72.5t-77.5 -47.5t-94.5 -17
q-54 0 -97.5 17.5t-74.5 46.5t-48 65.5t-17 74.5q0 19 3 43t16 50t39.5 53.5t74.5 53.5l97 62v165zM314 471q0 -12 -8.5 -21t-21.5 -9q-12 0 -21 9t-9 21q0 13 9 21.5t21 8.5q13 0 21.5 -8.5t8.5 -21.5z" />
    <glyph glyph-name="Agrave" unicode="&#xc0;" horiz-adv-x="686" 
d="M30 21l299 711q3 6 7 8t6 2h3q2 0 5.5 -1.5t7.5 -8.5l298 -711q2 -6 2 -7q0 -7 -5 -10.5t-10 -3.5h-2q-2 0 -5 1.5t-6 8.5l-84 201h-406l-84 -201q-3 -7 -6 -8.5t-5 -1.5h-1q-6 0 -10.5 3t-4.5 10q0 5 1 8zM343 695l-191 -455h382zM259 936q-6 13 6 20q13 7 19 -7
l71 -124q6 -14 -7 -20t-20 7z" />
    <glyph glyph-name="Aacute" unicode="&#xc1;" horiz-adv-x="686" 
d="M30 21l299 711q3 6 7 8t6 2h3q2 0 5.5 -1.5t7.5 -8.5l298 -711q2 -6 2 -7q0 -7 -5 -10.5t-10 -3.5h-2q-2 0 -5 1.5t-6 8.5l-84 201h-406l-84 -201q-3 -7 -6 -8.5t-5 -1.5h-1q-6 0 -10.5 3t-4.5 10q0 5 1 8zM343 695l-191 -455h382zM360 810q-6 -13 -20 -7q-13 7 -6 20
l70 124q7 13 20 7q12 -7 5 -20z" />
    <glyph glyph-name="Acircumflex" unicode="&#xc2;" horiz-adv-x="686" 
d="M30 21l299 711q3 6 7 8t6 2h3q2 0 5.5 -1.5t7.5 -8.5l298 -711q2 -6 2 -7q0 -7 -5 -10.5t-10 -3.5h-2q-2 0 -5 1.5t-6 8.5l-84 201h-406l-84 -201q-3 -7 -6 -8.5t-5 -1.5h-1q-6 0 -10.5 3t-4.5 10q0 5 1 8zM343 695l-191 -455h382zM340 968q7 7 14 -1l121 -120
q8 -8 0 -16l-4 -4q-7 -9 -15 0l-109 107l-108 -106q-2 -3 -7 -3t-9 3l-4 4q-7 8 0 16z" />
    <glyph glyph-name="Atilde" unicode="&#xc3;" horiz-adv-x="686" 
d="M30 21l299 711q3 6 7 8t6 2h3q2 0 5.5 -1.5t7.5 -8.5l298 -711q2 -6 2 -7q0 -7 -5 -10.5t-10 -3.5h-2q-2 0 -5 1.5t-6 8.5l-84 201h-406l-84 -201q-3 -7 -6 -8.5t-5 -1.5h-1q-6 0 -10.5 3t-4.5 10q0 5 1 8zM343 695l-191 -455h382zM340 857q-22 13 -34 17t-20 4
q-14 0 -24 -8t-22 -22q-5 -5 -10.5 -7.5t-10.5 1.5q-4 3 -7 7t-1 8.5t4 6.5q19 20 34 32t38 12t62 -22q21 -13 33 -17t20 -4q14 0 24.5 8t22.5 22q5 5 10 8t9 -1q6 -4 8 -6q3 -4 1.5 -9.5t-3.5 -7.5q-17 -20 -33 -32t-39 -12q-24 0 -62 22z" />
    <glyph glyph-name="Adieresis" unicode="&#xc4;" horiz-adv-x="686" 
d="M30 21l299 711q3 6 7 8t6 2h3q2 0 5.5 -1.5t7.5 -8.5l298 -711q2 -6 2 -7q0 -7 -5 -10.5t-10 -3.5h-2q-2 0 -5 1.5t-6 8.5l-84 201h-406l-84 -201q-3 -7 -6 -8.5t-5 -1.5h-1q-6 0 -10.5 3t-4.5 10q0 5 1 8zM343 695l-191 -455h382zM230 859q0 11 7 18t18 7q10 0 17 -7
t7 -18q0 -10 -7 -17t-17 -7q-11 0 -18 7t-7 17zM408 859q0 11 7 18t17 7q11 0 18 -7t7 -18q0 -10 -7 -17t-18 -7q-10 0 -17 7t-7 17z" />
    <glyph glyph-name="Aring" unicode="&#xc5;" horiz-adv-x="686" 
d="M30 21l299 711q3 6 7 8t6 2h3q2 0 5.5 -1.5t7.5 -8.5l298 -711q2 -6 2 -7q0 -7 -5 -10.5t-10 -3.5h-2q-2 0 -5 1.5t-6 8.5l-84 201h-406l-84 -201q-3 -7 -6 -8.5t-5 -1.5h-1q-6 0 -10.5 3t-4.5 10q0 5 1 8zM343 695l-191 -455h382zM341 998q34 0 57.5 -24t23.5 -56
q0 -34 -23.5 -57t-57.5 -23t-57 23t-23 57q0 32 23 56t57 24zM286 918q0 -23 16 -39t39 -16t38.5 16t15.5 39t-15.5 38.5t-38.5 15.5t-39 -15.5t-16 -38.5z" />
    <glyph glyph-name="AE" unicode="&#xc6;" horiz-adv-x="1161" 
d="M1114 743q15 0 15 -14t-15 -14h-485v-326h400q16 0 16 -14t-16 -14h-400v-333h496q15 0 15 -14t-15 -14h-515q-5 1 -7.5 5t-2.5 9v197h-386l-164 -203q-4 -5 -11.5 -7.5t-12.5 1.5q-11 7 3 26l576 709q3 3 6 4.5t9 1.5h494zM239 240h361v445z" />
    <glyph glyph-name="Ccedilla" unicode="&#xc7;" horiz-adv-x="705" 
d="M664 663q5 -5 7 -10t-3 -12q-10 -11 -22 -2q-48 39 -104 60t-120 21q-72 0 -135.5 -27.5t-111 -75t-75 -111.5t-27.5 -136t27.5 -135.5t75 -110.5t111 -74.5t135.5 -27.5q64 0 120 21t104 59q12 9 22 -2q8 -13 -4 -22q-50 -41 -110.5 -64t-131.5 -23q-79 0 -148 30
t-120 81.5t-80.5 120.5t-29.5 147t29.5 147.5t80.5 121.5t120 82t148 30q71 0 131.5 -23.5t110.5 -64.5zM382 6q0 14 15 14q14 0 14 -14v-79q32 -5 53 -29.5t21 -57.5q0 -37 -26 -63t-63 -26q-6 0 -10 4.5t-4 9.5q0 6 4 10.5t10 4.5q25 0 42.5 17.5t17.5 42.5q0 24 -17 41
t-41 18h-2q-14 1 -14 15v92z" />
    <glyph glyph-name="Egrave" unicode="&#xc8;" horiz-adv-x="642" 
d="M81 14v715q0 14 14 14h483q17 0 17 -14v-1q0 -14 -17 -14h-469v-315h385q7 0 12 -3t5 -11t-5 -11t-12 -3h-385v-342h480q16 0 16 -14v-1q0 -14 -16 -14h-494q-14 0 -14 14zM267 939q-6 13 6 20q13 7 19 -7l71 -124q6 -14 -7 -20t-20 7z" />
    <glyph glyph-name="Eacute" unicode="&#xc9;" horiz-adv-x="642" 
d="M81 14v715q0 14 14 14h483q17 0 17 -14v-1q0 -14 -17 -14h-469v-315h385q7 0 12 -3t5 -11t-5 -11t-12 -3h-385v-342h480q16 0 16 -14v-1q0 -14 -16 -14h-494q-14 0 -14 14zM338 822q-6 -13 -20 -7q-13 7 -6 20l70 124q7 13 20 7q12 -7 5 -20z" />
    <glyph glyph-name="Ecircumflex" unicode="&#xca;" horiz-adv-x="642" 
d="M81 14v715q0 14 14 14h483q17 0 17 -14v-1q0 -14 -17 -14h-469v-315h385q7 0 12 -3t5 -11t-5 -11t-12 -3h-385v-342h480q16 0 16 -14v-1q0 -14 -16 -14h-494q-14 0 -14 14zM347 975q7 7 14 -1l121 -120q8 -8 0 -16l-4 -4q-7 -9 -15 0l-109 107l-108 -106q-2 -3 -7 -3
t-9 3l-4 4q-7 8 0 16z" />
    <glyph glyph-name="Edieresis" unicode="&#xcb;" horiz-adv-x="642" 
d="M81 14v715q0 14 14 14h483q17 0 17 -14v-1q0 -14 -17 -14h-469v-315h385q7 0 12 -3t5 -11t-5 -11t-12 -3h-385v-342h480q16 0 16 -14v-1q0 -14 -16 -14h-494q-14 0 -14 14zM263 874q0 11 7 18t18 7q10 0 17 -7t7 -18q0 -10 -7 -17t-17 -7q-11 0 -18 7t-7 17zM441 874
q0 11 7 18t17 7q11 0 18 -7t7 -18q0 -10 -7 -17t-18 -7q-10 0 -17 7t-7 17z" />
    <glyph glyph-name="Igrave" unicode="&#xcc;" 
d="M80 14v715q0 14 14 14t14 -14v-715q0 -14 -14 -14t-14 14zM-4 934q-6 13 6 20q13 7 19 -7l71 -124q6 -14 -7 -20t-20 7z" />
    <glyph glyph-name="Iacute" unicode="&#xcd;" 
d="M80 14v715q0 14 14 14t14 -14v-715q0 -14 -14 -14t-14 14zM109 815q-6 -13 -20 -7q-13 7 -6 20l70 124q7 13 20 7q12 -7 5 -20z" />
    <glyph glyph-name="Icircumflex" unicode="&#xce;" 
d="M80 14v715q0 14 14 14t14 -14v-715q0 -14 -14 -14t-14 14zM91 968q7 7 14 -1l121 -120q8 -8 0 -16l-4 -4q-7 -9 -15 0l-109 107l-108 -106q-2 -3 -7 -3t-9 3l-4 4q-7 8 0 16z" />
    <glyph glyph-name="Idieresis" unicode="&#xcf;" 
d="M80 14v715q0 14 14 14t14 -14v-715q0 -14 -14 -14t-14 14zM-20 870q0 11 7 18t18 7q10 0 17 -7t7 -18q0 -10 -7 -17t-17 -7q-11 0 -18 7t-7 17zM158 870q0 11 7 18t17 7q11 0 18 -7t7 -18q0 -10 -7 -17t-18 -7q-10 0 -17 7t-7 17z" />
    <glyph glyph-name="Eth" unicode="&#xd0;" horiz-adv-x="740" 
d="M218 384q16 0 16 -14q0 -15 -16 -15h-223q-14 0 -14 15q0 14 14 14h223zM75 728q0 13 10 14h236q77 -1 145.5 -30.5t121 -79.5t83 -117.5t30.5 -144.5q0 -78 -31.5 -145.5t-84.5 -117.5t-123 -78.5t-147 -28.5h-226q-6 0 -10 2l-2 2q-2 2 -2 6v718zM315 28q71 0 135.5 27
t113.5 73.5t78 108.5t29 133q0 72 -29 134.5t-78 109t-113.5 73.5t-135.5 27h-212v-686h212z" />
    <glyph glyph-name="Ntilde" unicode="&#xd1;" horiz-adv-x="769" 
d="M660 729q0 14 14 14q15 0 15 -14v-718q-1 -11 -13 -11q-6 0 -9 2l-6 4l-552 682v-674q0 -14 -14 -14t-14 14v715q0 14 11 14q7 0 11 -5l557 -685v676zM391 857q-22 13 -34 17t-20 4q-14 0 -24 -8t-22 -22q-5 -5 -10.5 -7.5t-10.5 1.5q-4 3 -7 7t-1 8.5t4 6.5q19 20 34 32
t38 12t62 -22q21 -13 33 -17t20 -4q14 0 24.5 8t22.5 22q5 5 10 8t9 -1q6 -4 8 -6q3 -4 1.5 -9.5t-3.5 -7.5q-17 -20 -33 -32t-39 -12q-24 0 -62 22z" />
    <glyph glyph-name="Ograve" unicode="&#xd2;" horiz-adv-x="848" 
d="M44 371q0 78 29.5 147.5t81 121t120.5 81.5t148 30q78 0 147.5 -30t121 -81.5t81.5 -121t30 -147.5q0 -79 -30 -148t-81.5 -120.5t-121 -81t-147.5 -29.5q-79 0 -148 29.5t-120.5 81t-81 120.5t-29.5 148zM74 371q0 -72 27.5 -135.5t75 -111t111 -75t135.5 -27.5
t135.5 27.5t111.5 75t75.5 111t27.5 135.5t-27.5 135.5t-75.5 111.5t-111.5 75.5t-135.5 27.5t-135.5 -27.5t-111 -75.5t-75 -111.5t-27.5 -135.5zM341 935q-6 13 6 20q13 7 19 -7l71 -124q6 -14 -7 -20t-20 7z" />
    <glyph glyph-name="Oacute" unicode="&#xd3;" horiz-adv-x="848" 
d="M44 371q0 78 29.5 147.5t81 121t120.5 81.5t148 30q78 0 147.5 -30t121 -81.5t81.5 -121t30 -147.5q0 -79 -30 -148t-81.5 -120.5t-121 -81t-147.5 -29.5q-79 0 -148 29.5t-120.5 81t-81 120.5t-29.5 148zM74 371q0 -72 27.5 -135.5t75 -111t111 -75t135.5 -27.5
t135.5 27.5t111.5 75t75.5 111t27.5 135.5t-27.5 135.5t-75.5 111.5t-111.5 75.5t-135.5 27.5t-135.5 -27.5t-111 -75.5t-75 -111.5t-27.5 -135.5zM433 812q-6 -13 -20 -7q-13 7 -6 20l70 124q7 13 20 7q12 -7 5 -20z" />
    <glyph glyph-name="Ocircumflex" unicode="&#xd4;" horiz-adv-x="848" 
d="M44 371q0 78 29.5 147.5t81 121t120.5 81.5t148 30q78 0 147.5 -30t121 -81.5t81.5 -121t30 -147.5q0 -79 -30 -148t-81.5 -120.5t-121 -81t-147.5 -29.5q-79 0 -148 29.5t-120.5 81t-81 120.5t-29.5 148zM74 371q0 -72 27.5 -135.5t75 -111t111 -75t135.5 -27.5
t135.5 27.5t111.5 75t75.5 111t27.5 135.5t-27.5 135.5t-75.5 111.5t-111.5 75.5t-135.5 27.5t-135.5 -27.5t-111 -75.5t-75 -111.5t-27.5 -135.5zM419 968q7 7 14 -1l121 -120q8 -8 0 -16l-4 -4q-7 -9 -15 0l-109 107l-108 -106q-2 -3 -7 -3t-9 3l-4 4q-7 8 0 16z" />
    <glyph glyph-name="Otilde" unicode="&#xd5;" horiz-adv-x="848" 
d="M44 371q0 78 29.5 147.5t81 121t120.5 81.5t148 30q78 0 147.5 -30t121 -81.5t81.5 -121t30 -147.5q0 -79 -30 -148t-81.5 -120.5t-121 -81t-147.5 -29.5q-79 0 -148 29.5t-120.5 81t-81 120.5t-29.5 148zM74 371q0 -72 27.5 -135.5t75 -111t111 -75t135.5 -27.5
t135.5 27.5t111.5 75t75.5 111t27.5 135.5t-27.5 135.5t-75.5 111.5t-111.5 75.5t-135.5 27.5t-135.5 -27.5t-111 -75.5t-75 -111.5t-27.5 -135.5zM422 875q-22 13 -34 17t-20 4q-14 0 -24 -8t-22 -22q-5 -5 -10.5 -7.5t-10.5 1.5q-4 3 -7 7t-1 8.5t4 6.5q19 20 34 32t38 12
t62 -22q21 -13 33 -17t20 -4q14 0 24.5 8t22.5 22q5 5 10 8t9 -1q6 -4 8 -6q3 -4 1.5 -9.5t-3.5 -7.5q-17 -20 -33 -32t-39 -12q-24 0 -62 22z" />
    <glyph glyph-name="Odieresis" unicode="&#xd6;" horiz-adv-x="848" 
d="M44 371q0 78 29.5 147.5t81 121t120.5 81.5t148 30q78 0 147.5 -30t121 -81.5t81.5 -121t30 -147.5q0 -79 -30 -148t-81.5 -120.5t-121 -81t-147.5 -29.5q-79 0 -148 29.5t-120.5 81t-81 120.5t-29.5 148zM74 371q0 -72 27.5 -135.5t75 -111t111 -75t135.5 -27.5
t135.5 27.5t111.5 75t75.5 111t27.5 135.5t-27.5 135.5t-75.5 111.5t-111.5 75.5t-135.5 27.5t-135.5 -27.5t-111 -75.5t-75 -111.5t-27.5 -135.5zM314 873q0 11 7 18t18 7q10 0 17 -7t7 -18q0 -10 -7 -17t-17 -7q-11 0 -18 7t-7 17zM492 873q0 11 7 18t17 7q11 0 18 -7
t7 -18q0 -10 -7 -17t-18 -7q-10 0 -17 7t-7 17z" />
    <glyph glyph-name="multiply" unicode="&#xd7;" horiz-adv-x="446" 
d="M105 197q-10 -12 -20 -1t0 21l104 104l-103 103q-10 10 0 20t21 0l103 -103l103 103q10 10 20 0q11 -9 0 -20l-103 -103l104 -104q11 -11 1 -21q-10 -11 -21 0l-105 105z" />
    <glyph glyph-name="Oslash" unicode="&#xd8;" horiz-adv-x="848" 
d="M74 371q0 -72 27.5 -135.5t75 -111t111 -75t135.5 -27.5t135.5 27.5t111.5 75t75.5 111t27.5 135.5t-27.5 135.5t-75.5 111.5t-111.5 75.5t-135.5 27.5t-135.5 -27.5t-111 -75.5t-75 -111.5t-27.5 -135.5zM44 371q0 78 29.5 147.5t81 121t120.5 81.5t148 30
q34 0 65.5 -5.5t61.5 -16.5l45 111q5 12 12 12q8 0 13.5 -4.5t5.5 -9.5t-1 -8l-46 -113q50 -22 91 -57.5t70.5 -80.5t46 -98t16.5 -110q0 -79 -30 -148t-81.5 -120.5t-121 -81t-147.5 -29.5q-32 0 -61.5 5t-58.5 14l-45 -105q-3 -9 -11 -9t-14 4.5t-6 9.5q0 3 3 8l44 103
q-51 22 -93.5 57t-72.5 80.5t-47 99t-17 112.5z" />
    <glyph glyph-name="Ugrave" unicode="&#xd9;" horiz-adv-x="752" 
d="M98 727v-436q0 -57 21.5 -107.5t58.5 -87.5t87.5 -58.5t107.5 -21.5t107.5 21.5t87.5 58.5t58.5 87.5t21.5 107.5v436q0 16 15 16q14 0 14 -16v-440q-1 -62 -25 -116.5t-65 -95t-96 -64t-118 -23.5t-118 23.5t-96.5 65t-65 96.5t-23.5 118v436q0 16 14 16t14 -16z
M284 936q-6 13 6 20q13 7 19 -7l71 -124q6 -14 -7 -20t-20 7z" />
    <glyph glyph-name="Uacute" unicode="&#xda;" horiz-adv-x="752" 
d="M98 727v-436q0 -57 21.5 -107.5t58.5 -87.5t87.5 -58.5t107.5 -21.5t107.5 21.5t87.5 58.5t58.5 87.5t21.5 107.5v436q0 16 15 16q14 0 14 -16v-440q-1 -62 -25 -116.5t-65 -95t-96 -64t-118 -23.5t-118 23.5t-96.5 65t-65 96.5t-23.5 118v436q0 16 14 16t14 -16z
M373 812q-6 -13 -20 -7q-13 7 -6 20l70 124q7 13 20 7q12 -7 5 -20z" />
    <glyph glyph-name="Ucircumflex" unicode="&#xdb;" horiz-adv-x="752" 
d="M98 727v-436q0 -57 21.5 -107.5t58.5 -87.5t87.5 -58.5t107.5 -21.5t107.5 21.5t87.5 58.5t58.5 87.5t21.5 107.5v436q0 16 15 16q14 0 14 -16v-440q-1 -62 -25 -116.5t-65 -95t-96 -64t-118 -23.5t-118 23.5t-96.5 65t-65 96.5t-23.5 118v436q0 16 14 16t14 -16z
M371 988q7 7 14 -1l121 -120q8 -8 0 -16l-4 -4q-7 -9 -15 0l-109 107l-108 -106q-2 -3 -7 -3t-9 3l-4 4q-7 8 0 16z" />
    <glyph glyph-name="Udieresis" unicode="&#xdc;" horiz-adv-x="752" 
d="M98 727v-436q0 -57 21.5 -107.5t58.5 -87.5t87.5 -58.5t107.5 -21.5t107.5 21.5t87.5 58.5t58.5 87.5t21.5 107.5v436q0 16 15 16q14 0 14 -16v-440q-1 -62 -25 -116.5t-65 -95t-96 -64t-118 -23.5t-118 23.5t-96.5 65t-65 96.5t-23.5 118v436q0 16 14 16t14 -16z
M269 874q0 11 7 18t18 7q10 0 17 -7t7 -18q0 -10 -7 -17t-17 -7q-11 0 -18 7t-7 17zM447 874q0 11 7 18t17 7q11 0 18 -7t7 -18q0 -10 -7 -17t-18 -7q-10 0 -17 7t-7 17z" />
    <glyph glyph-name="Yacute" unicode="&#xdd;" horiz-adv-x="585" 
d="M555 718l-245 -380v-321q0 -17 -14 -17q-8 0 -11 5t-3 12v321l-245 383q-3 5 -3 8q0 6 4 9.5t9 3.5h1q2 0 5 -0.5t7 -6.5l236 -368l236 366q4 6 6.5 7t4.5 1h2q4 0 8.5 -4t4.5 -10q0 -3 -3 -9zM334 812q-6 -13 -20 -7q-13 7 -6 20l70 124q7 13 20 7q12 -7 5 -20z" />
    <glyph glyph-name="Thorn" unicode="&#xde;" horiz-adv-x="605" 
d="M81 729q0 14 14 14t14 -14v-114h219q48 0 90 -18t73.5 -49.5t49.5 -73.5t18 -90t-18 -89.5t-49.5 -73t-73.5 -49.5t-90 -18h-218v-140q0 -14 -14 -14h-1q-14 0 -14 14v715zM328 183q42 0 79 15.5t64 42.5t42.5 64t15.5 79q0 43 -15.5 80t-42.5 64.5t-64 43t-79 15.5h-218
v-404h218z" />
    <glyph glyph-name="germandbls" unicode="&#xdf;" horiz-adv-x="576" 
d="M267 -12q-8 0 -20.5 1t-24.5 3t-20.5 7t-8.5 12q0 5 4.5 10t12.5 5q3 0 5 -1q14 -4 26.5 -6.5t26.5 -2.5q38 0 75.5 14t67.5 39.5t49 62.5t19 83q0 89 -51 140.5t-160 51.5q-9 0 -13.5 4t-4.5 9q0 13 17 13h5q32 0 60 7.5t49 23.5t33 41t12 59q0 35 -12 63.5t-33 48.5
t-50.5 31.5t-64.5 11.5q-33 0 -62 -11t-50 -31t-33 -48t-12 -62v-739q0 -14 -14 -14q-15 0 -15 14v739q0 43 15 76.5t40.5 56.5t59.5 35t72 12q39 0 73 -13.5t60 -38t41 -58t15 -72.5q0 -26 -7 -50.5t-20 -44t-30.5 -32.5t-38.5 -18q77 -18 112.5 -73t35.5 -131
q0 -50 -19 -92t-51.5 -72t-76.5 -47t-94 -17z" />
    <glyph glyph-name="agrave" unicode="&#xe0;" horiz-adv-x="605" 
d="M524 475v-461q0 -14 -14 -14q-16 0 -16 14v128q-10 -34 -31.5 -62t-50 -48.5t-62.5 -31.5t-69 -11q-50 0 -94 20t-76.5 55t-51.5 81.5t-19 99.5t19 100t51.5 82t76.5 55.5t94 20.5q35 0 68.5 -10.5t62 -30t50 -47t32.5 -61.5v121q0 16 16 16q14 0 14 -16zM493 245
q0 47 -17 89t-45.5 73t-67 49t-82.5 18q-45 0 -83.5 -18t-67 -49t-45 -73t-16.5 -89q0 -46 16.5 -87.5t45 -73t67 -49.5t83.5 -18q44 0 82.5 18t67 49.5t45.5 73t17 87.5zM211 720q-6 13 6 20q13 7 19 -7l71 -124q6 -14 -7 -20t-20 7z" />
    <glyph glyph-name="aacute" unicode="&#xe1;" horiz-adv-x="605" 
d="M524 475v-461q0 -14 -14 -14q-16 0 -16 14v128q-10 -34 -31.5 -62t-50 -48.5t-62.5 -31.5t-69 -11q-50 0 -94 20t-76.5 55t-51.5 81.5t-19 99.5t19 100t51.5 82t76.5 55.5t94 20.5q35 0 68.5 -10.5t62 -30t50 -47t32.5 -61.5v121q0 16 16 16q14 0 14 -16zM493 245
q0 47 -17 89t-45.5 73t-67 49t-82.5 18q-45 0 -83.5 -18t-67 -49t-45 -73t-16.5 -89q0 -46 16.5 -87.5t45 -73t67 -49.5t83.5 -18q44 0 82.5 18t67 49.5t45.5 73t17 87.5zM340 596q-6 -13 -20 -7q-13 7 -6 20l70 124q7 13 20 7q12 -7 5 -20z" />
    <glyph glyph-name="acircumflex" unicode="&#xe2;" horiz-adv-x="605" 
d="M524 475v-461q0 -14 -14 -14q-16 0 -16 14v128q-10 -34 -31.5 -62t-50 -48.5t-62.5 -31.5t-69 -11q-50 0 -94 20t-76.5 55t-51.5 81.5t-19 99.5t19 100t51.5 82t76.5 55.5t94 20.5q35 0 68.5 -10.5t62 -30t50 -47t32.5 -61.5v121q0 16 16 16q14 0 14 -16zM493 245
q0 47 -17 89t-45.5 73t-67 49t-82.5 18q-45 0 -83.5 -18t-67 -49t-45 -73t-16.5 -89q0 -46 16.5 -87.5t45 -73t67 -49.5t83.5 -18q44 0 82.5 18t67 49.5t45.5 73t17 87.5zM267 738q7 7 14 -1l121 -120q8 -8 0 -16l-4 -4q-7 -9 -15 0l-109 107l-108 -106q-2 -3 -7 -3t-9 3
l-4 4q-7 8 0 16z" />
    <glyph glyph-name="atilde" unicode="&#xe3;" horiz-adv-x="605" 
d="M524 475v-461q0 -14 -14 -14q-16 0 -16 14v128q-10 -34 -31.5 -62t-50 -48.5t-62.5 -31.5t-69 -11q-50 0 -94 20t-76.5 55t-51.5 81.5t-19 99.5t19 100t51.5 82t76.5 55.5t94 20.5q35 0 68.5 -10.5t62 -30t50 -47t32.5 -61.5v121q0 16 16 16q14 0 14 -16zM493 245
q0 47 -17 89t-45.5 73t-67 49t-82.5 18q-45 0 -83.5 -18t-67 -49t-45 -73t-16.5 -89q0 -46 16.5 -87.5t45 -73t67 -49.5t83.5 -18q44 0 82.5 18t67 49.5t45.5 73t17 87.5zM271 621q-22 13 -34 17t-20 4q-14 0 -24 -8t-22 -22q-5 -5 -10.5 -7.5t-10.5 1.5q-4 3 -7 7t-1 8.5
t4 6.5q19 20 34 32t38 12t62 -22q21 -13 33 -17t20 -4q14 0 24.5 8t22.5 22q5 5 10 8t9 -1q6 -4 8 -6q3 -4 1.5 -9.5t-3.5 -7.5q-17 -20 -33 -32t-39 -12q-24 0 -62 22z" />
    <glyph glyph-name="adieresis" unicode="&#xe4;" horiz-adv-x="605" 
d="M524 475v-461q0 -14 -14 -14q-16 0 -16 14v128q-10 -34 -31.5 -62t-50 -48.5t-62.5 -31.5t-69 -11q-50 0 -94 20t-76.5 55t-51.5 81.5t-19 99.5t19 100t51.5 82t76.5 55.5t94 20.5q35 0 68.5 -10.5t62 -30t50 -47t32.5 -61.5v121q0 16 16 16q14 0 14 -16zM493 245
q0 47 -17 89t-45.5 73t-67 49t-82.5 18q-45 0 -83.5 -18t-67 -49t-45 -73t-16.5 -89q0 -46 16.5 -87.5t45 -73t67 -49.5t83.5 -18q44 0 82.5 18t67 49.5t45.5 73t17 87.5zM161 615q0 11 7 18t18 7q10 0 17 -7t7 -18q0 -10 -7 -17t-17 -7q-11 0 -18 7t-7 17zM339 615
q0 11 7 18t17 7q11 0 18 -7t7 -18q0 -10 -7 -17t-18 -7q-10 0 -17 7t-7 17z" />
    <glyph glyph-name="aring" unicode="&#xe5;" horiz-adv-x="605" 
d="M524 475v-461q0 -14 -14 -14q-16 0 -16 14v128q-10 -34 -31.5 -62t-50 -48.5t-62.5 -31.5t-69 -11q-50 0 -94 20t-76.5 55t-51.5 81.5t-19 99.5t19 100t51.5 82t76.5 55.5t94 20.5q35 0 68.5 -10.5t62 -30t50 -47t32.5 -61.5v121q0 16 16 16q14 0 14 -16zM493 245
q0 47 -17 89t-45.5 73t-67 49t-82.5 18q-45 0 -83.5 -18t-67 -49t-45 -73t-16.5 -89q0 -46 16.5 -87.5t45 -73t67 -49.5t83.5 -18q44 0 82.5 18t67 49.5t45.5 73t17 87.5zM291 768q34 0 57.5 -24t23.5 -56q0 -34 -23.5 -57t-57.5 -23t-57 23t-23 57q0 32 23 56t57 24z
M236 688q0 -23 16 -39t39 -16t38.5 16t15.5 39t-15.5 38.5t-38.5 15.5t-39 -15.5t-16 -38.5z" />
    <glyph glyph-name="ae" unicode="&#xe6;" horiz-adv-x="995" 
d="M496 245q0 47 -17 89t-45.5 73t-67 49t-82.5 18q-45 0 -83.5 -18t-67 -49t-45 -73t-16.5 -89q0 -46 16.5 -87.5t45 -73t67 -49.5t83.5 -18q44 0 82.5 18t67 49.5t45.5 73t17 87.5zM953 239h-426v-21q4 -43 23 -79.5t49.5 -63.5t69.5 -42.5t82 -15.5q47 0 86.5 15.5
t70.5 44.5q4 4 9 4q4 0 9 -4t5 -10q0 -7 -8 -13q-35 -32 -77.5 -48.5t-92.5 -16.5q-74 0 -133.5 37t-92.5 98v-110q0 -14 -14 -14q-16 0 -16 14v128q-10 -34 -31.5 -62t-50 -48.5t-62.5 -31.5t-69 -11q-50 0 -94 20t-76.5 55t-51.5 81.5t-19 99.5t19 100t51.5 82t76.5 55.5
t94 20.5q35 0 68.5 -10.5t62 -30t50 -47t32.5 -61.5v121q0 16 16 16q14 0 14 -16v-110q32 60 88.5 97t123.5 37q48 0 89.5 -20.5t72.5 -54t48.5 -78t17.5 -92.5q0 -15 -14 -15zM738 470q-38 0 -73.5 -14.5t-64 -40.5t-48 -61.5t-25.5 -76.5v-8h411q-2 40 -18.5 76.5
t-43.5 64t-62.5 44t-75.5 16.5z" />
    <glyph glyph-name="ccedilla" unicode="&#xe7;" horiz-adv-x="511" 
d="M446 412q-31 28 -70 43.5t-83 15.5q-47 0 -88.5 -18t-72 -49t-48.5 -72t-18 -88q0 -46 18 -87.5t48.5 -72.5t72 -49t88.5 -18q45 0 84.5 15.5t70.5 44.5q6 4 9 4q6 0 10.5 -5t4.5 -10q0 -6 -8 -12q-36 -32 -78.5 -48.5t-91.5 -16.5q-53 0 -99.5 20t-81 54.5t-54.5 81
t-20 99.5t20 99.5t54.5 81t81 54.5t99.5 20q50 0 91 -17.5t76 -46.5q8 -6 8 -12q0 -5 -4.5 -10.5t-9.5 -5.5q-4 0 -9 5zM274 -2q0 14 15 14q14 0 14 -14v-79q32 -5 53 -29.5t21 -57.5q0 -37 -26 -63t-63 -26q-6 0 -10 4.5t-4 9.5q0 6 4 10.5t10 4.5q25 0 42.5 17.5
t17.5 42.5q0 24 -17 41t-41 18h-2q-14 1 -14 15v92z" />
    <glyph glyph-name="egrave" unicode="&#xe8;" horiz-adv-x="543" 
d="M499 239h-427q0 -46 18 -86.5t49 -70.5t72 -47.5t87 -17.5q47 0 86 15.5t70 44.5q4 4 10 4q4 0 9 -4t5 -10q0 -7 -8 -13q-35 -32 -78 -48.5t-93 -16.5q-53 0 -99.5 20t-81 54.5t-54.5 81t-20 99.5t19.5 99.5t52.5 81t77 54.5t92 20t89.5 -20.5t72.5 -54t48.5 -78
t17.5 -92.5q0 -15 -14 -15zM284 470q-39 0 -75.5 -15.5t-65 -42.5t-47.5 -63.5t-24 -79.5h412q-1 40 -17.5 76.5t-43.5 64t-63 44t-76 16.5zM208 720q-6 13 6 20q13 7 19 -7l71 -124q6 -14 -7 -20t-20 7z" />
    <glyph glyph-name="eacute" unicode="&#xe9;" horiz-adv-x="543" 
d="M499 239h-427q0 -46 18 -86.5t49 -70.5t72 -47.5t87 -17.5q47 0 86 15.5t70 44.5q4 4 10 4q4 0 9 -4t5 -10q0 -7 -8 -13q-35 -32 -78 -48.5t-93 -16.5q-53 0 -99.5 20t-81 54.5t-54.5 81t-20 99.5t19.5 99.5t52.5 81t77 54.5t92 20t89.5 -20.5t72.5 -54t48.5 -78
t17.5 -92.5q0 -15 -14 -15zM284 470q-39 0 -75.5 -15.5t-65 -42.5t-47.5 -63.5t-24 -79.5h412q-1 40 -17.5 76.5t-43.5 64t-63 44t-76 16.5zM304 596q-6 -13 -20 -7q-13 7 -6 20l70 124q7 13 20 7q12 -7 5 -20z" />
    <glyph glyph-name="ecircumflex" unicode="&#xea;" horiz-adv-x="543" 
d="M499 239h-427q0 -46 18 -86.5t49 -70.5t72 -47.5t87 -17.5q47 0 86 15.5t70 44.5q4 4 10 4q4 0 9 -4t5 -10q0 -7 -8 -13q-35 -32 -78 -48.5t-93 -16.5q-53 0 -99.5 20t-81 54.5t-54.5 81t-20 99.5t19.5 99.5t52.5 81t77 54.5t92 20t89.5 -20.5t72.5 -54t48.5 -78
t17.5 -92.5q0 -15 -14 -15zM284 470q-39 0 -75.5 -15.5t-65 -42.5t-47.5 -63.5t-24 -79.5h412q-1 40 -17.5 76.5t-43.5 64t-63 44t-76 16.5zM278 738q7 7 14 -1l121 -120q8 -8 0 -16l-4 -4q-7 -9 -15 0l-109 107l-108 -106q-2 -3 -7 -3t-9 3l-4 4q-7 8 0 16z" />
    <glyph glyph-name="edieresis" unicode="&#xeb;" horiz-adv-x="543" 
d="M499 239h-427q0 -46 18 -86.5t49 -70.5t72 -47.5t87 -17.5q47 0 86 15.5t70 44.5q4 4 10 4q4 0 9 -4t5 -10q0 -7 -8 -13q-35 -32 -78 -48.5t-93 -16.5q-53 0 -99.5 20t-81 54.5t-54.5 81t-20 99.5t19.5 99.5t52.5 81t77 54.5t92 20t89.5 -20.5t72.5 -54t48.5 -78
t17.5 -92.5q0 -15 -14 -15zM284 470q-39 0 -75.5 -15.5t-65 -42.5t-47.5 -63.5t-24 -79.5h412q-1 40 -17.5 76.5t-43.5 64t-63 44t-76 16.5zM170 615q0 11 7 18t18 7q10 0 17 -7t7 -18q0 -10 -7 -17t-17 -7q-11 0 -18 7t-7 17zM348 615q0 11 7 18t17 7q11 0 18 -7t7 -18
q0 -10 -7 -17t-18 -7q-10 0 -17 7t-7 17z" />
    <glyph glyph-name="igrave" unicode="&#xec;" 
d="M82 474q0 14 16 14q14 0 14 -14v-460q0 -14 -14 -14q-16 0 -16 14v460zM5 720q-6 13 6 20q13 7 19 -7l71 -124q6 -14 -7 -20t-20 7z" />
    <glyph glyph-name="iacute" unicode="&#xed;" 
d="M82 474q0 14 16 14q14 0 14 -14v-460q0 -14 -14 -14q-16 0 -16 14v460zM112 596q-6 -13 -20 -7q-13 7 -6 20l70 124q7 13 20 7q12 -7 5 -20z" />
    <glyph glyph-name="icircumflex" unicode="&#xee;" 
d="M82 474q0 14 16 14q14 0 14 -14v-460q0 -14 -14 -14q-16 0 -16 14v460zM82 738q7 7 14 -1l121 -120q8 -8 0 -16l-4 -4q-7 -9 -15 0l-109 107l-108 -106q-2 -3 -7 -3t-9 3l-4 4q-7 8 0 16z" />
    <glyph glyph-name="idieresis" unicode="&#xef;" 
d="M82 474q0 14 16 14q14 0 14 -14v-460q0 -14 -14 -14q-16 0 -16 14v460zM-14 628q0 11 7 18t18 7q10 0 17 -7t7 -18q0 -10 -7 -17t-17 -7q-11 0 -18 7t-7 17zM164 628q0 11 7 18t17 7q11 0 18 -7t7 -18q0 -10 -7 -17t-18 -7q-10 0 -17 7t-7 17z" />
    <glyph glyph-name="eth" unicode="&#xf0;" horiz-adv-x="574" 
d="M269 735l41 -60l75 53q5 3 10 3q4 0 9.5 -5t5.5 -11t-7 -11l-76 -53l185 -268q20 -30 30.5 -65.5t10.5 -73.5q0 -53 -20 -99.5t-54.5 -81t-80.5 -54.5t-99 -20t-99.5 20t-81 54.5t-54.5 81t-20 99.5t20 99.5t54.5 81t81 54.5t99.5 20q33 0 63 -8t57 -22l-115 166l-72 -50
q-4 -3 -10 -3q-5 0 -9.5 5t-4.5 11q0 7 7 12l72 49l-42 61q-3 5 -3 8q0 5 5.5 9.5t10.5 4.5q7 0 11 -7zM525 244q0 47 -18 88t-49 72t-72.5 49t-87.5 18t-87.5 -18t-72.5 -49t-49 -72t-18 -88q0 -46 18 -87.5t49 -72.5t72.5 -49t87.5 -18t87.5 18t72.5 49t49 72.5t18 87.5z
" />
    <glyph glyph-name="ntilde" unicode="&#xf1;" horiz-adv-x="567" 
d="M110 14q0 -14 -15 -14q-14 0 -14 14v462q0 14 14 14q15 0 15 -14v-88q11 27 32 48t48 35.5t57.5 22t58.5 7.5q43 0 78 -14.5t60 -41t38.5 -64t13.5 -84.5v-283q0 -14 -14 -14q-15 0 -15 14v285q0 78 -44 125.5t-117 47.5q-40 0 -75 -13t-61.5 -35.5t-42 -53.5t-17.5 -67
v-289zM282 621q-22 13 -34 17t-20 4q-14 0 -24 -8t-22 -22q-5 -5 -10.5 -7.5t-10.5 1.5q-4 3 -7 7t-1 8.5t4 6.5q19 20 34 32t38 12t62 -22q21 -13 33 -17t20 -4q14 0 24.5 8t22.5 22q5 5 10 8t9 -1q6 -4 8 -6q3 -4 1.5 -9.5t-3.5 -7.5q-17 -20 -33 -32t-39 -12
q-24 0 -62 22z" />
    <glyph glyph-name="ograve" unicode="&#xf2;" horiz-adv-x="590" 
d="M40 244q0 53 20 99.5t54.5 81t80.5 54.5t99 20t99.5 -20t81 -54.5t54.5 -81t20 -99.5t-20 -99.5t-54.5 -81t-81 -54.5t-99.5 -20t-99 20t-80.5 54.5t-54.5 81t-20 99.5zM68 244q0 -46 18 -87.5t49 -72.5t72.5 -49t87.5 -18q47 0 88 18t72 49t49 72.5t18 87.5q0 47 -18 88
t-49 72t-72 49t-88 18q-46 0 -87.5 -18t-72.5 -49t-49 -72t-18 -88zM209 720q-6 13 6 20q13 7 19 -7l71 -124q6 -14 -7 -20t-20 7z" />
    <glyph glyph-name="oacute" unicode="&#xf3;" horiz-adv-x="590" 
d="M40 244q0 53 20 99.5t54.5 81t80.5 54.5t99 20t99.5 -20t81 -54.5t54.5 -81t20 -99.5t-20 -99.5t-54.5 -81t-81 -54.5t-99.5 -20t-99 20t-80.5 54.5t-54.5 81t-20 99.5zM68 244q0 -46 18 -87.5t49 -72.5t72.5 -49t87.5 -18q47 0 88 18t72 49t49 72.5t18 87.5q0 47 -18 88
t-49 72t-72 49t-88 18q-46 0 -87.5 -18t-72.5 -49t-49 -72t-18 -88zM311 596q-6 -13 -20 -7q-13 7 -6 20l70 124q7 13 20 7q12 -7 5 -20z" />
    <glyph glyph-name="ocircumflex" unicode="&#xf4;" horiz-adv-x="590" 
d="M40 244q0 53 20 99.5t54.5 81t80.5 54.5t99 20t99.5 -20t81 -54.5t54.5 -81t20 -99.5t-20 -99.5t-54.5 -81t-81 -54.5t-99.5 -20t-99 20t-80.5 54.5t-54.5 81t-20 99.5zM68 244q0 -46 18 -87.5t49 -72.5t72.5 -49t87.5 -18q47 0 88 18t72 49t49 72.5t18 87.5q0 47 -18 88
t-49 72t-72 49t-88 18q-46 0 -87.5 -18t-72.5 -49t-49 -72t-18 -88zM278 738q7 7 14 -1l121 -120q8 -8 0 -16l-4 -4q-7 -9 -15 0l-109 107l-108 -106q-2 -3 -7 -3t-9 3l-4 4q-7 8 0 16z" />
    <glyph glyph-name="otilde" unicode="&#xf5;" horiz-adv-x="590" 
d="M40 244q0 53 20 99.5t54.5 81t80.5 54.5t99 20t99.5 -20t81 -54.5t54.5 -81t20 -99.5t-20 -99.5t-54.5 -81t-81 -54.5t-99.5 -20t-99 20t-80.5 54.5t-54.5 81t-20 99.5zM68 244q0 -46 18 -87.5t49 -72.5t72.5 -49t87.5 -18q47 0 88 18t72 49t49 72.5t18 87.5q0 47 -18 88
t-49 72t-72 49t-88 18q-46 0 -87.5 -18t-72.5 -49t-49 -72t-18 -88zM289 621q-22 13 -34 17t-20 4q-14 0 -24 -8t-22 -22q-5 -5 -10.5 -7.5t-10.5 1.5q-4 3 -7 7t-1 8.5t4 6.5q19 20 34 32t38 12t62 -22q21 -13 33 -17t20 -4q14 0 24.5 8t22.5 22q5 5 10 8t9 -1q6 -4 8 -6
q3 -4 1.5 -9.5t-3.5 -7.5q-17 -20 -33 -32t-39 -12q-24 0 -62 22z" />
    <glyph glyph-name="odieresis" unicode="&#xf6;" horiz-adv-x="590" 
d="M40 244q0 53 20 99.5t54.5 81t80.5 54.5t99 20t99.5 -20t81 -54.5t54.5 -81t20 -99.5t-20 -99.5t-54.5 -81t-81 -54.5t-99.5 -20t-99 20t-80.5 54.5t-54.5 81t-20 99.5zM68 244q0 -46 18 -87.5t49 -72.5t72.5 -49t87.5 -18q47 0 88 18t72 49t49 72.5t18 87.5q0 47 -18 88
t-49 72t-72 49t-88 18q-46 0 -87.5 -18t-72.5 -49t-49 -72t-18 -88zM185 615q0 11 7 18t18 7q10 0 17 -7t7 -18q0 -10 -7 -17t-17 -7q-11 0 -18 7t-7 17zM363 615q0 11 7 18t17 7q11 0 18 -7t7 -18q0 -10 -7 -17t-18 -7q-10 0 -17 7t-7 17z" />
    <glyph glyph-name="divide" unicode="&#xf7;" horiz-adv-x="451" 
d="M377 259q15 0 15 -14q0 -15 -15 -15h-322q-15 0 -15 15q0 14 15 14h322zM191 24q0 12 9 21t21 9q13 0 21.5 -9t8.5 -21q0 -13 -8.5 -21.5t-21.5 -8.5q-12 0 -21 8.5t-9 21.5zM191 466q0 12 9 21t21 9q13 0 21.5 -9t8.5 -21q0 -13 -8.5 -21.5t-21.5 -8.5q-12 0 -21 8.5
t-9 21.5z" />
    <glyph glyph-name="oslash" unicode="&#xf8;" horiz-adv-x="590" 
d="M68 244q0 -46 18 -87.5t49 -72.5t72.5 -49t87.5 -18q47 0 88 18t72 49t49 72.5t18 87.5q0 47 -18 88t-49 72t-72 49t-88 18q-46 0 -87.5 -18t-72.5 -49t-49 -72t-18 -88zM40 244q0 53 20 99.5t54.5 81t80.5 54.5t99 20q46 0 86 -15l31 74q5 14 20 7q13 -4 7 -19l-31 -73
q63 -32 102.5 -93t39.5 -136q0 -53 -20 -99.5t-54.5 -81t-81 -54.5t-99.5 -20q-22 0 -42 3.5t-40 9.5l-29 -69q-6 -13 -19 -9q-14 6 -9 20l30 69q-65 31 -105 92.5t-40 138.5z" />
    <glyph glyph-name="ugrave" unicode="&#xf9;" horiz-adv-x="550" 
d="M60 189v286q0 15 15 15q14 0 14 -15v-287q0 -37 14 -68.5t38 -54.5t56 -36t68 -13q37 0 69 13.5t56 37t37.5 55.5t13.5 69v284q0 15 15 15t15 -15v-461q0 -14 -15 -14t-15 14v77q-23 -47 -71 -75.5t-105 -28.5q-42 0 -79.5 15.5t-65.5 43t-44 64.5t-16 79zM189 720
q-6 13 6 20q13 7 19 -7l71 -124q6 -14 -7 -20t-20 7z" />
    <glyph glyph-name="uacute" unicode="&#xfa;" horiz-adv-x="550" 
d="M60 189v286q0 15 15 15q14 0 14 -15v-287q0 -37 14 -68.5t38 -54.5t56 -36t68 -13q37 0 69 13.5t56 37t37.5 55.5t13.5 69v284q0 15 15 15t15 -15v-461q0 -14 -15 -14t-15 14v77q-23 -47 -71 -75.5t-105 -28.5q-42 0 -79.5 15.5t-65.5 43t-44 64.5t-16 79zM260 596
q-6 -13 -20 -7q-13 7 -6 20l70 124q7 13 20 7q12 -7 5 -20z" />
    </font>
</defs>
</svg>
