<svg xmlns="http://www.w3.org/2000/svg" viewBox="0 0 98.51 89.54"><defs><style>.cls-1{fill:#f29100;}</style></defs><title>Recurso 2</title><g id="Capa_2" data-name="Capa 2"><g id="Servicios"><path class="cls-1" d="M67.08,89.54H31.43c-4.2,0-9.93-3.32-12-7L1.58,51.72c-2.11-3.64-2.11-10.27,0-13.9L19.4,7C21.5,3.31,27.23,0,31.43,0H67.08c4.2,0,9.93,3.31,12,7L96.94,37.82c2.1,3.63,2.1,10.26,0,13.9L79.12,82.59c-2.11,3.63-7.84,7-12,7Zm3.6-28.65V27.56a3.8,3.8,0,0,0-7.59,0V44.93a.85.85,0,0,1-.32.67.83.83,0,0,1-.57.22.91.91,0,0,1-.8-.48,1,1,0,0,1-.1-.41V24a3.8,3.8,0,0,0-7.59,0v21h0a.9.9,0,0,1-1.79,0V16.8a3.8,3.8,0,0,0-7.59,0V24h0v21h0a.85.85,0,0,1-.2.56.88.88,0,0,1-.69.33.9.9,0,0,1-.76-.42.86.86,0,0,1-.14-.47h0V24A3.8,3.8,0,0,0,35,24V41.84h0v3.09h0v9.69l0,5a.91.91,0,0,1-.66.87.88.88,0,0,1-1-.39L25.18,46.88a3.79,3.79,0,0,0-3.24-1.81,3.69,3.69,0,0,0-2,.57,3.77,3.77,0,0,0-1.81,3.23,3.83,3.83,0,0,0,.56,2l7.66,12.45h0l2.75,4.48.48.78a12.89,12.89,0,0,0,10.45,6.14H57.75A12.92,12.92,0,0,0,70.68,61.81v-.92Z"/></g></g></svg>