<svg xmlns="http://www.w3.org/2000/svg" viewBox="0 0 1034.28 728.78"><defs><style>.cls-1,.cls-3{fill:none;stroke:#fff;stroke-miterlimit:10;}.cls-2{fill:#fff;}.cls-3{opacity:0.49;}.cls-4{opacity:0.42;}</style></defs><title>Recurso 3</title><g id="Capa_2" data-name="Capa 2"><g id="Proposito"><line id="_Trazado_" data-name="&lt;Trazado&gt;" class="cls-1" x1="698.75" y1="463.82" x2="660.02" y2="463.82"/><path class="cls-2" d="M485.6,321.84c.67-.5,1.21-.5,1.61,0l2.53,4.29c.27.31.37.57.3.79a1.54,1.54,0,0,1-.55.68,18.58,18.58,0,0,1-4.85,2.57,18,18,0,0,1-6.11,1,18.85,18.85,0,0,1-7.52-1.51,19.62,19.62,0,0,1-6.18-4.14,19.17,19.17,0,0,1-4.17-6.16,18.88,18.88,0,0,1-1.51-7.52,18.64,18.64,0,0,1,1.51-7.52,19.34,19.34,0,0,1,17.87-11.71,18.55,18.55,0,0,1,6.11.93,18.87,18.87,0,0,1,4.9,2.55,1,1,0,0,1,.4.71,1.2,1.2,0,0,1-.1.55l-2.68,4.54c-.3.41-.77.43-1.41,0a17.59,17.59,0,0,0-3.46-1.71,10.94,10.94,0,0,0-3.76-.61,11.73,11.73,0,0,0-4.74.94,11.26,11.26,0,0,0-3.76,2.6,12.2,12.2,0,0,0-2.5,3.88,12.47,12.47,0,0,0-.91,4.8,12.68,12.68,0,0,0,.91,4.82,12.48,12.48,0,0,0,2.5,3.94,11.75,11.75,0,0,0,3.76,2.67,11.27,11.27,0,0,0,4.74,1,11.06,11.06,0,0,0,3.91-.69A11.68,11.68,0,0,0,485.6,321.84Z"/><path class="cls-2" d="M531,311.85a18.72,18.72,0,0,1-1.51,7.5,19.26,19.26,0,0,1-4.14,6.1,19.64,19.64,0,0,1-6.16,4.12,18.92,18.92,0,0,1-7.52,1.51,18.72,18.72,0,0,1-7.5-1.51A19.13,19.13,0,0,1,494,319.35a19.75,19.75,0,0,1,0-15.05,19,19,0,0,1,10.2-10.22,18.72,18.72,0,0,1,7.5-1.51,18.92,18.92,0,0,1,7.52,1.51,19.79,19.79,0,0,1,6.16,4.11,19.31,19.31,0,0,1,4.14,6.11A18.85,18.85,0,0,1,531,311.85Zm-7.42,0a12.47,12.47,0,0,0-.91-4.8,12,12,0,0,0-2.5-3.86,11.88,11.88,0,0,0-3.76-2.6,11.61,11.61,0,0,0-4.74-1,11.49,11.49,0,0,0-4.7,1,11.62,11.62,0,0,0-6.23,6.46,12.85,12.85,0,0,0-.89,4.8,12.68,12.68,0,0,0,.89,4.74,11.59,11.59,0,0,0,6.23,6.47,11.48,11.48,0,0,0,4.7.95,11.6,11.6,0,0,0,4.74-.95,11.88,11.88,0,0,0,3.76-2.6,12,12,0,0,0,2.5-3.87A12.31,12.31,0,0,0,523.56,311.85Z"/><path class="cls-2" d="M537.39,294.23a1.15,1.15,0,0,1,.28-.78,1,1,0,0,1,.83-.33h5.91a2.14,2.14,0,0,1,.83.18,1.16,1.16,0,0,1,.63.58l16.61,23.87V293.88a.93.93,0,0,1,.48-.61,1.52,1.52,0,0,1,.63-.15h5.1a1.36,1.36,0,0,1,.81.3,1,1,0,0,1,.4.81v35.24c0,.74-.4,1.11-1.21,1.11h-5a1.38,1.38,0,0,1-.88-.23,4.52,4.52,0,0,1-.58-.58l-17.52-25.24v24.94q0,1.11-1.11,1.11h-5.1a1,1,0,0,1-1.11-1.11Z"/><path class="cls-2" d="M576.61,324.87a3.25,3.25,0,0,1-.6-.91c-.14-.3,0-.64.35-1l3.38-3.33a.91.91,0,0,1,.89-.27,2.42,2.42,0,0,1,.88.52c.51.51,1.07,1,1.69,1.54a13.81,13.81,0,0,0,2,1.42,10.75,10.75,0,0,0,2.35,1,9.31,9.31,0,0,0,2.67.38,8.16,8.16,0,0,0,2.68-.41,6.54,6.54,0,0,0,2-1.08,4.56,4.56,0,0,0,1.26-1.57,4.11,4.11,0,0,0,.43-1.84,3,3,0,0,0-.73-2,6.49,6.49,0,0,0-1.79-1.42,13.22,13.22,0,0,0-2.3-1c-.82-.25-1.57-.46-2.24-.63a26.44,26.44,0,0,1-9.32-4.47,8.58,8.58,0,0,1-3.2-6.94,9.25,9.25,0,0,1,1-4.24,9.74,9.74,0,0,1,2.78-3.3,13.1,13.1,0,0,1,4.31-2.15,19.51,19.51,0,0,1,5.56-.76A13.83,13.83,0,0,1,597,294a20.87,20.87,0,0,1,5.33,3.84,1.27,1.27,0,0,1-.05,2l-2.78,3a.89.89,0,0,1-1,.28,3.89,3.89,0,0,1-1-.58q-.6-.51-1.38-1.11a17.1,17.1,0,0,0-1.72-1.14,12.05,12.05,0,0,0-2-.88,6.49,6.49,0,0,0-2.14-.35,14,14,0,0,0-2,.15,5.85,5.85,0,0,0-1.87.58,3.81,3.81,0,0,0-1.38,1.21,3.47,3.47,0,0,0-.56,2.09,2.73,2.73,0,0,0,.53,1.67,4.65,4.65,0,0,0,1.51,1.24,15.28,15.28,0,0,0,2.33,1c.89.3,1.87.61,2.95.91,1.72.51,3.33,1.07,4.85,1.69a15.9,15.9,0,0,1,4,2.3,10.59,10.59,0,0,1,2.7,3.23,9.34,9.34,0,0,1,1,4.49,9.9,9.9,0,0,1-1.16,4.77,11.63,11.63,0,0,1-3.11,3.66,14,14,0,0,1-4.49,2.32,17.32,17.32,0,0,1-5.27.81,17.49,17.49,0,0,1-7.58-1.72A20,20,0,0,1,576.61,324.87Z"/><path class="cls-2" d="M616.64,294.23v21.56a9.49,9.49,0,0,0,.59,3.33,8.19,8.19,0,0,0,1.63,2.72,7.74,7.74,0,0,0,5.81,2.53,7.63,7.63,0,0,0,3.23-.68,7.92,7.92,0,0,0,2.53-1.85,8.38,8.38,0,0,0,1.64-2.72,9.72,9.72,0,0,0,.58-3.33V294.23a1.1,1.1,0,0,1,.32-.78,1.14,1.14,0,0,1,.84-.33h5a1.4,1.4,0,0,1,.85.3,1,1,0,0,1,.41.81v21.56a15,15,0,0,1-1.21,6,15.48,15.48,0,0,1-3.31,4.89,15.64,15.64,0,0,1-4.9,3.31,14.87,14.87,0,0,1-6,1.21,15.08,15.08,0,0,1-6-1.21,15.61,15.61,0,0,1-4.92-3.31,15.29,15.29,0,0,1-3.3-4.89,14.87,14.87,0,0,1-1.22-6V294.23a1.13,1.13,0,0,1,.31-.76,1,1,0,0,1,.75-.35h5.2a1.22,1.22,0,0,1,.79.33A1,1,0,0,1,616.64,294.23Z"/><path class="cls-2" d="M647.74,294.18a1.12,1.12,0,0,1,.3-.78,1.11,1.11,0,0,1,.86-.33h5.15a1,1,0,0,1,1.11,1.11v29.53H669.9a1.08,1.08,0,0,1,1.11,1.16v4.6q0,1-1.11,1.11h-21a1,1,0,0,1-1.11-1.11Z"/><path class="cls-2" d="M667.53,298.88v-4.8a.85.85,0,0,1,1-1H695c.67,0,1,.32,1,1v4.8a.9.9,0,0,1-1,1H685.3v29.68c0,.67-.32,1-1,1h-5.45c-.64,0-1-.34-1-1V299.89h-9.44C667.85,299.89,667.53,299.55,667.53,298.88Z"/><path class="cls-2" d="M734.36,311.85a18.72,18.72,0,0,1-1.51,7.5,19.26,19.26,0,0,1-4.14,6.1,19.53,19.53,0,0,1-6.16,4.12,19.43,19.43,0,0,1-15,0,19.42,19.42,0,0,1-6.11-4.12,19.1,19.1,0,0,1-4.08-6.1,19.75,19.75,0,0,1,0-15.05,19.14,19.14,0,0,1,4.08-6.11,19.56,19.56,0,0,1,6.11-4.11,19.43,19.43,0,0,1,15,0,19.67,19.67,0,0,1,6.16,4.11,19.31,19.31,0,0,1,4.14,6.11A18.85,18.85,0,0,1,734.36,311.85Zm-7.42,0a12.47,12.47,0,0,0-.91-4.8,11.8,11.8,0,0,0-6.26-6.46,12.08,12.08,0,0,0-9.44,0,12,12,0,0,0-3.76,2.6,11.76,11.76,0,0,0-2.47,3.86,12.84,12.84,0,0,0-.88,4.8,12.68,12.68,0,0,0,.88,4.74,11.81,11.81,0,0,0,2.47,3.87,12,12,0,0,0,3.76,2.6,12.2,12.2,0,0,0,9.44,0,11.77,11.77,0,0,0,3.76-2.6,11.88,11.88,0,0,0,2.5-3.87A12.31,12.31,0,0,0,726.94,311.85Z"/><path class="cls-2" d="M740.77,329.57V294.13a1.18,1.18,0,0,1,.23-.71.86.86,0,0,1,.73-.3h16a11.1,11.1,0,0,1,4.78,1,11.91,11.91,0,0,1,3.76,2.75,12.62,12.62,0,0,1,2.44,3.93,12.38,12.38,0,0,1,.89,4.6,11.14,11.14,0,0,1-1.74,6,13.1,13.1,0,0,1-4.62,4.47l6.86,13.63a.68.68,0,0,1,0,.7.69.69,0,0,1-.68.36H763a1.27,1.27,0,0,1-1.16-.86l-6-12.12h-7.68v12a.89.89,0,0,1-1,1h-5.4C741.09,330.58,740.77,330.24,740.77,329.57ZM756,299.63h-7.88v11.31H756a6.21,6.21,0,0,0,4.36-1.59,5.23,5.23,0,0,0,1.75-4.06,5.59,5.59,0,0,0-.46-2.25,5.1,5.1,0,0,0-1.29-1.79,6.07,6.07,0,0,0-1.94-1.19A6.8,6.8,0,0,0,756,299.63Z"/><path class="cls-2" d="M771.31,329.52l14.24-35.44a1.39,1.39,0,0,1,1.26-1h4.24a1.27,1.27,0,0,1,1.26,1l14.24,35.44c.17.33.18.59,0,.78a.87.87,0,0,1-.73.28h-5.5a1.27,1.27,0,0,1-1.26-.91l-2.43-6.06H781.16l-2.38,6.06a1.27,1.27,0,0,1-1.26.91H772C771.23,330.58,771,330.22,771.31,329.52Zm17.62-26.71-5.4,14.29h10.7Z"/><path class="cls-2" d="M279.62,423,286,407.11a.63.63,0,0,1,.57-.43h1.9a.56.56,0,0,1,.56.43L295.4,423c.07.15.08.27,0,.35a.42.42,0,0,1-.33.13h-2.46a.58.58,0,0,1-.57-.41L291,420.34H284L283,423.05a.56.56,0,0,1-.56.41h-2.49C279.58,423.46,279.48,423.3,279.62,423Zm7.89-12-2.42,6.4h4.79Z"/><path class="cls-2" d="M296.48,420.9a1.45,1.45,0,0,1-.27-.41c-.06-.13,0-.28.16-.45l1.52-1.49a.39.39,0,0,1,.39-.12,1,1,0,0,1,.4.23c.22.23.48.46.75.69a5.94,5.94,0,0,0,.91.64,5.53,5.53,0,0,0,1.05.45,4.3,4.3,0,0,0,1.2.17,3.69,3.69,0,0,0,1.2-.18,3.05,3.05,0,0,0,.89-.49,2.1,2.1,0,0,0,.57-.7,2,2,0,0,0,.19-.83,1.32,1.32,0,0,0-.33-.91,3.17,3.17,0,0,0-.8-.64,5.55,5.55,0,0,0-1-.42c-.37-.12-.71-.21-1-.29a11.91,11.91,0,0,1-4.17-2,3.84,3.84,0,0,1-1.44-3.11,4.06,4.06,0,0,1,.45-1.9,4.37,4.37,0,0,1,1.24-1.48,6,6,0,0,1,1.93-1,8.87,8.87,0,0,1,2.49-.34,6.29,6.29,0,0,1,2.86.7,9.3,9.3,0,0,1,2.38,1.72.56.56,0,0,1,0,.88L306.75,411a.4.4,0,0,1-.43.12,1.54,1.54,0,0,1-.43-.26l-.62-.5a6,6,0,0,0-.77-.5,5.39,5.39,0,0,0-.88-.4,3.12,3.12,0,0,0-1-.16,5.63,5.63,0,0,0-.9.07,2.69,2.69,0,0,0-.83.26,1.82,1.82,0,0,0-.63.54,1.66,1.66,0,0,0-.24.94,1.26,1.26,0,0,0,.23.75,2.13,2.13,0,0,0,.68.55,6.38,6.38,0,0,0,1,.44c.4.14.84.27,1.32.41.77.23,1.5.48,2.18.76a7.59,7.59,0,0,1,1.77,1,4.81,4.81,0,0,1,1.21,1.45,4.2,4.2,0,0,1,.45,2,4.37,4.37,0,0,1-.52,2.14,5.22,5.22,0,0,1-1.39,1.64,6.39,6.39,0,0,1-2,1,7.9,7.9,0,0,1-5.76-.41A9,9,0,0,1,296.48,420.9Z"/><path class="cls-2" d="M311.34,423V407.13c0-.3.14-.45.43-.45h11.05a.4.4,0,0,1,.46.45v2.19a.41.41,0,0,1-.46.46h-8.18v3.41h6.24c.33,0,.5.15.5.45v2.15c0,.3-.17.45-.5.45h-6.24v4.14H323c.31,0,.47.15.47.45V423a.41.41,0,0,1-.47.46H311.77C311.48,423.46,311.34,423.31,311.34,423Z"/><path class="cls-2" d="M325.49,420.9a1.45,1.45,0,0,1-.27-.41c-.06-.13,0-.28.16-.45l1.51-1.49a.41.41,0,0,1,.4-.12.89.89,0,0,1,.39.23c.23.23.48.46.76.69a5.94,5.94,0,0,0,.91.64,5.53,5.53,0,0,0,1,.45,4.19,4.19,0,0,0,1.2.17,3.59,3.59,0,0,0,1.19-.18,3,3,0,0,0,.9-.49,2.07,2.07,0,0,0,.56-.7,1.84,1.84,0,0,0,.19-.83,1.32,1.32,0,0,0-.32-.91,3.06,3.06,0,0,0-.81-.64,5.46,5.46,0,0,0-1-.42c-.37-.12-.71-.21-1-.29a11.82,11.82,0,0,1-4.17-2,3.84,3.84,0,0,1-1.44-3.11,4.18,4.18,0,0,1,.44-1.9,4.52,4.52,0,0,1,1.25-1.48,6,6,0,0,1,1.93-1,8.82,8.82,0,0,1,2.49-.34,6.32,6.32,0,0,1,2.86.7,9.48,9.48,0,0,1,2.38,1.72.57.57,0,0,1,0,.88L335.76,411a.4.4,0,0,1-.43.12,1.54,1.54,0,0,1-.43-.26l-.62-.5a6.78,6.78,0,0,0-.77-.5,5.49,5.49,0,0,0-.89-.4,3.07,3.07,0,0,0-1-.16,5.6,5.6,0,0,0-.89.07,2.75,2.75,0,0,0-.84.26,1.88,1.88,0,0,0-.62.54,1.66,1.66,0,0,0-.25.94,1.2,1.2,0,0,0,.24.75,2.13,2.13,0,0,0,.68.55,6,6,0,0,0,1,.44c.4.14.84.27,1.32.41a22.91,22.91,0,0,1,2.17.76,7.46,7.46,0,0,1,1.78,1,4.81,4.81,0,0,1,1.21,1.45,4.2,4.2,0,0,1,.45,2,4.37,4.37,0,0,1-.52,2.14,5.22,5.22,0,0,1-1.39,1.64,6.39,6.39,0,0,1-2,1,7.87,7.87,0,0,1-2.37.36,7.77,7.77,0,0,1-3.39-.77A9,9,0,0,1,325.49,420.9Z"/><path class="cls-2" d="M356.76,415.07a8.44,8.44,0,0,1-.68,3.36,8.73,8.73,0,0,1-1.85,2.73,8.84,8.84,0,0,1-2.76,1.84,8.67,8.67,0,0,1-6.73,0,8.55,8.55,0,0,1-4.56-4.57A8.69,8.69,0,0,1,342,409a8.76,8.76,0,0,1,2.73-1.84,8.67,8.67,0,0,1,6.73,0,9,9,0,0,1,2.76,1.84,8.66,8.66,0,0,1,1.85,2.74A8.47,8.47,0,0,1,356.76,415.07Zm-3.32,0a5.64,5.64,0,0,0-.41-2.15,5.49,5.49,0,0,0-1.12-1.73,5.24,5.24,0,0,0-3.81-1.59,5.09,5.09,0,0,0-2.1.43,5.12,5.12,0,0,0-2.79,2.89,5.63,5.63,0,0,0-.4,2.15,5.55,5.55,0,0,0,.4,2.12,5.17,5.17,0,0,0,1.1,1.73,5.44,5.44,0,0,0,1.69,1.17,5.26,5.26,0,0,0,2.1.43,5.33,5.33,0,0,0,2.13-.43,5.33,5.33,0,0,0,2.8-2.9A5.56,5.56,0,0,0,353.44,415.07Z"/><path class="cls-2" d="M359.63,423V407.13a.55.55,0,0,1,.1-.31.39.39,0,0,1,.33-.14h7.19a5,5,0,0,1,2.14.46,5.32,5.32,0,0,1,1.68,1.24,5.81,5.81,0,0,1,1.1,1.76,5.58,5.58,0,0,1,.39,2.06,5,5,0,0,1-.78,2.68,6,6,0,0,1-2.06,2l3.07,6.1a.33.33,0,0,1,0,.32.31.31,0,0,1-.3.16h-2.92a.56.56,0,0,1-.52-.39l-2.69-5.42h-3.44V423a.4.4,0,0,1-.45.46h-2.42C359.77,423.46,359.63,423.31,359.63,423Zm6.83-13.4h-3.53v5.06h3.53a2.83,2.83,0,0,0,2-.71,2.36,2.36,0,0,0,.78-1.82,2.44,2.44,0,0,0-.21-1,2.39,2.39,0,0,0-.57-.8,2.69,2.69,0,0,0-.88-.53A2.92,2.92,0,0,0,366.46,409.6Z"/><path class="cls-2" d="M373.31,423l6.38-15.87a.61.61,0,0,1,.56-.43h1.9a.58.58,0,0,1,.57.43L389.09,423c.08.15.08.27,0,.35a.41.41,0,0,1-.33.13h-2.46a.58.58,0,0,1-.57-.41l-1.08-2.71h-6.94l-1.06,2.71a.58.58,0,0,1-.57.41H373.6C373.27,423.46,373.17,423.3,373.31,423Zm7.89-12-2.42,6.4h4.79Z"/><path class="cls-2" d="M391,423V407.13a.48.48,0,0,1,.1-.31.39.39,0,0,1,.33-.14h7.19a5,5,0,0,1,2.14.46,5.32,5.32,0,0,1,1.68,1.24,5.81,5.81,0,0,1,1.1,1.76,5.58,5.58,0,0,1,.39,2.06,5,5,0,0,1-.78,2.68,5.92,5.92,0,0,1-2.07,2l3.08,6.1a.33.33,0,0,1,0,.32.31.31,0,0,1-.31.16h-2.91a.56.56,0,0,1-.52-.39l-2.69-5.42h-3.44V423a.4.4,0,0,1-.45.46h-2.42C391.13,423.46,391,423.31,391,423Zm6.83-13.4h-3.53v5.06h3.53a2.8,2.8,0,0,0,1.95-.71,2.36,2.36,0,0,0,.78-1.82,2.35,2.35,0,0,0-.78-1.81,2.75,2.75,0,0,0-.87-.53A2.92,2.92,0,0,0,397.82,409.6Z"/><path class="cls-2" d="M411.74,423l6.38-15.87a.62.62,0,0,1,.57-.43h1.89a.57.57,0,0,1,.57.43L427.53,423c.07.15.08.27,0,.35a.42.42,0,0,1-.33.13h-2.47a.56.56,0,0,1-.56-.41l-1.09-2.71h-6.94l-1.06,2.71a.56.56,0,0,1-.56.41H412Q411.54,423.46,411.74,423Zm7.9-12-2.42,6.4H422Z"/><path class="cls-2" d="M436.5,407.18a.48.48,0,0,1,.13-.35.44.44,0,0,1,.37-.15h2.64a1.08,1.08,0,0,1,.38.08.51.51,0,0,1,.28.26l7.44,10.69V407a.38.38,0,0,1,.21-.27.65.65,0,0,1,.29-.07h2.28a.61.61,0,0,1,.36.14.43.43,0,0,1,.18.36V423c0,.33-.18.5-.54.5h-2.24a.59.59,0,0,1-.39-.11,1.27,1.27,0,0,1-.26-.26l-7.85-11.3V423c0,.33-.15.5-.5.5H437a.44.44,0,0,1-.5-.5Z"/><path class="cls-2" d="M457.51,407.18v9.65a4.06,4.06,0,0,0,.26,1.49,3.54,3.54,0,0,0,1.87,2.05,3.53,3.53,0,0,0,1.46.3,3.45,3.45,0,0,0,1.45-.3,3.56,3.56,0,0,0,1.13-.83,3.64,3.64,0,0,0,.73-1.22,4.06,4.06,0,0,0,.26-1.49v-9.65a.45.45,0,0,1,.15-.35.5.5,0,0,1,.37-.15h2.24a.67.67,0,0,1,.39.14.43.43,0,0,1,.18.36v9.65a6.56,6.56,0,0,1-.55,2.68,7,7,0,0,1-3.67,3.67,6.83,6.83,0,0,1-5.37,0,6.82,6.82,0,0,1-2.2-1.48,7,7,0,0,1-1.49-2.19,6.72,6.72,0,0,1-.54-2.68v-9.65a.51.51,0,0,1,.14-.34.41.41,0,0,1,.34-.16H457a.54.54,0,0,1,.35.15A.44.44,0,0,1,457.51,407.18Z"/><path class="cls-2" d="M471.43,423V407.13a.39.39,0,0,1,.43-.45h11.06a.4.4,0,0,1,.45.45v2.19a.4.4,0,0,1-.45.46h-8.19v3.41H481c.34,0,.5.15.5.45v2.15c0,.3-.16.45-.5.45h-6.24v4.14h8.39q.48,0,.48.45V423c0,.31-.16.46-.48.46H471.86C471.58,423.46,471.43,423.31,471.43,423Z"/><path class="cls-2" d="M485.59,420.9a1.45,1.45,0,0,1-.27-.41c-.07-.13,0-.28.15-.45l1.52-1.49a.39.39,0,0,1,.39-.12,1,1,0,0,1,.4.23c.23.23.48.46.76.69a6.37,6.37,0,0,0,.9.64,6.15,6.15,0,0,0,1.05.45,4.3,4.3,0,0,0,1.2.17,3.69,3.69,0,0,0,1.2-.18,2.93,2.93,0,0,0,.89-.49,2.1,2.1,0,0,0,.57-.7,1.84,1.84,0,0,0,.19-.83,1.32,1.32,0,0,0-.33-.91,3,3,0,0,0-.8-.64,5.55,5.55,0,0,0-1-.42c-.37-.12-.7-.21-1-.29a11.91,11.91,0,0,1-4.17-2,3.86,3.86,0,0,1-1.43-3.11,4.06,4.06,0,0,1,.44-1.9,4.48,4.48,0,0,1,1.24-1.48,6.07,6.07,0,0,1,1.94-1,8.8,8.8,0,0,1,2.48-.34,6.26,6.26,0,0,1,2.86.7,9.54,9.54,0,0,1,2.39,1.72.57.57,0,0,1,0,.88L495.85,411a.4.4,0,0,1-.43.12,1.7,1.7,0,0,1-.43-.26l-.62-.5a6.32,6.32,0,0,0-1.65-.9,3.12,3.12,0,0,0-1-.16,5.42,5.42,0,0,0-.89.07,2.75,2.75,0,0,0-.84.26,1.7,1.7,0,0,0-.62.54,1.58,1.58,0,0,0-.25.94,1.2,1.2,0,0,0,.24.75,2,2,0,0,0,.67.55,6.78,6.78,0,0,0,1,.44c.4.14.84.27,1.33.41a22.91,22.91,0,0,1,2.17.76,7.2,7.2,0,0,1,1.77,1,4.67,4.67,0,0,1,1.21,1.45,4.2,4.2,0,0,1,.45,2,4.37,4.37,0,0,1-.52,2.14,5.09,5.09,0,0,1-1.39,1.64,6.39,6.39,0,0,1-2,1,7.81,7.81,0,0,1-2.36.36,7.71,7.71,0,0,1-3.39-.77A8.86,8.86,0,0,1,485.59,420.9Z"/><path class="cls-2" d="M499.08,409.26v-2.15a.38.38,0,0,1,.43-.43h11.87c.3,0,.46.14.46.43v2.15a.4.4,0,0,1-.46.45H507V423c0,.31-.14.46-.43.46h-2.44c-.29,0-.43-.15-.43-.46V409.71h-4.23A.39.39,0,0,1,499.08,409.26Z"/><path class="cls-2" d="M514.25,423V407.13a.49.49,0,0,1,.11-.31.36.36,0,0,1,.32-.14h7.19a4.92,4.92,0,0,1,2.14.46,5.25,5.25,0,0,1,1.69,1.24,5.78,5.78,0,0,1,1.09,1.76,5.4,5.4,0,0,1,.4,2.06,5,5,0,0,1-.78,2.68,5.92,5.92,0,0,1-2.07,2l3.07,6.1a.31.31,0,0,1-.29.48H524.2a.57.57,0,0,1-.52-.39L521,417.65h-3.43V423a.4.4,0,0,1-.46.46h-2.42C514.4,423.46,514.25,423.31,514.25,423Zm6.83-13.4h-3.52v5.06h3.52a2.81,2.81,0,0,0,2-.71,2.36,2.36,0,0,0,.78-1.82,2.44,2.44,0,0,0-.21-1,2.26,2.26,0,0,0-.57-.8,2.75,2.75,0,0,0-.87-.53A3,3,0,0,0,521.08,409.6Z"/><path class="cls-2" d="M545.84,415.07a8.44,8.44,0,0,1-.68,3.36,8.73,8.73,0,0,1-1.85,2.73,8.84,8.84,0,0,1-2.76,1.84,8.67,8.67,0,0,1-6.73,0A8.66,8.66,0,0,1,531.09,409a8.64,8.64,0,0,1,2.73-1.84,8.67,8.67,0,0,1,6.73,0,9,9,0,0,1,2.76,1.84,8.66,8.66,0,0,1,1.85,2.74A8.47,8.47,0,0,1,545.84,415.07Zm-3.32,0a5.64,5.64,0,0,0-.41-2.15,5.49,5.49,0,0,0-1.12-1.73,5.32,5.32,0,0,0-1.68-1.16,5.17,5.17,0,0,0-2.13-.43,5.09,5.09,0,0,0-2.1.43,5.25,5.25,0,0,0-1.69,1.16,5.46,5.46,0,0,0-1.11,1.73,5.83,5.83,0,0,0-.39,2.15,5.74,5.74,0,0,0,.39,2.12,5.35,5.35,0,0,0,1.11,1.73,5.44,5.44,0,0,0,1.69,1.17,5.26,5.26,0,0,0,2.1.43,5.33,5.33,0,0,0,2.13-.43,5.51,5.51,0,0,0,1.68-1.17,5.38,5.38,0,0,0,1.12-1.73A5.56,5.56,0,0,0,542.52,415.07Z"/><path class="cls-2" d="M548.35,420.9a1.45,1.45,0,0,1-.27-.41c-.06-.13,0-.28.16-.45l1.51-1.49a.41.41,0,0,1,.4-.12,1,1,0,0,1,.39.23c.23.23.48.46.76.69a6.37,6.37,0,0,0,.9.64,5.92,5.92,0,0,0,1.06.45,4.17,4.17,0,0,0,1.19.17,3.61,3.61,0,0,0,1.2-.18,2.81,2.81,0,0,0,.89-.49,2.1,2.1,0,0,0,.57-.7,1.84,1.84,0,0,0,.19-.83,1.32,1.32,0,0,0-.33-.91,2.86,2.86,0,0,0-.8-.64,5.29,5.29,0,0,0-1-.42c-.37-.12-.7-.21-1-.29a11.74,11.74,0,0,1-4.17-2,3.84,3.84,0,0,1-1.44-3.11,4.18,4.18,0,0,1,.44-1.9,4.61,4.61,0,0,1,1.24-1.48,6.07,6.07,0,0,1,1.94-1,8.8,8.8,0,0,1,2.48-.34,6.26,6.26,0,0,1,2.86.7,9.36,9.36,0,0,1,2.39,1.72.57.57,0,0,1,0,.88L558.61,411a.4.4,0,0,1-.43.12,1.89,1.89,0,0,1-.43-.26l-.62-.5a6.32,6.32,0,0,0-1.65-.9,3.12,3.12,0,0,0-1-.16,5.6,5.6,0,0,0-.89.07,2.75,2.75,0,0,0-.84.26,1.79,1.79,0,0,0-.62.54,1.58,1.58,0,0,0-.25.94,1.2,1.2,0,0,0,.24.75,2,2,0,0,0,.68.55,6,6,0,0,0,1,.44c.4.14.84.27,1.32.41a22.91,22.91,0,0,1,2.17.76,7.46,7.46,0,0,1,1.78,1,5,5,0,0,1,1.21,1.45,4.2,4.2,0,0,1,.45,2,4.49,4.49,0,0,1-.52,2.14,5.22,5.22,0,0,1-1.39,1.64,6.33,6.33,0,0,1-2,1,7.87,7.87,0,0,1-5.75-.41A8.86,8.86,0,0,1,548.35,420.9Z"/><path class="cls-2" d="M581.29,419.54q.45-.33.72,0l1.14,1.93a.37.37,0,0,1,.13.35.65.65,0,0,1-.25.3,8.51,8.51,0,0,1-2.17,1.16,8.24,8.24,0,0,1-2.73.42,8.48,8.48,0,0,1-3.37-.67,8.82,8.82,0,0,1-2.77-1.86,8.6,8.6,0,0,1-2.55-6.13,8.37,8.37,0,0,1,.68-3.36,8.67,8.67,0,0,1,4.64-4.58,8.48,8.48,0,0,1,3.37-.67,8.24,8.24,0,0,1,2.73.42,8.44,8.44,0,0,1,2.19,1.14.43.43,0,0,1,.19.32.58.58,0,0,1,0,.25l-1.2,2c-.13.18-.34.19-.63,0a7.9,7.9,0,0,0-1.55-.76,4.74,4.74,0,0,0-1.68-.28A5.33,5.33,0,0,0,576,410a5,5,0,0,0-1.68,1.17,5.26,5.26,0,0,0-1.12,1.74,5.62,5.62,0,0,0-.41,2.14,5.73,5.73,0,0,0,.41,2.16,5.61,5.61,0,0,0,1.12,1.77,5.36,5.36,0,0,0,1.68,1.2,5.17,5.17,0,0,0,2.13.44,4.89,4.89,0,0,0,1.75-.31A5,5,0,0,0,581.29,419.54Z"/><path class="cls-2" d="M586.22,407.15a.51.51,0,0,1,.13-.35.55.55,0,0,1,.39-.14H589a.45.45,0,0,1,.5.49v13.23h6.6a.48.48,0,0,1,.35.14.49.49,0,0,1,.15.38V423c0,.32-.16.48-.5.5h-9.42a.44.44,0,0,1-.5-.5Z"/><path class="cls-2" d="M599.2,423V407.15c0-.31.15-.47.45-.47h2.44c.29,0,.43.16.43.47V423c0,.31-.14.46-.43.46h-2.44A.4.4,0,0,1,599.2,423Z"/><path class="cls-2" d="M606.18,423V407.13a.39.39,0,0,1,.43-.45h11.06a.4.4,0,0,1,.45.45v2.19a.4.4,0,0,1-.45.46h-8.19v3.41h6.24c.34,0,.5.15.5.45v2.15c0,.3-.16.45-.5.45h-6.24v4.14h8.39q.48,0,.48.45V423c0,.31-.16.46-.48.46H606.61C606.33,423.46,606.18,423.31,606.18,423Z"/><path class="cls-2" d="M620.7,407.18a.51.51,0,0,1,.12-.35.48.48,0,0,1,.38-.15h2.64a1,1,0,0,1,.37.08.53.53,0,0,1,.29.26l7.44,10.69V407a.38.38,0,0,1,.21-.27.61.61,0,0,1,.28-.07h2.29a.61.61,0,0,1,.36.14.43.43,0,0,1,.18.36V423c0,.33-.18.5-.54.5h-2.24a.62.62,0,0,1-.4-.11,1.59,1.59,0,0,1-.26-.26L624,411.79V423c0,.33-.15.5-.5.5H621.2a.44.44,0,0,1-.5-.5Z"/><path class="cls-2" d="M637.27,409.26v-2.15a.38.38,0,0,1,.43-.43h11.87c.3,0,.45.14.45.43v2.15a.4.4,0,0,1-.45.45h-4.34V423c0,.31-.14.46-.43.46h-2.44c-.29,0-.43-.15-.43-.46V409.71H637.7C637.41,409.71,637.27,409.56,637.27,409.26Z"/><path class="cls-2" d="M652.44,423V407.13c0-.3.14-.45.43-.45h11.06a.4.4,0,0,1,.45.45v2.19a.4.4,0,0,1-.45.46h-8.19v3.41H662c.33,0,.5.15.5.45v2.15c0,.3-.17.45-.5.45h-6.24v4.14h8.39q.48,0,.48.45V423c0,.31-.16.46-.48.46H652.87C652.58,423.46,652.44,423.31,652.44,423Z"/><path class="cls-2" d="M666.59,420.9a1.45,1.45,0,0,1-.27-.41c-.06-.13,0-.28.16-.45l1.52-1.49a.39.39,0,0,1,.39-.12,1,1,0,0,1,.4.23c.22.23.48.46.75.69a5.94,5.94,0,0,0,.91.64,5.53,5.53,0,0,0,1,.45,4.3,4.3,0,0,0,1.2.17,3.69,3.69,0,0,0,1.2-.18,3.05,3.05,0,0,0,.89-.49,2.1,2.1,0,0,0,.57-.7,2,2,0,0,0,.19-.83,1.32,1.32,0,0,0-.33-.91,3.17,3.17,0,0,0-.8-.64,5.55,5.55,0,0,0-1-.42c-.37-.12-.71-.21-1-.29a11.91,11.91,0,0,1-4.17-2,3.83,3.83,0,0,1-1.43-3.11,4.06,4.06,0,0,1,.44-1.9,4.37,4.37,0,0,1,1.24-1.48,6,6,0,0,1,1.93-1,8.92,8.92,0,0,1,2.49-.34,6.29,6.29,0,0,1,2.86.7,9.3,9.3,0,0,1,2.38,1.72.56.56,0,0,1,0,.88L676.86,411a.4.4,0,0,1-.43.12,1.54,1.54,0,0,1-.43-.26l-.62-.5a6,6,0,0,0-.77-.5,5.39,5.39,0,0,0-.88-.4,3.12,3.12,0,0,0-1-.16,5.63,5.63,0,0,0-.9.07,2.69,2.69,0,0,0-.83.26,1.7,1.7,0,0,0-.62.54,1.58,1.58,0,0,0-.25.94,1.26,1.26,0,0,0,.23.75,2.13,2.13,0,0,0,.68.55,6.38,6.38,0,0,0,1,.44c.4.14.84.27,1.33.41.76.23,1.49.48,2.17.76a7.39,7.39,0,0,1,1.77,1,4.67,4.67,0,0,1,1.21,1.45,4.2,4.2,0,0,1,.45,2,4.37,4.37,0,0,1-.52,2.14,5.09,5.09,0,0,1-1.39,1.64,6.39,6.39,0,0,1-2,1,7.81,7.81,0,0,1-2.36.36,7.71,7.71,0,0,1-3.39-.77A8.91,8.91,0,0,1,666.59,420.9Z"/><path class="cls-2" d="M688.53,423V407.13q0-.45.42-.45H700a.4.4,0,0,1,.45.45v2.19a.4.4,0,0,1-.45.46h-8.18v3.41h6.24c.33,0,.49.15.49.45v2.15c0,.3-.16.45-.49.45h-6.24v4.14h8.38q.48,0,.48.45V423c0,.31-.16.46-.48.46H689C688.67,423.46,688.53,423.31,688.53,423Z"/><path class="cls-2" d="M703,407.18a.51.51,0,0,1,.12-.35.48.48,0,0,1,.38-.15h2.64a1.08,1.08,0,0,1,.38.08.55.55,0,0,1,.28.26l7.44,10.69V407a.38.38,0,0,1,.21-.27.61.61,0,0,1,.28-.07h2.29a.61.61,0,0,1,.36.14.43.43,0,0,1,.18.36V423c0,.33-.18.5-.54.5h-2.24a.64.64,0,0,1-.4-.11,1.59,1.59,0,0,1-.26-.26l-7.84-11.3V423c0,.33-.15.5-.5.5h-2.28a.44.44,0,0,1-.5-.5Z"/><path class="cls-2" d="M731.12,407.18v9.65a4.28,4.28,0,0,0,.26,1.49,3.5,3.5,0,0,0,.74,1.22,3.29,3.29,0,0,0,1.14.83,3.5,3.5,0,0,0,1.46.3,3.41,3.41,0,0,0,1.44-.3,3.35,3.35,0,0,0,1.13-.83,3.66,3.66,0,0,0,.74-1.22,4.28,4.28,0,0,0,.26-1.49v-9.65a.45.45,0,0,1,.15-.35.48.48,0,0,1,.37-.15h2.24a.64.64,0,0,1,.38.14.43.43,0,0,1,.18.36v9.65a6.72,6.72,0,0,1-.54,2.68,7,7,0,0,1-3.67,3.67,6.83,6.83,0,0,1-5.37,0,6.87,6.87,0,0,1-2.21-1.48,6.94,6.94,0,0,1-1.48-2.19,6.72,6.72,0,0,1-.54-2.68v-9.65a.5.5,0,0,1,.13-.34.43.43,0,0,1,.34-.16h2.33a.52.52,0,0,1,.35.15A.44.44,0,0,1,731.12,407.18Z"/><path class="cls-2" d="M745.05,407.18a.51.51,0,0,1,.12-.35.46.46,0,0,1,.38-.15h2.64a1,1,0,0,1,.37.08.53.53,0,0,1,.29.26l7.43,10.69V407a.41.41,0,0,1,.22-.27.61.61,0,0,1,.28-.07h2.29a.61.61,0,0,1,.36.14.43.43,0,0,1,.18.36V423c0,.33-.18.5-.54.5h-2.24a.62.62,0,0,1-.4-.11,1.59,1.59,0,0,1-.26-.26l-7.84-11.3V423c0,.33-.15.5-.5.5h-2.28a.44.44,0,0,1-.5-.5Z"/><path class="cls-2" d="M435.82,486.1h7.89V450.93h-8.19v-9h18V486.1h7.29v8.42h-25Z"/><path class="cls-2" d="M465.12,464.39c0-31.42,46.14-31.34,46.14,0V472c0,31.33-46.14,31.41-46.14,0ZM475,472c0,19.08,26.45,19.08,26.45,0v-7.59c0-18.79-26.45-19-26.45,0Z"/><path class="cls-2" d="M517.42,464.39c0-31.42,46.14-31.34,46.14,0V472c0,31.33-46.14,31.41-46.14,0Zm9.85,7.59c0,19.08,26.45,19.08,26.45,0v-7.59c0-18.79-26.45-19-26.45,0Z"/><path class="cls-2" d="M581.82,464.54c-16.31,0-16.31-23.6,0-23.6S598.13,464.54,581.82,464.54Zm36.67-22.7L583.93,494.6H573.25l34.65-52.76Zm-36.67,15.78c6.46,0,6.46-9.84,0-9.84S575.36,457.62,581.82,457.62Zm28.56,37.43c-16.31,0-16.31-23.6,0-23.6S626.69,495.05,610.38,495.05Zm0-6.84c6.46,0,6.46-9.85,0-9.85S603.91,488.21,610.38,488.21Z"/><path class="cls-2" d="M291.1,382.09a1.24,1.24,0,0,1,.69-.29.7.7,0,0,1,.64.35l.8,1.22c.17.28.23.5.15.66a1.43,1.43,0,0,1-.47.51,19.08,19.08,0,0,1-12.33,4.36,20,20,0,0,1-7.92-1.6,20.4,20.4,0,0,1-6.48-4.35,20.76,20.76,0,0,1-4.36-6.49,19.93,19.93,0,0,1-1.59-7.91,19.66,19.66,0,0,1,1.59-7.92,20.34,20.34,0,0,1,18.76-12.28,19.06,19.06,0,0,1,6.77,1.17,21,21,0,0,1,5.66,3.19c.36.28.52.54.48.77a1.42,1.42,0,0,1-.11.45l-.9,1.17a1.82,1.82,0,0,1-.45.27.82.82,0,0,1-.82-.21,20.72,20.72,0,0,0-4.87-2.77,14.91,14.91,0,0,0-5.65-1.06,16.75,16.75,0,0,0-6.7,1.35,17.64,17.64,0,0,0-9.24,9.22,16.18,16.18,0,0,0-1.39,6.65,17,17,0,0,0,1.36,6.72,17.33,17.33,0,0,0,3.72,5.52,17.78,17.78,0,0,0,5.5,3.75,16.29,16.29,0,0,0,6.64,1.38,15.33,15.33,0,0,0,5.71-1.06A18.53,18.53,0,0,0,291.1,382.09Z"/><path class="cls-2" d="M297.16,368.65a19.72,19.72,0,0,1,1.59-7.89,20.78,20.78,0,0,1,4.33-6.45,20.16,20.16,0,0,1,6.43-4.36,20.13,20.13,0,0,1,15.73,0,20.16,20.16,0,0,1,6.43,4.36,21,21,0,0,1,4.33,6.45,20.32,20.32,0,0,1,0,15.76,20.85,20.85,0,0,1-4.33,6.4,20.57,20.57,0,0,1-6.43,4.33,20.32,20.32,0,0,1-15.76,0,20.4,20.4,0,0,1-10.73-10.73A19.59,19.59,0,0,1,297.16,368.65Zm3.08,0a16.6,16.6,0,0,0,1.35,6.67,17.59,17.59,0,0,0,3.67,5.42,17.3,17.3,0,0,0,5.45,3.66,17,17,0,0,0,13.33,0,17.3,17.3,0,0,0,5.45-3.66,17.59,17.59,0,0,0,3.67-5.42,17.08,17.08,0,0,0,0-13.31,17.15,17.15,0,0,0-9.12-9.12,17.13,17.13,0,0,0-13.33,0,17.15,17.15,0,0,0-9.12,9.12A16.6,16.6,0,0,0,300.24,368.6Z"/><path class="cls-2" d="M374.31,382.84v-33.1a.8.8,0,0,1,.9-.91h1.28c.6,0,.9.29.9.85v37.89c0,.49-.28.74-.85.74h-1.38a1,1,0,0,1-.56-.16,1.57,1.57,0,0,1-.4-.37L347.47,354v33.37a.84.84,0,0,1-1,.95H345.4a.84.84,0,0,1-.95-.95V349.84c0-.64.28-.95.85-.95H347a.5.5,0,0,1,.47.26Z"/><path class="cls-2" d="M404.54,349.84v22.69a14.06,14.06,0,0,0,1,5.26,13.62,13.62,0,0,0,2.71,4.28,12.37,12.37,0,0,0,4.12,2.87,13.13,13.13,0,0,0,5.26,1,13.42,13.42,0,0,0,5.34-1,12.39,12.39,0,0,0,4.15-2.87,13.2,13.2,0,0,0,2.68-4.28,14.25,14.25,0,0,0,1-5.26V349.84c0-.64.33-.95,1-.95h1a1.11,1.11,0,0,1,.75.26.87.87,0,0,1,.32.69V372.9a15.73,15.73,0,0,1-9.91,14.85,16.58,16.58,0,0,1-6.3,1.2,15.74,15.74,0,0,1-6.3-1.28,16.38,16.38,0,0,1-5.12-3.45,16.17,16.17,0,0,1-3.46-5.13,15.65,15.65,0,0,1-1.27-6.29v-23a1,1,0,0,1,.24-.69.83.83,0,0,1,.66-.26h1.17a1,1,0,0,1,.72.26A.91.91,0,0,1,404.54,349.84Z"/><path class="cls-2" d="M471.86,382.84v-33.1a.8.8,0,0,1,.9-.91H474c.6,0,.9.29.9.85v37.89c0,.49-.28.74-.85.74h-1.38a1,1,0,0,1-.56-.16,1.57,1.57,0,0,1-.4-.37L445,354v33.37a.85.85,0,0,1-1,.95H443a.85.85,0,0,1-1-.95V349.84c0-.64.28-.95.85-.95h1.7a.52.52,0,0,1,.48.26Z"/><path class="cls-2" d="M499.6,387.41V350a1.44,1.44,0,0,1,.18-.8.89.89,0,0,1,.77-.26h12.86a11.93,11.93,0,0,1,4.78.95,12.27,12.27,0,0,1,6.54,6.54,12.38,12.38,0,0,1,0,9.56,12.27,12.27,0,0,1-6.54,6.54,12,12,0,0,1-4.73.95H502.62v14a1.22,1.22,0,0,1-.15.69.78.78,0,0,1-.64.21h-1.38q-.58,0-.72-.21A1.33,1.33,0,0,1,499.6,387.41Zm23.06-26.25a9.13,9.13,0,0,0-.72-3.61,9.22,9.22,0,0,0-2-3,9.86,9.86,0,0,0-3-2,8.84,8.84,0,0,0-3.59-.74H502.62v18.7h10.79a8.84,8.84,0,0,0,3.59-.74,9.86,9.86,0,0,0,3-2,9.22,9.22,0,0,0,2-3A9.13,9.13,0,0,0,522.66,361.16Z"/><path class="cls-2" d="M548,348.89a11.86,11.86,0,0,1,4.81,1,12.22,12.22,0,0,1,3.9,2.66,12.37,12.37,0,0,1,3.56,8.74,12,12,0,0,1-2,6.8,12.09,12.09,0,0,1-5.26,4.46l6.7,14.77a.69.69,0,0,1,.05.69.65.65,0,0,1-.64.32h-1.86a.79.79,0,0,1-.69-.48L550,373.33l-1.06.18a7.62,7.62,0,0,1-1.23.08h-13v13.77a.85.85,0,0,1-1,.95h-1.11a.85.85,0,0,1-1-.95V349.79q0-.9,1-.9Zm-.9,21.67a11.77,11.77,0,0,0,3.85-.63,10.14,10.14,0,0,0,3.24-1.84,8.61,8.61,0,0,0,2.23-2.92,8.93,8.93,0,0,0,.82-3.9,9.17,9.17,0,0,0-2.71-6.59,9.71,9.71,0,0,0-3-2,9,9,0,0,0-3.67-.75H534.72v18.65Z"/><path class="cls-2" d="M565.48,368.65a19.56,19.56,0,0,1,1.6-7.89,20.61,20.61,0,0,1,4.33-6.45,19.94,19.94,0,0,1,6.43-4.36,20.11,20.11,0,0,1,15.72,0,19.94,19.94,0,0,1,6.43,4.36,20.61,20.61,0,0,1,4.33,6.45,20.2,20.2,0,0,1,0,15.76,20.32,20.32,0,0,1-10.76,10.73,19.72,19.72,0,0,1-7.89,1.59,19.51,19.51,0,0,1-7.86-1.59,20.4,20.4,0,0,1-10.73-10.73A19.43,19.43,0,0,1,565.48,368.65Zm3.08,0a16.61,16.61,0,0,0,1.36,6.67,17.1,17.1,0,0,0,9.11,9.08,17,17,0,0,0,13.34,0,17.19,17.19,0,0,0,9.11-9.08,17,17,0,0,0,0-13.31,17.16,17.16,0,0,0-3.67-5.45,17.45,17.45,0,0,0-5.44-3.67,17.15,17.15,0,0,0-13.34,0,17.61,17.61,0,0,0-5.45,3.67,17.3,17.3,0,0,0-3.66,5.45A16.61,16.61,0,0,0,568.56,368.6Z"/><path class="cls-2" d="M612.77,387.41V350a1.35,1.35,0,0,1,.19-.8c.12-.18.38-.26.77-.26h12.86a12,12,0,0,1,4.78.95,12.36,12.36,0,0,1,3.9,2.63,12.19,12.19,0,0,1,2.63,3.91,12.38,12.38,0,0,1,0,9.56,12.19,12.19,0,0,1-2.63,3.91,12.36,12.36,0,0,1-3.9,2.63,12,12,0,0,1-4.73.95H615.8v14a1.13,1.13,0,0,1-.16.69.78.78,0,0,1-.64.21h-1.38q-.58,0-.72-.21A1.45,1.45,0,0,1,612.77,387.41Zm23.06-26.25a9.33,9.33,0,0,0-2.71-6.59,9.74,9.74,0,0,0-3-2,8.79,8.79,0,0,0-3.58-.74H615.8v18.7h10.79a8.79,8.79,0,0,0,3.58-.74,9.74,9.74,0,0,0,3-2,9.33,9.33,0,0,0,2.71-6.59Z"/><path class="cls-2" d="M643,368.65a19.73,19.73,0,0,1,1.6-7.89,20.61,20.61,0,0,1,4.33-6.45,20,20,0,0,1,6.43-4.36,20.13,20.13,0,0,1,15.73,0,20.16,20.16,0,0,1,6.43,4.36,21,21,0,0,1,4.33,6.45,20.32,20.32,0,0,1,0,15.76,20.85,20.85,0,0,1-4.33,6.4,20.57,20.57,0,0,1-6.43,4.33,19.79,19.79,0,0,1-7.89,1.59,19.59,19.59,0,0,1-7.87-1.59,20.4,20.4,0,0,1-10.73-10.73A19.6,19.6,0,0,1,643,368.65Zm3.09,0a16.6,16.6,0,0,0,1.35,6.67,17.19,17.19,0,0,0,9.11,9.08,17,17,0,0,0,13.34,0,17.1,17.1,0,0,0,9.11-9.08A17,17,0,0,0,679,362a17.3,17.3,0,0,0-3.66-5.45,17.5,17.5,0,0,0-5.45-3.67,17.15,17.15,0,0,0-13.34,0,17.18,17.18,0,0,0-9.11,9.12A16.6,16.6,0,0,0,646.09,368.6Zm22.52-32L665.69,343a1.67,1.67,0,0,1-.45.59.88.88,0,0,1-.45.1H663.2a.46.46,0,0,1-.48-.26.92.92,0,0,1,.16-.75l2.76-6.48a1.34,1.34,0,0,1,.43-.56.83.83,0,0,1,.47-.13h1.76C668.83,335.55,668.93,335.89,668.61,336.56Z"/><path class="cls-2" d="M689.12,382.63a3.54,3.54,0,0,1-.42-.69c-.11-.25,0-.52.27-.8l1.06-.9a.73.73,0,0,1,.72-.14,1.69,1.69,0,0,1,.66.51,16.75,16.75,0,0,0,4.78,3.82,14.35,14.35,0,0,0,6.86,1.49,18.23,18.23,0,0,0,4.25-.5,11,11,0,0,0,3.66-1.6,8.55,8.55,0,0,0,2.58-2.74,7.35,7.35,0,0,0,1-3.87,5.12,5.12,0,0,0-1.19-3.46,9.44,9.44,0,0,0-3-2.26,18.21,18.21,0,0,0-3.8-1.35c-1.34-.32-2.57-.59-3.66-.8q-6.6-1.48-10-3.88a7.7,7.7,0,0,1-3.4-6.69,9,9,0,0,1,3.66-7.57q3.68-2.79,10.15-2.79a19.11,19.11,0,0,1,6.86,1.22,16.51,16.51,0,0,1,5.63,3.61,1,1,0,0,1,.29.67.89.89,0,0,1-.29.71l-.9,1a.82.82,0,0,1-.8.11,3.06,3.06,0,0,1-.8-.53,19.83,19.83,0,0,0-4.09-2.68,12.93,12.93,0,0,0-5.53-1.09,20.47,20.47,0,0,0-3.88.26,11.3,11.3,0,0,0-3.56,1.17,7.33,7.33,0,0,0-2.6,2.31,6.39,6.39,0,0,0-1,3.69,4.67,4.67,0,0,0,1,3,8.25,8.25,0,0,0,2.55,2.1,18,18,0,0,0,3.61,1.46c1.35.39,2.73.74,4.15,1.06,1.59.36,3.2.77,4.83,1.25a20,20,0,0,1,4.41,1.86,10,10,0,0,1,3.22,2.95,8,8,0,0,1,1.25,4.62,10.57,10.57,0,0,1-1.2,5.13A11,11,0,0,1,713.2,386a14.44,14.44,0,0,1-4.65,2.18,21.21,21.21,0,0,1-5.5.71,19.12,19.12,0,0,1-7.76-1.51A17.2,17.2,0,0,1,689.12,382.63Z"/><path class="cls-2" d="M724.3,387.36V349.84c0-.64.34-.95,1-.95h1.06c.67,0,1,.31,1,.95v37.52c0,.63-.34.95-1,.95h-1.06C724.64,388.31,724.3,388,724.3,387.36Z"/><path class="cls-2" d="M733.7,348.89h27.79a1.28,1.28,0,0,1,.75.23.85.85,0,0,1,.31.72V351c0,.64-.35,1-1.06,1H749.16v35.39a.84.84,0,0,1-.95.95h-1.12a.84.84,0,0,1-1-.95V352H733.7c-.63,0-1-.36-1-1.06v-1.07A.84.84,0,0,1,733.7,348.89Z"/><path class="cls-2" d="M761.76,368.65a19.72,19.72,0,0,1,1.59-7.89,20.78,20.78,0,0,1,4.33-6.45,20.16,20.16,0,0,1,6.43-4.36,20.13,20.13,0,0,1,15.73,0,20.16,20.16,0,0,1,6.43,4.36,20.78,20.78,0,0,1,4.33,6.45,20.32,20.32,0,0,1,0,15.76,20.32,20.32,0,0,1-10.76,10.73,20.32,20.32,0,0,1-15.76,0,20.4,20.4,0,0,1-10.73-10.73A19.59,19.59,0,0,1,761.76,368.65Zm3.08,0a16.6,16.6,0,0,0,1.35,6.67,17.59,17.59,0,0,0,3.67,5.42,17.3,17.3,0,0,0,5.45,3.66,17,17,0,0,0,13.33,0,17.3,17.3,0,0,0,5.45-3.66,17.59,17.59,0,0,0,3.67-5.42,17.08,17.08,0,0,0,0-13.31,17.15,17.15,0,0,0-9.12-9.12,17.13,17.13,0,0,0-13.33,0,17.15,17.15,0,0,0-9.12,9.12A16.6,16.6,0,0,0,764.84,368.6Z"/><path class="cls-2" d="M807.93,364.35a2.41,2.41,0,0,1,.72-1.78,2.34,2.34,0,0,1,1.72-.72,2.44,2.44,0,0,1,2.5,2.5,2.36,2.36,0,0,1-.71,1.72,2.44,2.44,0,0,1-1.79.72,2.46,2.46,0,0,1-2.44-2.44Zm0,22.1a2.41,2.41,0,0,1,.72-1.78,2.34,2.34,0,0,1,1.72-.72,2.44,2.44,0,0,1,2.5,2.5,2.39,2.39,0,0,1-.71,1.73,2.44,2.44,0,0,1-1.79.72,2.46,2.46,0,0,1-2.44-2.45Z"/><path class="cls-2" d="M258.16,320.56q0-.45.42-.45a.32.32,0,0,1,.23.07c.05.05.11.13.19.23a8.16,8.16,0,0,0,2.87,2.28,9.53,9.53,0,0,0,4.13.81,14,14,0,0,0,2.87-.28,7.28,7.28,0,0,0,2.41-1,5.09,5.09,0,0,0,1.68-1.71,5,5,0,0,0,.63-2.61,3.29,3.29,0,0,0-.78-2.28,5.94,5.94,0,0,0-1.93-1.42,11.65,11.65,0,0,0-2.46-.82c-.87-.19-1.67-.36-2.39-.5a14.36,14.36,0,0,1-5.6-2,4.19,4.19,0,0,1-1.79-3.6,5.37,5.37,0,0,1,.56-2.49,5.26,5.26,0,0,1,1.56-1.83,7,7,0,0,1,2.45-1.13,12.62,12.62,0,0,1,3.18-.37,12.36,12.36,0,0,1,3.75.52,7.79,7.79,0,0,1,3.12,2c.08.08.12.14.12.19v.17a.34.34,0,0,1-.39.39,1,1,0,0,1-.54-.33,12.47,12.47,0,0,0-1.27-1,5.89,5.89,0,0,0-1.31-.64,8.15,8.15,0,0,0-1.51-.36,14.05,14.05,0,0,0-2-.12,8.22,8.22,0,0,0-5.1,1.36,4.34,4.34,0,0,0-1.77,3.6,3.28,3.28,0,0,0,.55,1.91,4.75,4.75,0,0,0,1.49,1.35,9.32,9.32,0,0,0,2.14.92c.81.24,1.65.45,2.51.63l2.75.6a11.1,11.1,0,0,1,2.67,1,5.85,5.85,0,0,1,2,1.63,4.2,4.2,0,0,1,.79,2.65,6,6,0,0,1-.66,2.9,5.6,5.6,0,0,1-1.81,2,8.07,8.07,0,0,1-2.69,1.14,14.25,14.25,0,0,1-3.27.36,11.81,11.81,0,0,1-4.2-.73,8.06,8.06,0,0,1-3.46-2.66l-.13-.18A.36.36,0,0,1,258.16,320.56Z"/><path class="cls-2" d="M277.35,312.9a11.18,11.18,0,0,1,.88-4.42,11.39,11.39,0,0,1,2.43-3.64,11.61,11.61,0,0,1,3.62-2.44,11.38,11.38,0,0,1,8.87,0,11.4,11.4,0,0,1,6.08,6.08,11.38,11.38,0,0,1,0,8.87,11.59,11.59,0,0,1-2.45,3.61,11.37,11.37,0,0,1-3.63,2.44,11.62,11.62,0,0,1-8.87,0,11.38,11.38,0,0,1-6-6A11.18,11.18,0,0,1,277.35,312.9Zm.9,0a10.14,10.14,0,0,0,.82,4.07,10.55,10.55,0,0,0,5.59,5.58,10.37,10.37,0,0,0,8.13,0,10.85,10.85,0,0,0,3.35-2.25A10.5,10.5,0,0,0,298.4,317a10.37,10.37,0,0,0,0-8.13,10.66,10.66,0,0,0-5.61-5.62,10.49,10.49,0,0,0-8.13,0,10.46,10.46,0,0,0-3.34,2.27,10.85,10.85,0,0,0-2.25,3.35A10.09,10.09,0,0,0,278.25,312.9Z"/><path class="cls-2" d="M305,302q0-.24.33-.3a.41.41,0,0,1,.48.21l8.71,18.37,8.74-18.4a.32.32,0,0,1,.29-.21.68.68,0,0,1,.31.06.55.55,0,0,1,.18.33l1.83,21.43a.72.72,0,0,1-.11.36.33.33,0,0,1-.31.18q-.39,0-.45-.48l-1.68-19.75L315,321.58a.47.47,0,0,1-.42.33q-.24,0-.42-.33l-8.38-17.74-1.68,19.75a.4.4,0,0,1-.45.45q-.39,0-.39-.42v-.06Z"/><path class="cls-2" d="M329,312.9a11.18,11.18,0,0,1,.88-4.42,11.39,11.39,0,0,1,2.43-3.64,11.72,11.72,0,0,1,3.62-2.44,11.38,11.38,0,0,1,8.87,0,11.32,11.32,0,0,1,6.08,6.08,11.38,11.38,0,0,1,0,8.87,11.39,11.39,0,0,1-6.08,6,11.62,11.62,0,0,1-8.87,0,11.55,11.55,0,0,1-3.62-2.44,11.37,11.37,0,0,1-2.43-3.61A11.18,11.18,0,0,1,329,312.9Zm.9,0a10.14,10.14,0,0,0,.82,4.07,10.5,10.5,0,0,0,2.26,3.33,10.64,10.64,0,0,0,3.33,2.25,10.37,10.37,0,0,0,8.13,0,10.85,10.85,0,0,0,3.35-2.25A10.53,10.53,0,0,0,350,317a10.49,10.49,0,0,0,0-8.13,10.72,10.72,0,0,0-5.62-5.62,10.49,10.49,0,0,0-8.13,0,10.53,10.53,0,0,0-3.33,2.27,10.7,10.7,0,0,0-2.26,3.35A10.09,10.09,0,0,0,329.85,312.9Z"/><path class="cls-2" d="M354.46,320.56q0-.45.42-.45a.32.32,0,0,1,.23.07c.05.05.11.13.19.23a8.16,8.16,0,0,0,2.87,2.28,9.53,9.53,0,0,0,4.13.81,14,14,0,0,0,2.87-.28,7.28,7.28,0,0,0,2.41-1,5.09,5.09,0,0,0,1.68-1.71,5,5,0,0,0,.63-2.61,3.29,3.29,0,0,0-.78-2.28,5.94,5.94,0,0,0-1.93-1.42,11.65,11.65,0,0,0-2.46-.82c-.88-.19-1.67-.36-2.39-.5a14.36,14.36,0,0,1-5.6-2,4.19,4.19,0,0,1-1.79-3.6,5.37,5.37,0,0,1,.56-2.49,5.26,5.26,0,0,1,1.56-1.83,7,7,0,0,1,2.45-1.13,12.62,12.62,0,0,1,3.18-.37,12.36,12.36,0,0,1,3.75.52,7.79,7.79,0,0,1,3.12,2c.08.08.12.14.12.19v.17a.34.34,0,0,1-.39.39,1,1,0,0,1-.54-.33,12.47,12.47,0,0,0-1.27-1,5.89,5.89,0,0,0-1.31-.64,8.15,8.15,0,0,0-1.51-.36,14.05,14.05,0,0,0-2-.12,8.22,8.22,0,0,0-5.1,1.36,4.34,4.34,0,0,0-1.77,3.6,3.28,3.28,0,0,0,.55,1.91,4.75,4.75,0,0,0,1.49,1.35,9.32,9.32,0,0,0,2.14.92c.81.24,1.65.45,2.51.63l2.75.6a11.1,11.1,0,0,1,2.67,1,5.85,5.85,0,0,1,2,1.63,4.2,4.2,0,0,1,.79,2.65,6,6,0,0,1-.66,2.9,5.6,5.6,0,0,1-1.81,2,8.07,8.07,0,0,1-2.69,1.14,14.25,14.25,0,0,1-3.27.36,11.81,11.81,0,0,1-4.2-.73,8.06,8.06,0,0,1-3.46-2.66l-.13-.18A.36.36,0,0,1,354.46,320.56Z"/><path class="cls-2" d="M384.66,302.22v13.09a8.13,8.13,0,0,0,.65,3.22,8.24,8.24,0,0,0,1.75,2.63,8.36,8.36,0,0,0,5.86,2.4,8.36,8.36,0,0,0,5.85-2.4,8.26,8.26,0,0,0,1.76-2.63,8.12,8.12,0,0,0,.64-3.22V302.22q0-.48.45-.48t.42.48v13.21a8.92,8.92,0,0,1-.75,3.49,9.15,9.15,0,0,1-4.83,4.78,9.3,9.3,0,0,1-7.08,0,9.18,9.18,0,0,1-4.85-4.85,8.92,8.92,0,0,1-.71-3.54V302.22q0-.48.42-.48T384.66,302.22Z"/><path class="cls-2" d="M424.11,302.16a.37.37,0,0,1,.42-.42q.45,0,.45.42v21.55a.34.34,0,0,1-.39.33.49.49,0,0,1-.27-.06l-.18-.12-16.57-20.47v20.23a.42.42,0,0,1-.84,0V302.16q0-.42.33-.42a.4.4,0,0,1,.33.15l16.72,20.56Z"/><path class="cls-2" d="M428.28,323.41l9-21.34a.51.51,0,0,1,.21-.24.46.46,0,0,1,.18-.06h.09a.41.41,0,0,1,.16,0,.6.6,0,0,1,.23.26l8.94,21.34a1.25,1.25,0,0,1,.06.21.37.37,0,0,1-.15.32.51.51,0,0,1-.3.1h-.06a.34.34,0,0,1-.15,0,.52.52,0,0,1-.18-.26l-2.52-6H431.58l-2.52,6a.52.52,0,0,1-.18.26.34.34,0,0,1-.15,0h0a.52.52,0,0,1-.31-.09.32.32,0,0,1-.14-.3A.78.78,0,0,1,428.28,323.41Zm9.4-20.2-5.74,13.66h11.47Z"/><line id="_Trazado_2" data-name="&lt;Trazado&gt;" class="cls-1" x1="265" y1="291.77" x2="438.14" y2="291.77"/><line id="_Trazado_3" data-name="&lt;Trazado&gt;" class="cls-1" x1="265" y1="335.23" x2="438.14" y2="335.23"/><polygon class="cls-3" points="847.25 546.29 532.18 728.2 217.12 546.29 217.12 182.48 532.18 0.58 847.25 182.48 847.25 546.29"/><line id="_Trazado_4" data-name="&lt;Trazado&gt;" class="cls-1" x1="390.31" y1="463.82" x2="351.57" y2="463.82"/><g class="cls-4"><polygon class="cls-2" points="297.12 226.41 0 60.86 299.05 222.9 297.12 226.41"/></g><g id="_Grupo_" data-name="&lt;Grupo&gt;" class="cls-4"><polygon class="cls-2" points="737.16 476.82 1034.28 642.37 735.24 480.32 737.16 476.82"/></g></g></g></svg>