<svg xmlns="http://www.w3.org/2000/svg" viewBox="0 0 94.87 91.84"><defs><style>.cls-1{fill:#f29100;}</style></defs><title>Recurso 5</title><g id="Capa_2" data-name="Capa 2"><g id="Servicios"><path class="cls-1" d="M29.34,46.89C21,35.42,9.72,28,5,25.26a1.76,1.76,0,0,0-.37-.17,1.79,1.79,0,0,0-2.3,1.36C0,38.27-1.11,50.76,1.49,62.64,4.2,75,11.29,85,22.51,90.73a92.84,92.84,0,0,1-13-29.41c-.32-1.28,1-.91,1.39-.1A93.65,93.65,0,0,0,26.23,84.75c.47.54,1,1,1.47,1.55a58.85,58.85,0,0,1,.41-36.14q.57-1.65,1.23-3.27ZM45,91.84A63.3,63.3,0,0,0,71.31,75.93C82.51,64.73,89,49.73,92.23,34.35a125.56,125.56,0,0,0,2.48-32A2.45,2.45,0,0,0,93,.12a2.41,2.41,0,0,0-1.67.06c-76.19,30.71-63.49,77-57.86,90.43.71-.62,1.5-1.34,2.36-2.13,2.53-2.41,4.94-4.94,7.26-7.55,17-19.12,30.06-41.36,42.42-63.67a.66.66,0,0,1,1.19.58c-4.5,10.23-11,26.88-19.41,41.43A257.51,257.51,0,0,1,45,91.84Z"/></g></g></svg>