<svg xmlns="http://www.w3.org/2000/svg" viewBox="0 0 294.5 185.75"><defs><style>.cls-1,.cls-5{fill:#e68b17;}.cls-2{fill:#eba142;}.cls-3{fill:#f0b773;}.cls-4{font-size:140.97px;fill:#fff;font-family:NexaLight, Nexa Light;}.cls-5{font-size:34.89px;font-family:GothamExtraLight, Gotham ExtraLight;}</style></defs><title>logo-vertice</title><g id="Capa_2" data-name="Capa 2"><g id="SLIDER_3" data-name="SLIDER 3"><polygon class="cls-1" points="20.37 54.25 52.47 54.25 52.47 103.64 57.61 113.21 63.43 103.64 63.43 41.91 14.38 41.92 20.37 54.25"/><polygon class="cls-2" points="100.29 41.86 58.2 112.29 14.38 41.92 63.43 41.91 2.48 41.93 58.2 139.91 113.99 41.86 100.29 41.86"/><polygon class="cls-1" points="58.2 112.29 58.2 139.91 113.99 41.86 100.29 41.86 58.2 112.29"/><polygon class="cls-3" points="58.47 111.8 63.43 103.64 63.43 41.91 58.47 41.91 58.47 111.8"/><text class="cls-4" transform="translate(110.73 140.35)">E</text><text class="cls-4" transform="matrix(-1, 0, 0, 1, 294.5, 140.35)">R</text><text class="cls-5" transform="translate(0 29.65)">c o n s u l to r e s</text></g></g></svg>