<svg xmlns="http://www.w3.org/2000/svg" viewBox="0 0 283.32 136.17"><defs><style>.cls-1{fill:#e68b17;}.cls-2{fill:#eba142;}.cls-3{fill:#f0b773;}.cls-4{fill:#fff;}</style></defs><title>Recurso 4</title><g id="Capa_2" data-name="Capa 2"><g id="SLIDER_3" data-name="SLIDER 3"><polygon class="cls-1" points="18.35 50.07 50.45 50.07 50.45 99.46 55.59 109.02 61.41 99.46 61.41 37.72 12.36 37.74 18.35 50.07"/><polygon class="cls-2" points="98.27 37.68 56.18 108.1 12.36 37.74 61.41 37.72 0.46 37.74 56.18 135.72 111.97 37.68 98.27 37.68"/><polygon class="cls-1" points="56.18 108.1 56.18 135.72 111.97 37.68 98.27 37.68 56.18 108.1"/><polygon class="cls-3" points="56.45 107.62 61.41 99.46 61.41 37.72 56.45 37.73 56.45 107.62"/><path class="cls-4" d="M125.2,83H183v6.91H125.2v38.91h62.31v7.33H117.73V37.48h68.09v7.19H125.2Z"/><path class="cls-4" d="M239.47,98.38c-21.57,0-32.14-14.1-32-30.17.14-15.36,11-30.73,32.43-30.73h43.42v98.68H275.7V98.8H248.78l-34.12,37.36h-10ZM275.7,44.53H239.9c-16.36,0-24.25,12-24.11,23.54.14,13.82,7.75,23.54,25,23.54h35Z"/><path class="cls-1" d="M9,25.89a8.56,8.56,0,0,1-3.53-.74,8.9,8.9,0,0,1-2.84-2A9.44,9.44,0,0,1,.7,20.25,8.91,8.91,0,0,1,0,16.71v-.07a9,9,0,0,1,.7-3.52,9.26,9.26,0,0,1,1.9-2.93,8.93,8.93,0,0,1,2.84-2A8.62,8.62,0,0,1,9,7.47a8.63,8.63,0,0,1,2.23.27,8.47,8.47,0,0,1,1.85.71,9.71,9.71,0,0,1,1.57,1A13.61,13.61,0,0,1,16,10.75l-.8.8a11.89,11.89,0,0,0-2.65-2.11A6.86,6.86,0,0,0,9,8.55a7.34,7.34,0,0,0-3.09.64,7.93,7.93,0,0,0-4.1,4.29,8.15,8.15,0,0,0-.59,3.13v.07a8.06,8.06,0,0,0,.61,3.14,8.18,8.18,0,0,0,1.67,2.59A7.89,7.89,0,0,0,6,24.16,7.34,7.34,0,0,0,9,24.8a6.84,6.84,0,0,0,3.62-.92,11.59,11.59,0,0,0,2.69-2.21l.8.69a11.87,11.87,0,0,1-3,2.51A8,8,0,0,1,9,25.89Z"/><path class="cls-1" d="M38.83,25.89a9.12,9.12,0,0,1-3.7-.74,8.86,8.86,0,0,1-2.88-2,9,9,0,0,1-1.86-2.92,9.16,9.16,0,0,1-.67-3.5v-.07a9.35,9.35,0,0,1,.67-3.53,9.07,9.07,0,0,1,16.88-.05,9.4,9.4,0,0,1,.66,3.51v.07a9.53,9.53,0,0,1-.66,3.52,8.93,8.93,0,0,1-1.86,2.93,9.21,9.21,0,0,1-2.88,2A9,9,0,0,1,38.83,25.89Zm0-1.09a7.69,7.69,0,0,0,5.7-2.39,8.06,8.06,0,0,0,1.62-2.57,8.33,8.33,0,0,0,.58-3.13v-.07a8.23,8.23,0,0,0-2.26-5.7,8.11,8.11,0,0,0-8.91-1.75,7.38,7.38,0,0,0-2.48,1.75,8.08,8.08,0,0,0-1.61,2.58,8.28,8.28,0,0,0-.58,3.12v.07a8.34,8.34,0,0,0,.59,3.13,8.17,8.17,0,0,0,1.66,2.57,8,8,0,0,0,2.52,1.75A7.71,7.71,0,0,0,38.85,24.8Z"/><path class="cls-1" d="M63.21,7.88h1.12v4.19a9,9,0,0,1,.87-1.59A7.57,7.57,0,0,1,66.6,9a7.1,7.1,0,0,1,2-1.1,7.49,7.49,0,0,1,2.55-.41A8.07,8.07,0,0,1,74.19,8a6.34,6.34,0,0,1,2.26,1.59,7.13,7.13,0,0,1,1.42,2.44,9.74,9.74,0,0,1,.49,3.13V25.47H77.24V15.37a7.34,7.34,0,0,0-1.61-4.94A5.77,5.77,0,0,0,71,8.55a6.27,6.27,0,0,0-2.6.54,6.46,6.46,0,0,0-2.09,1.48,7,7,0,0,0-1.42,2.22,7.52,7.52,0,0,0-.52,2.79v9.89H63.21Z"/><path class="cls-1" d="M100.06,25.78a10.84,10.84,0,0,1-3.79-.7,11.26,11.26,0,0,1-3.37-1.91l.67-.88a11.54,11.54,0,0,0,3.14,1.78,9.67,9.67,0,0,0,3.39.63,7.33,7.33,0,0,0,2-.26,4.93,4.93,0,0,0,1.6-.75,3.47,3.47,0,0,0,1.06-1.17,2.89,2.89,0,0,0,.38-1.48V21a2.63,2.63,0,0,0-.45-1.57,3.76,3.76,0,0,0-1.2-1.06,9.17,9.17,0,0,0-1.7-.75c-.64-.21-1.3-.41-2-.59s-1.59-.48-2.33-.74a9.26,9.26,0,0,1-1.95-.9,4.34,4.34,0,0,1-1.32-1.27,3.38,3.38,0,0,1-.48-1.86v-.07a3.84,3.84,0,0,1,.43-1.81,4.62,4.62,0,0,1,1.22-1.47,5.86,5.86,0,0,1,1.88-1,8.1,8.1,0,0,1,2.45-.35,10.49,10.49,0,0,1,3.15.52,12,12,0,0,1,3,1.47l-.63.94a9.85,9.85,0,0,0-2.7-1.38,9.39,9.39,0,0,0-2.85-.47,5.62,5.62,0,0,0-3.48,1,3,3,0,0,0-1.3,2.46v.07a2.26,2.26,0,0,0,.44,1.41,4,4,0,0,0,1.16,1,8.52,8.52,0,0,0,1.69.75c.64.21,1.31.41,2,.62s1.56.45,2.3.7a8.83,8.83,0,0,1,1.95.94A4.57,4.57,0,0,1,105.8,19a3.62,3.62,0,0,1,.5,1.95V21a3.93,3.93,0,0,1-.49,2,4.69,4.69,0,0,1-1.32,1.52,6.31,6.31,0,0,1-2,1A8,8,0,0,1,100.06,25.78Z"/><path class="cls-1" d="M128.7,25.89a8,8,0,0,1-3.09-.56,6.13,6.13,0,0,1-2.27-1.59,7,7,0,0,1-1.41-2.44,9.37,9.37,0,0,1-.49-3.12V7.88h1.12V18a7.34,7.34,0,0,0,1.6,4.94,5.79,5.79,0,0,0,4.68,1.88,6.46,6.46,0,0,0,2.6-.53,6.62,6.62,0,0,0,2.09-1.48,7.18,7.18,0,0,0,1.41-2.23,7.33,7.33,0,0,0,.53-2.79V7.88h1.11V25.47h-1.11V21.28a8,8,0,0,1-.88,1.61,7,7,0,0,1-3.36,2.58A7.26,7.26,0,0,1,128.7,25.89Z"/><path class="cls-1" d="M153.33,0h1.18V25.47h-1.18Z"/><path class="cls-1" d="M176.84,25.78a4.75,4.75,0,0,1-3.4-1.2A4.74,4.74,0,0,1,172.17,21V8.9h-2.69v-1h2.69V2h1.11V7.88h6.39v1h-6.39V20.84a3.92,3.92,0,0,0,1,2.9,3.65,3.65,0,0,0,2.7,1,6.71,6.71,0,0,0,2.66-.59v1.08A6.35,6.35,0,0,1,176.84,25.78Z"/><path class="cls-1" d="M192.47,25.89a9.12,9.12,0,0,1-3.7-.74,8.86,8.86,0,0,1-2.88-2A9,9,0,0,1,184,20.25a9.16,9.16,0,0,1-.67-3.5v-.07a9.35,9.35,0,0,1,.67-3.53,9.07,9.07,0,0,1,16.88-.05,9.4,9.4,0,0,1,.66,3.51v.07a9.53,9.53,0,0,1-.66,3.52,8.93,8.93,0,0,1-1.86,2.93,9.21,9.21,0,0,1-2.88,2A9,9,0,0,1,192.47,25.89Zm0-1.09a7.69,7.69,0,0,0,5.7-2.39,8.06,8.06,0,0,0,1.62-2.57,8.33,8.33,0,0,0,.58-3.13v-.07a8.23,8.23,0,0,0-2.26-5.7,8.11,8.11,0,0,0-8.91-1.75,7.38,7.38,0,0,0-2.48,1.75,8.08,8.08,0,0,0-1.61,2.58,8.28,8.28,0,0,0-.58,3.12v.07a8.34,8.34,0,0,0,.59,3.13,8.17,8.17,0,0,0,1.66,2.57,8,8,0,0,0,2.52,1.75A7.71,7.71,0,0,0,192.49,24.8Z"/><path class="cls-1" d="M216.85,7.88H218v5.38a9.76,9.76,0,0,1,1.08-2.17,9,9,0,0,1,1.64-1.84A7.61,7.61,0,0,1,222.84,8a6.55,6.55,0,0,1,2.6-.43V8.69h-.18a6.27,6.27,0,0,0-2.95.71,7.64,7.64,0,0,0-2.3,1.89,8.87,8.87,0,0,0-1.5,2.7,9.38,9.38,0,0,0-.54,3.14v8.34h-1.12Z"/><path class="cls-1" d="M247,25.89a8.92,8.92,0,0,1-3.38-.65,8.31,8.31,0,0,1-2.78-1.85A8.93,8.93,0,0,1,239,20.48a10.08,10.08,0,0,1-.7-3.8v-.07a10.17,10.17,0,0,1,.63-3.6,9.1,9.1,0,0,1,1.76-2.91,8.26,8.26,0,0,1,2.67-1.94,8.1,8.1,0,0,1,3.35-.69,7.45,7.45,0,0,1,3.49.78,7.87,7.87,0,0,1,2.53,2.08,8.79,8.79,0,0,1,1.54,2.94,12,12,0,0,1,.5,3.44v.38H239.46a8.69,8.69,0,0,0,.72,3.22,7.77,7.77,0,0,0,1.67,2.43,7.07,7.07,0,0,0,2.36,1.53,7.53,7.53,0,0,0,2.83.53,7.17,7.17,0,0,0,3.68-.94,9.16,9.16,0,0,0,2.66-2.3l.84.66a10.57,10.57,0,0,1-3,2.62A8.12,8.12,0,0,1,247,25.89Zm6.54-9.81a9.73,9.73,0,0,0-.55-2.77,7.9,7.9,0,0,0-1.33-2.42,6.53,6.53,0,0,0-2.14-1.7,6.41,6.41,0,0,0-2.93-.64,6.77,6.77,0,0,0-5,2.15,7.72,7.72,0,0,0-1.51,2.4,9.1,9.1,0,0,0-.63,3Z"/><path class="cls-1" d="M275.4,25.78a10.84,10.84,0,0,1-3.79-.7,11.26,11.26,0,0,1-3.37-1.91l.67-.88a11.54,11.54,0,0,0,3.14,1.78,9.67,9.67,0,0,0,3.39.63,7.33,7.33,0,0,0,2-.26,4.93,4.93,0,0,0,1.6-.75,3.47,3.47,0,0,0,1.06-1.17,2.89,2.89,0,0,0,.38-1.48V21a2.63,2.63,0,0,0-.45-1.57,3.76,3.76,0,0,0-1.2-1.06,9.17,9.17,0,0,0-1.7-.75c-.64-.21-1.3-.41-2-.59s-1.59-.48-2.33-.74a9.26,9.26,0,0,1-1.95-.9,4.34,4.34,0,0,1-1.32-1.27,3.38,3.38,0,0,1-.48-1.86v-.07a3.84,3.84,0,0,1,.43-1.81,4.62,4.62,0,0,1,1.22-1.47,5.86,5.86,0,0,1,1.88-1A8.1,8.1,0,0,1,275,7.57a10.49,10.49,0,0,1,3.15.52,12,12,0,0,1,3,1.47l-.63.94a9.77,9.77,0,0,0-2.71-1.38A9.28,9.28,0,0,0,275,8.65a5.62,5.62,0,0,0-3.48,1,3,3,0,0,0-1.3,2.46v.07a2.26,2.26,0,0,0,.44,1.41,4,4,0,0,0,1.16,1,8.52,8.52,0,0,0,1.69.75c.64.21,1.31.41,2,.62s1.56.45,2.3.7a8.83,8.83,0,0,1,1.95.94A4.57,4.57,0,0,1,281.14,19a3.62,3.62,0,0,1,.5,1.95V21a3.93,3.93,0,0,1-.49,2,4.69,4.69,0,0,1-1.32,1.52,6.31,6.31,0,0,1-2,1A8,8,0,0,1,275.4,25.78Z"/></g></g></svg>